<?xml version="1.0" encoding="utf-8"?>
<!-- Generator: Adobe Illustrator 22.1.0, SVG Export Plug-In . SVG Version: 6.00 Build 0)  -->
<svg version="1.1" id="Layer_1" xmlns="http://www.w3.org/2000/svg" xmlns:xlink="http://www.w3.org/1999/xlink" x="0px" y="0px"
	 viewBox="0 0 250.7 225.1" style="enable-background:new 0 0 250.7 225.1;" xml:space="preserve">
<style type="text/css">
	.st0{opacity:0.2;fill:#EC7E73;enable-background:new    ;}
	.st1{fill:#3F3D56;}
	.st2{fill:#FF6584;}
	.st3{fill:#EC7E73;}
	.st4{fill:#CCCCCC;}
	.st5{fill:#F2F2F2;}
	.st6{opacity:0.1;enable-background:new    ;}
</style>
<g transform="translate(3211.426 -27)">
	<path class="st0" d="M-3007,164.7c-0.8,10.8,5,65.7-46.5,63.6s-53.6-38.2-98.1-34.5s-53.6-70.2-19.5-77.7s67.7-3.3,91-23.7
		s89.8-24.5,84.8,7.1s-21.6,34.9-19.1,49.9S-3006.1,153.9-3007,164.7z"/>
	<g transform="translate(-3211.426 27)">
		<path class="st1" d="M18.9,191.5l-0.5-0.1c13.1-57.9,70.7-94.2,128.6-81.1c40.3,9.1,71.8,40.6,81.1,80.9l-0.5,0.1
			c-10.9-48.8-54.3-83.4-104.3-83.1C73.7,108.1,29.8,143.2,18.9,191.5z"/>
		<circle class="st2" cx="86.6" cy="40.5" r="13.1"/>
		<path class="st1" d="M30,188.5c0.3,1,1,1.9,1.8,2.5c1-1.9,0.4-4.3-1.5-5.5C29.9,186.4,29.7,187.5,30,188.5z"/>
		<path class="st3" d="M30.6,188.2c0.7,0.8,1.1,1.7,1.3,2.8c-2.2-0.1-4-1.8-4.1-4C28.8,187.1,29.8,187.5,30.6,188.2z"/>
		<path class="st1" d="M61.2,188.5c0.3,1,1,1.9,1.8,2.5c1-1.9,0.4-4.3-1.5-5.5C61.1,186.4,61,187.5,61.2,188.5z"/>
		<path class="st3" d="M61.8,188.2c0.7,0.8,1.1,1.7,1.3,2.8c-2.2-0.1-4-1.8-4.1-4C60,187.1,61,187.5,61.8,188.2z"/>
		<path class="st3" d="M67.4,67.8l-4.9-4l27.7-24.7h70.2v21.8l-45.5,30.6L67.4,67.8z"/>
		<path class="st4" d="M173.1,53V39.6h-9.3v3.3l-3.5-3.8l-22.7,24.7l-8.9,5.9l-13.8,100.8l20.8,20.8H184V64.8L173.1,53z"/>
		<rect x="62.4" y="63.8" class="st5" width="75.1" height="127.5"/>
		<rect x="91.6" y="160.2" class="st4" width="13.8" height="31.1"/>
		<path class="st1" d="M76.8,169.1v-4.9h-5.9v4.9H76.8z"/>
		<path class="st1" d="M76.3,173.1h-5.4v4.9h5.9v-4.9H76.3z"/>
		<rect x="80.7" y="164.2" class="st1" width="5.9" height="4.9"/>
		<rect x="80.7" y="173.1" class="st1" width="5.9" height="4.9"/>
		<path class="st1" d="M117.3,169.1v-4.9h-5.9v4.9H117.3z"/>
		<path class="st1" d="M116.8,173.1h-5.4v4.9h5.9v-4.9H116.8z"/>
		<rect x="121.3" y="164.2" class="st1" width="5.9" height="4.9"/>
		<rect x="121.3" y="173.1" class="st1" width="5.9" height="4.9"/>
		<path class="st1" d="M158.8,70.2v-4.9h-5.9v4.9H158.8z"/>
		<path class="st1" d="M158.3,74.2h-5.4v4.9h5.9v-4.9H158.3z"/>
		<rect x="162.8" y="65.3" class="st1" width="5.9" height="4.9"/>
		<rect x="162.8" y="74.2" class="st1" width="5.9" height="4.9"/>
		<path class="st1" d="M158.8,97.9V93h-5.9v4.9H158.8z"/>
		<path class="st1" d="M158.3,101.9h-5.4v4.9h5.9v-4.9H158.3z"/>
		<rect x="162.8" y="93" class="st1" width="5.9" height="4.9"/>
		<rect x="162.8" y="101.9" class="st1" width="5.9" height="4.9"/>
		<path class="st1" d="M158.8,125.6v-4.9h-5.9v4.9H158.8z"/>
		<path class="st1" d="M158.3,129.6h-5.4v4.9h5.9v-4.9H158.3z"/>
		<rect x="162.8" y="120.7" class="st1" width="5.9" height="4.9"/>
		<rect x="162.8" y="129.6" class="st1" width="5.9" height="4.9"/>
		<path class="st1" d="M158.8,153.3v-4.9h-5.9v4.9L158.8,153.3L158.8,153.3z"/>
		<path class="st1" d="M158.3,157.2h-5.4v4.9h5.9v-4.9H158.3z"/>
		<rect x="162.8" y="148.3" class="st1" width="5.9" height="4.9"/>
		<rect x="162.8" y="157.2" class="st1" width="5.9" height="4.9"/>
		<rect x="70.8" y="70.2" class="st3" width="57.3" height="11.9"/>
		<rect x="70.8" y="94" class="st3" width="57.3" height="11.9"/>
		<rect x="70.8" y="117.7" class="st3" width="57.3" height="11.9"/>
		<rect x="70.8" y="141.4" class="st3" width="57.3" height="11.9"/>
		<path class="st1" d="M8.7,190.9h229.1v0.5L9,191.5L8.7,190.9z"/>
		<rect x="31.7" y="135" class="st1" width="1.4" height="56.2"/>
		<path class="st3" d="M46.3,142.1c0.1,19.6-13.7,35.6-13.7,35.6s-14-15.9-14.1-35.5s13.7-35.6,13.7-35.6S46.2,122.5,46.3,142.1z"/>
		<path class="st6" d="M46.3,142.1c0.1,19.6-13.7,35.6-13.7,35.6s-14-15.9-14.1-35.5s13.7-35.6,13.7-35.6S46.2,122.5,46.3,142.1z"/>
		<rect x="13.2" y="135" class="st1" width="1.4" height="56.2"/>
		<path class="st3" d="M27.8,142.1c0.1,19.6-13.7,35.6-13.7,35.6S0.1,161.9,0,142.3s13.7-35.6,13.7-35.6S27.7,122.5,27.8,142.1z"/>
		<path class="st5" d="M214.5,63.7c-11.2,0.1-20.3,0.2-20.3,0.2s10.8-14.4,20.3-9c6.5,3.5,13.3,6.5,20.3,8.8
			C234.7,63.8,225.7,63.7,214.5,63.7z"/>
		<path class="st5" d="M27.9,91.3c-11.2,0.1-20.3,0.2-20.3,0.2s10.8-14.4,20.3-9c6.5,3.5,13.3,6.5,20.3,8.8
			C48.1,91.4,39.1,91.3,27.9,91.3z"/>
		<path class="st5" d="M68.5,33.7c-11.2,0.1-20.3,0.2-20.3,0.2s10.8-14.4,20.3-9c6.5,3.5,13.3,6.5,20.3,8.8
			C88.8,33.8,79.7,33.7,68.5,33.7z"/>
		<rect x="236.2" y="135" class="st1" width="1.4" height="56.2"/>
		<path class="st3" d="M250.7,142.1c0.1,19.6-13.7,35.6-13.7,35.6s-14-15.9-14.1-35.5s13.7-35.6,13.7-35.6S250.6,122.5,250.7,142.1z
			"/>
	</g>
</g>
</svg>
