<svg xmlns="http://www.w3.org/2000/svg" viewBox="551 122 163.3 48.53">
  <defs>
    <style>
      .cls-1 {
        fill: #ec7e73;
      }

      .cls-2 {
        fill: #fd6a5a;
      }

      .cls-3 {
        fill: #231f20;
      }
    </style>
  </defs>
  <g id="apatel_logo" data-name="apatel logo" transform="translate(551 122)">
    <g id="Group_11" data-name="Group 11">
      <path id="Path_21" data-name="Path 21" class="cls-1" d="M28.338,23.125V48.452H0V17.811A17.83,17.83,0,0,1,15.763.1C18.243.808,28.338,4.7,28.338,23.125Z" transform="translate(0 0.077)"/>
      <path id="Path_22" data-name="Path 22" class="cls-2" d="M29.091,17.889A17.991,17.991,0,0,0,11.025,0,8.623,8.623,0,0,0,8.9.177c2.48.708,12.4,4.6,12.4,23.025V48.53h7.616V17.889Z" transform="translate(6.863)"/>
    </g>
    <g id="XMLID_1_" transform="translate(44.102 9.918)">
      <path id="XMLID_15_" class="cls-3" d="M40.309,28.034h0a7.144,7.144,0,0,1-6.376,3.188c-5.668,0-9.033-4.782-9.033-10.273S28.619,10.5,34.11,10.5a7.128,7.128,0,0,1,6.376,3.365h0V11.031H45.8v19.66H40.309ZM35.527,14.928c-3.188,0-4.959,2.657-4.959,5.845,0,3.011,1.594,5.845,4.782,5.845,3.365,0,5.136-2.834,5.136-5.668C40.486,17.407,38.715,14.928,35.527,14.928Z" transform="translate(-24.9 -1.821)"/>
      <path id="XMLID_12_" class="cls-3" d="M40.1,11.031h5.313v2.834h0A7.527,7.527,0,0,1,51.79,10.5C57.28,10.5,61,15.459,61,20.95s-3.365,10.273-9.033,10.273a7.262,7.262,0,0,1-6.2-3.188h0V39.37H40.277V11.031Zm10.1,3.9c-3.188,0-4.959,2.657-4.959,5.845,0,3.011,1.594,5.668,5.136,5.668,3.188,0,4.782-2.834,4.782-5.845C55.332,17.585,53.561,14.928,50.2,14.928Z" transform="translate(-13.179 -1.821)"/>
      <path id="XMLID_9_" class="cls-3" d="M69.109,28.034h0a7.144,7.144,0,0,1-6.376,3.188c-5.668,0-9.033-4.782-9.033-10.273S57.419,10.5,62.91,10.5a7.128,7.128,0,0,1,6.376,3.365h0V11.031H74.6v19.66H69.109ZM64.5,14.928c-3.188,0-4.959,2.657-4.959,5.845,0,3.011,1.594,5.845,4.782,5.845,3.365,0,5.136-2.834,5.136-5.668C69.286,17.407,67.515,14.928,64.5,14.928Z" transform="translate(-2.691 -1.821)"/>
      <path id="XMLID_7_" class="cls-3" d="M67.677,13.268h2.48V7.6h5.491v5.668h2.834v4.251H75.647v9.918c0,.886.354,1.24,1.771,1.24a1.918,1.918,0,0,0,1.063-.177V32.75a13.405,13.405,0,0,1-2.657.177c-3.542,0-5.845-.886-5.845-5.136V17.164H67.5v-3.9Z" transform="translate(7.951 -4.058)"/>
      <path id="XMLID_4_" class="cls-3" d="M81.145,22.367c.177,2.3,1.594,4.6,4.6,4.6a4.205,4.205,0,0,0,3.9-2.3l5.313.354c-1.417,4.074-4.959,6.2-9.564,6.2-6.022,0-10.1-4.074-10.1-10.273,0-6.376,4.074-10.45,10.1-10.45s10.1,4.074,10.1,10.45v1.594H81.145ZM90,18.824a4.428,4.428,0,0,0-4.251-4.251c-2.834,0-4.251,1.948-4.6,4.251H90Z" transform="translate(13.966 -1.821)"/>
      <path id="XMLID_2_" class="cls-3" d="M89.1,5.6h5.491V34.47H89.1Z" transform="translate(24.608 -5.6)"/>
    </g>
  </g>
</svg>
