<?xml version="1.0" encoding="utf-8"?>
<!-- Generator: Adobe Illustrator 22.1.0, SVG Export Plug-In . SVG Version: 6.00 Build 0)  -->
<svg version="1.1" id="Layer_1" xmlns="http://www.w3.org/2000/svg" xmlns:xlink="http://www.w3.org/1999/xlink" x="0px" y="0px"
	 viewBox="0 0 245.7 220.6" style="enable-background:new 0 0 245.7 220.6;" xml:space="preserve">
<style type="text/css">
	.st0{opacity:0.1;fill:#EC7E73;enable-background:new    ;}
	.st1{fill:#FFFFFF;}
	.st2{fill:#D0D0DB;}
	.st3{fill:url(#SVGID_1_);}
	.st4{fill:#0EC233;}
	.st5{opacity:5.000000e-02;enable-background:new    ;}
	.st6{fill:#5F546F;}
	.st7{fill:#CCCCD8;}
	.st8{opacity:0.1;enable-background:new    ;}
	.st9{opacity:0.1;fill:#FFFFFF;enable-background:new    ;}
	.st10{fill:#C27099;}
	.st11{fill:#4C4981;}
	.st12{fill:#63345E;}
	.st13{opacity:0.1;}
	.st14{fill:url(#SVGID_2_);}
	.st15{fill:#AEA4B2;}
	.st16{fill:#FFC4D0;}
	.st17{fill:#575989;}
	.st18{fill:#AE757A;}
	.st19{fill:none;}
	.st20{fill:#EC7E73;}
	.st21{fill:#FD6A5A;}
	.st22{fill:#D4DFEC;}
	.st23{fill:#444053;}
</style>
<g transform="translate(633 3011)">
	<path class="st0" d="M-387.4-2938.9c0,0.3,0,0.6-0.1,0.9c-0.3,2.7-0.9,5.4-2,8c-3.6,8.5-10.7,14.9-18.3,20.1l-0.5,0.3
		c-1.4,0.9-2.8,1.8-4.2,2.7l-0.1,0.1l-0.1,0.1l-0.3,0.2c-0.2,0.1-0.4,0.3-0.6,0.4l-0.3,0.2l-1.5,0.9l-1.4,0.8l0,0l-2.6,1.6
		c-2.9,1.7-5.7,3.5-8.5,5.4l-0.4,0.3c-0.2,0.1-0.4,0.3-0.6,0.4c-1,0.7-2.1,1.5-3.1,2.3c-0.2,0.2-0.4,0.3-0.6,0.5
		c-2,1.6-3.8,3.4-5.4,5.5c-1.3,1.7-2.1,3.7-2.4,5.8c-0.4,3.4,0.7,6.7,2.4,9.8c1,2.1,2.3,4.1,3.4,6.1c0.4,0.7,0.7,1.3,1.1,2
		c0.6,1.2,1.1,2.4,1.6,3.6c1,2.5,1.1,5.4,0.1,7.9c-1.1,2.9-3.4,4.8-6.2,6.3c-1.5,0.8-3.1,1.5-4.7,2.2c-2.3,0.9-4.6,2.1-6.7,3.4
		c-0.1,0.1-0.3,0.2-0.4,0.3c-0.3,0.2-0.5,0.4-0.8,0.6l0,0c-0.4,0.3-0.8,0.7-1.2,1c-0.2,0.2-0.5,0.4-0.7,0.7
		c-0.2,0.2-0.4,0.4-0.5,0.5c-0.3,0.3-0.7,0.7-1,1.1l-0.3,0.3c-0.2,0.3-0.5,0.6-0.7,0.8c-0.3,0.4-0.6,0.7-0.9,1.1
		c-0.4,0.5-0.8,1.1-1.3,1.6c-0.1,0.2-0.2,0.3-0.4,0.5c-0.7,0.8-1.4,1.7-2.1,2.5l-0.1,0.1c-1.6,1.9-3.7,3.4-6.1,4.3
		c-5.8,2-11.6-1-17.3-4.2l0,0l-0.2-0.1l-0.1,0l0,0l-0.5-0.3l-0.2-0.1c-0.6-0.3-1.1-0.7-1.7-1l-0.1-0.1c-0.8-0.5-1.6-0.9-2.4-1.3
		c-0.5-0.3-1-0.5-1.5-0.7c-1.6-0.8-3.3-1.4-5-2c-2.2-0.7-4.5-1.3-6.8-1.6c-0.9-0.2-1.9-0.3-2.8-0.4c-0.6-0.1-1.2-0.1-1.8-0.1
		c-5-0.3-10,0.4-14.8,1.8c-0.7,0.2-1.3,0.4-1.9,0.6c-0.1,0-0.2,0.1-0.4,0.1c-0.6,0.2-1.2,0.5-1.8,0.7l-0.2,0.1l0,0c0,0,0,0,0,0
		c-3,1.3-5.9,2.9-8.9,4.2c-0.3,0.1-0.5,0.2-0.8,0.3c-1.9,0.8-3.8,1.3-5.8,1.6c-2.1,0.2-4.2,0.2-6.2-0.2c-1.9-0.3-3.7-0.7-5.5-1.3h0
		l-0.1,0c-0.2,0-0.3-0.1-0.5-0.1l-0.2-0.1l-0.3-0.1c-4.2-1.3-8.5-2.8-12.8-3.3c-0.2,0-0.4,0-0.6-0.1c-1.4-0.1-2.7-0.1-4.1,0
		c-4.1,0.4-8.2,1.3-12.1,2.6l-0.3,0.1c-0.2,0.1-0.4,0.1-0.7,0.2l-0.5,0.1l-0.9,0.3l-0.2,0.1l0,0c-6.6,1.9-13.2,3.5-19.6,1.6
		c-2.8-0.9-5.4-2.2-7.7-4.1c-1.7-1.3-3.2-2.7-4.7-4.3c-1.4-1.4-2.7-2.9-3.9-4.4c-4.2-4.9-8.4-10.2-10.2-16.4c-0.6-2.2-1-4.5-1.1-6.8
		c-0.1-1.4-0.1-2.8-0.1-4.2c0-0.9,0-1.9,0-2.8c0-0.7,0-1.3,0.1-2v-0.3c0-0.3,0-0.6,0-0.9c0.2-5.8,0.4-11.7,0.5-17.5
		c0.1-3.9,0.3-7.8,1.5-11.6c0.1-0.4,0.3-0.8,0.5-1.3c0.1-0.3,0.3-0.6,0.4-0.9c2.7-6,7.8-11,12.4-16c1.7-1.8,3.2-3.7,4.7-5.7
		c2.2-3,3.7-6.5,4.1-10.2c0-0.3,0.1-0.6,0.1-0.9c0-0.3,0-0.6,0-1c-0.1-5.4-3-10.6-4.2-15.8c-0.6-2.3-0.7-4.7-0.2-7
		c0.1-0.2,0.1-0.4,0.2-0.7c2.1-7,10.1-10.7,17.4-11.9c7.6-1.1,15.4-1,23,0.2c0.5,0.1,1,0.1,1.5,0.2c1.6,0.3,3.1,0.6,4.7,0.9
		c3.8,0.8,7.5,1.7,11.3,2.5c4.9,1,9.3,0,14.1-0.6c2.5-0.3,5-0.6,7.5-0.7c2.1-0.1,4.2-0.2,6.2-0.1c8.4,0.1,16.7,1.4,24.7,3.9
		c5.4,1.7,10.7,3.9,16.2,5.1c1.9,0.4,3.8,0.7,5.7,0.8c0.1,0,0.3,0,0.5,0c13,0.6,24.9-7.2,37.7-8.6l0.4,0c1.4-0.1,2.8-0.2,4.3-0.2
		c12,0.1,23.6,5.2,34.6,10.3c3.4,1.5,6.8,3.1,9.5,5.6C-388.9-2951.7-387-2945.3-387.4-2938.9z"/>
	<path class="st0" d="M-501.2-2874.7v-30.4h8.4c-0.1-0.1-0.1-0.1-0.2-0.2l-0.1,0l-0.1-0.1c-0.1,0-0.1-0.1-0.2-0.1l-0.1-0.1l-0.1-0.1
		c-0.1-0.1-0.2-0.1-0.2-0.2c0,0,0,0-0.1,0h-7.2v-1.7c-0.1,0-0.1,0.1-0.2,0.1l-0.2,0.1c0,0,0,0,0,0c0,0,0,0,0,0c0,0,0,0,0,0l-0.1,0.1
		c0,0-0.1,0.1-0.1,0.1c-0.1,0.1-0.3,0.2-0.4,0.3l-0.1,0.1l-0.2,0.2c-0.3,0.3-0.6,0.6-1,0.9c-0.1,0.1-0.2,0.1-0.3,0.2
		c-0.2,0.2-0.4,0.3-0.6,0.4c-0.1,0.1-0.2,0.1-0.2,0.2l-0.1,0.1l-0.1,0.1l0,0c-0.3,0.1-0.6,0.3-0.9,0.3v29.7h-12.6c0,0,0,0.1,0,0.1
		c0.1,0.3,0.1,0.6,0.2,0.8h12.3v32.5h0.2l0.2,0l0.4,0l0.6,0.1c0.1,0,0.2,0,0.3,0l0.3,0h0l0.6,0.1c0,0,0.1,0,0.1,0l0.3,0l0.4,0.1l0,0
		l0.9,0l0,0l0.1,0l0.2,0v-33h19.4v-0.1c0,0,0,0,0-0.1c0-0.3,0-0.5,0.1-0.8c0,0,0,0,0,0L-501.2-2874.7z M-472.2-2874.7h-0.8v0.9h1
		L-472.2-2874.7z M-481.7-2874.7C-481.7-2874.7-481.7-2874.7-481.7-2874.7c0,0.3,0,0.5-0.1,0.8c0,0,0,0,0,0.1v0.1h7.3v-0.1l0.5-0.9
		L-481.7-2874.7z M-613.1-2962.7c-0.5,2.3-0.4,4.7,0.2,7v-7.7C-613-2963.2-613.1-2963-613.1-2962.7z M-493.1-2905.3
		c0-0.2,0-0.5,0-0.7h-2c0,0,0,0.1,0,0.1c0,0.1,0,0.3,0.1,0.4c0,0.1,0,0.2,0,0.3l0,0.1h1.9L-493.1-2905.3z M-508.6-2874.2
		L-508.6-2874.2c-0.1-0.1-0.2-0.1-0.2-0.1c0.2-0.1,0.5-0.3,0.7-0.4h-45.1c0,0.1,0.1,0.1,0.1,0.2c0,0,0,0.1,0.1,0.1s0,0.1,0.1,0.2
		s0.1,0.2,0.1,0.3c0.1,0.1,0.1,0.1,0.1,0.2h44.9C-508.2-2874-508.4-2874.1-508.6-2874.2z M-566.3-2897.2L-566.3-2897.2
		L-566.3-2897.2L-566.3-2897.2z M-566.4-2901.7c-0.1,0.1-0.1,0.2-0.2,0.2c0,0,0.1,0.1,0.2,0.3c0,0,0,0,0,0.1c0,0,0,0.1,0,0.1l0,0
		c0,0,0,0.1,0,0.1c0,0,0,0,0,0c0,0,0,0.1-0.1,0.1l0,0c0,0-0.1,0.1-0.1,0.1l0,0h0l0,0l0,0c0.2,0.2,0.3,0.4,0.4,0.6L-566.4-2901.7
		L-566.4-2901.7z M-509-2874.7h-6.5c1.7,0.6,4.5,0.4,6.4,0.2l0.4-0.1C-508.9-2874.7-508.9-2874.7-509-2874.7L-509-2874.7z
		 M-494.9-2873.8C-494.9-2873.8-494.9-2873.8-494.9-2873.8c-0.1-0.1-0.1-0.1-0.1-0.1c-0.1-0.1-0.1-0.1-0.2-0.2c0,0-0.1-0.1-0.1-0.1
		c-0.1-0.1-0.1-0.2-0.2-0.3c0,0,0,0,0,0c0,0,0-0.1-0.1-0.1h-5.7v-30.3h6.2l0-0.1c0-0.1,0-0.2,0-0.3c0-0.1,0-0.3-0.1-0.4
		c0,0,0-0.1,0-0.1h-6.1v-23.4h0c0,0-0.1,0-0.1,0c0,0-0.1,0-0.1,0l-0.1,0l-0.1,0l-0.1,0c-0.2,0.1-0.3,0.2-0.5,0.3
		c-0.3,0.1-0.6,0.3-0.9,0.4l-0.2,0.1l-0.2,0.1c-0.1,0.1-0.3,0.1-0.5,0.2c-0.1,0-0.2,0.1-0.3,0.1c-0.2,0.1-0.4,0.1-0.6,0.2
		c-0.1,0-0.2,0-0.3,0.1s-0.2,0-0.3,0.1c-0.1,0-0.2,0-0.3,0s-0.2,0-0.3,0v21.8h-60.4v-26.7l-0.1,0.1c-0.8,0.4-1.7,0.3-2.4,0.9
		c-0.8,0.7-0.7,2-0.4,3.1c0,0.1,0.1,0.2,0.1,0.3c0,0,0,0.1,0,0.1l0,0c0,0,0,0,0,0.1c0,0,0,0.1,0,0.1l0,0.1l0,0.1c0,0,0,0,0,0
		c0,0,0,0.1,0,0.1c0,0.1,0,0.1,0,0.2v0c-0.1,0.8-0.6,1.4-1.3,1.7c-0.2,0.1-0.4,0.1-0.7,0.1v19.7h-3.9l0.1,0.9h3.8v30.4h-6.8
		c0,0.2-0.1,0.3-0.1,0.5c0,0.1,0,0.1-0.1,0.2c0,0.1,0,0.2-0.1,0.3h7v6.3h0.7l0.4,0h0.2c0.3,0,0.5,0,0.7,0l0.3,0l0.2,0l0.3,0h0.1
		l0.1,0h0c0.1,0,0.2,0,0.4,0.1l0.2,0l0.1,0l0.3,0h0l0.5,0.1v-6.5h60.4v1.4c0.2,0.1,0.3,0.3,0.5,0.4l0.3,0.2c0.3,0.3,0.6,0.5,0.9,0.8
		l0.2,0.2c0.1,0.1,0.2,0.2,0.3,0.3l0,0c0.1,0.1,0.1,0.2,0.2,0.2l0.2,0.2c0.1,0.1,0.2,0.2,0.3,0.3c0.1,0.1,0.2,0.2,0.2,0.3
		c0.1,0.1,0.1,0.2,0.2,0.3c0.1,0.1,0.1,0.3,0.2,0.4h0.4l0,0.1c0,0,0,0.1,0,0.1c0.1,0.1,0.1,0.3,0.2,0.4c0,0.1,0,0.1,0,0.2
		c0,0.1,0,0.1,0,0.2c0,0.1,0,0.1,0,0.1c0,0,0,0.1,0,0.1c0,0,0,0.1,0,0.1v0.1c0,0.1,0,0.2,0,0.4c0.1,0,0.2,0,0.3-0.1v-6.9
		L-494.9-2873.8L-494.9-2873.8z M-566.3-2874.7v-30.4h60.4v30.4H-566.3z M-508.2-2874.7h-8c0.2,0.1,0.4,0.2,0.5,0.2
		c1.7,0.8,4.7,0.6,6.7,0.3l0.4-0.1c-0.1-0.1-0.2-0.1-0.2-0.1C-508.6-2874.5-508.4-2874.6-508.2-2874.7L-508.2-2874.7z
		 M-605.2-2874.7c0.2,0.3,0.4,0.6,0.6,0.9h26.6c0-0.1,0.1-0.2,0.1-0.3s0-0.1,0.1-0.2c0-0.2,0.1-0.3,0.1-0.5L-605.2-2874.7z
		 M-509-2874.7h-6.5c1.7,0.6,4.5,0.4,6.4,0.2l0.4-0.1C-508.9-2874.7-508.9-2874.7-509-2874.7L-509-2874.7z M-605.2-2874.7
		c0.2,0.3,0.4,0.6,0.6,0.9h26.6c0-0.1,0.1-0.2,0.1-0.3s0-0.1,0.1-0.2c0-0.2,0.1-0.3,0.1-0.5L-605.2-2874.7z M-494.9-2873.8
		C-494.9-2873.8-494.9-2873.8-494.9-2873.8c-0.1-0.1-0.1-0.1-0.1-0.1c-0.1-0.1-0.1-0.1-0.2-0.2c0,0-0.1-0.1-0.1-0.1
		c-0.1-0.1-0.1-0.2-0.2-0.3c0,0,0,0,0,0c0,0,0-0.1-0.1-0.1h-5.7v-30.3h6.2l0-0.1c0-0.1,0-0.2,0-0.3c0-0.1,0-0.3-0.1-0.4
		c0,0,0-0.1,0-0.1h-6.1v-23.4h0c0,0-0.1,0-0.1,0c0,0-0.1,0-0.1,0l-0.1,0l-0.1,0l-0.1,0c-0.2,0.1-0.3,0.2-0.5,0.3
		c-0.3,0.1-0.6,0.3-0.9,0.4l-0.2,0.1l-0.2,0.1c-0.1,0.1-0.3,0.1-0.5,0.2c-0.1,0-0.2,0.1-0.3,0.1c-0.2,0.1-0.4,0.1-0.6,0.2
		c-0.1,0-0.2,0-0.3,0.1s-0.2,0-0.3,0.1c-0.1,0-0.2,0-0.3,0s-0.2,0-0.3,0v21.8h-60.4v-26.7l-0.1,0.1c-0.8,0.4-1.7,0.3-2.4,0.9
		c-0.8,0.7-0.7,2-0.4,3.1c0,0.1,0.1,0.2,0.1,0.3c0,0,0,0.1,0,0.1l0,0c0,0,0,0,0,0.1c0,0,0,0.1,0,0.1l0,0.1l0,0.1c0,0,0,0,0,0.1
		c0,0,0,0,0,0.1c0,0.1,0,0.1,0,0.2v0c-0.1,0.8-0.6,1.4-1.3,1.7c-0.2,0.1-0.4,0.1-0.7,0.1v19.7h-3.9l0.1,0.9h3.8v30.4h-6.8
		c0,0.2-0.1,0.3-0.1,0.5c0,0.1,0,0.1-0.1,0.2c0,0.1,0,0.2-0.1,0.3h7v6.3h0.7l0.4,0h0.2c0.3,0,0.5,0,0.7,0l0.3,0l0.2,0l0.3,0h0.2
		l0.1,0h0c0.1,0,0.2,0,0.4,0.1l0.2,0l0.1,0l0.3,0h0l0.5,0.1v-6.5h14.2c-0.2-0.3-0.4-0.6-0.6-0.9h-13.6v-30.3h60.4v30.4h-2.3
		c-0.2,0.1-0.4,0.2-0.7,0.4c0,0,0.1,0,0.2,0.1l0,0c0.2,0.1,0.4,0.2,0.7,0.4h2v1.4c0.2,0.1,0.3,0.3,0.5,0.4l0.3,0.2
		c0.3,0.3,0.6,0.5,0.9,0.8l0.2,0.2c0.1,0.1,0.2,0.2,0.3,0.3l0,0c0.1,0.1,0.1,0.2,0.2,0.2l0.2,0.2c0.1,0.1,0.2,0.2,0.3,0.3
		s0.2,0.2,0.2,0.3c0.1,0.1,0.1,0.2,0.2,0.3c0.1,0.1,0.1,0.3,0.2,0.4h0.4l0,0.1c0,0,0,0.1,0,0.1c0.1,0.1,0.1,0.3,0.2,0.4
		c0,0.1,0,0.1,0,0.2c0,0.1,0,0.1,0,0.2c0,0.1,0,0.1,0,0.1c0,0,0,0.1,0,0.1c0,0,0,0.1,0,0.1v0.1c0,0.1,0,0.2,0,0.4
		c0.1,0,0.2,0,0.3-0.1v-6.9L-494.9-2873.8L-494.9-2873.8z M-509-2874.7h-6.5c1.7,0.6,4.5,0.4,6.4,0.2l0.4-0.1
		C-508.9-2874.7-508.9-2874.7-509-2874.7z M-493.1-2905.3c0-0.2,0-0.5,0-0.7h-2c0,0,0,0.1,0,0.1c0,0.1,0,0.3,0.1,0.4
		c0,0.1,0,0.2,0,0.3l0,0.1h1.9L-493.1-2905.3z M-605.2-2874.7c0.2,0.3,0.4,0.6,0.6,0.9h26.6c0-0.1,0.1-0.2,0.1-0.3s0-0.1,0.1-0.2
		c0-0.2,0.1-0.3,0.1-0.5L-605.2-2874.7z M-494.9-2873.8C-494.9-2873.8-494.9-2873.8-494.9-2873.8c-0.1-0.1-0.1-0.1-0.1-0.1
		c-0.1-0.1-0.1-0.1-0.2-0.2c0,0-0.1-0.1-0.1-0.1c-0.1-0.1-0.1-0.2-0.2-0.3c0,0,0,0,0,0c0,0,0-0.1-0.1-0.1h-5.8v-30.3h6.2l0-0.1
		c0-0.1,0-0.2,0-0.3c0-0.1,0-0.3-0.1-0.4c0,0,0-0.1,0-0.1h-6.1v-23.4h0c0,0-0.1,0-0.1,0c0,0-0.1,0-0.1,0l-0.1,0l-0.1,0l-0.1,0
		c-0.2,0.1-0.3,0.2-0.5,0.3c-0.3,0.1-0.6,0.3-0.9,0.4l-0.2,0.1l-0.2,0.1c-0.1,0.1-0.3,0.1-0.5,0.2c-0.1,0-0.2,0.1-0.3,0.1
		c-0.2,0.1-0.4,0.1-0.6,0.2c-0.1,0-0.2,0-0.3,0.1s-0.2,0-0.3,0.1c-0.1,0-0.2,0-0.3,0s-0.2,0-0.3,0v21.8h-60.4v-26.7l-0.1,0.1
		c-0.8,0.4-1.7,0.3-2.4,0.9c-0.8,0.7-0.7,2-0.4,3.1c0,0.1,0.1,0.2,0.1,0.3c0,0,0,0.1,0,0.1l0,0c0,0,0,0,0,0.1c0,0,0,0.1,0,0.1l0,0.1
		l0,0.1c0,0,0,0,0,0.1c0,0,0,0,0,0.1c0,0.1,0,0.1,0,0.2v0c-0.1,0.8-0.6,1.4-1.3,1.7c-0.2,0.1-0.4,0.1-0.7,0.1v19.7h-3.9l0.1,0.9h3.8
		v30.4h-6.8c0,0.2-0.1,0.3-0.1,0.5c0,0.1,0,0.1-0.1,0.2c0,0.1,0,0.2-0.1,0.3h7v6.3h0.7l0.4,0h0.2c0.3,0,0.5,0,0.7,0l0.3,0l0.2,0
		l0.3,0h0.2l0.1,0h0c0.1,0,0.2,0,0.4,0.1l0.2,0l0.1,0l0.3,0h0l0.5,0.1v-6.5h14.2c-0.2-0.3-0.4-0.6-0.6-0.9h-13.6v-30.3h60.4v30.4
		h-2.3c-0.2,0.1-0.4,0.2-0.7,0.4c0,0,0.1,0,0.2,0.1l0,0c0.2,0.1,0.4,0.2,0.7,0.4h2v1.4c0.2,0.1,0.3,0.3,0.5,0.4l0.3,0.2
		c0.3,0.3,0.6,0.5,0.9,0.8l0.2,0.2c0.1,0.1,0.2,0.2,0.3,0.3l0,0c0.1,0.1,0.1,0.2,0.2,0.2l0.2,0.2c0.1,0.1,0.2,0.2,0.3,0.3
		s0.2,0.2,0.2,0.3c0.1,0.1,0.1,0.2,0.2,0.3c0.1,0.1,0.1,0.3,0.2,0.4h0.4l0,0.1c0,0,0,0.1,0,0.1c0.1,0.1,0.1,0.3,0.2,0.4
		c0,0.1,0,0.1,0,0.2c0,0.1,0,0.1,0,0.2c0,0.1,0,0.1,0,0.1c0,0,0,0.1,0,0.1c0,0,0,0.1,0,0.1v0.1c0,0.1,0,0.2,0,0.4
		c0.1,0,0.2,0,0.3-0.1v-6.9L-494.9-2873.8L-494.9-2873.8z M-493.1-2905.3c0-0.2,0-0.5,0-0.7h-2c0,0,0,0.1,0,0.1c0,0.1,0,0.3,0.1,0.4
		c0,0.1,0,0.2,0,0.3l0,0.1h1.9L-493.1-2905.3z M-605.2-2874.7c0.2,0.3,0.4,0.6,0.6,0.9h26.6c0-0.1,0.1-0.2,0.1-0.3s0-0.1,0.1-0.2
		c0-0.2,0.1-0.3,0.1-0.5L-605.2-2874.7z M-494.8-2873.8C-494.9-2873.8-494.9-2873.8-494.8-2873.8c-0.1-0.1-0.1-0.1-0.1-0.1
		c-0.1-0.1-0.1-0.1-0.2-0.2c0,0-0.1-0.1-0.1-0.1c-0.1-0.1-0.1-0.2-0.2-0.3c0,0,0,0,0,0c0,0,0-0.1-0.1-0.1h-5.8v-30.3h6.2l0-0.1
		c0-0.1,0-0.2,0-0.3c0-0.1,0-0.3-0.1-0.4c0,0,0-0.1,0-0.1h-6.1v-23.4h0c0,0-0.1,0-0.1,0c0,0-0.1,0-0.1,0l-0.1,0l-0.1,0l-0.1,0
		c-0.2,0.1-0.3,0.2-0.5,0.3c-0.3,0.1-0.6,0.3-0.9,0.4l-0.2,0.1l-0.2,0.1c-0.1,0.1-0.3,0.1-0.5,0.2c-0.1,0-0.2,0.1-0.3,0.1
		c-0.2,0.1-0.4,0.1-0.6,0.2c-0.1,0-0.2,0-0.3,0.1s-0.2,0-0.3,0.1c-0.1,0-0.2,0-0.3,0s-0.2,0-0.3,0v21.8h-60.4v-26.7l-0.1,0.1
		c-0.8,0.4-1.7,0.3-2.4,0.9c-0.8,0.7-0.7,2-0.4,3.1c0,0.1,0.1,0.2,0.1,0.3c0,0,0,0.1,0,0.1l0,0c0,0,0,0,0,0.1c0,0,0,0.1,0,0.1l0,0.1
		l0,0.1c0,0,0,0,0,0.1c0,0,0,0,0,0.1c0,0.1,0,0.1,0,0.2v0c-0.1,0.8-0.6,1.4-1.3,1.7c-0.2,0.1-0.4,0.1-0.7,0.1v19.7h-3.9l0.1,0.9h3.8
		v30.4h-6.8c0,0.2-0.1,0.3-0.1,0.5c0,0.1,0,0.1-0.1,0.2c0,0.1,0,0.2-0.1,0.3h7v6.3h0.7l0.4,0h0.2c0.3,0,0.5,0,0.7,0l0.3,0l0.2,0
		l0.3,0h0.2l0.1,0h0c0.1,0,0.2,0,0.4,0.1l0.2,0l0.1,0l0.3,0h0l0.5,0.1v-6.5h14.2c-0.2-0.3-0.4-0.6-0.6-0.9h-13.6v-30.3h60.4v30.4
		h-2.3c-0.2,0.1-0.4,0.2-0.7,0.4c0,0,0.1,0,0.2,0.1l0,0c0.2,0.1,0.4,0.2,0.7,0.4h2v1.4c0.2,0.1,0.3,0.3,0.5,0.4l0.3,0.2
		c0.3,0.3,0.6,0.5,0.9,0.8l0.2,0.2c0.1,0.1,0.2,0.2,0.3,0.3l0,0c0.1,0.1,0.1,0.2,0.2,0.2l0.2,0.2c0.1,0.1,0.2,0.2,0.3,0.3
		s0.2,0.2,0.2,0.3c0.1,0.1,0.1,0.2,0.2,0.3c0.1,0.1,0.1,0.3,0.2,0.4h0.4l0,0.1c0,0,0,0.1,0,0.1c0.1,0.1,0.1,0.3,0.2,0.4
		c0,0.1,0,0.1,0,0.2c0,0.1,0,0.1,0,0.2c0,0.1,0,0.1,0,0.1c0,0,0,0.1,0,0.1c0,0,0,0.1,0,0.1v0.1c0,0.1,0,0.2,0,0.4
		c0.1,0,0.2,0,0.3-0.1v-6.9L-494.8-2873.8L-494.8-2873.8z M-493-2905.3c0-0.2,0-0.5,0-0.7h-2c0,0,0,0.1,0,0.1c0,0.1,0,0.3,0.1,0.4
		c0,0.1,0,0.2,0,0.3l0,0.1h1.9L-493-2905.3z M-605.2-2874.7c0.2,0.3,0.4,0.6,0.6,0.9h26.6c0-0.1,0.1-0.2,0.1-0.3s0-0.1,0.1-0.2
		c0-0.2,0.1-0.3,0.1-0.5L-605.2-2874.7z M-494.8-2873.8C-494.9-2873.8-494.9-2873.8-494.8-2873.8c-0.1-0.1-0.1-0.1-0.1-0.1
		c-0.1-0.1-0.1-0.1-0.2-0.2c0,0-0.1-0.1-0.1-0.1c-0.1-0.1-0.1-0.2-0.2-0.3c0,0,0,0,0,0c0,0,0-0.1-0.1-0.1h-5.8v-30.3h6.2l0-0.1
		c0-0.1,0-0.2,0-0.3c0-0.1,0-0.3-0.1-0.4c0,0,0-0.1,0-0.1h-6.1v-23.3h0c0,0-0.1,0-0.1,0c0,0-0.1,0-0.1,0l-0.1,0l-0.1,0l-0.1,0
		c-0.2,0.1-0.3,0.2-0.5,0.3c-0.3,0.1-0.6,0.3-0.9,0.4l-0.2,0.1l-0.2,0.1c-0.1,0.1-0.3,0.1-0.5,0.2c-0.1,0-0.2,0.1-0.3,0.1
		c-0.2,0.1-0.4,0.1-0.6,0.2c-0.1,0-0.2,0-0.3,0.1s-0.2,0-0.3,0.1c-0.1,0-0.2,0-0.3,0s-0.2,0-0.3,0v21.8h-60.4v-26.7l-0.1,0.1
		c-0.8,0.4-1.7,0.3-2.4,0.9c-0.8,0.7-0.7,2-0.4,3.1c0,0.1,0.1,0.2,0.1,0.3c0,0,0,0.1,0,0.1l0,0c0,0,0,0,0,0.1c0,0,0,0.1,0,0.1l0,0.1
		l0,0.1c0,0,0,0,0,0.1c0,0,0,0,0,0.1c0,0.1,0,0.1,0,0.2v0c-0.1,0.8-0.6,1.4-1.3,1.7c-0.2,0.1-0.4,0.1-0.7,0.1v19.7h-3.9l0.1,0.9h3.8
		v30.4h-6.8c0,0.2-0.1,0.3-0.1,0.5c0,0.1,0,0.1-0.1,0.2c0,0.1,0,0.2-0.1,0.3h7v6.3h0.7l0.4,0h0.2c0.3,0,0.5,0,0.7,0l0.3,0l0.2,0
		l0.3,0h0.2l0.1,0h0c0.1,0,0.2,0,0.4,0.1l0.2,0l0.1,0l0.3,0h0l0.5,0.1v-6.5h14.2c-0.2-0.3-0.4-0.6-0.6-0.9h-13.6v-30.3h60.4v30.4
		h-2.3c-0.2,0.1-0.4,0.2-0.7,0.4c0,0,0.1,0,0.2,0.1l0,0c0.2,0.1,0.4,0.2,0.7,0.4h2v1.4c0.2,0.1,0.3,0.3,0.5,0.4l0.3,0.2
		c0.3,0.3,0.6,0.5,0.9,0.8l0.2,0.2c0.1,0.1,0.2,0.2,0.3,0.3l0,0c0.1,0.1,0.1,0.2,0.2,0.2l0.2,0.2c0.1,0.1,0.2,0.2,0.3,0.3
		s0.2,0.2,0.2,0.3c0.1,0.1,0.1,0.2,0.2,0.3c0.1,0.1,0.1,0.3,0.2,0.4h0.4l0,0.1c0,0,0,0.1,0,0.1c0.1,0.1,0.1,0.3,0.2,0.4
		c0,0.1,0,0.1,0,0.2c0,0.1,0,0.1,0,0.2c0,0.1,0,0.1,0,0.1c0,0,0,0.1,0,0.1c0,0,0,0.1,0,0.1v0.1c0,0.1,0,0.2,0,0.4
		c0.1,0,0.2,0,0.3-0.1v-6.9L-494.8-2873.8L-494.8-2873.8z M-493-2905.3c0-0.2,0-0.5,0-0.7h-2c0,0,0,0.1,0,0.1c0,0.1,0,0.3,0.1,0.4
		c0,0.1,0,0.2,0,0.3l0,0.1h1.9V-2905.3z M-605.2-2874.7c0.2,0.3,0.4,0.6,0.6,0.9h26.5c0-0.1,0.1-0.2,0.1-0.3s0-0.1,0.1-0.2
		c0-0.2,0.1-0.3,0.1-0.5L-605.2-2874.7z M-494.8-2873.8C-494.9-2873.8-494.9-2873.8-494.8-2873.8c-0.1-0.1-0.1-0.1-0.1-0.1
		c-0.1-0.1-0.1-0.1-0.2-0.2c0,0-0.1-0.1-0.1-0.1c-0.1-0.1-0.1-0.2-0.2-0.3c0,0,0,0,0,0c0,0,0-0.1-0.1-0.1h-5.8v-30.3h6.2l0-0.1
		c0-0.1,0-0.2,0-0.3c0-0.1,0-0.3-0.1-0.4c0,0,0-0.1,0-0.1h-6.1v-23.3h0c0,0-0.1,0-0.1,0c0,0-0.1,0-0.1,0l-0.1,0l-0.1,0l-0.1,0
		c-0.2,0.1-0.3,0.2-0.5,0.3c-0.3,0.1-0.6,0.3-0.9,0.4l-0.2,0.1l-0.2,0.1c-0.1,0.1-0.3,0.1-0.5,0.2c-0.1,0-0.2,0.1-0.3,0.1
		c-0.2,0.1-0.4,0.1-0.6,0.2c-0.1,0-0.2,0-0.3,0.1s-0.2,0-0.3,0.1c-0.1,0-0.2,0-0.3,0s-0.2,0-0.3,0v21.8h-60.4v-26.7l-0.1,0.1
		c-0.8,0.4-1.7,0.3-2.4,0.9c-0.8,0.7-0.7,2-0.4,3.1c0,0.1,0.1,0.2,0.1,0.3c0,0,0,0.1,0,0.1l0,0c0,0,0,0,0,0.1c0,0,0,0.1,0,0.1l0,0.1
		l0,0.1c0,0,0,0,0,0.1c0,0,0,0,0,0.1c0,0.1,0,0.1,0,0.2v0c-0.1,0.8-0.6,1.4-1.3,1.7c-0.2,0.1-0.4,0.1-0.7,0.1v19.7h-3.9l0.1,0.9h3.8
		v30.4h-6.8c0,0.2-0.1,0.3-0.1,0.5c0,0.1,0,0.1-0.1,0.2c0,0.1,0,0.2-0.1,0.3h7v6.3h0.7l0.4,0h0.2c0.3,0,0.5,0,0.7,0l0.3,0l0.2,0
		l0.3,0h0.2l0.1,0h0c0.1,0,0.2,0,0.4,0.1l0.2,0l0.1,0l0.3,0h0l0.5,0.1v-6.5h14.2c-0.2-0.3-0.4-0.6-0.6-0.9h-13.6v-30.3h60.4v30.4
		h-2.3c-0.2,0.1-0.4,0.2-0.7,0.4c0,0,0.1,0,0.2,0.1l0,0c0.2,0.1,0.4,0.2,0.7,0.4h2v1.4c0.2,0.1,0.3,0.3,0.5,0.4l0.3,0.2
		c0.3,0.3,0.6,0.5,0.9,0.8l0.2,0.2c0.1,0.1,0.2,0.2,0.3,0.3l0,0c0.1,0.1,0.1,0.2,0.2,0.2l0.2,0.2c0.1,0.1,0.2,0.2,0.3,0.3
		s0.2,0.2,0.2,0.3c0.1,0.1,0.1,0.2,0.2,0.3c0.1,0.1,0.1,0.3,0.2,0.4h0.4l0,0.1c0,0,0,0.1,0,0.1c0.1,0.1,0.1,0.3,0.2,0.4
		c0,0.1,0,0.1,0,0.2c0,0.1,0,0.1,0,0.2c0,0.1,0,0.1,0,0.1c0,0,0,0.1,0,0.1c0,0,0,0.1,0,0.1v0.1c0,0.1,0,0.2,0,0.4
		c0.1,0,0.2,0,0.3-0.1v-6.9L-494.8-2873.8L-494.8-2873.8z M-493-2905.3c0-0.2,0-0.5,0-0.7h-2c0,0,0,0.1,0,0.1c0,0.1,0,0.3,0.1,0.4
		c0,0.1,0,0.2,0,0.3l0,0.1h1.9V-2905.3z M-605.2-2874.7c0.2,0.3,0.4,0.6,0.6,0.9h26.5c0-0.1,0.1-0.2,0.1-0.3s0-0.1,0.1-0.2
		c0-0.2,0.1-0.3,0.1-0.5L-605.2-2874.7z M-494.8-2873.8C-494.9-2873.8-494.9-2873.8-494.8-2873.8c-0.1-0.1-0.1-0.1-0.1-0.1
		c-0.1-0.1-0.1-0.1-0.2-0.2c0,0-0.1-0.1-0.1-0.1c-0.1-0.1-0.1-0.2-0.2-0.3c0,0,0,0,0,0c0,0,0-0.1-0.1-0.1h-5.8v-30.3h6.2l0-0.1
		c0-0.1,0-0.2,0-0.3c0-0.1,0-0.3-0.1-0.4c0,0,0-0.1,0-0.1h-6.1v-23.4h0c0,0-0.1,0-0.1,0c0,0-0.1,0-0.1,0l-0.1,0l-0.1,0l-0.1,0
		c-0.2,0.1-0.3,0.2-0.5,0.3c-0.3,0.1-0.6,0.3-0.9,0.4l-0.2,0.1l-0.2,0.1c-0.1,0.1-0.3,0.1-0.5,0.2c-0.1,0-0.2,0.1-0.3,0.1
		c-0.2,0.1-0.4,0.1-0.6,0.2c-0.1,0-0.2,0-0.3,0.1s-0.2,0-0.3,0.1c-0.1,0-0.2,0-0.3,0s-0.2,0-0.3,0v21.8h-60.4v-26.7l-0.1,0.1
		c-0.8,0.4-1.7,0.3-2.4,0.9c-0.8,0.7-0.7,2-0.4,3.1c0,0.1,0.1,0.2,0.1,0.3c0,0,0,0.1,0,0.1l0,0c0,0,0,0,0,0.1c0,0,0,0.1,0,0.1l0,0.1
		l0,0.1c0,0,0,0,0,0.1c0,0,0,0,0,0.1c0,0.1,0,0.1,0,0.2v0c-0.1,0.8-0.6,1.4-1.3,1.7c-0.2,0.1-0.4,0.1-0.7,0.1v19.7h-3.9l0.1,0.9h3.8
		v30.4h-6.8c0,0.2-0.1,0.3-0.1,0.5c0,0.1,0,0.1-0.1,0.2c0,0.1,0,0.2-0.1,0.3h7v6.3h0.7l0.4,0h0.2c0.3,0,0.5,0,0.7,0l0.3,0l0.2,0
		l0.3,0h0.2l0.1,0h0c0.1,0,0.2,0,0.4,0.1l0.2,0l0.1,0l0.3,0h0l0.5,0.1v-6.5h14.2c-0.2-0.3-0.4-0.6-0.6-0.9h-13.6v-30.3h60.4v30.4
		h-2.3c-0.2,0.1-0.4,0.2-0.7,0.4c0,0,0.1,0,0.2,0.1l0,0c0.2,0.1,0.4,0.2,0.7,0.4h2v1.4c0.2,0.1,0.3,0.3,0.5,0.4l0.3,0.2
		c0.3,0.3,0.6,0.5,0.9,0.8l0.2,0.2c0.1,0.1,0.2,0.2,0.3,0.3l0,0c0.1,0.1,0.1,0.2,0.2,0.2l0.2,0.2c0.1,0.1,0.2,0.2,0.3,0.3
		s0.2,0.2,0.2,0.3c0.1,0.1,0.1,0.2,0.2,0.3c0.1,0.1,0.1,0.3,0.2,0.4h0.4l0,0.1c0,0,0,0.1,0,0.1c0.1,0.1,0.1,0.3,0.2,0.4
		c0,0.1,0,0.1,0,0.2c0,0.1,0,0.1,0,0.2c0,0.1,0,0.1,0,0.1c0,0,0,0.1,0,0.1c0,0,0,0.1,0,0.1v0.1c0,0.1,0,0.2,0,0.4
		c0.1,0,0.2,0,0.3-0.1v-6.9L-494.8-2873.8L-494.8-2873.8z M-493-2905.3c0-0.2,0-0.5,0-0.7h-2c0,0,0,0.1,0,0.1c0,0.1,0,0.3,0.1,0.4
		c0,0.1,0,0.2,0,0.3l0,0.1h1.9L-493-2905.3z M-605.2-2874.7c0.2,0.3,0.4,0.6,0.6,0.9h26.5c0-0.1,0.1-0.2,0.1-0.3s0-0.1,0.1-0.2
		c0-0.2,0.1-0.3,0.1-0.5L-605.2-2874.7z M-494.8-2873.8C-494.8-2873.8-494.9-2873.8-494.8-2873.8c-0.1-0.1-0.1-0.1-0.1-0.1
		c-0.1-0.1-0.1-0.1-0.2-0.2c0,0-0.1-0.1-0.1-0.1c-0.1-0.1-0.1-0.2-0.2-0.3c0,0,0,0,0,0c0,0,0-0.1-0.1-0.1h-5.8v-30.3h6.2l0-0.1
		c0-0.1,0-0.2,0-0.3c0-0.1,0-0.3-0.1-0.4c0,0,0-0.1,0-0.1h-6.1v-23.4h0c0,0-0.1,0-0.1,0c0,0-0.1,0-0.1,0l-0.1,0l-0.1,0l-0.1,0
		c-0.2,0.1-0.3,0.2-0.5,0.3c-0.3,0.1-0.6,0.3-0.9,0.4l-0.2,0.1l-0.2,0.1c-0.1,0.1-0.3,0.1-0.5,0.2c-0.1,0-0.2,0.1-0.3,0.1
		c-0.2,0.1-0.4,0.1-0.6,0.2c-0.1,0-0.2,0-0.3,0.1s-0.2,0-0.3,0.1c-0.1,0-0.2,0-0.3,0s-0.2,0-0.3,0v21.8h-60.4v-26.7l-0.1,0.1
		c-0.8,0.4-1.7,0.3-2.4,0.9c-0.8,0.7-0.7,2-0.4,3.1c0,0.1,0.1,0.2,0.1,0.3c0,0,0,0.1,0,0.1l0,0c0,0,0,0,0,0.1c0,0,0,0.1,0,0.1l0,0.1
		l0,0.1c0,0,0,0,0,0.1c0,0,0,0,0,0.1c0,0.1,0,0.1,0,0.2v0c-0.1,0.8-0.6,1.4-1.3,1.7c-0.2,0.1-0.4,0.1-0.7,0.1v19.7h-3.9l0.1,0.9h3.8
		v30.4h-6.8c0,0.2-0.1,0.3-0.1,0.5c0,0.1,0,0.1-0.1,0.2c0,0.1,0,0.2-0.1,0.3h7v6.3h0.7l0.4,0h0.2c0.3,0,0.5,0,0.7,0l0.3,0l0.2,0
		l0.3,0h0.2l0.1,0h0c0.1,0,0.2,0,0.4,0.1l0.2,0l0.1,0l0.3,0h0l0.5,0.1v-6.5h14.2c-0.2-0.3-0.4-0.6-0.6-0.9h-13.6v-30.3h60.4v30.4
		h-2.3c-0.2,0.1-0.4,0.2-0.7,0.4c0,0,0.1,0,0.2,0.1l0,0c0.2,0.1,0.4,0.2,0.7,0.4h2v1.4c0.2,0.1,0.3,0.3,0.5,0.4l0.3,0.2
		c0.3,0.3,0.6,0.5,0.9,0.8l0.2,0.2c0.1,0.1,0.2,0.2,0.3,0.3l0,0c0.1,0.1,0.1,0.2,0.2,0.2l0.2,0.2c0.1,0.1,0.2,0.2,0.3,0.3
		s0.2,0.2,0.2,0.3c0.1,0.1,0.1,0.2,0.2,0.3c0.1,0.1,0.1,0.3,0.2,0.4h0.4l0,0.1c0,0,0,0.1,0,0.1c0.1,0.1,0.1,0.3,0.2,0.4
		c0,0.1,0,0.1,0,0.2c0,0.1,0,0.1,0,0.2c0,0.1,0,0.1,0,0.1c0,0,0,0.1,0,0.1c0,0,0,0.1,0,0.1v0.1c0,0.1,0,0.2,0,0.4
		c0.1,0,0.2,0,0.3-0.1v-6.9L-494.8-2873.8L-494.8-2873.8z M-493-2905.3c0-0.2,0-0.5,0-0.7h-2c0,0,0,0.1,0,0.1c0,0.1,0,0.3,0.1,0.4
		c0,0.1,0,0.2,0,0.3l0,0.1h1.9L-493-2905.3z M-605.2-2874.7c0.2,0.3,0.4,0.6,0.6,0.9h26.5c0-0.1,0.1-0.2,0.1-0.3s0-0.1,0.1-0.2
		c0-0.2,0.1-0.3,0.1-0.5L-605.2-2874.7z M-494.8-2873.8C-494.8-2873.8-494.9-2873.8-494.8-2873.8c-0.1-0.1-0.1-0.1-0.1-0.1
		c-0.1-0.1-0.1-0.1-0.2-0.2c0,0-0.1-0.1-0.1-0.1c-0.1-0.1-0.1-0.2-0.2-0.3c0,0,0,0,0,0c0,0,0-0.1-0.1-0.1h-5.8v-30.3h6.2l0-0.1
		c0-0.1,0-0.2,0-0.3c0-0.1,0-0.3-0.1-0.4c0,0,0-0.1,0-0.1h-6.1v-23.4h0c0,0-0.1,0-0.1,0c0,0-0.1,0-0.1,0l-0.1,0l-0.1,0l-0.1,0
		c-0.2,0.1-0.3,0.2-0.5,0.3c-0.3,0.1-0.6,0.3-0.9,0.4c-0.1,0-0.1,0.1-0.2,0.1s-0.2,0.1-0.2,0.1c-0.1,0.1-0.3,0.1-0.5,0.2
		c-0.1,0-0.2,0.1-0.3,0.1c-0.2,0.1-0.4,0.1-0.6,0.2c-0.1,0-0.2,0-0.3,0.1s-0.2,0-0.3,0.1c-0.1,0-0.2,0-0.3,0s-0.2,0-0.3,0v21.8
		h-60.4v-26.7l-0.1,0.1c-0.8,0.4-1.7,0.3-2.4,0.9c-0.8,0.7-0.7,2-0.4,3.1c0,0.1,0.1,0.2,0.1,0.3c0,0,0,0.1,0,0.1c0,0,0,0,0,0.1
		c0,0,0,0.1,0,0.1l0,0.1l0,0.1c0,0,0,0,0,0.1c0,0,0,0,0,0.1c0,0.1,0,0.1,0,0.2v0c-0.1,0.8-0.6,1.4-1.3,1.7c-0.2,0.1-0.4,0.1-0.7,0.1
		v19.7h-3.9l0.1,0.9h3.8v30.4h-6.8c0,0.2-0.1,0.3-0.1,0.5c0,0.1,0,0.1-0.1,0.2c0,0.1,0,0.2-0.1,0.3h7v6.3h0.7l0.4,0h0.2
		c0.3,0,0.5,0,0.7,0l0.3,0l0.2,0l0.3,0h0.2l0.1,0h0c0.1,0,0.2,0,0.4,0.1l0.2,0l0.1,0l0.3,0h0l0.5,0.1v-6.5h14.2
		c-0.2-0.3-0.4-0.6-0.6-0.9h-13.6v-30.3h60.4v30.4h-2.3c-0.2,0.1-0.4,0.2-0.7,0.4c0,0,0.1,0,0.2,0.1l0,0c0.2,0.1,0.4,0.2,0.7,0.4h2
		v1.4c0.2,0.1,0.3,0.3,0.5,0.4l0.3,0.2c0.3,0.3,0.6,0.5,0.9,0.8c0.1,0.1,0.2,0.2,0.2,0.2s0.2,0.2,0.3,0.3l0,0
		c0.1,0.1,0.1,0.2,0.2,0.2l0.2,0.2c0.1,0.1,0.2,0.2,0.3,0.3s0.2,0.2,0.2,0.3c0.1,0.1,0.1,0.2,0.2,0.3c0.1,0.1,0.1,0.3,0.2,0.4h0.4
		l0,0.1c0,0,0,0.1,0,0.1c0.1,0.1,0.1,0.3,0.2,0.4c0,0.1,0,0.1,0,0.2c0,0.1,0,0.1,0,0.2c0,0.1,0,0.1,0,0.1c0,0,0,0.1,0,0.1
		c0,0,0,0.1,0,0.1v0.1c0,0.1,0,0.2,0,0.4c0.1,0,0.2,0,0.3-0.1v-6.9L-494.8-2873.8L-494.8-2873.8z M-493-2905.3c0-0.2,0-0.5,0-0.7h-2
		c0,0,0,0.1,0,0.1c0,0.1,0,0.3,0.1,0.4c0,0.1,0,0.2,0,0.3l0,0.1h1.9L-493-2905.3z M-437.8-2938.9v-33.1c-1.4,0-2.8,0.1-4.3,0.2
		l-0.4,0v32.8h-57.4l-0.1-0.2l0.2-0.3l0,0l0.9-1.2l0.9-1.2l0,0l17.2-21.5c-1.9-0.1-3.8-0.4-5.7-0.8l-14.9,18.5v-22.3
		c-1.6-0.3-3.1-0.6-4.7-1v22.3l-21.3-26.5c-2.1,0-4.2,0-6.2,0.1l26.3,32.8l0.7,0.8l0.1,0.2l-0.1,0.2h-59.9v-35.1
		c-1.6-0.3-3.1-0.6-4.7-0.9v36h-37.8c0,0.3,0,0.6-0.1,0.9h37.8v31.9h-41.9v-21.7c-1.4,2-3,3.9-4.7,5.7v16H-630
		c-0.1,0.3-0.3,0.6-0.4,0.9h12.8v30.4h-15.2c0,0.3,0,0.6,0,0.9h15.3v36.9c1.5,1.5,3,3,4.7,4.3v-41.1h41.9v40.3
		c1.4-0.1,2.7-0.1,4.1,0c0.2,0,0.4,0,0.6,0.1v-40.3h60.4v35.8c0.6,0,1.2,0.1,1.8,0.1c1,0.1,1.9,0.2,2.8,0.4v-36.2h58.8v29.2
		c1.6-0.7,3.2-1.4,4.7-2.2v-25.9c-1.6-3.2-2.8-6.4-2.4-9.8c0.3-2.1,1.1-4.1,2.4-5.8v-16.7h22.5l1.5-0.9h-24v-31.9h50.3
		c0-0.3,0.1-0.6,0.1-0.9L-437.8-2938.9z M-442.5-2938v31.9h-58.8v-31.1l0,0l0.8-0.8L-442.5-2938z M-566.3-2938h60.4v31.9h-60.4
		L-566.3-2938z M-612.9-2874.7v-30.4h41.9v30.4H-612.9z M-566.3-2874.7v-30.4h60.4v30.4H-566.3z M-501.2-2874.7v-30.4h58.8v30.4
		H-501.2z M-493.1-2905.3c0-0.2,0-0.5,0-0.7h-2c0,0,0,0.1,0,0.1c0,0.1,0,0.3,0.1,0.4c0,0.1,0,0.2,0,0.3l0,0.1h1.9L-493.1-2905.3z
		 M-494.9-2873.8C-494.9-2873.8-494.9-2873.8-494.9-2873.8c-0.1-0.1-0.1-0.1-0.1-0.1c-0.1-0.1-0.1-0.1-0.2-0.2c0,0-0.1-0.1-0.1-0.1
		c-0.1-0.1-0.1-0.2-0.2-0.3c0,0,0,0,0,0c0,0,0-0.1-0.1-0.1h-5.8v-30.3h6.2l0-0.1c0-0.1,0-0.2,0-0.3c0-0.1,0-0.3-0.1-0.4
		c0,0,0-0.1,0-0.1h-6.1v-23.4h0c0,0-0.1,0-0.1,0c0,0-0.1,0-0.1,0l-0.1,0l-0.1,0l-0.1,0c-0.2,0.1-0.3,0.2-0.5,0.3
		c-0.3,0.1-0.6,0.3-0.9,0.4l-0.2,0.1l-0.2,0.1c-0.1,0.1-0.3,0.1-0.5,0.2c-0.1,0-0.2,0.1-0.3,0.1c-0.2,0.1-0.4,0.1-0.6,0.2
		c-0.1,0-0.2,0-0.3,0.1s-0.2,0-0.3,0.1c-0.1,0-0.2,0-0.3,0s-0.2,0-0.3,0v21.8h-60.4v-26.7l-0.1,0.1c-0.8,0.4-1.7,0.3-2.4,0.9
		c-0.8,0.7-0.7,2-0.4,3.1c0,0.1,0.1,0.2,0.1,0.3c0,0,0,0.1,0,0.1l0,0c0,0,0,0,0,0.1c0,0,0,0.1,0,0.1l0,0.1l0,0.1c0,0,0,0,0,0.1
		c0,0,0,0,0,0.1c0,0.1,0,0.1,0,0.2v0c-0.1,0.8-0.6,1.4-1.3,1.7c-0.2,0.1-0.4,0.1-0.7,0.1v19.7h-3.9l0.1,0.9h3.8v30.4h-6.8
		c0,0.2-0.1,0.3-0.1,0.5c0,0.1,0,0.1-0.1,0.2c0,0.1,0,0.2-0.1,0.3h7v6.3h0.7l0.4,0h0.2c0.3,0,0.5,0,0.7,0l0.3,0l0.2,0l0.3,0h0.2
		l0.1,0h0c0.1,0,0.2,0,0.4,0.1l0.2,0l0.1,0l0.3,0h0l0.5,0.1v-6.5h14.2c-0.2-0.3-0.4-0.6-0.6-0.9h-13.6v-30.3h60.4v30.4h-2.3
		c-0.2,0.1-0.4,0.2-0.7,0.4c0,0,0.1,0,0.2,0.1l0,0c0.2,0.1,0.4,0.2,0.7,0.4h2v1.4c0.2,0.1,0.3,0.3,0.5,0.4l0.3,0.2
		c0.3,0.3,0.6,0.5,0.9,0.8l0.2,0.2c0.1,0.1,0.2,0.2,0.3,0.3l0,0c0.1,0.1,0.1,0.2,0.2,0.2l0.2,0.2c0.1,0.1,0.2,0.2,0.3,0.3
		s0.2,0.2,0.2,0.3c0.1,0.1,0.1,0.2,0.2,0.3c0.1,0.1,0.1,0.3,0.2,0.4h0.4l0,0.1c0,0,0,0.1,0,0.1c0.1,0.1,0.1,0.3,0.2,0.4
		c0,0.1,0,0.1,0,0.2c0,0.1,0,0.1,0,0.2c0,0.1,0,0.1,0,0.1c0,0,0,0.1,0,0.1c0,0,0,0.1,0,0.1v0.1c0,0.1,0,0.2,0,0.4
		c0.1,0,0.2,0,0.3-0.1v-6.9L-494.9-2873.8L-494.9-2873.8z M-605.2-2874.7c0.2,0.3,0.4,0.6,0.6,0.9h26.6c0-0.1,0.1-0.2,0.1-0.3
		s0-0.1,0.1-0.2c0-0.2,0.1-0.3,0.1-0.5L-605.2-2874.7z M-493.1-2905.3c0-0.2,0-0.5,0-0.7h-2c0,0,0,0.1,0,0.1c0,0.1,0,0.3,0.1,0.4
		c0,0.1,0,0.2,0,0.3l0,0.1h1.9L-493.1-2905.3z M-494.9-2873.8C-494.9-2873.8-494.9-2873.8-494.9-2873.8c-0.1-0.1-0.1-0.1-0.1-0.1
		c-0.1-0.1-0.1-0.1-0.2-0.2c0,0-0.1-0.1-0.1-0.1c-0.1-0.1-0.1-0.2-0.2-0.3c0,0,0,0,0,0c0,0,0-0.1-0.1-0.1h-5.7v-30.3h6.2l0-0.1
		c0-0.1,0-0.2,0-0.3c0-0.1,0-0.3-0.1-0.4c0,0,0-0.1,0-0.1h-6.1v-23.4h0c0,0-0.1,0-0.1,0c0,0-0.1,0-0.1,0l-0.1,0l-0.1,0l-0.1,0
		c-0.2,0.1-0.3,0.2-0.5,0.3c-0.3,0.1-0.6,0.3-0.9,0.4l-0.2,0.1l-0.2,0.1c-0.1,0.1-0.3,0.1-0.5,0.2c-0.1,0-0.2,0.1-0.3,0.1
		c-0.2,0.1-0.4,0.1-0.6,0.2c-0.1,0-0.2,0-0.3,0.1s-0.2,0-0.3,0.1c-0.1,0-0.2,0-0.3,0s-0.2,0-0.3,0v21.8h-60.4v-26.7l-0.1,0.1
		c-0.8,0.4-1.7,0.3-2.4,0.9c-0.8,0.7-0.7,2-0.4,3.1c0,0.1,0.1,0.2,0.1,0.3c0,0,0,0.1,0,0.1l0,0c0,0,0,0,0,0.1c0,0,0,0.1,0,0.1l0,0.1
		l0,0.1c0,0,0,0,0,0.1c0,0,0,0,0,0.1c0,0.1,0,0.1,0,0.2v0c-0.1,0.8-0.6,1.4-1.3,1.7c-0.2,0.1-0.4,0.1-0.7,0.1v19.7h-3.9l0.1,0.9h3.8
		v30.4h-6.8c0,0.2-0.1,0.3-0.1,0.5c0,0.1,0,0.1-0.1,0.2c0,0.1,0,0.2-0.1,0.3h7v6.3h0.7l0.4,0h0.2c0.3,0,0.5,0,0.7,0l0.3,0l0.2,0
		l0.3,0h0.2l0.1,0h0c0.1,0,0.2,0,0.4,0.1l0.2,0l0.1,0l0.3,0h0l0.5,0.1v-6.5h14.2c-0.2-0.3-0.4-0.6-0.6-0.9h-13.6v-30.3h60.4v30.4
		h-2.3c-0.2,0.1-0.4,0.2-0.7,0.4c0,0,0.1,0,0.2,0.1l0,0c0.2,0.1,0.4,0.2,0.7,0.4h2v1.4c0.2,0.1,0.3,0.3,0.5,0.4l0.3,0.2
		c0.3,0.3,0.6,0.5,0.9,0.8l0.2,0.2c0.1,0.1,0.2,0.2,0.3,0.3l0,0c0.1,0.1,0.1,0.2,0.2,0.2l0.2,0.2c0.1,0.1,0.2,0.2,0.3,0.3
		s0.2,0.2,0.2,0.3c0.1,0.1,0.1,0.2,0.2,0.3c0.1,0.1,0.1,0.3,0.2,0.4h0.4l0,0.1c0,0,0,0.1,0,0.1c0.1,0.1,0.1,0.3,0.2,0.4
		c0,0.1,0,0.1,0,0.2c0,0.1,0,0.1,0,0.2c0,0.1,0,0.1,0,0.1c0,0,0,0.1,0,0.1c0,0,0,0.1,0,0.1v0.1c0,0.1,0,0.2,0,0.4
		c0.1,0,0.2,0,0.3-0.1v-6.9L-494.9-2873.8L-494.9-2873.8z M-605.2-2874.7c0.2,0.3,0.4,0.6,0.6,0.9h26.6c0-0.1,0.1-0.2,0.1-0.3
		s0-0.1,0.1-0.2c0-0.2,0.1-0.3,0.1-0.5L-605.2-2874.7z M-493.1-2905.3c0-0.2,0-0.5,0-0.7h-2c0,0,0,0.1,0,0.1c0,0.1,0,0.3,0.1,0.4
		c0,0.1,0,0.2,0,0.3l0,0.1h1.9L-493.1-2905.3z M-494.9-2873.8C-494.9-2873.8-494.9-2873.8-494.9-2873.8c-0.1-0.1-0.1-0.1-0.1-0.1
		c-0.1-0.1-0.1-0.1-0.2-0.2c0,0-0.1-0.1-0.1-0.1c-0.1-0.1-0.1-0.2-0.2-0.3c0,0,0,0,0,0c0,0,0-0.1-0.1-0.1h-5.7v-30.3h6.2l0-0.1
		c0-0.1,0-0.2,0-0.3c0-0.1,0-0.3-0.1-0.4c0,0,0-0.1,0-0.1h-6.1v-23.4h0c0,0-0.1,0-0.1,0c0,0-0.1,0-0.1,0l-0.1,0l-0.1,0l-0.1,0
		c-0.2,0.1-0.3,0.2-0.5,0.3c-0.3,0.1-0.6,0.3-0.9,0.4l-0.2,0.1l-0.2,0.1c-0.1,0.1-0.3,0.1-0.5,0.2c-0.1,0-0.2,0.1-0.3,0.1
		c-0.2,0.1-0.4,0.1-0.6,0.2c-0.1,0-0.2,0-0.3,0.1s-0.2,0-0.3,0.1c-0.1,0-0.2,0-0.3,0s-0.2,0-0.3,0v21.8h-60.4v-26.7l-0.1,0.1
		c-0.8,0.4-1.7,0.3-2.4,0.9c-0.8,0.7-0.7,2-0.4,3.1c0,0.1,0.1,0.2,0.1,0.3c0,0,0,0.1,0,0.1l0,0c0,0,0,0,0,0.1c0,0,0,0.1,0,0.1l0,0.1
		l0,0.1c0,0,0,0,0,0.1c0,0,0,0,0,0.1c0,0.1,0,0.1,0,0.2v0c-0.1,0.8-0.6,1.4-1.3,1.7c-0.2,0.1-0.4,0.1-0.7,0.1v19.7h-3.9l0.1,0.9h3.8
		v30.4h-6.8c0,0.2-0.1,0.3-0.1,0.5c0,0.1,0,0.1-0.1,0.2c0,0.1,0,0.2-0.1,0.3h7v6.3h0.7l0.4,0h0.2c0.3,0,0.5,0,0.7,0l0.3,0l0.2,0
		l0.3,0h0.2l0.1,0h0c0.1,0,0.2,0,0.4,0.1l0.2,0l0.1,0l0.3,0h0l0.5,0.1v-6.5h14.2c-0.2-0.3-0.4-0.6-0.6-0.9h-13.6v-30.3h60.4v30.4
		h-2.3c-0.2,0.1-0.4,0.2-0.7,0.4c0,0,0.1,0,0.2,0.1l0,0c0.2,0.1,0.4,0.2,0.7,0.4h2v1.4c0.2,0.1,0.3,0.3,0.5,0.4l0.3,0.2
		c0.3,0.3,0.6,0.5,0.9,0.8l0.2,0.2c0.1,0.1,0.2,0.2,0.3,0.3l0,0c0.1,0.1,0.1,0.2,0.2,0.2l0.2,0.2c0.1,0.1,0.2,0.2,0.3,0.3
		s0.2,0.2,0.2,0.3c0.1,0.1,0.1,0.2,0.2,0.3c0.1,0.1,0.1,0.3,0.2,0.4h0.4l0,0.1c0,0,0,0.1,0,0.1c0.1,0.1,0.1,0.3,0.2,0.4
		c0,0.1,0,0.1,0,0.2c0,0.1,0,0.1,0,0.2c0,0.1,0,0.1,0,0.1c0,0,0,0.1,0,0.1c0,0,0,0.1,0,0.1v0.1c0,0.1,0,0.2,0,0.4
		c0.1,0,0.2,0,0.3-0.1v-6.9L-494.9-2873.8L-494.9-2873.8z M-605.2-2874.7c0.2,0.3,0.4,0.6,0.6,0.9h26.6c0-0.1,0.1-0.2,0.1-0.3
		s0-0.1,0.1-0.2c0-0.2,0.1-0.3,0.1-0.5L-605.2-2874.7z M-493.1-2905.3c0-0.2,0-0.5,0-0.7h-2c0,0,0,0.1,0,0.1c0,0.1,0,0.3,0.1,0.4
		c0,0.1,0,0.2,0,0.3l0,0.1h1.9L-493.1-2905.3z M-494.9-2873.8C-494.9-2873.8-494.9-2873.8-494.9-2873.8c-0.1-0.1-0.1-0.1-0.1-0.1
		c-0.1-0.1-0.1-0.1-0.2-0.2c0,0-0.1-0.1-0.1-0.1c-0.1-0.1-0.1-0.2-0.2-0.3c0,0,0,0,0,0c0,0,0-0.1-0.1-0.1h-5.7v-30.3h6.2l0-0.1
		c0-0.1,0-0.2,0-0.3c0-0.1,0-0.3-0.1-0.4c0,0,0-0.1,0-0.1h-6.1v-23.4h0c0,0-0.1,0-0.1,0c0,0-0.1,0-0.1,0l-0.1,0l-0.1,0l-0.1,0
		c-0.2,0.1-0.3,0.2-0.5,0.3c-0.3,0.1-0.6,0.3-0.9,0.4l-0.2,0.1l-0.2,0.1c-0.1,0.1-0.3,0.1-0.5,0.2c-0.1,0-0.2,0.1-0.3,0.1
		c-0.2,0.1-0.4,0.1-0.6,0.2c-0.1,0-0.2,0-0.3,0.1s-0.2,0-0.3,0.1c-0.1,0-0.2,0-0.3,0s-0.2,0-0.3,0v21.8h-60.4v-26.7l-0.1,0.1
		c-0.8,0.4-1.7,0.3-2.4,0.9c-0.8,0.7-0.7,2-0.4,3.1c0,0.1,0.1,0.2,0.1,0.3c0,0,0,0.1,0,0.1l0,0c0,0,0,0,0,0.1c0,0,0,0.1,0,0.1l0,0.1
		l0,0.1c0,0,0,0,0,0.1c0,0,0,0,0,0.1c0,0.1,0,0.1,0,0.2v0c-0.1,0.8-0.6,1.4-1.3,1.7c-0.2,0.1-0.4,0.1-0.7,0.1v19.7h-3.9l0.1,0.9h3.8
		v30.4h-6.8c0,0.2-0.1,0.3-0.1,0.5c0,0.1,0,0.1-0.1,0.2c0,0.1,0,0.2-0.1,0.3h7v6.3h0.7l0.4,0h0.2c0.3,0,0.5,0,0.7,0l0.3,0l0.2,0
		l0.3,0h0.2l0.1,0h0c0.1,0,0.2,0,0.4,0.1l0.2,0l0.1,0l0.3,0h0l0.5,0.1v-6.5h14.2c-0.2-0.3-0.4-0.6-0.6-0.9h-13.6v-30.3h60.4v30.4
		h-2.3c-0.2,0.1-0.4,0.2-0.7,0.4c0,0,0.1,0,0.2,0.1l0,0c0.2,0.1,0.4,0.2,0.7,0.4h2v1.4c0.2,0.1,0.3,0.3,0.5,0.4l0.3,0.2
		c0.3,0.3,0.6,0.5,0.9,0.8l0.2,0.2c0.1,0.1,0.2,0.2,0.3,0.3l0,0c0.1,0.1,0.1,0.2,0.2,0.2l0.2,0.2c0.1,0.1,0.2,0.2,0.3,0.3
		s0.2,0.2,0.2,0.3c0.1,0.1,0.1,0.2,0.2,0.3c0.1,0.1,0.1,0.3,0.2,0.4h0.4l0,0.1c0,0,0,0.1,0,0.1c0.1,0.1,0.1,0.3,0.2,0.4
		c0,0.1,0,0.1,0,0.2c0,0.1,0,0.1,0,0.2c0,0.1,0,0.1,0,0.1c0,0,0,0.1,0,0.1c0,0,0,0.1,0,0.1v0.1c0,0.1,0,0.2,0,0.4
		c0.1,0,0.2,0,0.3-0.1v-6.9L-494.9-2873.8L-494.9-2873.8z M-605.2-2874.7c0.2,0.3,0.4,0.6,0.6,0.9h26.6c0-0.1,0.1-0.2,0.1-0.3
		s0-0.1,0.1-0.2c0-0.2,0.1-0.3,0.1-0.5L-605.2-2874.7z M-493.1-2905.3c0-0.2,0-0.5,0-0.7h-2c0,0,0,0.1,0,0.1c0,0.1,0,0.3,0.1,0.4
		c0,0.1,0,0.2,0,0.3l0,0.1h1.9L-493.1-2905.3z M-494.9-2873.8C-494.9-2873.8-494.9-2873.8-494.9-2873.8c-0.1-0.1-0.1-0.1-0.1-0.1
		c-0.1-0.1-0.1-0.1-0.2-0.2c0,0-0.1-0.1-0.1-0.1c-0.1-0.1-0.1-0.2-0.2-0.3c0,0,0,0,0,0c0,0,0-0.1-0.1-0.1h-5.7v-30.3h6.2l0-0.1
		c0-0.1,0-0.2,0-0.3c0-0.1,0-0.3-0.1-0.4c0,0,0-0.1,0-0.1h-6.1v-23.4h0c0,0-0.1,0-0.1,0c0,0-0.1,0-0.1,0l-0.1,0l-0.1,0l-0.1,0
		c-0.2,0.1-0.3,0.2-0.5,0.3c-0.3,0.1-0.6,0.3-0.9,0.4l-0.2,0.1l-0.2,0.1c-0.1,0.1-0.3,0.1-0.5,0.2c-0.1,0-0.2,0.1-0.3,0.1
		c-0.2,0.1-0.4,0.1-0.6,0.2c-0.1,0-0.2,0-0.3,0.1s-0.2,0-0.3,0.1c-0.1,0-0.2,0-0.3,0s-0.2,0-0.3,0v21.8h-60.4v-26.7l-0.1,0.1
		c-0.8,0.4-1.7,0.3-2.4,0.9c-0.8,0.7-0.7,2-0.4,3.1c0,0.1,0.1,0.2,0.1,0.3c0,0,0,0.1,0,0.1l0,0c0,0,0,0,0,0.1c0,0,0,0.1,0,0.1l0,0.1
		l0,0.1c0,0,0,0,0,0.1c0,0,0,0,0,0.1c0,0.1,0,0.1,0,0.2v0c-0.1,0.8-0.6,1.4-1.3,1.7c-0.2,0.1-0.4,0.1-0.7,0.1v19.7h-3.9l0.1,0.9h3.8
		v30.4h-6.8c0,0.2-0.1,0.3-0.1,0.5c0,0.1,0,0.1-0.1,0.2c0,0.1,0,0.2-0.1,0.3h7v6.3h0.7l0.4,0h0.2c0.3,0,0.5,0,0.7,0l0.3,0l0.2,0
		l0.3,0h0.2l0.1,0h0c0.1,0,0.2,0,0.4,0.1l0.2,0l0.1,0l0.3,0h0l0.5,0.1v-6.5h14.2c-0.2-0.3-0.4-0.6-0.6-0.9h-13.6v-30.3h60.4v30.4
		h-2.3c-0.2,0.1-0.4,0.2-0.7,0.4c0,0,0.1,0,0.2,0.1l0,0c0.2,0.1,0.4,0.2,0.7,0.4h2v1.4c0.2,0.1,0.3,0.3,0.5,0.4l0.3,0.2
		c0.3,0.3,0.6,0.5,0.9,0.8l0.2,0.2c0.1,0.1,0.2,0.2,0.3,0.3l0,0c0.1,0.1,0.1,0.2,0.2,0.2l0.2,0.2c0.1,0.1,0.2,0.2,0.3,0.3
		s0.2,0.2,0.2,0.3c0.1,0.1,0.1,0.2,0.2,0.3c0.1,0.1,0.1,0.3,0.2,0.4h0.4l0,0.1c0,0,0,0.1,0,0.1c0.1,0.1,0.1,0.3,0.2,0.4
		c0,0.1,0,0.1,0,0.2c0,0.1,0,0.1,0,0.2c0,0.1,0,0.1,0,0.1c0,0,0,0.1,0,0.1c0,0,0,0.1,0,0.1v0.1c0,0.1,0,0.2,0,0.4
		c0.1,0,0.2,0,0.3-0.1v-6.9L-494.9-2873.8L-494.9-2873.8z M-605.2-2874.7c0.2,0.3,0.4,0.6,0.6,0.9h26.6c0-0.1,0.1-0.2,0.1-0.3
		s0-0.1,0.1-0.2c0-0.2,0.1-0.3,0.1-0.5L-605.2-2874.7z M-493.1-2905.3c0-0.2,0-0.5,0-0.7h-2c0,0,0,0.1,0,0.1c0,0.1,0,0.3,0.1,0.4
		c0,0.1,0,0.2,0,0.3l0,0.1h1.9L-493.1-2905.3z M-494.9-2873.8C-494.9-2873.8-494.9-2873.8-494.9-2873.8c-0.1-0.1-0.1-0.1-0.1-0.1
		c-0.1-0.1-0.1-0.1-0.2-0.2c0,0-0.1-0.1-0.1-0.1c-0.1-0.1-0.1-0.2-0.2-0.3c0,0,0,0,0,0c0,0,0-0.1-0.1-0.1h-5.7v-30.3h6.2l0-0.1
		c0-0.1,0-0.2,0-0.3c0-0.1,0-0.3-0.1-0.4c0,0,0-0.1,0-0.1h-6.1v-23.4h0c0,0-0.1,0-0.1,0c0,0-0.1,0-0.1,0l-0.1,0l-0.1,0l-0.1,0
		c-0.2,0.1-0.3,0.2-0.5,0.3c-0.3,0.1-0.6,0.3-0.9,0.4l-0.2,0.1l-0.2,0.1c-0.1,0.1-0.3,0.1-0.5,0.2c-0.1,0-0.2,0.1-0.3,0.1
		c-0.2,0.1-0.4,0.1-0.6,0.2c-0.1,0-0.2,0-0.3,0.1s-0.2,0-0.3,0.1c-0.1,0-0.2,0-0.3,0s-0.2,0-0.3,0v21.8h-60.4v-26.7l-0.1,0.1
		c-0.8,0.4-1.7,0.3-2.4,0.9c-0.8,0.7-0.7,2-0.4,3.1c0,0.1,0.1,0.2,0.1,0.3c0,0,0,0.1,0,0.1l0,0c0,0,0,0,0,0.1c0,0,0,0.1,0,0.1l0,0.1
		l0,0.1c0,0,0,0,0,0.1c0,0,0,0,0,0.1c0,0.1,0,0.1,0,0.2v0c-0.1,0.8-0.6,1.4-1.3,1.7c-0.2,0.1-0.4,0.1-0.7,0.1v19.7h-3.9l0.1,0.9h3.8
		v30.4h-6.8c0,0.2-0.1,0.3-0.1,0.5c0,0.1,0,0.1-0.1,0.2c0,0.1,0,0.2-0.1,0.3h7v6.3h0.7l0.4,0h0.2c0.3,0,0.5,0,0.7,0l0.3,0l0.2,0
		l0.3,0h0.2l0.1,0h0c0.1,0,0.2,0,0.4,0.1l0.2,0l0.1,0l0.3,0h0l0.5,0.1v-6.5h14.2c-0.2-0.3-0.4-0.6-0.6-0.9h-13.6v-30.3h60.4v30.4
		h-2.3c-0.2,0.1-0.4,0.2-0.7,0.4c0,0,0.1,0,0.2,0.1l0,0c0.2,0.1,0.4,0.2,0.7,0.4h2v1.4c0.2,0.1,0.3,0.3,0.5,0.4l0.3,0.2
		c0.3,0.3,0.6,0.5,0.9,0.8l0.2,0.2c0.1,0.1,0.2,0.2,0.3,0.3l0,0c0.1,0.1,0.1,0.2,0.2,0.2l0.2,0.2c0.1,0.1,0.2,0.2,0.3,0.3
		s0.2,0.2,0.2,0.3c0.1,0.1,0.1,0.2,0.2,0.3c0.1,0.1,0.1,0.3,0.2,0.4h0.4l0,0.1c0,0,0,0.1,0,0.1c0.1,0.1,0.1,0.3,0.2,0.4
		c0,0.1,0,0.1,0,0.2c0,0.1,0,0.1,0,0.2c0,0.1,0,0.1,0,0.1c0,0,0,0.1,0,0.1c0,0,0,0.1,0,0.1v0.1c0,0.1,0,0.2,0,0.4
		c0.1,0,0.2,0,0.3-0.1v-6.9L-494.9-2873.8L-494.9-2873.8z M-605.2-2874.7c0.2,0.3,0.4,0.6,0.6,0.9h26.6c0-0.1,0.1-0.2,0.1-0.3
		s0-0.1,0.1-0.2c0-0.2,0.1-0.3,0.1-0.5L-605.2-2874.7z M-493.1-2905.3c0-0.2,0-0.5,0-0.7h-2c0,0,0,0.1,0,0.1c0,0.1,0,0.3,0.1,0.4
		c0,0.1,0,0.2,0,0.3l0,0.1h1.9L-493.1-2905.3z M-494.9-2873.8C-494.9-2873.8-494.9-2873.8-494.9-2873.8c-0.1-0.1-0.1-0.1-0.1-0.1
		c-0.1-0.1-0.1-0.1-0.2-0.2c0,0-0.1-0.1-0.1-0.1c-0.1-0.1-0.1-0.2-0.2-0.3c0,0,0,0,0,0c0,0,0-0.1-0.1-0.1h-5.7v-30.3h6.2l0-0.1
		c0-0.1,0-0.2,0-0.3c0-0.1,0-0.3-0.1-0.4c0,0,0-0.1,0-0.1h-6.1v-23.4h0c0,0-0.1,0-0.1,0c0,0-0.1,0-0.1,0l-0.1,0l-0.1,0l-0.1,0
		c-0.2,0.1-0.3,0.2-0.5,0.3c-0.3,0.1-0.6,0.3-0.9,0.4l-0.2,0.1l-0.2,0.1c-0.1,0.1-0.3,0.1-0.5,0.2c-0.1,0-0.2,0.1-0.3,0.1
		c-0.2,0.1-0.4,0.1-0.6,0.2c-0.1,0-0.2,0-0.3,0.1s-0.2,0-0.3,0.1c-0.1,0-0.2,0-0.3,0s-0.2,0-0.3,0v21.8h-60.4v-26.7l-0.1,0.1
		c-0.8,0.4-1.7,0.3-2.4,0.9c-0.8,0.7-0.7,2-0.4,3.1c0,0.1,0.1,0.2,0.1,0.3c0,0,0,0.1,0,0.1l0,0c0,0,0,0,0,0.1c0,0,0,0.1,0,0.1l0,0.1
		l0,0.1c0,0,0,0,0,0.1c0,0,0,0,0,0.1c0,0.1,0,0.1,0,0.2v0c-0.1,0.8-0.6,1.4-1.3,1.7c-0.2,0.1-0.4,0.1-0.7,0.1v19.7h-3.9l0.1,0.9h3.8
		v30.4h-6.8c0,0.2-0.1,0.3-0.1,0.5c0,0.1,0,0.1-0.1,0.2c0,0.1,0,0.2-0.1,0.3h7v6.3h0.7l0.4,0h0.2c0.3,0,0.5,0,0.7,0l0.3,0l0.2,0
		l0.3,0h0.2l0.1,0h0c0.1,0,0.2,0,0.4,0.1l0.2,0l0.1,0l0.3,0h0l0.5,0.1v-6.5h14.2c-0.2-0.3-0.4-0.6-0.6-0.9h-13.6v-30.3h60.4v30.4
		h-2.3c-0.2,0.1-0.4,0.2-0.7,0.4c0,0,0.1,0,0.2,0.1l0,0c0.2,0.1,0.4,0.2,0.7,0.4h2v1.4c0.2,0.1,0.3,0.3,0.5,0.4l0.3,0.2
		c0.3,0.3,0.6,0.5,0.9,0.8l0.2,0.2c0.1,0.1,0.2,0.2,0.3,0.3l0,0c0.1,0.1,0.1,0.2,0.2,0.2l0.2,0.2c0.1,0.1,0.2,0.2,0.3,0.3
		s0.2,0.2,0.2,0.3c0.1,0.1,0.1,0.2,0.2,0.3c0.1,0.1,0.1,0.3,0.2,0.4h0.4l0,0.1c0,0,0,0.1,0,0.1c0.1,0.1,0.1,0.3,0.2,0.4
		c0,0.1,0,0.1,0,0.2c0,0.1,0,0.1,0,0.2c0,0.1,0,0.1,0,0.1c0,0,0,0.1,0,0.1c0,0,0,0.1,0,0.1v0.1c0,0.1,0,0.2,0,0.4
		c0.1,0,0.2,0,0.3-0.1v-6.9L-494.9-2873.8L-494.9-2873.8z M-605.2-2874.7c0.2,0.3,0.4,0.6,0.6,0.9h26.6c0-0.1,0.1-0.2,0.1-0.3
		s0-0.1,0.1-0.2c0-0.2,0.1-0.3,0.1-0.5L-605.2-2874.7z M-493.1-2905.3c0-0.2,0-0.5,0-0.7h-2c0,0,0,0.1,0,0.1c0,0.1,0,0.3,0.1,0.4
		c0,0.1,0,0.2,0,0.3l0,0.1h1.9L-493.1-2905.3z M-494.9-2873.8C-494.9-2873.8-494.9-2873.8-494.9-2873.8c-0.1-0.1-0.1-0.1-0.1-0.1
		c-0.1-0.1-0.1-0.1-0.2-0.2c0,0-0.1-0.1-0.1-0.1c-0.1-0.1-0.1-0.2-0.2-0.3c0,0,0,0,0,0c0,0,0-0.1-0.1-0.1h-5.7v-30.3h6.2l0-0.1
		c0-0.1,0-0.2,0-0.3c0-0.1,0-0.3-0.1-0.4c0,0,0-0.1,0-0.1h-6.1v-23.4h0c0,0-0.1,0-0.1,0c0,0-0.1,0-0.1,0l-0.1,0l-0.1,0l-0.1,0
		c-0.2,0.1-0.3,0.2-0.5,0.3c-0.3,0.1-0.6,0.3-0.9,0.4l-0.2,0.1l-0.2,0.1c-0.1,0.1-0.3,0.1-0.5,0.2c-0.1,0-0.2,0.1-0.3,0.1
		c-0.2,0.1-0.4,0.1-0.6,0.2c-0.1,0-0.2,0-0.3,0.1s-0.2,0-0.3,0.1c-0.1,0-0.2,0-0.3,0s-0.2,0-0.3,0v21.8h-60.4v-26.7l-0.1,0.1
		c-0.8,0.4-1.7,0.3-2.4,0.9c-0.8,0.7-0.7,2-0.4,3.1c0,0.1,0.1,0.2,0.1,0.3c0,0,0,0.1,0,0.1l0,0c0,0,0,0,0,0.1c0,0,0,0.1,0,0.1l0,0.1
		l0,0.1c0,0,0,0,0,0.1c0,0,0,0,0,0.1c0,0.1,0,0.1,0,0.2v0c-0.1,0.8-0.6,1.4-1.3,1.7c-0.2,0.1-0.4,0.1-0.7,0.1v19.7h-3.9l0.1,0.9h3.8
		v30.4h-6.8c0,0.2-0.1,0.3-0.1,0.5c0,0.1,0,0.1-0.1,0.2c0,0.1,0,0.2-0.1,0.3h7v6.3h0.7l0.4,0h0.2c0.3,0,0.5,0,0.7,0l0.3,0l0.2,0
		l0.3,0h0.2l0.1,0h0c0.1,0,0.2,0,0.4,0.1l0.2,0l0.1,0l0.3,0h0l0.5,0.1v-6.5h14.2c-0.2-0.3-0.4-0.6-0.6-0.9h-13.6v-30.3h60.4v30.4
		h-10.3c0.2,0.1,0.4,0.2,0.5,0.2c1.7,0.8,4.7,0.6,6.7,0.3l0.4-0.1l0,0c0.2,0.1,0.4,0.2,0.7,0.4h2v1.4c0.2,0.1,0.3,0.3,0.5,0.4
		l0.3,0.2c0.3,0.3,0.6,0.5,0.9,0.8l0.2,0.2c0.1,0.1,0.2,0.2,0.3,0.3l0,0c0.1,0.1,0.1,0.2,0.2,0.2l0.2,0.2c0.1,0.1,0.2,0.2,0.3,0.3
		c0.1,0.1,0.2,0.2,0.2,0.3c0.1,0.1,0.1,0.2,0.2,0.3c0.1,0.1,0.1,0.3,0.2,0.4h0.4l0,0.1c0,0,0,0.1,0,0.1c0.1,0.1,0.1,0.3,0.2,0.4
		c0,0.1,0,0.1,0,0.2c0,0.1,0,0.1,0,0.2c0,0.1,0,0.1,0,0.1c0,0,0,0.1,0,0.1c0,0,0,0.1,0,0.1v0.1c0,0.1,0,0.2,0,0.4
		c0.1,0,0.2,0,0.3-0.1v-6.9L-494.9-2873.8L-494.9-2873.8z M-605.2-2874.7c0.2,0.3,0.4,0.6,0.6,0.9h26.6c0-0.1,0.1-0.2,0.1-0.3
		s0-0.1,0.1-0.2c0-0.2,0.1-0.3,0.1-0.5L-605.2-2874.7z M-508.2-2874.7h-8c0.2,0.1,0.4,0.2,0.5,0.2c1.7,0.8,4.7,0.6,6.7,0.3l0.4-0.1
		c-0.1-0.1-0.2-0.1-0.2-0.1C-508.6-2874.5-508.4-2874.6-508.2-2874.7L-508.2-2874.7z M-501.2-2874.7v-30.4h8.4
		c-0.1-0.1-0.1-0.1-0.2-0.2l-0.1,0l-0.1-0.1c-0.1,0-0.1-0.1-0.2-0.1l-0.1-0.1l-0.1-0.1c-0.1-0.1-0.2-0.1-0.2-0.2c0,0,0,0-0.1,0h-7.3
		v-1.7c-0.1,0-0.1,0.1-0.2,0.1l-0.2,0.1c0,0,0,0,0,0c0,0,0,0,0,0c0,0,0,0,0,0l-0.1,0.1c0,0-0.1,0.1-0.1,0.1
		c-0.1,0.1-0.3,0.2-0.4,0.3l-0.1,0.1l-0.2,0.2c-0.3,0.3-0.6,0.6-1,0.9c-0.1,0.1-0.2,0.1-0.3,0.2c-0.2,0.2-0.4,0.3-0.6,0.4
		c-0.1,0.1-0.2,0.1-0.2,0.2l-0.1,0.1l-0.1,0.1l0,0c-0.3,0.1-0.6,0.3-0.9,0.3v29.7h-12.6c0,0,0,0.1,0,0.1c0.1,0.3,0.1,0.6,0.2,0.8
		h12.3v32.5c0,0,0.1,0,0.1,0h0.1l0.2,0l0.4,0l0.6,0.1c0.1,0,0.2,0,0.3,0l0.3,0h0l0.6,0.1c0,0,0.1,0,0.1,0l0.3,0l0.4,0.1l0,0l0.9,0
		l0,0l0.1,0l0.2,0v-33h18.9c0-0.3,0.1-0.6,0.1-0.9L-501.2-2874.7z M-482.2-2874.7c0,0.3-0.1,0.6-0.1,0.9h8.1l0.6-0.9H-482.2z
		 M-472.2-2874.7h-0.8v0.9h1L-472.2-2874.7z M-501.2-2874.7v-30.4h8.4c-0.1-0.1-0.1-0.1-0.2-0.2l-0.1,0l-0.1-0.1
		c-0.1,0-0.1-0.1-0.2-0.1l-0.1-0.1l-0.1-0.1c-0.1-0.1-0.2-0.1-0.2-0.2c0,0,0,0-0.1,0h-7.3v-1.7c-0.1,0-0.1,0.1-0.2,0.1l-0.2,0.1
		c0,0,0,0,0,0c0,0,0,0,0,0c0,0,0,0,0,0l-0.1,0.1c0,0-0.1,0.1-0.1,0.1c-0.1,0.1-0.3,0.2-0.4,0.3l-0.1,0.1l-0.2,0.2
		c-0.3,0.3-0.6,0.6-1,0.9c-0.1,0.1-0.2,0.1-0.3,0.2c-0.2,0.2-0.4,0.3-0.6,0.4c-0.1,0.1-0.2,0.1-0.2,0.2l-0.1,0.1l-0.1,0.1l0,0
		c-0.3,0.1-0.6,0.3-0.9,0.3v29.7h-12.6c0,0,0,0.1,0,0.1c0.1,0.3,0.1,0.6,0.2,0.8h12.3v32.5h0.2l0.2,0l0.4,0l0.6,0.1
		c0.1,0,0.2,0,0.3,0l0.3,0h0l0.6,0.1c0,0,0.1,0,0.1,0l0.3,0l0.4,0.1l0,0l0.9,0l0,0l0.1,0l0.2,0v-33h19.4v-0.1c0,0,0,0,0-0.1
		c0-0.3,0-0.5,0.1-0.8c0,0,0,0,0,0L-501.2-2874.7z M-481.7-2874.7C-481.7-2874.7-481.7-2874.7-481.7-2874.7c0,0.3,0,0.5-0.1,0.8
		c0,0,0,0,0,0.1v0.1h7.3v-0.1l0.5-0.9L-481.7-2874.7z M-472.2-2874.7h-0.8v0.9h1L-472.2-2874.7z"/>
	<path class="st1" d="M-431.7-2861.1l-6.1-0.1l-4.7-0.1l-9.6-0.2h-0.4l-8.1-0.1l0,0l-16.2-0.3l-8.8-0.1l-1.1,0h-0.4l-0.8,0h-0.4
		l-4.5-0.1l-2.6,0l-0.7,0h-0.3l-4.8-0.1l-4.7-0.1l-37.8-0.6h-0.5l-14.3-0.2l-0.9,0l0,0l-6.9-0.1l-4.7-0.1l-4.2-0.1h-0.4l-16.7-0.3
		l0,0l-5.5-0.1l-15.1-0.3l-1.5,0h0l-3.1-0.1l-15.3-0.3c-0.1-1.4-0.1-2.8-0.1-4.2c0-0.9,0-1.9,0-2.8l15.3,0.3l3,0.1h0.1l1.7,0l7,0.2
		l3.8,0.1l22.4,0.5l1.6,0l7.1,0.2l0.9,0l1.6,0l2.1,0h0.2l6.7,0.1l9.6,0.2l0.6,0l23,0.5h0.4l20.1,0.4l3.1,0.1l0.5,0h0.4l0.7,0l0.9,0
		l0,0l4,0.1h0.4l1.3,0h0.5l0.5,0l2.8,0.1l9.8,0.2h0.4l0.7,0l27.1,0.6h0.4l10,0.2l4.2,0.1l0.5,0.1l3.4,0.5c0.4,0.7,0.7,1.3,1.1,2
		C-432.7-2863.6-432.1-2862.4-431.7-2861.1z"/>
	<path class="st2" d="M-431.7-2861.1l-6.1-0.1l-4.7-0.1l-9.6-0.2h-0.4l-8.1-0.1l0,0l-16.2-0.3l-8.8-0.1l-1.1,0h-0.4l-0.8,0h-0.4
		l-4.5-0.1l-2.6,0l-0.7,0h-0.3l-4.8-0.1l-4.7-0.1l-37.8-0.6h-0.5l-14.3-0.2l-0.9,0l0,0l-6.9-0.1l-4.7-0.1l-4.2-0.1h-0.4l-16.7-0.3
		l0,0l-5.5-0.1l-15.1-0.3l-1.5,0h0l-3.1-0.1l-15.3-0.3c-0.1-1.4-0.1-2.8-0.1-4.2l15.4,0.3l3.2,0.1h0l1.5,0l8.9,0.2l5,0.1l8.5,0.2
		l8.4,0.2l0,0l4.8,0.1h0.1l5.3,0.1h0.2l0.6,0l4.7,0.1h0.1l2.4,0l0.8,0l1.5,0l13.8,0.3h0.6l41.2,0.8l4.7,0.1l4,0.1h0.5l3.3,0.1l0.6,0
		h0.5l9.9,0.2h0.4l0.7,0l11.8,0.2l0,0l12.9,0.3l0,0l3.6,0.1h0.3l10.2,0.2l4.7,0.1l4.5,0.1C-432.7-2863.6-432.1-2862.4-431.7-2861.1
		L-431.7-2861.1z"/>
	
		<linearGradient id="SVGID_1_" gradientUnits="userSpaceOnUse" x1="-609.7899" y1="-2801.8687" x2="-609.7899" y2="-2800.8687" gradientTransform="matrix(80.9212 0 0 -111.3831 48855.3047 -314911.0625)">
		<stop  offset="0" style="stop-color:#808080;stop-opacity:0.251"/>
		<stop  offset="0.54" style="stop-color:#808080;stop-opacity:0.122"/>
		<stop  offset="1" style="stop-color:#808080;stop-opacity:0.102"/>
	</linearGradient>
	<path class="st3" d="M-449.1-2841.2c-0.1,0.1-0.3,0.2-0.4,0.3c-0.3,0.2-0.5,0.4-0.8,0.6l0,0c-0.4,0.3-0.8,0.7-1.2,1
		c-0.2,0.2-0.5,0.4-0.7,0.7c-0.2,0.2-0.4,0.4-0.5,0.5c-0.3,0.3-0.7,0.7-1,1.1l-0.3,0.3c-0.2,0.3-0.5,0.6-0.7,0.8
		c-0.3,0.4-0.6,0.7-0.9,1.1c-0.4,0.5-0.8,1.1-1.3,1.6c-0.1,0.2-0.2,0.3-0.4,0.5c-0.7,0.8-1.4,1.7-2.1,2.5l-18.5,0h-5.1l-0.1,0l0,0
		l-0.5-0.3l-0.2-0.1c-0.6-0.3-1.1-0.7-1.7-1l-0.1-0.1c-0.8-0.5-1.6-0.9-2.4-1.3c-0.5-0.3-1-0.5-1.5-0.7c-1.6-0.8-3.3-1.4-5-2
		c-2.2-0.7-4.5-1.3-6.8-1.6c-0.9-0.2-1.9-0.3-2.8-0.4c-0.6-0.1-1.2-0.1-1.8-0.1c-5-0.3-10,0.4-14.8,1.8c-0.7,0.2-1.3,0.4-1.9,0.6
		c-0.1,0-0.2,0.1-0.4,0.1c0-0.1,0-0.2,0.1-0.3c0.4-1,1-1.9,1.9-2.6c0.4-5.2,4.8-9.3,4.8-9.3l10.3-4.4l0.1-0.1c1.5-1,3-1.9,4.7-2.5
		c0.1-0.1,0.3-0.1,0.4-0.1c1.9-0.4,3.5-1.9,4.9-2.7c0.6-0.4,0.7-1.6,0.6-3c0-0.1,0-0.2,0-0.3l-0.3,0l-0.1-0.2l-0.1-0.2
		c0,0,0-0.1,0-0.1h-0.3c-0.1-0.3-0.2-0.6-0.3-0.9c-0.3-0.8-0.5-1.7-0.7-2.5c0,0,0-0.1,0-0.1c-0.1-0.4-0.1-0.8-0.1-1.2
		c0-0.3,0-0.6,0.1-0.9c0-0.1,0-0.2,0.1-0.4l-0.2,0l0,0l-0.5,0l-0.2,0l-0.1,0l-3.2,0.3l-0.3,0l-0.2,0c0,0,0,0,0,0v0l-0.3,0l-0.2,0
		c0-0.1,0-0.2,0.1-0.3l-0.3,0l-0.1,0c-1.1,0.1-2.3,0.1-3.4,0c-3.3-0.3-6.5-0.7-9.7-1.3c0,0-6,1.3-10.4-0.7c-0.8-0.4-1.6-0.9-2.2-1.5
		l0,0c-0.6-0.6-1.1-1.4-1.5-2.2c-0.1-0.3-0.2-0.6-0.3-1c-0.1-0.3-0.1-0.6-0.1-0.9c0.4-4.2,11.8-1.4,14.1-0.2
		c0.1,0.1,0.3,0.1,0.4,0.2c1.7,0.6,4.5,0.4,6.4,0.2l0.4-0.1c-0.1,0-0.1-0.1-0.2-0.1l-0.1,0c1-0.6,2-1,3.1-1.3c0.7-0.2,1.3-0.2,2-0.2
		c0.7,0,1.4,0.1,2.1,0.2h0c0.2,0,0.4-0.1,0.5-0.1c0.6-0.2,1-0.8,0.8-1.5c-0.1-0.7,0-1.4,0.2-2.1c0,0,1,0.3,0.9-1.1l0,0
		c0-0.3-0.1-0.5-0.2-0.8c0-0.1-0.1-0.3-0.1-0.4v0c-0.2-1.5-0.1-3,0.3-4.5l0.5-0.7l0-0.1l0-0.1l-0.3-1.5l0,0l-0.1-0.3l-0.1-5
		c0,0-0.1-7.9,2.5-9l0-0.4l0-0.6c-0.6-0.2-1.2-0.5-1.7-0.8c-0.1-0.1-0.3-0.2-0.4-0.4l0,0c-0.1-0.2-0.1-0.3-0.1-0.5
		c0.1-0.2,0.2-0.4,0.3-0.5c0.8-0.8,1.4-1.8,1.7-3c0,0,0.3-0.5,0.7-1.2c0-0.1,0.1-0.1,0.1-0.2c-0.5-1.7-1-3.4-1.5-4.9
		c0-0.1-0.1-0.3-0.1-0.4c0-0.1-0.1-0.2-0.1-0.3c-0.1-0.1-0.1-0.3-0.1-0.4l-0.2,0c-0.6,0.1-1.3,0.2-1.9,0.2
		c-5.9,0-10.7-4.8-10.7-10.7c0-0.8,0.1-1.6,0.3-2.4c0-0.2,0.1-0.3,0.1-0.5c0-0.1,0.1-0.2,0.1-0.3c-0.4-0.1-0.8,0-1.1,0.1
		c-0.5,0.2-1,0.6-1.5,0.9c-0.5,0.3-1.1,0.4-1.6,0.4c-0.3,0-0.7,0-1-0.1l0,0c-0.4-0.1-0.8-0.3-1.2-0.6c0.1,0,0.2,0,0.2,0h0.1l0.2,0
		h0.1c0.1,0,0.1,0,0.2-0.1l0,0c0.1,0,0.1,0,0.2-0.1l0.1,0l0.2-0.1l0,0c0.1,0,0.1-0.1,0.2-0.1c0,0,0,0,0,0l0.2-0.1l0,0
		c0.1,0,0.1-0.1,0.2-0.1c0.3-0.2,0.5-0.4,0.7-0.7c0.7-0.8,1.2-1.7,1.7-2.7l1.3-2.5c0.3-0.5,0.5-1,0.8-1.5c0.2-0.3,0.4-0.6,0.7-0.9
		c0.2-0.3,0.5-0.5,0.8-0.7c0.6-0.3,1.2-0.5,1.9-0.6c1-0.1,2.1,0.1,3.2,0.1c1.4-0.1,2.8-0.4,4.1-1c0.6-0.3,1.3-0.5,1.9-0.6l0,0
		c0.3-0.1,0.5-0.1,0.8-0.1c0.8,0,1.5,0.2,2.2,0.5c1,0.5,1.9,1.1,2.7,2c0.1,0.1,0.2,0.2,0.3,0.4c0.3,0.3,0.5,0.6,0.8,0.9
		c0.2,0.3,0.4,0.5,0.6,0.8c1,1.2,2.3,2.1,3.3,3.3c1.1,1.2,1.6,2.8,1.5,4.4v0l0,0c0,0.1,0,0.2-0.1,0.3c0,0,0,0.1,0,0.1
		c0,0.1,0,0.2-0.1,0.2l0,0.1c0,0.1-0.1,0.2-0.1,0.2c-0.2,0.6-0.4,1.2-0.4,1.8c0,0.1,0,0.2,0,0.3l0,0c0.1,0.8,0.4,1.6,0.7,2.3
		c0.1,0.3,0.2,0.7,0.2,1.1v0.4c0,0.1,0,0.2,0,0.3l0,0c0,0,0,0,0,0c0,0,0,0,0,0v0c0,0.1,0,0.1,0,0.1c0,0,0,0,0,0l-0.1,0.1l0,0.1
		c0,0,0,0.1-0.1,0.1c0,0,0,0,0,0c0,0-0.1,0.1-0.1,0.1c0,0-0.1,0.1-0.1,0.1l0.3,0.2c0,0,0.1,0,0.1,0.1c1.7,0.4,3.5,0.7,5.2,0.9
		c0.6,0.1,1.1,0.3,1.6,0.6c2.9,1.5,5.2,3.9,6.6,6.9c1,2.1,2.2,4.4,2.8,4.9c0.6,0.5,1.1,1.2,1.4,1.9c0.2,0.3,0.4,0.6,0.5,0.9
		c0.3,0.7,0.5,1.2,0.5,1.2s4.9,3.3,4.3,6.5c0,0,1.1,3.6,2.1,4.6c1,1,3.4,9.4,3.4,9.4c0.5,0.8,0.8,1.8,0.8,2.8
		c0.1,1.3,0.4,2.5,0.9,3.7c0,0,0.2,1.1,0.5,2.1c0.1,0.3,0.2,0.6,0.3,0.9c0.1,0.5,0.3,0.9,0.6,1.3c0.6,0.5,0.3,1.6,0.3,1.6
		c0.3,0.8,0.7,1.7,1.1,2.5c0.1,0.3,0.2,0.6,0.2,0.9c0,0.5,0,1-0.1,1.4c0,0-0.1,0.4-0.1,1c-0.1,0.9,0,1.9,0.3,2.8
		c0.2,0.3,0.3,0.6,0.3,0.9c0.2,1.3,0,3.2,0.5,3.7c0.7,0.6,0.4,6.1,0.4,6.1S-450.1-2845-449.1-2841.2z"/>
	<path class="st4" d="M-476-2854.8l-0.7,0.6l-3.4,2.8l-0.7,0.6l-3,2.5c0,0-8.5,4.9-17.3,9.1c-0.9,0.4-1.9,0.9-2.8,1.3
		c-0.6-0.1-1.2-0.1-1.8-0.1c-5-0.3-10,0.4-14.8,1.8c-0.1-0.7-0.1-1.3,0-2c0.4-5.1,4.7-9.2,4.7-9.2l10.2-4.4h0l4.7-2l7.1-3.1l2.2,0.3
		l4.1,0.5L-476-2854.8z"/>
	<path class="st5" d="M-476-2854.8l-0.7,0.6l-3.4,2.8l-0.7,0.6l-3,2.5c0,0-8.5,4.9-17.3,9.1c-0.9,0.4-1.9,0.9-2.8,1.3
		c-0.6-0.1-1.2-0.1-1.8-0.1c-5-0.3-10,0.4-14.8,1.8c-0.1-0.7-0.1-1.3,0-2c0.4-5.1,4.7-9.2,4.7-9.2l10.2-4.4h0l4.7-2l7.1-3.1l2.2,0.3
		l4.1,0.5L-476-2854.8z"/>
	<path class="st6" d="M-485.1-2834.2l0,0.2l-0.1,1l0,0.2l0,0.1l-0.1,0.4l-0.1,0.6l-0.1-0.1c-0.8-0.5-1.6-0.9-2.4-1.3
		c-0.5-0.3-1-0.5-1.5-0.7c-1.6-0.8-3.3-1.4-5-2l0.5-0.8l2.8,0.8l4,1.2l0.7,0.2l0.6,0.2L-485.1-2834.2z"/>
	<path class="st5" d="M-485.1-2834.2l0,0.2l-0.1,1l0,0.2l0,0.1l-0.1,0.4l-0.1,0.6l-0.1-0.1c-0.8-0.5-1.6-0.9-2.4-1.3
		c-0.5-0.3-1-0.5-1.5-0.7c-1.6-0.8-3.3-1.4-5-2l0.5-0.8l2.8,0.8l4,1.2l0.7,0.2l0.6,0.2L-485.1-2834.2z"/>
	<path class="st7" d="M-491.5-2837.4l5.5,2.2l0.8,2.5l-5.6-2.2L-491.5-2837.4z"/>
	<path class="st5" d="M-491.5-2837.4l5.5,2.2l0.8,2.5l-5.6-2.2L-491.5-2837.4z"/>
	<path class="st6" d="M-455.6-2834.9c-0.4,0.5-0.8,1.1-1.3,1.6c-0.1,0.2-0.2,0.3-0.4,0.5c-0.7,0.8-1.4,1.7-2.1,2.5l-0.1,0.1l-23.3,0
		l0,0l-0.2-0.1l-0.1,0l0,0l-0.5-0.3l-0.2-0.1c-0.6-0.3-1.1-0.7-1.7-1l-0.1-0.1l0-0.5l0-0.4l0,0l0-0.8l0,0l0-0.3l0.3,0L-455.6-2834.9
		z"/>
	<path class="st8" d="M-477.8-2830.3h-0.2l-2.1,0h-0.1l-2.8,0l-0.5-0.3l0-1.7v-0.4l0-0.8l5.3-0.3l0.2,0l0.1,1l0,0.4L-477.8-2830.3
		L-477.8-2830.3z"/>
	<path class="st6" d="M-478-2830.3L-478-2830.3l-2.3,0l-2.7,0l0,0l-0.5-0.3l-0.2-0.1l0-1.6v-0.4l0-0.8l5.5-0.3v0l0.1,0.9l0,0.4
		L-478-2830.3L-478-2830.3z"/>
	<path class="st9" d="M-478-2830.3L-478-2830.3l-2.3,0l-2.7,0l0,0l-0.5-0.3l-0.2-0.1l0-1.6v-0.4l0-0.8l5.5-0.3v0l0.1,0.9l0,0.4
		L-478-2830.3L-478-2830.3z"/>
	<path class="st8" d="M-485.1-2834l29.5-0.9c-0.4,0.5-0.8,1.1-1.3,1.6c-0.1,0.2-0.2,0.3-0.4,0.5l-20.7,0.4h-0.2l-5.3,0.1h-0.2
		l-1.5,0c0,0-0.1,0-0.1,0c-0.1,0-0.1,0-0.2,0l0-0.4l0,0l0-0.8l0,0l0-0.3L-485.1-2834z"/>
	<path class="st7" d="M-453.7-2837.1l-0.3,0.3c-0.2,0.3-0.5,0.6-0.7,0.8c-0.3,0.4-0.6,0.7-0.9,1.1c-0.4,0.5-0.8,1.1-1.3,1.6
		l-21.1,0.4h-0.2l-5.3,0.1h-0.2l-1.5,0h-0.1c-0.1,0-0.1,0-0.2,0h0c-0.6-0.1-1-0.7-0.9-1.3l0.1-0.5l0.1-0.5l0-0.3l0.1-0.5l0-0.1
		L-453.7-2837.1z"/>
	<path class="st6" d="M-452.5-2839.8l1,0.4c-0.2,0.2-0.5,0.4-0.7,0.7c-0.2,0.2-0.4,0.4-0.5,0.5c-0.3,0.3-0.7,0.7-1,1.1l-0.3,0.3
		c-0.2,0.3-0.5,0.6-0.7,0.8l-30.9,0.8h-0.4l-0.2-0.6l-1.3-4.8l29.9,0.7l0,0l1.7,0L-452.5-2839.8z"/>
	<path class="st4" d="M-450.3-2840.4c-0.4,0.3-0.8,0.7-1.2,1c-0.2,0.2-0.5,0.4-0.7,0.7c-0.2,0.2-0.4,0.4-0.5,0.5
		c-0.3,0.3-0.7,0.7-1,1.1l-0.3,0.3c-7.4,0.9-14.9,1.2-22.4,0.9c-3.1-0.2-6.2,0.1-9.2,0.8l0,0l-0.4,0.1l-0.3,0.1
		c-0.3,0.1-0.5,0.2-0.8,0.2c-0.6,0.2-1.2,0.4-1.8,0.6l-0.6,0.2c-1.6-0.8-3.3-1.4-5-2c-2.2-0.7-4.5-1.3-6.8-1.6
		c-0.9-0.2-1.9-0.3-2.8-0.4c-0.6-0.1-1.2-0.1-1.8-0.1c-5-0.3-10,0.4-14.8,1.8c-0.7,0.2-1.3,0.4-1.9,0.6l0-0.1c0.4-1,1-1.9,1.9-2.6
		c3.3-2.9,9.5-5.7,9.5-5.7l3.3-1.4l0,0l2.1-0.9l4.7-2l9.9-4.2l0.1,0l2.3-1l2.1-0.9c1.5-0.4,3-0.6,4.5-0.6h0.6c0.1,0,0.3,0,0.4,0h0.3
		c0.4,0,0.7,0,1.1,0.1c0.1,0,0.3,0,0.4,0h0.1l0.3,0c0.1,0,0.2,0,0.4,0l0.4,0.1c0.2,0,0.5,0.1,0.7,0.1c0.4,0.1,0.7,0.1,1.1,0.2
		l0.5,0.1c0.5,0.1,1.1,0.3,1.6,0.4l0.5,0.1l0.3,0.1l0.4,0.1c1,0.3,2,0.6,3,1l0.5,0.2l0.5,0.2c0,0,0,0,0,0c0.3,0.1,0.6,0.2,0.9,0.4
		c1.7,0.7,3.4,1.5,5,2.2l0.5,0.3l0.3,0.1c0.2,0.1,0.4,0.2,0.6,0.3l0.6,0.3l0.3,0.1l0.3,0.1l0.3,0.1c0.6,0.3,1.2,0.7,1.8,1
		c0.2,0.1,0.3,0.2,0.5,0.3l0.2,0.1c0.3,0.2,0.6,0.4,0.9,0.6c0.2,0.1,0.3,0.2,0.5,0.3c0.2,0.1,0.4,0.3,0.7,0.4
		c0.1,0.1,0.3,0.2,0.4,0.3l0.2,0.1c0.1,0.1,0.3,0.2,0.4,0.3l0.2,0.2c0.2,0.1,0.3,0.2,0.4,0.3c0.1,0.1,0.1,0.1,0.2,0.2l0.1,0l0.5,0.4
		h0l0.3,0.2l0.3,0.2c0.2,0.2,0.4,0.3,0.6,0.5l0.3,0.2l0.1,0.1l0.1,0.1l0.2,0.2l0.1,0.1c0.1,0,0.1,0.1,0.2,0.1
		c0.2,0.2,0.4,0.4,0.5,0.6c0.1,0.2,0.2,0.3,0.3,0.5L-450.3-2840.4z"/>
	<path class="st10" d="M-500.6-2867.1c-0.6,0.2-1.2,0.4-1.8,0.4c-4.3,0.3-13-1.3-13-1.3s-10.9,2.4-13.9-4.4s11-3.4,13.6-2.1
		c1.7,0.8,4.7,0.6,6.7,0.3c1.1-0.2,1.9-0.3,1.9-0.3S-497.9-2868.4-500.6-2867.1z"/>
	<path class="st11" d="M-488.6-2879.3l-2.5,12l-7.3,0.6l-3.6,0.3c0.9-3.7-6.8-7.9-6.8-7.9c3.9-2.4,6.2-1.3,7.1-1.3
		c0.1,0,0.1,0,0.2,0c0.8-0.1,1.5-0.6,1.3-1.6c-0.1-0.7-0.1-1.4,0.2-2.1c0,0,1.4,0.4,0.7-1.9c-0.4-1.6-0.3-3.3,0.2-4.9l0.5-0.7
		l0.8-2.5l3.3,3.4L-488.6-2879.3z"/>
	<path class="st5" d="M-488.6-2879.3l-2.5,12l-7.3,0.6l-3.6,0.3c0.9-3.7-6.8-7.9-6.8-7.9c3.9-2.4,6.2-1.3,7.1-1.3l0.2,0
		c0.8-0.1,1.5-0.6,1.3-1.6c-0.1-0.7-0.1-1.4,0.2-2.1c0,0,1.4,0.4,0.7-1.9c-0.4-1.6-0.3-3.3,0.2-4.9l0.5-0.7l0.8-2.5l3.3,3.4
		L-488.6-2879.3z"/>
	<path class="st8" d="M-496.9-2867.5c-0.4,0.3-0.7,0.5-1,0.7l-3.6,0.3c0.9-3.7-6.8-7.9-6.8-7.9c3.9-2.4,6.2-1.3,7.1-1.3
		c0.1,0,0.1,0,0.2,0c0.8,1.2,1.8,2.2,3,3.1C-496.9-2872-494-2869.5-496.9-2867.5z"/>
	<path class="st8" d="M-500.6-2867.1c-0.6,0.2-1.2,0.4-1.8,0.4c0.4-3.2-5.2-6.6-6.6-7.5c1.1-0.2,1.9-0.3,1.9-0.3
		S-497.9-2868.4-500.6-2867.1z"/>
	<path class="st11" d="M-497.3-2867.5c-0.4,0.3-0.7,0.5-1,0.7l-3.6,0.3c0.9-3.7-6.8-7.9-6.8-7.9c3.9-2.4,6.2-1.3,7.1-1.3
		c0.1,0,0.1,0,0.2,0c0.8,1.2,1.8,2.2,3,3.1C-497.3-2872-494.4-2869.5-497.3-2867.5z"/>
	<path class="st5" d="M-497.3-2867.3c-0.4,0.3-0.7,0.5-1,0.7l-3.6,0.3c0.9-3.7-6.8-7.9-6.8-7.9c3.9-2.4,6.2-1.3,7.1-1.3
		c0.1,0,0.1,0,0.2,0c0.8,1.2,1.8,2.2,3,3.1C-497.3-2871.8-494.4-2869.4-497.3-2867.3z"/>
	<path class="st10" d="M-482.2-2918.3c0,0-14,19.5-12.8,16c0.7-2.3-1.3-9.1-2.8-13.4c-0.8-2.2-1.4-3.8-1.4-3.8s8-6.9,7.9-5.3
		c0,0.4,0.6,1.1,1.5,1.8C-487.4-2921.4-484.8-2919.8-482.2-2918.3z"/>
	<path class="st8" d="M-489.8-2923.2c-1.1,3.7-4.2,6.6-8,7.4c-0.8-2.2-1.4-3.8-1.4-3.8s8-6.9,7.9-5.3
		C-491.4-2924.5-490.8-2923.9-489.8-2923.2z"/>
	<path class="st10" d="M-489.4-2926.6c0,5.8-4.8,10.5-10.6,10.5s-10.5-4.8-10.5-10.6c0-5.8,4.8-10.5,10.6-10.5
		c2.8,0,5.5,1.1,7.4,3.1C-490.5-2932.1-489.4-2929.4-489.4-2926.6z"/>
	<path class="st8" d="M-450.3-2840.4c-0.4,0.3-0.8,0.7-1.2,1c-0.2,0.2-0.5,0.4-0.7,0.7c-0.2,0.2-0.4,0.4-0.5,0.5
		c-1.6-0.4-3.2-1-4.8-1.7l0,0c-1.1-0.4-2-1-2.8-1.8c-1.9-2.1-8.2-7.5-20.5-9.2c-3-0.4-6-0.5-9-0.5c-0.4,0-0.8,0-1.3,0l-0.2-1.1
		l0.1,0l2.3-1l2.1-0.9c1.5-0.4,3-0.6,4.5-0.6h0.6c0.1,0,0.3,0,0.4,0h0.3c0.4,0,0.7,0,1.1,0.1c0.1,0,0.3,0,0.4,0h0.1l0.3,0
		c0.1,0,0.2,0,0.4,0l0.4,0.1c0.2,0,0.5,0.1,0.7,0.1c0.4,0.1,0.7,0.1,1.1,0.2l0.5,0.1c0.5,0.1,1.1,0.3,1.6,0.4l0.5,0.1l0.3,0.1
		l0.4,0.1c1,0.3,2,0.6,3,1l0.5,0.2l0.5,0.2c0,0,0,0,0,0c0.3,0.1,0.6,0.2,0.9,0.4c1.7,0.7,3.4,1.5,5,2.2l0.5,0.3l0.3,0.1
		c0.2,0.1,0.4,0.2,0.6,0.3l0.6,0.3l0.3,0.1l0.3,0.1l0.3,0.1c0.6,0.3,1.2,0.7,1.8,1c0.2,0.1,0.3,0.2,0.5,0.3l0.2,0.1
		c0.3,0.2,0.6,0.4,0.9,0.6c0.2,0.1,0.3,0.2,0.5,0.3c0.2,0.1,0.4,0.3,0.7,0.4c0.1,0.1,0.3,0.2,0.4,0.3l0.2,0.1
		c0.1,0.1,0.3,0.2,0.4,0.3l0.2,0.2l0.4,0.3c0.1,0.1,0.1,0.1,0.2,0.2l0.1,0l0.5,0.4h0l0.3,0.2l0.3,0.2c0.2,0.2,0.4,0.3,0.6,0.5
		l0.3,0.2l0.1,0.1l0.1,0.1l0.2,0.2l0.1,0.1c0.1,0,0.1,0.1,0.2,0.1c0.2,0.2,0.4,0.4,0.5,0.6c0.1,0.2,0.2,0.3,0.3,0.5L-450.3-2840.4z"
		/>
	<path class="st11" d="M-451.5-2851.5c0,0,1.1,6.8,2,10.5c-0.3,0.2-0.5,0.4-0.8,0.6l0,0c-0.4,0.3-0.8,0.7-1.2,1
		c-0.2,0.2-0.5,0.4-0.7,0.7c-1.2-0.3-2.4-0.7-3.6-1.1c-1.7-0.5-3.2-1.4-4.6-2.5c-1.9-2-7.9-7.3-19.8-9.1c-3.1-0.4-6.2-0.6-9.3-0.6
		c-0.5,0-1.1,0-1.7,0l-0.1-0.5l-0.7-4.3l-0.7-4v0l-0.1-0.4v0l0-0.2l-0.1-0.8l-0.3-2l-0.2-1c0,0,0-0.1,0-0.3v-0.3c0-0.1,0-0.1,0-0.2
		c0,0,0-0.1,0-0.1l0-0.1c0,0,0,0,0,0c0-0.1,0-0.1,0-0.2c0,0,0,0,0,0c0-0.1,0-0.3,0-0.4c0-0.1,0-0.2,0-0.3c0-0.4-0.1-0.8-0.1-1.3
		c0-0.4-0.1-0.8-0.2-1.2c0-0.1,0-0.2,0-0.3c0-0.1,0-0.1,0-0.2l0,0c0-0.1,0-0.1,0-0.1c0-0.2-0.1-0.4-0.1-0.6c0,0,0-0.1,0-0.1
		c0-0.1,0-0.2-0.1-0.3s0-0.2-0.1-0.4c0,0,0,0,0,0c0-0.1,0-0.1,0-0.2c0-0.1,0-0.1,0-0.2c0-0.1-0.1-0.2-0.1-0.4l0-0.2
		c0-0.1,0-0.2-0.1-0.2c-0.1-0.4-0.2-0.7-0.4-1.1l0,0c0,0,0,0,0-0.1c0,0,0,0-0.1-0.1c-0.1-0.1-0.1-0.1-0.2-0.2c0,0-0.1-0.1-0.1-0.1
		c-0.1-0.1-0.1-0.2-0.2-0.3c0,0,0,0,0,0c0,0,0-0.1-0.1-0.1c-1-2.7-1.7-5.4-2.3-8.2l-0.8-4.1l0,0l-0.1-0.4l-0.3-1.4v-0.2l0,0
		l-0.1-4.8c0,0-0.1-7.8,2.5-8.9l-0.1-1c0,0-2-0.6-2.2-1.5c0-0.1,0-0.3,0-0.4l0,0c0.1-0.2,0.2-0.3,0.3-0.4c0,0,0.1-0.1,0.1-0.1
		c0.8-0.8,1.3-1.8,1.5-2.9c0,0,0.3-0.5,0.8-1.3c1.6-2.5,5-7.6,6.5-8.2c1.3-0.5,2.5-1.2,3.5-2.1l0.3,0.1l0,0c1.7,0.4,3.4,0.7,5.2,0.9
		c0.6,0.1,1.1,0.3,1.6,0.6c2.9,1.5,5.2,3.9,6.6,6.8c1,2.1,2.1,4.4,2.8,4.8c0.4,0.4,0.8,0.8,1,1.2c0.2,0.3,0.4,0.6,0.6,0.9
		c0.5,0.9,0.8,1.8,0.8,1.8s4.8,3.3,4.2,6.5c0,0,1,3.6,2.1,4.6s3.4,9.4,3.4,9.4c0.5,0.8,0.8,1.8,0.8,2.8c0.1,1.3,0.4,2.5,0.9,3.7
		c0,0,0.2,0.8,0.4,1.7c0.1,0.3,0.2,0.6,0.3,0.9c0.1,0.6,0.4,1.2,0.7,1.7c0.6,0.5,0.3,1.6,0.3,1.6c0.3,0.8,0.7,1.7,1.1,2.4
		c0.1,0.2,0.1,0.3,0.2,0.5c0.1,0.6,0.1,1.2,0,1.8c0,0,0,0.3-0.1,0.6c-0.1,0.9-0.1,2.5,0.3,3.1c0.1,0.2,0.2,0.4,0.2,0.6
		c0.3,1.2,0,3.5,0.6,4C-451.2-2856.9-451.5-2851.5-451.5-2851.5z"/>
	<path class="st10" d="M-484-2865.5c0,0-0.4,1-1,2.5c-1.2,2.9-3.2,7.7-4,10.2c-1.3,3.8-6.4,6-6.4,6s-10.2,3.5-13.7,0.9
		c-3.6-2.6,6.7-8.3,8.5-8.7c1.9-0.4,3.5-1.9,4.8-2.7c0.6-0.4,0.7-1.9,0.6-3.3c-0.1-1.1-0.2-2.2-0.4-3.2L-484-2865.5z"/>
	<path class="st8" d="M-470.1-2900.4c0,0,3.9-1.7,5.5,1S-470.1-2900.4-470.1-2900.4z"/>
	<path class="st8" d="M-455.9-2866c0,0-26.7,0.2-21.6,3.6c5,3.4,5.8,5,11.7,3.4S-455.9-2866-455.9-2866z"/>
	<path class="st8" d="M-489.4-2926.6c0,1.9-0.5,3.7-1.4,5.3c-0.4-0.2-0.8-0.4-1.1-0.7c-0.3-0.4-0.6-0.9-0.8-1.4
		c-0.5-1-1.1-2-1.8-2.8c-0.4-0.6-1.1-1.1-1.9-1.1c-1.2,0.1-2.1,2-3.3,1.6c-0.4-0.1-0.9-2.4-1.1-2.8c-0.5-1-0.8-0.7-1.6-0.3
		c-1.6,0.9-3.5,1.3-5.3,1.1c-0.6-0.1-1.2-0.4-1.7-0.9c-0.2-0.2-0.4-0.5-0.6-0.7c-0.1-0.1-0.2-0.2-0.3-0.2c1.6-5.7,7.4-9,13.1-7.4
		C-492.6-2935.6-489.4-2931.4-489.4-2926.6L-489.4-2926.6z"/>
	<path class="st12" d="M-499.5-2925.9c1.2,0.4,2.1-1.5,3.3-1.6c0.8,0,1.5,0.5,1.9,1.1c0.7,0.9,1.3,1.8,1.8,2.8
		c0.2,0.5,0.4,1,0.8,1.4c0.3,0.3,0.7,0.6,1.2,0.7l1.6,0.7c0.9,0.4,2.1,0.8,2.8,0c0.5-0.8,0.6-1.7,0.2-2.5c-0.4-0.8-0.6-1.7-0.7-2.6
		c0.2-0.9,0.4-1.9,0.7-2.8c0.2-1.6-0.4-3.2-1.5-4.4c-1-1.2-2.2-2.1-3.3-3.3c-0.6-0.7-1.1-1.4-1.7-2c-0.7-0.8-1.6-1.5-2.6-2
		c-0.7-0.3-1.4-0.5-2.2-0.5c-0.9,0.1-1.8,0.3-2.7,0.7c-1.3,0.6-2.7,0.9-4.1,1c-1.7,0.1-3.5-0.4-5,0.5c-1,0.8-1.8,1.9-2.3,3.1
		l-1.3,2.5c-0.4,1-1,1.9-1.6,2.7c-0.6,0.8-1.6,1.3-2.6,1.4c1.1,0.8,2.6,1,3.8,0.4c0.5-0.3,1-0.6,1.5-0.9c0.5-0.3,1.1-0.2,1.6,0.1
		c0.2,0.2,0.4,0.4,0.6,0.7c0.4,0.5,1,0.8,1.7,0.9c1.8,0.2,3.7-0.2,5.3-1.1c0.9-0.4,1.1-0.7,1.6,0.3
		C-500.3-2928.3-499.8-2926-499.5-2925.9z"/>
	<path class="st8" d="M-484-2865.5c0,0-0.4,1-1,2.5c-0.5,0.2-1,0.5-1.5,0.8c-1.4,0.7-2.6,1.4-2.6,1.4l-6.1,0.3
		c-0.1-1.1-0.2-2.2-0.4-3.2L-484-2865.5z"/>
	<path class="st8" d="M-474-2894.9l-1.5,5.2c-0.9,1.9-1.1,4-0.7,6.1c0.7,3-0.4,7.5-0.4,7.5l-2.3,5.9c0,0-2.9,6.1-3.4,6.1
		c-1.3,0.5-2.6,1.1-3.8,1.8c-1.4,0.7-2.6,1.4-2.6,1.4l-6.8,0.4c-2.3-5.9-0.7-7,0.4-7.1c0.3,0,0.6,0,0.8,0.1l1.5-9.4v-5.8
		c0,0,0.4-5.6,1.4-7.4c0.6-1.2,1.1-2.4,1.4-3.7c-0.5-0.9-0.8-1.8-1.1-2.8c-0.1-0.8-0.2-1.6-0.3-2.4c0,0-1,0.1-1.3-8.3s6-10.8,6-10.8
		c7.6-2.3,12,4.1,15,8.7S-474-2894.9-474-2894.9z"/>
	<path class="st8" d="M-474.9-2895.3l-1.5,5.2c-0.9,1.9-1.1,4-0.7,6.1c0.7,3-0.4,7.5-0.4,7.5l-2.3,5.9c0,0-2.9,6.1-3.4,6.1
		c-1.3,0.5-2.6,1.1-3.8,1.8c-1.4,0.7-2.6,1.4-2.6,1.4l-3,0.2l-0.7-4c-0.2-2.6-0.6-5.1-1.1-7.6l0.7-4.6v-5.8c0,0,0.4-5.6,1.4-7.4
		c0.6-1.2,1.1-2.4,1.4-3.7c-0.5-0.9-0.8-1.8-1.1-2.8c-0.1-0.8-0.2-1.6-0.3-2.4c0,0-1,0.1-1.3-8.3s6-10.8,6-10.8
		c7.6-2.3,12,4.1,15,8.7S-474.9-2895.3-474.9-2895.3z"/>
	<path class="st11" d="M-474.5-2895.3l-1.5,5.2c-0.9,1.9-1.1,4-0.7,6.1c0.7,3-0.4,7.5-0.4,7.5l-2.3,5.9c0,0-2.9,6.1-3.4,6.1
		c-1.3,0.5-2.5,1.1-3.8,1.8c-1.4,0.7-2.6,1.4-2.6,1.4l-6.8,0.4c-2.3-5.9-0.7-7,0.4-7.1c0.3,0,0.6,0,0.8,0.1l1.5-9.4v-5.8
		c0,0,0.4-5.6,1.4-7.4c0.6-1.2,1.1-2.4,1.4-3.7c-0.5-0.9-0.8-1.8-1.1-2.8c-0.1-0.8-0.2-1.6-0.3-2.4c0,0-1,0.1-1.3-8.3
		c-0.3-8.5,6-10.8,6-10.8c7.6-2.3,12,4.1,15,8.7S-474.5-2895.3-474.5-2895.3z"/>
	<path class="st8" d="M-486.4-2862.9c-1.4,0.7-2.6,1.3-2.6,1.3l-6.8,0.4c-2.3-5.9-0.7-7,0.4-7.1c1.6,1.2,3.8,2.8,3.9,3.3
		S-488.6-2863.5-486.4-2862.9z"/>
	<path class="st11" d="M-486.6-2862.7c-1.4,0.7-2.6,1.4-2.6,1.4l-6.8,0.4c-2.3-5.9-0.7-7,0.4-7.1c1.6,1.2,3.8,2.8,3.9,3.3
		C-491.5-2864.2-488.8-2863.3-486.6-2862.7z"/>
	<g transform="translate(-516.601 -2966.054)" class="st13">
		<path d="M30.9,43.9c-0.7,0.8-1.9,0.4-2.8,0l-1.6-0.7c-0.4-0.2-0.8-0.4-1.2-0.7c-0.3-0.4-0.6-0.9-0.8-1.4c-0.5-1-1.1-2-1.8-2.8
			c-0.4-0.6-1.1-1.1-1.9-1.1c-1.2,0.1-2.1,2-3.3,1.6c-0.4-0.1-0.9-2.4-1.1-2.8c-0.5-1-0.8-0.7-1.6-0.3c-1.6,0.9-3.5,1.3-5.3,1.1
			c-0.6-0.1-1.2-0.4-1.7-0.9c-0.2-0.2-0.4-0.5-0.6-0.7c-0.5-0.3-1.1-0.4-1.6-0.1c-0.5,0.2-1,0.6-1.5,0.9c-0.7,0.4-1.5,0.5-2.3,0.3
			C1.3,36.7,0.7,37,0,37c1.1,0.8,2.6,1,3.8,0.4c0.5-0.3,1-0.6,1.5-0.9c0.5-0.3,1.1-0.2,1.6,0.1c0.2,0.2,0.4,0.4,0.6,0.7
			c0.4,0.5,1,0.8,1.7,0.9c1.8,0.2,3.7-0.2,5.3-1.1c0.9-0.4,1.1-0.7,1.6,0.3c0.2,0.4,0.7,2.7,1.1,2.8c1.2,0.4,2.1-1.5,3.3-1.6
			c0.8,0,1.5,0.5,1.9,1.1c0.7,0.9,1.3,1.8,1.8,2.8c0.2,0.5,0.4,1,0.8,1.4c0.3,0.3,0.7,0.6,1.2,0.7l1.6,0.7c0.9,0.4,2.1,0.8,2.8,0
			C30.8,44.9,31,44.4,30.9,43.9C30.9,43.9,30.9,43.9,30.9,43.9z"/>
		<path d="M30.8,37.1c-0.2,0.5-0.3,0.9-0.4,1.4c0.1-0.4,0.3-0.8,0.3-1.1C30.8,37.3,30.8,37.2,30.8,37.1z"/>
	</g>
	<path class="st8" d="M-527.5-2837.2c0,0-1.3,3.6-3.9,3.6L-527.5-2837.2z"/>
	
		<linearGradient id="SVGID_2_" gradientUnits="userSpaceOnUse" x1="-609.7595" y1="-2801.8582" x2="-609.7595" y2="-2800.8582" gradientTransform="matrix(90.5869 0 0 -117.2279 54666.6758 -331286.2813)">
		<stop  offset="0" style="stop-color:#808080;stop-opacity:0.251"/>
		<stop  offset="0.54" style="stop-color:#808080;stop-opacity:0.122"/>
		<stop  offset="1" style="stop-color:#808080;stop-opacity:0.102"/>
	</linearGradient>
	<path class="st14" d="M-526.1-2844.3c-0.5-1-1.1-2-1.7-3l-0.3-0.4h0.2c0.2,0,0.5-0.1,0.6-0.2l0,0c1.6-1.4-1.7-9.3-3.6-9.4
		c-1.3-0.1-3.7-0.2-5.4-0.2l-0.5,0c0-0.1,0-0.2-0.1-0.3c-1.2-0.3-2.2-0.9-3.1-1.6c-1-1.1-2.3-2.5-2.3-2.5c-0.6-0.2-1.1-0.6-1.5-1
		c-0.2-0.2-0.2-0.4-0.3-0.6c0-0.7-2.5-2.9-3.1-3.4l-0.1-0.1c0,0-0.2-1.1-1-1.3c-0.3-0.1-0.7-0.6-1.1-1.2c-0.3-0.6-0.6-1.2-0.9-1.8
		c0,0-1-1.2-1.8-2.4c-0.2-0.3-0.4-0.6-0.6-0.9c-0.2-0.3-0.3-0.6-0.4-1c-0.1-1-1.3-1.1-1.3-1.1c-0.4-0.8-0.8-1.7-1-2.6
		c0-0.5-1.6-1.6-1.6-1.6l-2.5-2.8c0,0,0.7-1.9-1.7-3.4c-2.4-1.5-2.7-5.8-2.7-5.8l-2.1-4.5l-0.2-0.5c0.2-0.1,0.3-0.3,0.5-0.4
		c0.2-0.3,0.3-0.8,0.1-1.1c-0.2-0.6-0.4-1.1-0.8-1.6c0,0,0-0.1-0.1-0.1c-0.1-0.2-0.2-0.3-0.2-0.3c0.1-0.1,0.2-0.1,0.2-0.2
		c0,0,0,0,0.1-0.1c0.2-0.4,0.2-0.8,0-1.2c0-0.1-0.1-0.2-0.1-0.3c-0.5-1.3-0.8-2.6-0.9-4l-1.8-5c-0.2-1.8-0.8-3.5-1.9-5
		c-0.4-0.5-1-0.9-1.6-1.2c-0.4-0.5-0.9-0.9-1.4-1.1l0,0c0-0.2-0.1-0.4-0.1-0.6c0-0.2,0-0.3-0.1-0.5c0.5,0.1,1.1,0.1,1.6,0.1
		c0.5,0,1,0,1.6-0.1c1.7-0.2,3.3-0.8,4.7-1.7c2.6-1.6,4.5-4.3,5.3-7.3l0,0c0.2-0.9,0.3-1.9,0.3-2.8c0-0.8-0.1-1.6-0.2-2.4
		c0-0.1,0-0.1,0-0.2c-0.1-0.3-0.1-0.6-0.2-0.9c0-0.1,0-0.1-0.1-0.2c0.6,0.1,1.1,0.2,1.7,0.2c0.2,0,0.4-0.1,0.6-0.2
		c0.1-0.1,0.3-0.3,0.3-0.5c0.1-0.2,0.2-0.5,0.3-0.8c0,0,0,0,0-0.1l0,0c0.1-0.2,0.1-0.5,0.2-0.7c0-0.2,0-0.4,0-0.6c0-0.1,0-0.2,0-0.3
		c0-0.1,0-0.3-0.1-0.4c0,0,0,0.1,0,0.1c0-0.1-0.1-0.2-0.1-0.3c-0.6-1.2-2.3-1.7-2.7-3.1c-0.2-0.6,0-1.4-0.5-1.9
		c-0.2-0.2-0.5-0.3-0.8-0.3c-1.1-0.5-2.1-1.1-2.9-1.9c-0.3-0.2-0.7-0.4-1-0.6c-0.7-0.3-1.5-0.4-2.3-0.1c-0.2,0.1-0.4,0.2-0.6,0.3
		c-0.6,0.2-1.2,0.3-1.9,0.2c-0.4,0-0.8-0.1-1.2-0.2c-1-0.3-2.1,0-2.9,0.6c-0.2,0.3-0.5,0.6-0.7,0.9c-0.6,0.4-1.4,0.2-2.1,0.1
		c-0.7-0.1-1.6-0.1-1.9,0.6c-0.1,0.2-0.1,0.4-0.1,0.6c-0.2,0.6-0.7,1-1.3,1.2c-0.6,0.1-1.2,0.3-1.8,0.3c-0.9,0.2-1.8,0.6-2.6,1.1
		c-0.4,0.2-0.6,0.6-0.8,0.9c0,0,0-0.1,0-0.1c-0.1,0.2-0.1,0.3-0.1,0.5c0,0.1,0,0.2,0,0.3c0,0.1,0,0.1,0.1,0.2
		c0.1,0.1,0.1,0.3,0.2,0.5c0,0.1,0,0.1,0,0.2c0,0.3-0.1,0.5-0.2,0.7c0,0.1-0.1,0.1-0.1,0.2c-0.2,0.2-0.4,0.5-0.6,0.7
		c-0.2,0.2-0.3,0.4-0.4,0.7l0,0l0,0c-0.1,0.2-0.1,0.4-0.1,0.6c0,0.2,0,0.3,0.1,0.4c0,0.1,0.1,0.1,0.1,0.2c0.2,0.2,0.4,0.3,0.7,0.5
		c0.6,0.5,0.8,1.3,0.8,2.1c0.1,1.1,0,2.3-0.2,3.4v0c-0.1,0.4-0.2,1.3-0.3,2.1l0,0v0.1c0,0,0,0,0,0c0,0.1,0,0.2,0,0.3
		c-0.1,0.6,0.1,1.2,0.4,1.6l0,0c0.1,0.1,0.2,0.2,0.3,0.2c0.3,0.1,0.6,0,0.8-0.1c-0.1,0.3-0.3,0.7-0.4,1l0,0c0,0.1,0,0.1-0.1,0.2
		c-0.2,0.4-0.3,0.8-0.5,1.1c-1-0.2-2.1-0.1-3.1,0.3c0,0-0.4,3.4-1.9,3.8c-1.5,0.4-6.9,4.9-6.9,4.9l-7.9,7.9l-0.2,0.2
		c0,0-0.2,0.3-0.5,0.7c-1.9,2.7-3.6,5.5-5.1,8.5c-0.5,1.3-0.8,2.5-1.1,3.8c-0.7,3-1.2,6.1-1.5,9.2l0,0c0.1,0.9-0.3,9.3-0.2,12.6
		c0,0.4,0,0.8,0.1,1.1c0.1,0.5,0.1,1.1,0.1,1.6c0,1.1,0,2.5-0.1,4.1c-0.1,4.3-0.4,9.3-0.4,9.3c0.5,1.6,1.2,3.2,1.9,4.8
		c0.1,0.2,0.2,0.3,0.3,0.3c0.4-0.1,1.7,3.1,1.7,3.1s0.5,0,1.4-0.1l0.3,0c0.1,0.1,0.1,0.3,0.2,0.4s0.1,0.3,0.2,0.4
		c0.1,0.1,0.1,0.3,0.2,0.4c0.9,1.7,1.8,3.4,2.5,3.6c1.3,0.4,5,2.2,5.3,3.1c0.3,0.8,5.3,1.7,7.5,1.7h1.1v0.4c0.1,1.1,1,1.9,2.1,2
		l1.6,0h0.1l0,0.4l0,0.1l0,0.4l-0.4,3.4h0.2l4.5,0.1h0.5v-0.1c0.2-0.1,0.4-0.1,0.7-0.2l0.3-0.1c3.9-1.3,8-2.1,12.1-2.6
		c1.4-0.1,2.7-0.1,4.1,0c0.2,0,0.4,0,0.6,0.1c4.4,0.4,8.6,2,12.8,3.3h0.5l1.3,0h0.2l4.3,0h0.4l0.1-3.5v-0.4l1.4,0
		c0.6,0,1.2-0.3,1.6-0.7l0,0c0.2-0.3,0.4-0.6,0.5-1c0-0.1,0-0.3,0-0.5v-0.3c0.6,0.8,0.6,2-0.1,2.8l0,0c-0.3,0.3-0.6,0.6-0.9,0.8
		c-0.9,0.5-1.6,1.2-2.2,2l0,0c-0.3,0.5-0.1,0.7-0.1,0.7h12.4c3-1.3,5.9-2.9,8.9-4.2c0,0,0,0,0,0l0,0l0.2-0.1
		C-524.1-2836.4-523.7-2841.4-526.1-2844.3z M-576.3-2882l0.1-0.3l0.2-0.6c0,0,0.1,0.1,0.1,0.1c2.3,3.4,4.5,6.5,4.5,6.5l0.4,0.4
		c-0.2,0-0.4,0.1-0.7,0.1c-0.8,0.1-1.6,0.2-2,0.2c-1-0.1-1.9-0.3-2.8-0.5l-1.1-0.5c0-0.5-0.1-0.9-0.2-1.4l0,0l-0.1-0.2l1.3-3.3
		L-576.3-2882z M-556.2-2861.4c1.8,1.3,4.1,2.8,6.4,4.2l-1,0l-5.5,0.1c-2.1-0.5-5.1-1.2-5.9-1.4c-0.4-0.1-2-0.6-4.1-1.1
		c-1.5-0.4-3.1-0.8-4.7-1.2l-3.2-0.8c0-0.1-0.1-0.2-0.1-0.3c-0.4-0.5-0.7-1-0.9-1.6c-0.2-0.5-0.3-1-0.5-1.5c0,0-1.9-0.2-2.2-0.8
		c-0.1-0.2-0.1-0.4,0.2-0.7c0.2-0.2,0.4-0.4,0.5-0.6c0-0.1,0.1-0.2,0.1-0.3c0.1-0.4,0.1-0.7,0-1.1l0,0c0-0.2-0.1-0.5-0.2-0.7
		c0.8,0.2,1.6,0.5,2.4,0.8c1.3,0.4,2.6,0.6,3.9,0.5c1,0,1.9-0.1,2.5-0.1h0.1c0.3,0,0.5,0,0.5,0s0.6,0.1,1.5,0.2
		c0.6,0.1,1.3,0.1,2,0.2c0.3,0,0.6,0,0.8,0l0.5,0.5l0.1,0.1c1.4,1.4,2.9,2.7,4.3,3.9C-557.7-2862.6-556.9-2861.9-556.2-2861.4
		L-556.2-2861.4z"/>
	<path class="st15" d="M-558.9-2856.5l19.2-0.4l6.7,3.7l1,8.7l-17.6-5.1L-558.9-2856.5z"/>
	<path class="st5" d="M-558.9-2856.5l19.2-0.4l6.7,3.7l1,8.7l-17.6-5.1L-558.9-2856.5z"/>
	<path class="st16" d="M-570-2869.8c0.7,0.7,1.4,1.4,2,2.2c0,0,6.8,1.2,8.4-0.3s-3.2-6.5-3.2-6.5l-4.3,0.2l-3.5,2.1L-570-2869.8z"/>
	<path class="st17" d="M-579.9-2876.9l3.3,1.5c0.9,0.2,1.9,0.4,2.8,0.5c0.7,0,3.9-0.4,3.9-0.4l2.8,1.1c0,0-2.5,4.8-0.9,6.5
		c0,0-5.1,0.5-7.1-0.4c-1.5-0.6-3-1-4.5-1.2L-579.9-2876.9z"/>
	<path class="st5" d="M-579.5-2876.8l3.3,1.5c0.9,0.2,1.9,0.4,2.8,0.5c0.7,0,3.9-0.4,3.9-0.4l2.8,1.1c0,0-2.5,4.8-0.9,6.5
		c0,0-5.1,0.5-7.1-0.4c-1.5-0.6-3-1-4.5-1.2L-579.5-2876.8z"/>
	<path class="st16" d="M-572.4-2912c0,0-21.5-4.9-17.7-5.6c2.5-0.4,4.7-6,6-10c0.7-2.3,1.2-4,1.2-4s12.4,5.8,9.6,7.7
		c-1.1,0.7-1.2,2.7-0.9,4.7C-573.9-2916.7-573.3-2914.3-572.4-2912z"/>
	<path class="st6" d="M-551.4-2835.2l0,0.4l0,0l0,1l0,0.4l-0.1,3.2v0.3h-1.3v0l-0.2,0v-0.2l-0.3-0.1c-4.2-1.3-8.5-2.8-12.8-3.3
		c-0.2,0-0.4,0-0.6-0.1c-1.4-0.1-2.7-0.1-4.1,0c-4.1,0.4-8.2,1.3-12.1,2.6l-0.3,0.1c-0.2,0.1-0.4,0.1-0.7,0.2l0.1-3.2v-1h1.4
		l11.5-0.1l4.7,0L-551.4-2835.2z"/>
	<path class="st8" d="M-582.4-2836l-0.1,1l0,0l-0.1,0.6l-0.1,0.4l0,0l-0.4,3l-0.3,0.1c-0.2,0.1-0.4,0.1-0.7,0.2v0.1h-0.5l-0.9,0.3
		h-3.6l0-0.3l0.4-3.4l0,0l0.1-0.4l0.1-0.9l5.7-0.6L-582.4-2836z"/>
	<path class="st6" d="M-582.6-2836L-582.6-2836l-0.1,1l-0.1,0.6l-0.1,0.4l-0.5,3c-0.2,0.1-0.4,0.1-0.7,0.2v0.1h-0.5l-0.9,0.3
		l-0.2,0.1l0,0l-3.6-0.1l0.5-3.7l0.1-0.5l0-0.4l0,0l0.1-0.5L-582.6-2836z"/>
	<path class="st8" d="M-547-2834.6l0,0.8l0,0.4l0,0l-0.1,3.1v0l-4.5,0.2l-0.8,0l-0.5,0l-0.2,0l0-0.2v-0.1l-0.1-3.2l0,0l0-0.4l0-1
		l0.2,0l1.5,0.1l0.2,0L-547-2834.6z"/>
	<path class="st6" d="M-546.8-2834.6l0,0.8l0,0.4l-0.1,3.1l0,0.3l-4.7,0h-0.7l0,0l-0.6,0v0l0-0.2v-0.2l-0.1-3.2l0-0.4l0-1v0l1.7,0.1
		L-546.8-2834.6z"/>
	<path class="st9" d="M-582.6-2836L-582.6-2836l-0.1,1l-0.1,0.6l-0.1,0.4l-0.5,3c-0.2,0.1-0.4,0.1-0.7,0.2v0.1h-0.5l-0.9,0.3
		l-0.2,0.1l0,0l-3.6-0.1l0.5-3.7l0.1-0.5l0-0.4l0,0l0.1-0.5L-582.6-2836z"/>
	<path class="st9" d="M-546.8-2834.6l0,0.8l0,0.4l-0.1,3.1l0,0.3l-4.7,0h-0.7l0,0l-0.6,0v0l0-0.2v-0.2l-0.1-3.2l0-0.4l0-1v0l1.7,0.1
		L-546.8-2834.6z"/>
	<path class="st8" d="M-573.3-2923.8c-1.1,0.7-1.2,2.7-0.9,4.7c-4.7-0.6-8.5-3.9-9.8-8.5c0.7-2.3,1.2-4,1.2-4
		S-570.5-2925.8-573.3-2923.8z"/>
	<path class="st16" d="M-560.9-2931.3c0,6.5-5.3,11.8-11.8,11.8c-6.5,0-11.8-5.3-11.8-11.8c0-6.5,5.3-11.8,11.8-11.8
		c5.2,0,9.8,3.4,11.3,8.4C-561.1-2933.6-560.9-2932.4-560.9-2931.3z"/>
	<path class="st8" d="M-561.4-2934.7c-0.9-0.3-1.9-0.5-2.8-0.6c-0.2,0-0.4,0-0.6,0.2c-0.3,0.2-0.2,0.7-0.3,1
		c-0.1,0.7-0.5,1.3-1.1,1.6c-0.8,0.4-1.7,0.3-2.4,0.9c-0.8,0.7-0.7,2-0.4,3.1c0.1,0.4,0.2,0.8,0.2,1.3c-0.1,1-0.9,1.8-2,1.8
		c-0.5,0-1-0.3-1.4-0.7c-0.6-0.8-0.5-1.8-0.7-2.8c-0.2-1.1-0.7-2.1-1.5-2.8c-0.3-0.4-0.8-0.6-1.3-0.8c-0.5-0.1-1,0-1.4,0.4
		c-0.5,0.5-0.4,1.3-0.5,2c-0.1,1.3-0.8,2.5-1.8,3.2c-1.1,0.6-2.2,1.1-3.4,1.4c-0.1,0-0.2,0.1-0.3,0.2c-3.2-5.7-1.3-12.9,4.4-16.1
		s12.9-1.3,16.1,4.4C-562-2936.4-561.7-2935.5-561.4-2934.7L-561.4-2934.7z"/>
	<path class="st18" d="M-582.9-2925.8c1.2-0.3,2.3-0.8,3.4-1.4c1-0.8,1.7-1.9,1.8-3.2c-0.1-0.7,0.1-1.4,0.5-2
		c0.4-0.4,0.9-0.5,1.4-0.4c0.5,0.1,0.9,0.4,1.3,0.8c0.8,0.8,1.3,1.8,1.5,2.8c0.2,1,0.1,2,0.7,2.8c0.6,0.8,1.8,0.9,2.6,0.3
		c0.4-0.3,0.7-0.8,0.7-1.4c0-0.4-0.1-0.9-0.2-1.3c-0.3-1.1-0.4-2.4,0.4-3.1c0.7-0.6,1.6-0.5,2.4-0.9c0.6-0.3,1-0.9,1.1-1.6
		c0-0.4,0-0.8,0.3-1c0.2-0.1,0.4-0.2,0.6-0.2c1.6,0,3.1,0.9,4.7,0.8c0.2,0,0.4-0.1,0.6-0.2c0.1-0.1,0.3-0.3,0.3-0.5
		c0.5-0.9,0.6-2.1,0.3-3.1c-0.6-1.2-2.3-1.7-2.7-3c-0.2-0.6,0-1.4-0.5-1.9c-0.2-0.2-0.5-0.3-0.8-0.3c-1.1-0.5-2-1.1-2.9-1.8
		c-0.9-0.8-2.1-1-3.3-0.6c-0.2,0.1-0.4,0.2-0.6,0.3c-1,0.3-2.1,0.3-3.1,0c-1-0.3-2.1,0-2.9,0.6c-0.2,0.3-0.5,0.6-0.7,0.9
		c-0.6,0.4-1.4,0.2-2.1,0.1c-0.7-0.1-1.6-0.1-1.9,0.6c-0.1,0.2-0.1,0.4-0.2,0.6c-0.2,0.6-0.7,1-1.3,1.1c-0.6,0.1-1.2,0.3-1.7,0.3
		c-0.9,0.2-1.8,0.6-2.6,1.1c-0.5,0.4-1.1,1-0.9,1.7c0.1,0.2,0.2,0.4,0.2,0.7c0.1,0.7-0.4,1.3-0.9,1.8c-0.5,0.5-0.8,1.3-0.4,1.9
		c0.2,0.2,0.4,0.3,0.7,0.5c0.6,0.5,0.8,1.3,0.8,2.1c0.1,1.1,0,2.3-0.2,3.4c-0.1,1-0.8,3.7,0.4,4.3
		C-585.4-2923.8-583.6-2925.5-582.9-2925.8z"/>
	<path class="st19" d="M-574.7-2873.8c0,0-2.8,0.1-2.5,1.2C-577-2871.6-574.7-2873.8-574.7-2873.8z"/>
	<path class="st15" d="M-525-2834.7L-525-2834.7C-525-2834.7-525-2834.7-525-2834.7c-3,1.3-6,3-9,4.3c-0.3,0.1-0.5,0.2-0.8,0.3
		c-1.9,0.8-3.8,1.3-5.8,1.6c-2.1,0.2-4.2,0.2-6.2-0.2c0-0.9,0.2-1.7,0.6-2.5l0,0c0.6-0.6,1.2-1.2,1.9-1.6c0.5-0.3,0.9-0.7,1.1-1.1
		l0,0c0.4-0.6,0.4-1.4,0.1-2c-0.1-0.1-0.1-0.3-0.2-0.4c-0.1-0.2-0.3-0.4-0.4-0.6h-36.5c0,0-8.6-0.1-12.2-0.1h-1.2
		c-2.2,0-7.2-0.8-7.5-1.6c-0.3-0.8-3.9-2.7-5.3-3c-0.7-0.2-1.7-2.1-2.7-4c-0.1-0.3-0.3-0.6-0.4-0.9c-0.1-0.1-0.1-0.3-0.2-0.4v0
		c-0.3-0.6-0.5-1.1-0.7-1.5l-0.1-0.2c0,0,0-0.1,0-0.1c0,0,0-0.1-0.1-0.1l0,0l0-0.1c-0.1-0.2-0.1-0.3-0.1-0.3l33.2-12.7l2.6,0.7
		c0.1,0,0.3,0.1,0.4,0.1l3.4,0.9c1.6,0.4,3.3,0.8,4.7,1.2c2,0.5,3.5,0.9,3.9,1.1c0.8,0.3,3.8,1,5.8,1.4l0,0c1.1,0.3,1.9,0.4,1.9,0.4
		s2.6,0.5,6.1,1.2l0.7,0.1l0.9,0.2c0.2,0,0.4,0.1,0.5,0.1l0,0c0.6,0.1,1.2,0.3,1.9,0.4l1.3,0.3c1.4,0.3,2.9,0.6,4.2,0.9l1,0.2
		l0.4,0.1l0.4,0.1c1.5,0.3,2.8,0.6,3.6,0.9c0.3,0.1,0.6,0.2,0.8,0.3c1.8,1,3.3,2.4,4.4,4.1c0.7,1.1,1.4,2.2,2,3.3
		C-524.1-2841.1-524.4-2836.5-525-2834.7z"/>
	<path class="st8" d="M-581.3-2853.1c0,0-1.4,6.2-5.8,8.5C-591.4-2842.4-581.3-2853.1-581.3-2853.1z"/>
	<path class="st8" d="M-571.9-2849.3c0,0-4.8,2.8-4.1,4.8L-571.9-2849.3z"/>
	<path class="st8" d="M-529-2841.4c0,0-1.3,5.6-4.2,5.7L-529-2841.4z"/>
	<path class="st8" d="M-546.8-2834.6l0,1.3l-4.7-0.1l-1.6,0l-29.8-0.5l-1.1,0l-4.8-0.1l0.2-1.3l5.9-0.7l-0.1,1l31.3-0.2l0,0.4
		L-546.8-2834.6z"/>
	<path class="st7" d="M-545.4-2833.8l-45-0.7c-1.1,0-2.1-0.9-2.1-2.1l0-1h49.2v1.7C-543.2-2834.7-544.2-2833.8-545.4-2833.8
		C-545.4-2833.8-545.4-2833.8-545.4-2833.8L-545.4-2833.8z"/>
	<path class="st8" d="M-577.5-2858.8c-0.9,0.7-1.8,1.5-2.5,2.4c-0.8,1.1-5.3,3.1-5.3,3.1c-5.7,5.9-18.9,7.4-23.7,7.8
		c-0.1-0.3-0.3-0.6-0.4-0.9c-0.7-1.5-1.2-2.8-1.2-2.8l33.2-12.7l2.6,0.7c0.1,0.3,0.3,0.5,0.5,0.7c0.1,0.1,0.1,0.2,0.1,0.3
		C-573.9-2859.2-577.5-2858.8-577.5-2858.8z"/>
	<path class="st20" d="M-574.4-2861.1c0.2,1-3.3,1.4-3.3,1.4c-0.9,0.7-1.8,1.5-2.5,2.5c-0.8,1.1-5.3,3.1-5.3,3.1
		c-5.7,6-19.2,7.4-23.9,7.8c-1,0.1-1.6,0.1-1.6,0.1s-1.3-3.1-1.7-3c-0.4,0.1-2.2-5.1-2.2-5.1s0.7-13.4,0.4-14.9s0.1-12.6,0.1-13.6
		s1.3-9.9,2.6-12.9s5.6-9.1,5.6-9.1l8-8c0,0,5.4-4.5,6.9-4.9c1.5-0.4,1.9-3.8,1.9-3.8c3.6-1.5,7.8,1.6,7.8,1.6
		c3.7-0.1,3.3,0.6,3.3,0.6l2.2,0.4l0.1,0.6l2.7,29.1l-3.2,8l-1.5,3.8c0.4,1.3,0.3,2.7-0.1,3.9c-0.8,2.1,0.6,4.5,0.6,4.5
		s0.9,1.9-0.3,3c-1.2,1.1,2,1.5,2,1.5c0.2,1.1,0.7,2.2,1.3,3.1C-574.4-2861.3-574.4-2861.2-574.4-2861.1z"/>
	<path class="st8" d="M-590.1-2869.6c0,0-1.5,2.8,1.2,3.3c2.7,0.4,9.6-0.3,10.5-0.3C-577.6-2866.6-590.1-2869.6-590.1-2869.6z"/>
	<path class="st8" d="M-590.4-2879c0.4,0.7,8.4,7.4,11.1,8.6L-590.4-2879z"/>
	<path class="st8" d="M-584.7-2883.8c0,0,4,7.2,5.3,8.3c1.3,1.1,0.2-4,0.2-4L-584.7-2883.8z"/>
	<path class="st8" d="M-596-2904.3c0,0,10.2,6.6,9.7,11.3S-596-2904.3-596-2904.3z"/>
	<path class="st8" d="M-608-2883c0,0-2.6,20.6,18,20.2C-590-2862.8-606.8-2869-608-2883z"/>
	<path class="st16" d="M-528.2-2847.3c-3-0.1-11.4-3.1-11.4-3.1l0-0.2l1.4-6.5l1.7,0.1c1.7,0.1,4.1,0.1,5.4,0.2
		C-529.1-2856.7-525.3-2847.2-528.2-2847.3z"/>
	<path class="st8" d="M-576-2918.4l2.7,29.1l-3.2,8c-2.5-3.6-5.3-7.7-6-8.8c-1.5-2.1-4.5-12.3-4.5-12.3s-0.9-9,5.1-13.7
		C-579.3-2918.1-577.4-2918.5-576-2918.4z"/>
	<path class="st8" d="M-538-2852.7c-0.5,1.1-1.3,2-2.2,2.8c0,0-3.9-2.2-8.3-5C-545.3-2854.2-541.2-2853.4-538-2852.7z"/>
	<path class="st8" d="M-539.2-2850.4l-0.4-0.2l1.4-6.5l1.7,0.1C-536-2854.5-537.1-2851.9-539.2-2850.4z"/>
	<path class="st20" d="M-572.7-2917.4c0,0-2.5-3.8-8.5,1c-6,4.8-5.1,13.7-5.1,13.7s3,10.2,4.5,12.3c1.5,2.1,10.2,14.9,10.2,14.9
		s9.2,10.5,15.2,14.7c6,4.2,16.8,10.5,16.8,10.5s3.7-2.6,2.6-7c-1.2-0.3-2.2-0.9-3.1-1.6c-1-1.1-2.3-2.4-2.3-2.4s-1.8-0.7-1.8-1.6
		c0-0.8-3.3-3.5-3.3-3.5s-0.2-1.1-1-1.3c-0.8-0.2-2-3-2-3s-2.8-3.2-2.8-4.2c-0.1-1-1.3-1.1-1.3-1.1c-0.4-0.8-0.8-1.7-1-2.6
		c0-0.5-1.6-1.6-1.6-1.6l-2.5-2.8c0,0,0.7-1.9-1.7-3.4c-2.4-1.5-2.7-5.7-2.7-5.7l-2.3-5c0.5-0.3,0.8-1,0.6-1.6
		c-0.2-0.7-0.6-1.4-1-1.9c0,0,0.9-0.5,0.1-1.7c-0.5-1.3-0.8-2.6-0.9-4l-1.8-5C-569.3-2911.3-569.7-2916.1-572.7-2917.4z"/>
	<path class="st8" d="M-566.5-2884.2c0,0,7.7-2,5.4-0.4C-563.4-2882.9-566.5-2884.2-566.5-2884.2z"/>
	<path class="st8" d="M-567.5-2875.8c0,0,5.9-1,4.5,0.3C-564.3-2874.1-567.5-2875.8-567.5-2875.8z"/>
	<path class="st8" d="M-579.1-2910.5c0,0,7.9,2.1,9.7,6.5L-579.1-2910.5z"/>
	<g transform="translate(-588.025 -2974.342)" class="st13">
		<path d="M1.6,41.4c0.1-0.8-0.2-1.5-0.8-2.1c-0.2-0.1-0.5-0.3-0.7-0.5l0,0c-0.2,0.3-0.1,0.8,0.1,1.1c0.2,0.2,0.4,0.3,0.7,0.5
			c0.4,0.3,0.7,0.8,0.7,1.4C1.6,41.6,1.6,41.5,1.6,41.4z"/>
		<path d="M1.2,35.6c0,0.1,0.1,0.2,0.1,0.3c0.1-0.2,0.1-0.4,0.1-0.6c0-0.1-0.1-0.2-0.1-0.3C1.2,35.1,1.2,35.3,1.2,35.6z"/>
		<path d="M29.6,36.1c-0.1,0.6-0.3,1.2-0.5,1.7c-0.1,0.2-0.2,0.4-0.3,0.5c-0.2,0.1-0.4,0.2-0.6,0.2c-1.6,0.1-3.1-0.8-4.7-0.8
			c-0.2,0-0.4,0-0.6,0.2c-0.3,0.2-0.2,0.7-0.3,1c-0.1,0.7-0.5,1.3-1.1,1.6c-0.8,0.4-1.7,0.3-2.4,0.9c-0.6,0.7-0.8,1.6-0.6,2.5
			c0-0.5,0.2-1.1,0.6-1.4c0.7-0.6,1.6-0.5,2.4-0.9c0.6-0.3,1-0.9,1.1-1.6c0-0.4,0-0.8,0.3-1c0.2-0.1,0.4-0.2,0.6-0.2
			c1.6,0,3.1,0.9,4.7,0.8c0.2,0,0.4-0.1,0.6-0.2c0.1-0.1,0.3-0.3,0.3-0.5C29.6,38,29.7,37.1,29.6,36.1z"/>
		<path d="M17.6,47.5c-0.7,0.2-1.5,0-2-0.6C15,46.1,15.1,45,14.9,44c-0.2-1.1-0.7-2.1-1.5-2.8c-0.4-0.4-0.8-0.6-1.3-0.8
			c-0.5-0.1-1,0-1.4,0.4c-0.5,0.5-0.4,1.3-0.5,2c-0.1,1.3-0.8,2.5-1.8,3.2c-1.1,0.6-2.2,1.1-3.4,1.4c-0.8,0.3-2.5,2-3.2,1.6
			c-0.4-0.2-0.6-0.6-0.7-1c0,0.9,0.1,1.7,0.7,2c0.7,0.3,2.5-1.4,3.2-1.6c1.2-0.3,2.3-0.8,3.4-1.4c1.1-0.8,1.7-1.9,1.8-3.2
			c-0.1-0.7,0.1-1.4,0.5-2c0.4-0.4,0.9-0.5,1.4-0.4c0.5,0.1,0.9,0.4,1.3,0.8c0.8,0.8,1.3,1.8,1.5,2.8c0.2,1,0.1,2,0.7,2.8
			c0.6,0.8,1.8,1,2.6,0.3c0.4-0.3,0.7-0.8,0.7-1.4c0-0.3,0-0.6-0.1-0.8C18.8,46.7,18.3,47.2,17.6,47.5L17.6,47.5z"/>
	</g>
	<path class="st21" d="M-620.8-2883c-0.1,0.2-0.2,0.3-0.3,0.5c0,0,0,0.1,0,0.1c0,0-0.1,0-0.1,0c-0.1,0-0.3,0-0.4,0v-0.2
		c0-0.6-0.1-1.5-0.6-1.1s-0.2,0.9,0.2,1.3l0.1,0.1c-0.3,0.2-0.4,0.8-0.4,1.3c-0.1,0.6-0.4,1.1-0.8,1.5l-0.1,0.1
		c-0.3-0.2-0.6-0.3-0.9-0.2c0-0.1,0-0.1,0-0.2c-0.3-0.9-0.8-2.6-1.5-2.9l0.1-0.1c0.3-0.4,0.6-0.9,0.1-1.1c-0.5-0.1-0.5,0.5-0.5,1
		c0,0.1,0,0.1,0,0.2c-0.2,0-0.4,0.1-0.5,0.2l-0.1-0.1c-0.4-0.5-1.1-1.2-1.3-0.6c-0.2,0.5,0.4,1.2,0.9,1.6l0,0
		c-0.3,1.2,1,2.2,1.7,2.6l0.1,0.1c-0.7,1-1.2,2.1-1.6,3.3l2.7,0.5c0,0,1.8-1.6,1.6-3h0c1.5-0.4,2.3-1.9,1.9-3.4c0,0,0,0,0-0.1l0,0
		c0.3-0.1,0.6-0.4,0.8-0.6c0.2-0.3,0.1-0.7-0.2-0.9C-620.2-2883.3-620.6-2883.3-620.8-2883z"/>
	<path class="st20" d="M-626.2-2882.2l-0.3,0.9c-0.1-0.1-0.3-0.2-0.4-0.3c-0.4-0.4-1.1-1.1-0.9-1.6c0.2-0.6,0.9,0.2,1.3,0.6
		C-626.3-2882.4-626.2-2882.2-626.2-2882.2z"/>
	<path class="st20" d="M-625.5-2882.8c-0.1,0.1-0.2,0.2-0.3,0.4c0-0.2,0-0.3-0.1-0.5c0-0.5,0-1.1,0.5-1
		C-624.9-2883.7-625.2-2883.1-625.5-2882.8z"/>
	<path class="st20" d="M-621.4-2882.6c0,0.2,0,0.4,0,0.6c-0.1-0.1-0.3-0.2-0.4-0.4c-0.4-0.4-0.8-0.9-0.2-1.3
		C-621.5-2884.1-621.4-2883.2-621.4-2882.6z"/>
	<path class="st20" d="M-619.6-2882.2c-0.2,0.3-0.5,0.5-0.8,0.6c-0.1,0-0.2,0.1-0.3,0.1l-0.4-0.5c0-0.2,0.1-0.3,0.2-0.5
		c0.1-0.2,0.2-0.3,0.3-0.5c0.2-0.3,0.6-0.3,0.9-0.1C-619.4-2882.9-619.3-2882.5-619.6-2882.2z"/>
	<path class="st8" d="M-626.4-2882.6c0.2,0.2,0.3,0.3,0.3,0.3l-0.3,0.9c-0.1-0.1-0.3-0.2-0.4-0.3c0.1-0.3,0.2-0.6,0.4-0.8
		C-626.5-2882.5-626.5-2882.5-626.4-2882.6z"/>
	<path class="st8" d="M-625.5-2882.8c-0.1,0.1-0.2,0.2-0.3,0.4c0-0.2,0-0.3-0.1-0.5C-625.8-2882.9-625.6-2882.8-625.5-2882.8z"/>
	<path class="st20" d="M-624-2879.1l-0.8,0.3c-0.1-0.1-0.3-0.2-0.4-0.2c-0.8-0.5-2.5-1.8-1.4-3.3s2,1.2,2.4,2.5
		C-624-2879.3-624-2879.1-624-2879.1z"/>
	<path class="st8" d="M-621.9-2882.4c0.1-0.1,0.3-0.2,0.4-0.2c0,0.2,0,0.4,0,0.6C-621.6-2882.2-621.7-2882.3-621.9-2882.4z"/>
	<path class="st8" d="M-620.4-2881.6c-0.1,0-0.2,0.1-0.3,0.1l-0.4-0.5c0-0.2,0.1-0.3,0.2-0.5
		C-620.6-2882.3-620.4-2881.9-620.4-2881.6z"/>
	<path class="st20" d="M-622.3-2878.1l-0.1,0c-2.6,0.4-0.9-1-0.9-1s0.1-0.1,0.3-0.3c0.4-0.4,0.7-1,0.8-1.5c0.1-0.9,0.2-1.7,1.2-1.4
		C-620-2882.2-619.8-2878.7-622.3-2878.1z"/>
	<rect x="-627.4" y="-2871.6" class="st22" width="5.1" height="1.3"/>
	<rect x="-628.2" y="-2875.9" class="st22" width="6.6" height="4.6"/>
	<rect x="-627.4" y="-2871.6" class="st8" width="5.1" height="1.3"/>
	<rect x="-628.2" y="-2875.9" class="st8" width="6.6" height="4.6"/>
	<rect x="-627.1" y="-2871.6" class="st22" width="5.1" height="1.3"/>
	<path class="st8" d="M-624.1-2879.7c0.1,0.4,0.2,0.7,0.2,0.7l-0.8,0.3c-0.1-0.1-0.3-0.2-0.4-0.2
		C-624.9-2879.3-624.6-2879.6-624.1-2879.7z"/>
	<path class="st8" d="M-622.3-2878.2l-0.1,0c-2.6,0.4-0.9-1-0.9-1s0.1-0.1,0.3-0.3C-622.6-2879.1-622.4-2878.7-622.3-2878.2
		L-622.3-2878.2z"/>
	<path class="st20" d="M-626.6-2875.6c0,0,1.5-5.3,3.6-3.7c2.1,1.6-0.8,4.2-0.8,4.2L-626.6-2875.6z"/>
	<circle class="st8" cx="-625.9" cy="-2881.4" r="0.2"/>
	<circle class="st8" cx="-625.9" cy="-2880.7" r="0.2"/>
	<circle class="st8" cx="-621.1" cy="-2881.3" r="0.2"/>
	<circle class="st8" cx="-625" cy="-2877.3" r="0.2"/>
	<circle class="st8" cx="-621.4" cy="-2880" r="0.2"/>
	<circle class="st8" cx="-623.2" cy="-2878.3" r="0.2"/>
	<circle class="st8" cx="-625.3" cy="-2881.1" r="0.2"/>
	<circle class="st8" cx="-621.5" cy="-2880.8" r="0.2"/>
	<circle class="st8" cx="-622.1" cy="-2879.5" r="0.2"/>
	<circle class="st8" cx="-623.9" cy="-2877.4" r="0.2"/>
	<circle class="st8" cx="-624.2" cy="-2878.3" r="0.2"/>
	<circle class="st8" cx="-625.1" cy="-2880.1" r="0.2"/>
	<rect x="-627.1" y="-2871.6" class="st8" width="5.1" height="0.5"/>
	<rect x="-627.9" y="-2875.9" class="st22" width="6.6" height="4.6"/>
	<circle class="st8" cx="-623.6" cy="-2876.7" r="0.2"/>
	<circle class="st8" cx="-624.6" cy="-2876.5" r="0.2"/>
	<path class="st20" d="M-428.5-2900.3c0,0,1.7-5,6-3.1c0,0-2,4.4-5.8,3.9L-428.5-2900.3z"/>
	<path class="st20" d="M-429.2-2905.3c0,0,1.8-5,6.2-2.8c0,0-2.5,4.6-6,3.5L-429.2-2905.3z"/>
	<path class="st20" d="M-429.4-2909.9c0,0,2.5-4.9,6-4.2c0,0-2.5,5.2-5.9,5.3L-429.4-2909.9z"/>
	<path class="st20" d="M-429.3-2914.3c0,0,2.8-5.9,5.6-5c0,0-2,4.5-5.6,6L-429.3-2914.3z"/>
	<path class="st20" d="M-428.8-2919.5c0,0,2.5-4.9,5.4-4.7c0,0-1.9,4.9-5.5,6L-428.8-2919.5z"/>
	<path class="st20" d="M-428.4-2924.3c0,0,2.9-4.8,4.8-4.7c0,0-1.7,4.9-4.8,5.5L-428.4-2924.3z"/>
	<path class="st20" d="M-428-2928.8c0,0,2.2-5.4,4.1-5.6c0,0-1,4.5-4,6L-428-2928.8z"/>
	<path class="st20" d="M-427.8-2934.8c0,0,2.1-4.3,3.7-4.7c0,0-1.1,5.2-3.5,5.8L-427.8-2934.8z"/>
	<path class="st20" d="M-427.8-2938.7l0.9-7.9c0,0,1.9,6.4-0.9,9.3L-427.8-2938.7z"/>
	<path class="st20" d="M-428.8-2946.9c0,0-1.2-6.1-1.6-6.5c0,0,3.5,4.3,2.3,9.1L-428.8-2946.9z"/>
	<path class="st20" d="M-428.7-2896.6c-1,0.7-2.1,1.5-3.1,2.3c-0.2,0.1-0.4,0.3-0.6,0.5c-0.6-0.1-1.3-0.3-1.9-0.6
		C-432.3-2897.3-430-2897.1-428.7-2896.6z"/>
	<path class="st20" d="M-428.5-2900.2c0,0-3.2-4.1-6.7-1c0,0,3.4,3.5,6.8,1.8L-428.5-2900.2z"/>
	<path class="st20" d="M-429-2905.4c0,0-3.2-4.2-6.7-0.9c0,0,3.8,3.6,6.8,1.6L-429-2905.4z"/>
	<path class="st20" d="M-429-2910c0,0-2.2-5-5.8-4.5c0,0,2.3,5.3,5.6,5.6L-429-2910z"/>
	<path class="st20" d="M-429.2-2914.3c0,0-2-6.2-4.9-5.6c0,0,1.4,4.7,4.9,6.6L-429.2-2914.3z"/>
	<path class="st20" d="M-428.6-2919.7c0,0-2.3-5-5.2-4.9c0,0,1.7,5,5.3,6.2L-428.6-2919.7z"/>
	<path class="st20" d="M-428.1-2924.4c0,0-1.5-5.4-3.4-5.8c0,0,0.3,5.2,3.1,6.6L-428.1-2924.4z"/>
	<path class="st20" d="M-427.9-2928.9c0,0-1.8-5.5-3.7-5.8c0,0,0.7,4.6,3.6,6.3L-427.9-2928.9z"/>
	<path class="st20" d="M-427.4-2934.4c0,0-1.3-4.5-2.8-5.3c0,0,0.2,5.3,2.4,6.4L-427.4-2934.4z"/>
	<path class="st20" d="M-428-2938.9l-3.3-7.2c0,0,0.1,6.7,3.7,8.6L-428-2938.9z"/>
	<path class="st20" d="M-429.9-2946.5c0,0-4.5-4.2-4.6-4.8c0,0,1.8,5.2,6.4,6.8L-429.9-2946.5z"/>
	<path class="st20" d="M-429.9-2948.1c0,0-4.9-6.4-6.4-6.6c3.1,0.9,5.6,3.3,6.6,6.4L-429.9-2948.1z"/>
	<path class="st23" d="M-427.6-2933.6h-0.2c0.2-8.6-0.6-13.9-2.3-14.8l0.1-0.2C-428.2-2947.6-427.4-2942.4-427.6-2933.6z"/>
	<path class="st23" d="M-429.1-2913.1l-0.3,0c0.1-0.8,0.1-1.6,0.2-2.4c0.8-7.1,1.3-13.6,1.4-18.5l0.2-0.2
		c-0.1,4.9-0.5,11.7-1.3,18.7C-429-2914.7-429.1-2913.9-429.1-2913.1z"/>
	<path class="st23" d="M-428.2-2899.5c0.2,0.7,0.3,1.5,0.5,2.2l-0.4,0.3c-0.2-0.7-0.3-1.5-0.5-2.3c-0.1-0.4-0.2-0.9-0.2-1.3
		c-0.2-1.2-0.3-2.5-0.5-3.8c0-0.2,0-0.5-0.1-0.7c0-0.3,0-0.5-0.1-0.8v-0.1c-0.1-1-0.1-1.9-0.1-2.9c0-0.7,0-1.3,0-2
		c0-0.7,0-1.4,0.1-2.2c0-0.1,0-0.2,0-0.3c0-0.1,0-0.2,0-0.3v-0.1l0.1,0.1l0.1,0l0.2,0.1v0.2c-0.1,1-0.1,2-0.1,3c0,0.1,0,0.1,0,0.2
		v1.4c0,0.9,0.1,1.9,0.1,2.8c0,0.1,0,0.3,0,0.4c0,0,0,0.1,0,0.1c0,0.1,0,0.3,0,0.4l0,0.5v0.1c0.1,1.4,0.3,2.7,0.5,3.9
		C-428.4-2900.2-428.3-2899.9-428.2-2899.5z"/>
	<path class="st20" d="M-407.7-2909.9l-0.5,0.3c-1.4,0.9-2.8,1.8-4.2,2.7v0.4c0,0-0.1,0-0.1,0l0-0.3l0-0.4l0,0v-0.1
		c0,0,0.1-0.1,0.2-0.2C-411.8-2908.3-410.1-2910.4-407.7-2909.9z"/>
	<path class="st20" d="M-412.1-2912.3c0,0,2.8-4.5,6.6-1.4c0,0-3.4,3.9-6.6,2.2L-412.1-2912.3z"/>
	<path class="st20" d="M-411.4-2916.8c0,0,3.4-4.3,6.7-2.9c0,0-3.5,4.5-6.8,3.9L-411.4-2916.8z"/>
	<path class="st20" d="M-410.4-2921.1c0,0,3.9-5.2,6.5-3.7c0,0-2.9,4-6.7,4.7L-410.4-2921.1z"/>
	<path class="st20" d="M-408.9-2926.1c0,0,3.4-4.3,6.2-3.4c0,0-2.9,4.4-6.6,4.7L-408.9-2926.1z"/>
	<path class="st20" d="M-407.5-2930.8c0,0,3.8-4.1,5.7-3.6c0,0-2.7,4.5-5.8,4.4L-407.5-2930.8z"/>
	<path class="st20" d="M-406.1-2935.1c0,0,3.2-4.8,5.2-4.6c0,0-1.9,4.2-5.1,5.1L-406.1-2935.1z"/>
	<path class="st20" d="M-404.7-2940.9c0,0,2.9-3.7,4.6-3.8c0,0-2.2,4.9-4.6,5L-404.7-2940.9z"/>
	<path class="st20" d="M-403.9-2944.7l2.5-7.5c0,0,0.6,6.6-2.8,8.9L-403.9-2944.7z"/>
	<path class="st20" d="M-403.2-2952.9c0,0,0.1-6.2-0.3-6.6c0,0,2.5,5,0.4,9.4L-403.2-2952.9z"/>
	<path class="st20" d="M-419.3-2902.8c0.7-0.7,1.7-1.2,2.7-1.5L-419.3-2902.8L-419.3-2902.8z"/>
	<path class="st20" d="M-412.5-2907.2L-412.5-2907.2l-0.1,0.4l-0.1,0.4c-0.1,0-0.1,0-0.2,0c-0.2,0-0.4,0.1-0.6,0.1
		c-3.3,0.2-5.4-3.3-5.4-3.3c3.3-1.9,5.4,0.7,6.1,1.9C-412.6-2907.4-412.5-2907.2-412.5-2907.2z"/>
	<path class="st20" d="M-411.9-2912.4c0,0-2.3-4.8-6.4-2.2c0,0,2.9,4.3,6.3,3L-411.9-2912.4z"/>
	<path class="st20" d="M-411-2916.8c0,0-1.1-5.3-4.7-5.6c0,0,1.1,5.6,4.3,6.6L-411-2916.8z"/>
	<path class="st20" d="M-410.3-2921.1c0,0-0.7-6.5-3.7-6.5c0,0,0.4,4.9,3.4,7.4L-410.3-2921.1z"/>
	<path class="st20" d="M-408.6-2926.3c0,0-1.2-5.3-4.1-5.8c0,0,0.7,5.2,3.9,7.2L-408.6-2926.3z"/>
	<path class="st20" d="M-407.1-2930.7c0,0-0.4-5.6-2.2-6.3c0,0-0.7,5.2,1.7,7.1L-407.1-2930.7z"/>
	<path class="st20" d="M-406-2935.1c0,0-0.6-5.8-2.5-6.5c0,0-0.3,4.6,2.2,6.9L-406-2935.1z"/>
	<path class="st20" d="M-404.4-2940.4c0,0-0.3-4.7-1.7-5.7c0,0-0.9,5.2,1.1,6.7L-404.4-2940.4z"/>
	<path class="st20" d="M-404.1-2944.9l-1.7-7.8c0,0-1.3,6.5,1.9,9.2L-404.1-2944.9z"/>
	<path class="st20" d="M-404.3-2952.7c0,0-3.5-5.1-3.5-5.7c0,0,0.7,5.5,4.9,8L-404.3-2952.7z"/>
	<path class="st20" d="M-404.1-2954.3c0,0-3.5-7.3-4.9-7.8c2.9,1.5,4.8,4.3,5.1,7.6L-404.1-2954.3z"/>
	<path class="st23" d="M-404.8-2939.7l-0.2,0c2-8.4,2.3-13.7,0.8-14.9l0.1-0.2C-402.5-2953.5-402.7-2948.3-404.8-2939.7z"/>
	<path class="st23" d="M-410.5-2919.9l-0.3-0.1c0.2-0.8,0.5-1.6,0.7-2.3c2.2-6.8,4.1-13,5.2-17.8l0.3-0.1
		c-1.1,4.8-2.9,11.3-5.1,18.1C-410-2921.5-410.2-2920.7-410.5-2919.9z"/>
	<path class="st23" d="M-410.3-2920.3c0,0,0,0.1,0,0.1c-0.3,1-0.5,1.9-0.7,2.9c0,0.1,0,0.1,0,0.2c-0.1,0.4-0.2,0.8-0.3,1.3
		c0,0,0,0.1,0,0.1c-0.2,1.1-0.4,2.1-0.5,3.1c0,0,0,0.1,0,0.1l0,0c0,0.3-0.1,0.6-0.1,0.9v0.1c-0.1,1.3-0.2,2.7-0.3,4
		c0,0.2,0,0.4,0,0.7v0.4c0,0-0.1,0-0.1,0l0-0.3l-0.1,0.1l-0.1,0.4c-0.1,0-0.1,0-0.2,0v-0.3c0-0.3,0-0.7,0-1.1
		c0.1-1.2,0.2-2.5,0.3-3.8c0.1-0.5,0.1-1,0.2-1.5l0,0c0.1-1,0.3-2,0.5-3c0.1-0.7,0.3-1.3,0.4-2l0,0c0.2-0.7,0.3-1.4,0.5-2.1
		c0-0.1,0.1-0.2,0.1-0.3l0,0c0-0.1,0.1-0.2,0.1-0.3l0,0l0.1,0.1l0.1,0.1L-410.3-2920.3z"/>
</g>
</svg>
