<?xml version="1.0" encoding="utf-8"?>
<!-- Generator: Adobe Illustrator 22.1.0, SVG Export Plug-In . SVG Version: 6.00 Build 0)  -->
<svg version="1.1" id="Layer_1" xmlns="http://www.w3.org/2000/svg" xmlns:xlink="http://www.w3.org/1999/xlink" x="0px" y="0px"
	 viewBox="0 0 163.3 48.5" style="enable-background:new 0 0 163.3 48.5;" xml:space="preserve">
<style type="text/css">
	.st0{fill:#FFFFFF;}
	.st1{fill:#EAEAEA;}
</style>
<g id="apatel_logo" transform="translate(551 122)">
	<g id="Group_11">
		<path id="Path_21" class="st0" d="M-522.7-98.8v25.3H-551v-30.6c0-9,6.8-16.7,15.8-17.7C-532.8-121.1-522.7-117.2-522.7-98.8z"/>
		<path id="Path_22" class="st1" d="M-515-104.1c-0.1-9.9-8.1-17.9-18.1-17.9c-0.7,0-1.4,0-2.1,0.2c2.5,0.7,12.4,4.6,12.4,23v25.3
			h7.6v-30.6H-515z"/>
	</g>
	<g id="XMLID_1_" transform="translate(44.102 9.918)">
		<path id="XMLID_15_" class="st0" d="M-535.6-95.8L-535.6-95.8c-1.4,2.1-3.8,3.3-6.4,3.2c-5.7,0-9-4.8-9-10.3s3.7-10.4,9.2-10.4
			c2.6-0.1,5,1.2,6.4,3.4l0,0v-2.8h5.3v19.7h-5.5V-95.8z M-540.4-108.9c-3.2,0-5,2.7-5,5.8c0,3,1.6,5.8,4.8,5.8
			c3.4,0,5.1-2.8,5.1-5.7C-535.4-106.4-537.2-108.9-540.4-108.9z"/>
		<path id="XMLID_12_" class="st0" d="M-524.1-112.8h5.3v2.8l0,0c1.4-2.1,3.8-3.4,6.4-3.4c5.5,0,9.2,5,9.2,10.5
			c0,5.5-3.4,10.3-9,10.3c-2.5,0.1-4.8-1.1-6.2-3.2l0,0v11.3h-5.5v-28.3H-524.1z M-514-108.9c-3.2,0-5,2.7-5,5.8
			c0,3,1.6,5.7,5.1,5.7c3.2,0,4.8-2.8,4.8-5.8C-508.8-106.2-510.6-108.9-514-108.9L-514-108.9z"/>
		<path id="XMLID_9_" class="st0" d="M-484.6-95.8L-484.6-95.8c-1.4,2.1-3.8,3.3-6.4,3.2c-5.7,0-9-4.8-9-10.3s3.7-10.4,9.2-10.4
			c2.6-0.1,5,1.2,6.4,3.4l0,0v-2.8h5.3v19.7h-5.5V-95.8z M-489.2-108.9c-3.2,0-5,2.7-5,5.8c0,3,1.6,5.8,4.8,5.8
			c3.4,0,5.1-2.8,5.1-5.7C-484.4-106.4-486.2-108.9-489.2-108.9z"/>
		<path id="XMLID_7_" class="st0" d="M-475.4-112.8h2.5v-5.7h5.5v5.7h2.8v4.3h-2.8v9.9c0,0.9,0.4,1.2,1.8,1.2c0.4,0,0.7,0,1.1-0.2
			v4.3c-0.9,0.1-1.8,0.2-2.7,0.2c-3.5,0-5.8-0.9-5.8-5.1v-10.6h-2.5v-3.9L-475.4-112.8z"/>
		<path id="XMLID_4_" class="st0" d="M-455.9-101.5c0.2,2.3,1.6,4.6,4.6,4.6c1.6,0.1,3.2-0.8,3.9-2.3l5.3,0.4
			c-1.4,4.1-5,6.2-9.6,6.2c-6,0-10.1-4.1-10.1-10.3c0-6.4,4.1-10.5,10.1-10.5s10.1,4.1,10.1,10.5v1.6h-14.3V-101.5z M-447-105
			c-0.1-2.3-1.9-4.2-4.3-4.3c-2.8,0-4.3,1.9-4.6,4.3H-447z"/>
		<path id="XMLID_2_" class="st0" d="M-437.3-122h5.5v28.9h-5.5V-122z"/>
	</g>
</g>
</svg>
