<svg xmlns="http://www.w3.org/2000/svg" xmlns:xlink="http://www.w3.org/1999/xlink" width="321.785" height="283" viewBox="0 0 321.785 283"><defs><style>.a,.b,.d{fill:#ec7e73;}.a{font-size:236px;font-family:Roboto-Bold, Roboto;font-weight:700;opacity:0.35;}.b{opacity:0.2;}.c{fill:#fff;}.e{fill:#3f3d56;}.f{fill:url(#a);}.g{fill:#feb9b9;}.h{fill:#2f2e41;}.i{opacity:0.1;}.j{fill:#efefef;}</style><linearGradient id="a" x1="0.505" y1="1.007" x2="0.505" gradientUnits="objectBoundingBox"><stop offset="0" stop-color="gray" stop-opacity="0.251"/><stop offset="0.54" stop-color="gray" stop-opacity="0.122"/><stop offset="1" stop-color="gray" stop-opacity="0.102"/></linearGradient></defs><g transform="translate(-968 -3419)"><text class="a" transform="translate(1036 3643)"><tspan x="-67.7" y="0">3</tspan></text><g transform="translate(12352.904 3334.415)"><path class="b" d="M-11075.639,265.252s-43.218-22.98,10.976-57.623,22.638-51.792,59-58.652,103.927,37.729,69.627,83-51.448,42.874-69.627,92.951-79.917-35.328-94.322-41.5S-11075.639,265.252-11075.639,265.252Z" transform="translate(-136.511)"/><g transform="translate(-11288.904 160.383)"><g transform="translate(91.268 40.368)"><circle class="c" cx="40.034" cy="40.034" r="40.034" transform="translate(14.324 19.065)"/><path class="d" d="M627.224,463.119a53.507,53.507,0,1,1-53.507-53.509A53.507,53.507,0,0,1,627.224,463.119Zm-59.691,28.322,39.691-39.691a3.449,3.449,0,0,0,0-4.884l-4.884-4.848a3.442,3.442,0,0,0-4.877,0l-32.372,32.373L549.977,459.24a3.463,3.463,0,0,0-4.884,0l-4.884,4.912a3.463,3.463,0,0,0,0,4.884l22.442,22.434a3.449,3.449,0,0,0,4.884,0Z" transform="translate(-520.21 -409.61)"/></g><rect class="e" width="1.871" height="9.053" rx="0.936" transform="translate(85.221 16.618)"/><rect class="e" width="2.109" height="15.755" rx="1.054" transform="translate(85.153 33.194)"/><rect class="e" width="2.007" height="15.891" rx="1.004" transform="translate(85.187 54.462)"/><path class="f" d="M377.46,474.88a.346.346,0,0,0,.411.053A1.453,1.453,0,0,1,377.46,474.88Z" transform="translate(-317.146 -378.397)"/><path class="g" d="M383.083,491l-.405,2.207-.313,1.688-.569,3.088-5.513,3.86s-.5-.425-1.317-1.1a96.06,96.06,0,0,0-10.495-7.682,11.744,11.744,0,0,0-2.885-1.329Z" transform="translate(-307.25 -388.447)"/><path class="e" d="M371.648,485.3s6.428,1.1,6.8-1.642-3.309-4.229-6.432-4.413-21.867,1.1-21.867,1.1-3.306,4.41,8.635,5.148Z" transform="translate(-299.86 -381.11)"/><rect class="h" width="33.627" height="39.874" transform="translate(52.218 13.609)"/><rect class="i" width="33.627" height="39.874" transform="translate(52.218 13.79)"/><path class="g" d="M230.1,430.583a5.4,5.4,0,0,0-2.048,1.45c-3.389,3.355-8.243,11.229-8.243,11.229-6.206-7.392.661-13.233,3.589-15.24.712-.486,1.19-.753,1.19-.753Z" transform="translate(-217.289 -348.715)"/><path class="g" d="M388.183,288.22s1.654,11.576,7.35,14.332-7.35,7.908-7.35,7.908l-17.823-6.62s10.107-3.309,8.085-13.048Z" transform="translate(-312.719 -262.026)"/><path class="g" d="M331.323,473.16l-.4,2.2-.327,1.695-.569,3.088L324.51,484s-.5-.422-1.317-1.092a95.638,95.638,0,0,0-10.5-7.682,11.672,11.672,0,0,0-2.885-1.329Z" transform="translate(-274.97 -377.325)"/><path class="h" d="M319.049,468.537s5.769.041,6.116-2.712-3.144-4.229-6.116-4.413-21.03,1.189-21.03,1.189-2.562,5.2,8.8,5.936Z" transform="translate(-267.465 -369.99)"/><path class="e" d="M388.041,511.839c-.252-.124-.5-.252-.753-.376l-.678-.855-8.891-11.274v.2c-.06,1.883-.7,16.8-5.694,18.181-5.328,1.469-11.756,1.838-14.687-8.085s-8.284-31.605-13.782-32.893l8.179-6.707s5.415,6.334,7.621,12.4c-.083-.376-3.822-17.849-.753-20.941h26.833s4.142,11.8,6.981,17.642c2.21,4.538,5.528,15.266,7.664,22.526A8.62,8.62,0,0,1,388.041,511.839Z" transform="translate(-296.009 -370.044)"/><path class="i" d="M410.117,427.636c-4.142,2.451-22.327,1.453-28.242,1.054l-1.612-.117c-.173,0,.026-.1.026-.1l.166-1.668,4.41-11.207,23.611-13.692a20.548,20.548,0,0,0-.6,6.176C407.985,416.2,410.117,427.636,410.117,427.636Z" transform="translate(-318.849 -332.904)"/><path class="j" d="M409.791,426.186c-4.142,2.451-22.327,1.453-28.242,1.054l-1.612-.113-.267-.023.294-.075,1.453-.376,3.122-12.494,23.611-13.688a20.56,20.56,0,0,0-.6,6.176C407.659,414.757,409.791,426.186,409.791,426.186Z" transform="translate(-318.523 -332.007)"/><path class="i" d="M407.953,406.638c-4.8,1.107-15.368,4.355-19.427,12.2-2.707,5.223-4.986,7.463-6.575,8.4l-1.612-.113a.928.928,0,0,0,.026-.1l1.453-.376,3.122-12.494,23.611-13.688A20.654,20.654,0,0,0,407.953,406.638Z" transform="translate(-318.941 -332.007)"/><path class="i" d="M234.691,427.29,240.2,430.6a5.4,5.4,0,0,0-2.048,1.45c-.459-1.341-3.342-3.212-4.654-4.01C234.212,427.557,234.691,427.29,234.691,427.29Z" transform="translate(-227.396 -348.728)"/><path class="i" d="M377.106,471.743a.328.328,0,0,1-.376-.053A1.309,1.309,0,0,0,377.106,471.743Z" transform="translate(-316.691 -376.408)"/><path class="d" d="M300.1,277.8a10.926,10.926,0,0,1-8.454-3.125s-14.687,4.229-19.66,13.782-38.786,28.3-38.786,28.3,5.882,3.306,5.328,4.959l22.236-12.863s7.908-5.694,10.1-6.981,14.336-9.188,16.908,12.31,0,18.926,0,18.926,3.675,1.288,9-9,21.863-12.679,21.863-12.679l.919-10.838s3.28-7.185.753-10.167a6.4,6.4,0,0,1-1.472-3.111c-.418-2.753,0-7.339,5.852-11.15,9-5.882,12.494-10.657,12.494-10.657s.184-3.494-5.328-5.148S303.93,249.7,303.93,249.7l-.753,3.125,17.687,12.483s-8.819,7.155-15.816,6.981C305.048,272.29,306.347,277.618,300.1,277.8Z" transform="translate(-227.209 -238.012)"/><path class="i" d="M401.727,294.169a35.894,35.894,0,0,1-1.017-4.489l-9.738,2.573a10.676,10.676,0,0,1-.222,5.618A10.472,10.472,0,0,0,401.727,294.169Z" transform="translate(-325.431 -262.937)"/><circle class="g" cx="10.472" cy="10.472" r="10.472" transform="translate(57.735 13.794)"/><path class="i" d="M428.67,507.07s6.063,11.945,4.225,15.616" transform="translate(-349.072 -398.466)"/><path class="h" d="M366.026,218.739c2.907.332,5.667,1.578,8.529,2.259a4.233,4.233,0,0,0,2.207.083c1.111-.343,2.015-1.506,3.167-1.472a3.51,3.51,0,0,1,1.92.968,23.624,23.624,0,0,1,2.636,2.35c1.973,2.143,3.2,5.027,5,7.358s4.367,5.064,6.924,4a14.781,14.781,0,0,1-13.329,11.44c-2.459.169-4.978-.343-7.358.376a6.376,6.376,0,0,1-1.857.452c-1.371,0-2.474-1.258-3.329-2.482-2-2.877-3.589-6.142-5.844-8.766a4.806,4.806,0,0,0-2.677-1.853,4.958,4.958,0,0,0-2.96.832,13.888,13.888,0,0,0-4.33,3.013,6,6,0,0,0-1.461,5.272,12.3,12.3,0,0,1,.889,2.952c.023,1.672-1.453,2.892-1.743,4.519a16.94,16.94,0,0,0-.072,2.056c-.128,2.228-1.587,4.051-3.106,5.456a3.917,3.917,0,0,0-1.423,1.969c-.117.576,0,1.182-.075,1.766-.222,1.446-1.664,2.18-2.941,2.369a8.484,8.484,0,0,1-4.413-.523,5.089,5.089,0,0,0,2.47-5.4c-.569-2.983-3.566-5.125-3.309-8.16a9.455,9.455,0,0,1,.829-2.685,24.6,24.6,0,0,0,1.416-5.087,8.572,8.572,0,0,0-.087-4.056,12.605,12.605,0,0,0-1.83-3.084,17.537,17.537,0,0,1-2.12-4.342,3.054,3.054,0,0,1-.2-1.439,2.968,2.968,0,0,1,.923-1.488c1.638-1.722,3.389-3.51,5.585-4a12.571,12.571,0,0,1,3.171-.121,37.423,37.423,0,0,0,5.509-.234c1.506-.177,4.051-.154,5.328-1.13,1.19-.912,1.86-2.056,3.325-2.636a9.791,9.791,0,0,1,4.647-.531Z" transform="translate(-292.249 -218.66)"/><ellipse class="d" cx="15.191" cy="2.569" rx="15.191" ry="2.569" transform="translate(104.282 166.867)"/><path class="d" d="M893.942,829.629a4.423,4.423,0,0,0,1.447-2.187,1.95,1.95,0,0,0-1.013-2.225c-.929-.355-1.924.291-2.675.941s-1.617,1.394-2.6,1.254a3.96,3.96,0,0,0,1.229-3.706,1.561,1.561,0,0,0-.344-.756c-.514-.552-1.452-.317-2.067.121-1.965,1.379-2.512,4.051-2.524,6.449a12.124,12.124,0,0,1-.038-2.645,2.729,2.729,0,0,0-1-2.354,3,3,0,0,0-1.511-.355,3.148,3.148,0,0,0-2.471.7,2.435,2.435,0,0,0,.1,3.022,9.626,9.626,0,0,0,2.558,2.048,5.668,5.668,0,0,1,1.823,1.742,1.574,1.574,0,0,1,.135.314h5.52a15.514,15.514,0,0,0,3.431-2.363Z" transform="translate(-768.186 -664.394)"/><path class="d" d="M798.708,156.862s-31.811-1.919-28.063,20.371a5.416,5.416,0,0,0,2.826,5.727s.057-1.651,3.264-1.088a14.924,14.924,0,0,0,3.457.166,7.2,7.2,0,0,0,4.224-1.727h0s8.943-3.695,12.418-18.308c0,0,2.573-3.188,2.471-4.009l-5.368,2.293s1.836,3.873.378,7.09c0,0-.174-6.952-1.205-6.8-.208.03-2.788,1.341-2.788,1.341s3.155,6.744.775,11.648c0,0,.9-8.312-1.761-11.16l-3.778,2.206s3.688,6.967,1.186,12.653c0,0,.641-8.72-1.984-12.116l-3.423,2.671s3.464,6.865,1.352,11.58c0,0-.276-10.148-2.093-10.915,0,0-3,2.645-3.453,3.725,0,0,2.372,4.987.9,7.616,0,0-.9-6.763-1.643-6.8,0,0-2.985,4.481-3.294,7.556a16.282,16.282,0,0,1,2.573-7.979,9,9,0,0,0-4.571,2.363s.465-3.166,5.308-3.445c0,0,2.467-3.4,3.124-3.6,0,0-4.813-.405-7.734.892,0,0,2.569-2.988,8.618-1.628l3.381-2.762s-6.339-.865-9.029.091c0,0,3.094-2.645,9.94-.718l3.68-2.2s-5.406-1.164-8.625-.756c0,0,3.4-1.832,9.706.155l2.645-1.182s-3.959-.778-5.119-.9-1.22-.442-1.22-.442a13.733,13.733,0,0,1,7.439.828S798.8,157.213,798.708,156.862Z" transform="translate(-582.153 -130.059)"/><path class="d" d="M16.594.024S-2.013-1.1.18,11.94a3.168,3.168,0,0,0,1.653,3.35s.033-.966,1.909-.636a8.729,8.729,0,0,0,2.022.1,4.212,4.212,0,0,0,2.471-1.01h0S13.465,11.579,15.5,3.032c0,0,1.5-1.865,1.445-2.345L13.8,2.028a5.6,5.6,0,0,1,.221,4.147s-.1-4.066-.705-3.978c-.121.018-1.631.784-1.631.784s1.845,3.945.453,6.813c0,0,.528-4.862-1.03-6.528L8.9,4.558s2.157,4.075.694,7.4c0,0,.375-5.1-1.16-7.087l-2,1.562s2.026,4.015.791,6.774c0,0-.161-5.936-1.224-6.384A12.311,12.311,0,0,0,3.98,9s1.388,2.917.526,4.455c0,0-.528-3.956-.961-3.978A13.133,13.133,0,0,0,1.618,13.9a9.523,9.523,0,0,1,1.5-4.667A5.265,5.265,0,0,0,.449,10.615S.72,8.763,3.554,8.6A12.153,12.153,0,0,1,5.381,6.491a11.443,11.443,0,0,0-4.524.522S2.36,5.265,5.9,6.06L7.876,4.445S4.168,3.939,2.595,4.5c0,0,1.81-1.547,5.814-.42l2.153-1.286A19.743,19.743,0,0,0,5.516,2.35s1.989-1.072,5.677.091l1.547-.691s-2.316-.455-2.994-.528S9.032.963,9.032.963a8.033,8.033,0,0,1,4.351.484S16.65.23,16.594.024Z" transform="translate(200.678 137.206) rotate(60)"/><path class="e" d="M12.815.019S-1.541-.847.136,9.226a2.454,2.454,0,0,0,1.277,2.588s.026-.756,1.477-.495a6.615,6.615,0,0,0,1.56.076,3.234,3.234,0,0,0,1.908-.786h0s4.042-1.67,5.614-8.274c0,0,1.16-1.439,1.114-1.81L10.661,1.56a4.358,4.358,0,0,1,.178,3.2s-.079-3.14-.544-3.068c-.095,0-1.262.608-1.262.608s1.428,3.049.351,5.263c0,0,.408-3.755-.8-5.044L6.879,3.536s1.666,3.147.536,5.716c0,0,.291-3.94-.9-5.474L4.975,4.987s1.564,3.1.612,5.233c0,0-.128-4.587-.948-4.934A9.479,9.479,0,0,0,3.078,6.971s1.073,2.267.408,3.442c0,0-.408-3.056-.756-3.072a10.177,10.177,0,0,0-1.489,3.4,7.374,7.374,0,0,1,1.164-3.6A4.065,4.065,0,0,0,.34,8.206s.212-1.432,2.4-1.556A10.339,10.339,0,0,1,4.152,5.017a8.849,8.849,0,0,0-3.495.405s1.16-1.349,3.891-.737L6.06,3.439a12.983,12.983,0,0,0-4.082.039s1.4-1.194,4.492-.325l1.662-.994a15.189,15.189,0,0,0-3.9-.338S5.771.994,8.62,1.889l1.19-.533S8.02,1.005,7.494.948s-.552-.2-.552-.2a6.192,6.192,0,0,1,3.362.378A15.544,15.544,0,0,0,12.815.019Z" transform="matrix(0.839, -0.545, 0.545, 0.839, 117.141, 29.629)"/><path class="e" d="M737.958,130.663s-14.356-.865-12.679,9.207a2.454,2.454,0,0,0,1.277,2.588s.026-.756,1.477-.495a6.616,6.616,0,0,0,1.56.076,3.234,3.234,0,0,0,1.908-.786h0s4.042-1.67,5.614-8.274c0,0,1.16-1.439,1.114-1.81L735.8,132.2a4.359,4.359,0,0,1,.178,3.2s-.079-3.14-.544-3.068c-.095,0-1.262.608-1.262.608s1.428,3.049.351,5.263c0,0,.408-3.755-.8-5.044l-1.708,1.013s1.666,3.147.536,5.716c0,0,.291-3.94-.9-5.474l-1.545,1.209s1.564,3.1.612,5.233c0,0-.128-4.587-.948-4.934a9.478,9.478,0,0,0-1.56,1.685s1.073,2.267.408,3.442c0,0-.408-3.056-.756-3.072a10.177,10.177,0,0,0-1.489,3.4,7.374,7.374,0,0,1,1.164-3.6,4.065,4.065,0,0,0-2.067,1.069s.212-1.432,2.4-1.556a10.337,10.337,0,0,1,1.413-1.632,8.85,8.85,0,0,0-3.495.405s1.16-1.349,3.891-.737l1.511-1.247a12.983,12.983,0,0,0-4.082.039s1.4-1.194,4.492-.325l1.662-.994a15.188,15.188,0,0,0-3.9-.338s1.538-.827,4.386.068l1.19-.533s-1.789-.351-2.316-.408-.552-.2-.552-.2a6.192,6.192,0,0,1,3.362.378A15.542,15.542,0,0,0,737.958,130.663Z" transform="translate(-705.689 -10.851)"/></g></g></g></svg>