<?xml version="1.0" encoding="utf-8"?>
<!-- Generator: Adobe Illustrator 22.1.0, SVG Export Plug-In . SVG Version: 6.00 Build 0)  -->
<svg version="1.1" id="Layer_1" xmlns="http://www.w3.org/2000/svg" xmlns:xlink="http://www.w3.org/1999/xlink" x="0px" y="0px"
	 viewBox="0 0 230.2 206.7" style="enable-background:new 0 0 230.2 206.7;" xml:space="preserve">
<style type="text/css">
	.st0{opacity:0.2;fill:#EC7E73;enable-background:new    ;}
	.st1{opacity:0.1;enable-background:new    ;}
	.st2{fill:#2F2E41;}
	.st3{fill:#EC7E73;}
	.st4{fill:#FFB8B8;}
	.st5{fill:#3F3D56;}
	.st6{fill:url(#SVGID_1_);}
	.st7{fill:#65617D;}
	.st8{fill:#A27772;}
	.st9{fill:#FBBEBE;}
	.st10{opacity:5.000000e-02;enable-background:new    ;}
	.st11{fill:#7C5C5C;}
	.st12{opacity:0.28;enable-background:new    ;}
</style>
<g transform="translate(476.606 2527.148)">
	<path class="st0" d="M-438.3-2399.3c-40.1-10.1-44.3-0.4-32.5-38.3s46.2-5,67.3-28.2c21.2-23.1,70.7-41.6,75.3-16
		c4.5,25.6,27.2,57.2,55.2,53.8s38.6,50.9,8.7,58.4c-29.9,7.6-85.1-16.4-104.8,9.2C-388.8-2334.6-398.2-2389.3-438.3-2399.3z"/>
	<g transform="translate(-204 -51)">
		<ellipse class="st1" cx="-189.5" cy="-2308" rx="6.5" ry="2"/>
		<ellipse class="st1" cx="-164.5" cy="-2308" rx="6.5" ry="2"/>
		<path class="st2" d="M-165-2387.5v6.6h-24.7v-6.2h-0.7v79.2h0.7v-14.2h24.7v14.2h0.7v-79.6H-165z M-165-2380.1v10.9h-24.7v-10.9
			H-165z M-189.7-2346v-10.9h24.7v10.9H-189.7z M-165-2345.3v10.9h-24.7v-10.9H-165z M-189.7-2357.6v-10.9h24.7v10.9H-189.7z
			 M-189.7-2322.7v-10.9h24.7v10.9L-189.7-2322.7z"/>
		<path class="st3" d="M-197.5-2385.9v1c-0.5,0.3-0.8,0.8-0.7,1.4c0,1.1-0.6,5.4-0.6,5.4s1,0.8,1.8,0.6c0.5-0.1,0.9-0.4,1.3-0.7
			l0.1-4.4l-0.6-1.1v-2L-197.5-2385.9z"/>
		<path class="st3" d="M-170.4-2425.2c0,0-2.5,0.3-2.5,1.4s-2,5.4-2,5.4c2.1,0.5,4.3,0.7,6.4,0.6c1.5-0.1,3-0.4,4.4-0.7l0.5-4.4
			l-2-1.1L-170.4-2425.2z"/>
		<path class="st4" d="M-170.2-2415.3v-2.7c0,0-3-5.9-0.6-5.9s2.7,5.4,2.7,5.4v3.8L-170.2-2415.3z"/>
		<path class="st4" d="M-195.7-2387.2c0,0-1.6-0.8-1.8,0c-0.3,0.8-1.1,2.7,0,2.8c0.8,0,1.6-0.3,2.3-0.8L-195.7-2387.2z"/>
		<path class="st2" d="M-188-2381.4c0,0-0.9,1.1,0.4,12.1s0.5,19,2.9,18.9c0,0-0.6,2.4,1.4,2.5c2,0.1,2.9,0.2,3.1-0.3
			s0.4-3.1-0.1-3.1c0,0,0,0.7,0.3-2.2s-0.4-16.6,0.4-18.5l3.2,6.5c0.1,1.5,0.3,3,0.8,4.5c0.6,1.4,1.9,9.7,1.9,9.7l-0.1,1.3
			c0,0,4.4,0.5,4.5-0.2c0.2-0.7,0.1-1.5-0.1-2.2c-0.2-0.4-0.2-0.4,0.1-1.1c0.3-0.6,0.3-1.2,0.1-1.8c-0.2-0.5-0.8-12.3-0.8-12.3
			s-1-14.3-3.2-14.9C-175.6-2383.1-188-2381.4-188-2381.4z"/>
		<path class="st2" d="M-184.2-2349.4l-1.3,2.6c0,0-2.3-0.7-1.7,1.3c2.2,0.1,4.4-0.1,6.6-0.4c0,0,0.9,0.3,1.1-0.2s-0.6-2.4-1.1-2.4
			C-181.9-2348.7-183-2349-184.2-2349.4z"/>
		<path class="st2" d="M-173.7-2350.6c0,0-1.3,3.3-0.7,3.5c0.6,0.2,5.5,0.7,5.8,0.8c0.4,0.2,2.2,0.3,2.3-0.8c0.1-0.6-0.4-1.2-1-1.4
			c-1.2-0.2-2.2-1-2.6-2C-170.5-2352.4-173.7-2350.6-173.7-2350.6z"/>
		<circle class="st4" cx="-186" cy="-2412.1" r="3.8"/>
		<path class="st4" d="M-188-2410.3c0,0,1,5.2,0.6,6.2c-0.4,1,5.6-0.4,5.6-0.4s-1.2-5.2-1-6.4C-182.6-2412.1-188-2410.3-188-2410.3z
			"/>
		<path class="st2" d="M-186.1-2416.8c-0.3-0.1-0.6,0-0.9,0c-0.2,0.1-0.5,0.3-0.7,0.4c-0.4,0.3-0.7,0.5-1.1,0.8
			c-0.3,0.1-0.6,0.4-0.9,0.6c-0.1,0.1-0.2,0.3-0.3,0.5c-0.4,1-0.5,2.1-0.3,3.1c0,0.1,0.1,0.3,0.1,0.4c0.2,0.4,0.7,0.5,1,0.7
			c0.7,0.4,1.3,1,1.9,1.6c0.2,0.2,0.5,0.4,0.7,0.6c0.9,0.4,1.9,0.4,2.9,0.1c0.3,0,0.5-0.2,0.5-0.5c0,0,0,0,0,0l0.8-3.4
			c0.1-0.5,0.2-1,0.2-1.6c-0.1-1-0.5-1.8-1.1-2.6C-184.1-2416.5-185.1-2416.8-186.1-2416.8z"/>
		<path class="st3" d="M-188.9-2403.9c0,0,0.3-2,2-2.1c1-0.1,1.9-0.3,2.8-0.6c1,0,2,0.4,2.8,1c0,0,0.6,0.8,0.8,0.3
			c0.3-0.6,0.3-0.8,0.8-0.6c0.6,0.3,0.6-0.8,1.6-0.7c1,0.1,3.5,6.5,3.5,6.5l-0.8,1c0,0-1.1,7.6,0.8,10.9c2,3.3,2.8,6.8,0.8,7.5
			s-15.9,7.1-15.3,3.1s0.1-10.2-0.4-10.3s-3.7-11.3-3.7-11.3c0.3-1.4,1.2-2.7,2.5-3.3C-188.2-2403.4-188.9-2403.9-188.9-2403.9z"/>
		<path class="st3" d="M-178.7-2406l0.7-0.6c0,0,1.3,0,1.4-0.3c0.1-0.3,0.8-0.3,1.4-0.6s-0.1-0.7,0.6-1s0.7,0,0.7-0.7s1.8-1.4,2-2.3
			c0.1-0.8,1.6-4.8,1.6-4.8l2.7,0.8l-0.7,5.1c0,1.5-0.5,3-1.3,4.2c-1.3,1.7-4.1,5.9-5.5,6.1C-176.6-2399.8-178.7-2406-178.7-2406z"
			/>
		<path class="st3" d="M-192.1-2399.9l-0.8,0.7c0,0-0.3,3.1-0.3,3.3s0.3,1.8,0,2c-0.4,1-0.7,2-0.7,3.1l0,0v0.4l-2,3.1v3l4.7-3
			c0,0,2.7-0.3,2.3-2.7S-192.1-2399.9-192.1-2399.9z"/>
	</g>
	<g transform="translate(-460.84 -2435.249)">
		<ellipse class="st3" cx="31" cy="55.9" rx="31" ry="5.2"/>
		<path class="st3" d="M43.8,47.3c1.4-1.2,2.4-2.7,3-4.5c0.5-1.8-0.4-3.7-2.1-4.5c-1.9-0.7-3.9,0.6-5.5,1.9s-3.3,2.8-5.3,2.6
			c2.1-1.9,3.1-4.8,2.5-7.6c-0.1-0.6-0.3-1.1-0.7-1.5c-1-1.1-3-0.6-4.2,0.2c-4,2.8-5.1,8.3-5.1,13.2c-0.4-1.8-0.1-3.6-0.1-5.4
			s-0.5-3.9-2-4.8c-0.9-0.5-2-0.8-3.1-0.7c-1.8-0.1-3.8,0.1-5,1.4c-1.5,1.6-1.1,4.4,0.2,6.2s3.4,2.9,5.2,4.2
			c1.5,0.9,2.8,2.1,3.7,3.6c0.1,0.2,0.2,0.4,0.3,0.6h11.3C39.4,50.8,41.7,49.2,43.8,47.3L43.8,47.3z"/>
	</g>
	<path class="st3" d="M-308.8-2475.3c0,0-32.2-1.9-28.4,20.6c-0.4,2.3,0.7,4.7,2.9,5.8c0,0,0.1-1.7,3.3-1.1c1.2,0.2,2.3,0.2,3.5,0.2
		c1.6-0.1,3.1-0.7,4.3-1.7l0,0c0,0,9-3.7,12.6-18.5c0,0,2.6-3.2,2.5-4.1l-5.4,2.3c0,0,1.9,3.9,0.4,7.2c0,0-0.2-7-1.2-6.9
		c-0.2,0-2.8,1.4-2.8,1.4s3.2,6.8,0.8,11.8c0,0,0.9-8.4-1.8-11.3l-3.8,2.2c0,0,3.7,7,1.2,12.8c0,0,0.6-8.8-2-12.3l-3.5,2.7
		c0,0,3.5,6.9,1.4,11.7c0,0-0.3-10.3-2.1-11c0,0-3,2.7-3.5,3.8c0,0,2.4,5,0.9,7.7c0,0-0.9-6.8-1.7-6.9c0,0-3,4.5-3.3,7.6
		c0.1-2.9,1-5.7,2.6-8.1c-1.7,0.3-3.3,1.2-4.6,2.4c0,0,0.5-3.2,5.4-3.5c0,0,2.5-3.4,3.2-3.6c0,0-4.9-0.4-7.8,0.9c0,0,2.6-3,8.7-1.6
		l3.4-2.8c0,0-6.4-0.9-9.1,0.1c0,0,3.1-2.7,10-0.7l3.7-2.2c0,0-5.5-1.2-8.7-0.8c0,0,3.4-1.9,9.8,0.2l2.7-1.2c0,0-4-0.8-5.2-0.9
		c-1.2-0.1-1.2-0.4-1.2-0.4c2.5-0.4,5.1-0.1,7.5,0.8C-314.3-2472.8-308.7-2474.9-308.8-2475.3z"/>
	<path class="st3" d="M-408.9-2472.8c0,0,3.6-17.5-9.1-17.2c-1.3-0.4-2.6,0-3.4,1.1c0,0,0.9,0.2,0.3,1.9c-0.2,0.6-0.3,1.3-0.4,1.9
		c-0.1,0.9,0.2,1.7,0.6,2.5l0,0c0,0,1.4,5.3,9.2,8.3c0,0,1.6,1.7,2,1.7l-0.9-3.2c-1.3,0.4-2.7,0.3-4-0.3c0,0,3.9,0.4,3.9-0.1
		c0-0.1-0.5-1.7-0.5-1.7s-4,1.2-6.5-0.5c0,0,4.6,1.2,6.3-0.1l-0.9-2.3c0,0-4.2,1.5-7.1-0.3c0,0,4.8,1,6.9-0.2l-1.2-2.1
		c0,0-4.1,1.4-6.5-0.2c0,0,5.7,0.6,6.2-0.3c-0.5-0.8-1.1-1.6-1.8-2.2c0,0-3,0.9-4.3-0.1c0,0,3.8,0,3.9-0.4c-1.2-1-2.5-1.9-3.9-2.4
		c1.6,0.3,3,1,4.2,2.1c0-1-0.4-1.9-1-2.7c0,0,1.7,0.5,1.5,3.2c0.7,0.6,1.3,1.3,1.8,2c0.3-1.4,0.4-2.9,0.1-4.4c0,0,1.5,1.7,0.2,4.9
		l1.3,2.1c0,0,1-3.5,0.7-5c0,0,1.2,1.9-0.4,5.6l0.9,2.2c0.6-1.5,0.9-3.1,1.1-4.7c0,0,0.8,2-0.8,5.4l0.5,1.6c0,0,0.7-2.1,0.9-2.8
		c0.2-0.6,0.3-0.6,0.3-0.6c0,1.4-0.3,2.8-1,4.1C-409.6-2474.9-409.3-2473.8-408.9-2472.8z"/>
	<path class="st3" d="M-282-2409.6c0,0-11.1,14,0.3,19.5c0.9,0.9,2.4,1.2,3.5,0.5c0,0-0.7-0.6,0.6-1.9c0.5-0.5,0.9-1,1.2-1.5
		c0.5-0.8,0.7-1.6,0.6-2.5l0,0c0,0,1.2-5.3-4.4-11.6c0,0-0.6-2.2-1-2.4l-0.7,3.2c1.4,0.2,2.6,1,3.4,2.1c0,0-3.3-2.2-3.5-1.6
		c-0.1,0.1-0.3,1.7-0.3,1.7s4.1,0.7,5.6,3.4c0,0-3.5-3.1-5.7-2.8l-0.2,2.5c0,0,4.4,0.5,6.2,3.5c0,0-3.8-3.1-6.2-3l0.1,2.4
		c0,0,4.3,0.6,5.8,3.1c0,0-4.8-3.1-5.7-2.6c0.1,1,0.3,1.9,0.6,2.8c0,0,3.1,0.5,3.8,2c0,0-3.4-1.8-3.7-1.4c0.6,1.5,1.4,2.8,2.4,4
		c-1.3-1-2.2-2.3-2.8-3.8c-0.4,0.9-0.5,1.9-0.4,2.9c0,0-1.3-1.2,0.1-3.6c-0.3-0.8-0.5-1.7-0.7-2.6c-0.9,1.1-1.7,2.4-2.1,3.8
		c0,0-0.5-2.1,2-4.5l-0.2-2.4c0,0-2.4,2.6-2.9,4.2c0,0-0.2-2.3,2.9-4.8l0.2-2.4c-1.2,1.1-2.2,2.4-3.1,3.7c0,0,0.3-2.2,3.2-4.4
		l0.3-1.6c0,0-1.6,1.6-2.1,2.1s-0.6,0.4-0.6,0.4c0.6-1.3,1.6-2.4,2.8-3.2C-282.4-2407.4-282.2-2408.5-282-2409.6z"/>
	<g transform="translate(-352.229 -2421.469)">
		<path class="st5" d="M7.1,42.8c1.3,4.9,5.9,7.9,5.9,7.9s2.4-4.9,1.1-9.8S8.2,33,8.2,33S5.8,37.9,7.1,42.8z"/>
		<path class="st3" d="M9.1,41.8c3.6,3.5,4.1,9,4.1,9s-5.5-0.3-9.1-3.8s-4.1-9-4.1-9S5.5,38.2,9.1,41.8z"/>
	</g>
	<g transform="translate(-125 -14.84)">
		<ellipse class="st0" cx="-199.1" cy="-2348.9" rx="16.6" ry="1.4"/>
		
			<linearGradient id="SVGID_1_" gradientUnits="userSpaceOnUse" x1="-336.7016" y1="-2310.2634" x2="-336.7016" y2="-2309.2634" gradientTransform="matrix(25.3339 0 0 -71.7178 8331.5898 -168035.5625)">
			<stop  offset="0" style="stop-color:#808080;stop-opacity:0.251"/>
			<stop  offset="0.54" style="stop-color:#808080;stop-opacity:0.122"/>
			<stop  offset="1" style="stop-color:#808080;stop-opacity:0.102"/>
		</linearGradient>
		<path class="st6" d="M-187.7-2406.5c-1.1-0.7-2.3-1.3-3.6-1.9l-0.1,0c-0.3-0.2-0.5-0.5-0.7-0.8c0-0.1,0-0.1,0-0.2c0,0,0,0,0,0
			c0.1-0.8,0.5-1.6,1.1-2.1l1.4-1.6c0.2-0.2,0.3-0.3,0.3-0.6c0-0.1,0-0.2,0-0.3v-0.1c0-0.4,0-0.8,0-1.2c0-0.3-0.1-0.8-0.4-0.9
			c-0.2,0-0.4,0-0.5-0.1c0-0.1,0-0.1,0-0.2c0,0,0,0,0,0v0c0.1-0.3,0.1-0.5,0.1-0.8c0-0.1,0-0.3-0.1-0.4c-0.2-0.6-0.9-0.8-1.5-0.9
			c-0.6,0-1.2-0.3-1.7-0.7c-0.1-0.2-0.2-0.3-0.3-0.5c-0.2-0.2-0.4-0.3-0.6-0.3c-0.8-0.2-1.6-0.1-2.3,0.2c-0.3,0.2-0.6,0.3-0.9,0.3
			c-0.3,0-0.6-0.3-1-0.3c-0.6,0-1.1,0.3-1.3,0.8c-0.2,0.3-0.2,0.6-0.2,0.9v0.1l0,0c0,0.3,0.1,0.7,0.3,0.9c0.2,0.2,0.6,0.4,0.7,0.7
			c0,0.1,0,0.3,0.1,0.4c0,0,0,0,0,0l0,0c-0.6,0.7-0.9,1.6-0.9,2.5c0,1.8,1.2,3.4,2.9,3.9c0,0,0,0.1,0,0.1c0,0.5-0.2,1-0.6,1.4
			l-3.7,1.5c0,0-2.2-0.3-3,3c-0.1,0.5-0.2,1.1-0.1,1.6c0,0.9-0.2,1.7-0.6,2.4c-0.9,1.8-0.7,5.8,1.2,6.2c0.8,0.2,1.7,0.3,2.5,0.2v0.1
			c0,0.8-0.3,7.3-1.3,8.1c-0.3,0.2-0.2,0.4,0,0.5c0,0,0,0,0,0.1c0,1.2-0.3,2.3-0.9,3.4c-0.8,1.2-0.7,8.2-0.7,8.2l-0.5,4.1
			c0,0,0.3,2.5,0,3c-0.3,0.4-0.7,9.8-0.8,11.8h0c-0.3,0-0.6,0.2-0.8,0.5c-0.6,0.7-1.2,1.4-1.9,2c-0.6,0.5-1.4,0.9-2.2,1.1
			c-0.1,0-0.2,0.1-0.2,0.1c-0.2,0.1-0.4,0.3-0.6,0.6c-0.1,0.1-0.1,0.3-0.1,0.5c0.2,0.4,3.6,0.7,4.4,0.3c1.5-0.4,3-0.7,4.5-0.9
			c0.4-0.1,0.7-0.4,0.8-0.8c0-0.1,0-0.3-0.1-0.4l0,0c-0.2-0.5-0.4-1-0.4-1.5c0.1,0,0.2-0.1,0.3-0.1c-0.1-1.5,0.1-2.9,0.6-4.3
			c0.8-2.9,1.1-5.9,0.9-8.8c0,0,2.5-10.8,4.5-11.8l0,0c0,0,1,1.3,1.1,5.1c0,2.2,0.6,4.4,1.5,6.4c0,0-0.6,6.6,0,9l-0.8,3.9
			c-0.1-0.1-0.1-0.1-0.1-0.1s0,0.1,0.1,0.3l0,0.1l0,0c0.1,0.6,0.2,1.2,0.2,1.8c0,0.3-0.1,0.7-0.2,1c-0.1,0.6-0.1,1.2,0.2,1.3
			c0.5,0.2,3.5,0.5,4.1-0.2c0.2-0.3,0.3-0.7,0.1-1c0-0.1-0.1-0.2-0.1-0.3c-0.4-0.7-0.6-1.4-0.6-2.2c0-0.2,0-0.4-0.1-0.5
			c0.1-1.5,0.3-2.9,0.7-4.3c0.5-1.9,1.6-6.2,0.8-9l0,0c0-0.1-0.1-0.2-0.1-0.3c-0.5-1.5-0.6-3.1-0.5-4.7c-0.3-1.4-0.3-2.8,0-4.1
			c0.5-2.3,0.8-4.5,0.8-4.5c0.1-1.6,0.2-3.2,0-4.8c0,0,0-0.1,0-0.1l0.1,0c0,0-0.7-3.1-0.9-5.1c-0.1-0.5-0.1-1.1-0.2-1.7
			c0.2,0,0.5-0.1,0.7-0.2c2.2-0.8,2.9-7.7,2.9-7.7v-2.2C-185.8-2401.7-185.1-2405-187.7-2406.5z M-204.2-2353
			c-0.1,0-0.1-0.1-0.1-0.1l0,0L-204.2-2353z"/>
		<path class="st7" d="M-189-2366.5c1,2.8-0.2,7.3-0.7,9.3c-0.3,1.5-0.6,2.9-0.7,4.4c-1.2,0.2-2.4,0.2-3.5-0.1l0.8-4.1
			c-0.6-2.4,0-9,0-9c-0.9-2-1.4-4.2-1.5-6.4c-0.1-3.8-1.1-5-1.1-5.1l0,0c-1.9,1-4.4,11.8-4.4,11.8c0.2,3,0,5.9-0.8,8.8
			c-0.5,1.4-0.7,2.8-0.6,4.3c-0.3,0.2-0.7,0.3-1.1,0.2c-0.9-0.2-1.8-0.6-2.5-1.2c0,0,0.4-11.7,0.8-12.2c0.3-0.4,0-3,0-3l0.5-4.1
			c0,0-0.1-6.9,0.7-8.1c0.5-1,0.8-2.2,0.8-3.3v-0.1l1.2-1.4c0,0,11.2-0.8,12.1,0c0.3,0.4,0.4,0.8,0.4,1.3c0.1,1.6,0.1,3.2,0,4.8
			c0,0-0.3,2.2-0.8,4.5c-0.3,1.4-0.3,2.7,0,4.1C-189.6-2369.6-189.5-2368-189-2366.5z"/>
		<path class="st8" d="M-189.7-2348.9c-0.5,0.7-3.5,0.4-4,0.2c-0.3-0.1-0.3-0.7-0.2-1.3c0.1-0.4,0.1-0.8,0.2-1
			c0-0.7-0.1-1.5-0.2-2.2c0,0,0.7,0.7,0.8,0c0.1-0.3,0.3-0.5,0.6-0.5c0.3-0.1,0.7-0.1,1,0.1c0.5,0.2,1.4,0.7,1.2,1.4
			c0,0.8,0.1,1.6,0.6,2.2c0.1,0.1,0.1,0.2,0.1,0.3C-189.4-2349.6-189.5-2349.2-189.7-2348.9L-189.7-2348.9z"/>
		<path class="st1" d="M-189.7-2348.9c-0.5,0.7-3.5,0.4-4,0.2c-0.3-0.1-0.3-0.7-0.2-1.3c0.6,0.2,1.2,0.3,1.8,0.2c0.2,0,0.4,0,0.6,0
			c0.6,0,1.3,0,1.9,0C-189.4-2349.6-189.5-2349.2-189.7-2348.9z"/>
		<path class="st1" d="M-200-2365.7c0.2,3,0,5.9-0.8,8.8c-0.5,1.4-0.7,2.8-0.6,4.3c-0.3,0.2-0.7,0.3-1.1,0.2c0.2-1.7,1.3-9,1.9-14.8
			c0.5-4,1.9-7.8,4.3-11.1l0.7,0.8C-197.6-2376.5-200-2365.7-200-2365.7z"/>
		<path class="st9" d="M-190.9-2407.9l-0.5,2.4l-2.4,4l-3-1.3c0,0-4-4.2-1.5-4.8c0.3-0.1,0.6-0.2,0.8-0.4c0.4-0.3,0.7-0.9,0.7-1.5
			c0-0.6-0.2-1.2-0.4-1.7l5.2-1.6c-0.2,0.7-0.3,1.4-0.4,2.1c-0.1,0.9,0.2,1.8,0.9,2.4C-191.3-2408.1-191.1-2408-190.9-2407.9z"/>
		<path class="st1" d="M-192-2412.7c-0.2,0.7-0.3,1.4-0.4,2.1c-0.1,0.1-0.2,0.2-0.3,0.3c-1.1,1-2.7,1.4-4.1,0.9
			c0-0.6-0.2-1.2-0.4-1.7L-192-2412.7z"/>
		<path class="st9" d="M-191.4-2413.4c0,2.3-1.8,4.1-4.1,4.1s-4.1-1.8-4.1-4.1c0-2.3,1.8-4.1,4.1-4.1c1.1,0,2.1,0.4,2.9,1.2
			C-191.8-2415.5-191.4-2414.5-191.4-2413.4z"/>
		<path class="st1" d="M-190.9-2407.9l-0.5,2.4l-2.4,4l-3-1.3c0,0-4-4.2-1.5-4.8c0.3-0.1,0.6-0.2,0.8-0.4c-0.5,1.3,1.4,3.9,1.4,3.9
			c0.2,0.3,0.7,0.1,0.7,0.1c1.2-0.2,3.5-3.7,3.8-4.3C-191.3-2408.1-191.1-2408-190.9-2407.9z"/>
		<path class="st1" d="M-188.6-2384.6c-0.7,0.2-4.7,1-6.2,0.8c-1.6-0.2-4.8-0.4-4.8-0.4c-0.9,0.1-1.8,0-2.7-0.2v-0.1l1.2-1.4
			c0,0,11.2-0.8,12.1,0C-188.8-2385.5-188.6-2385-188.6-2384.6z"/>
		<path class="st3" d="M-196-2403.9c0,0-2.1-2.9-1.3-4.1l-3.6,1.5c0,0-2.2-0.3-2.9,3c-0.1,0.5-0.2,1.1-0.1,1.6
			c0,0.9-0.2,1.7-0.6,2.4c-0.9,1.8-0.7,5.8,1.1,6.2c0.8,0.3,1.6,0.3,2.4,0.2c0,0-0.2,7.3-1.3,8.2s2.7,0.6,2.7,0.6s3.2,0.2,4.8,0.4
			s6.3-0.8,6.3-0.8s-0.7-3.1-0.9-5.1c-0.2-2-0.8-6.2-0.8-6.2l4.1-5.5c0,0,0.7-3.4-1.8-4.8c-1.1-0.7-2.3-1.3-3.5-1.8
			c0,0-2.5,4.1-3.9,4.3C-195.3-2403.8-195.8-2403.6-196-2403.9z"/>
		<path class="st1" d="M-200.7-2402.8c0,0.6,0,1.2,0.2,1.8c0.2,0.5,1.1,3.4,1.1,3.4h-2c0,0,1.1-1.2,1-1.7
			S-200.7-2402.8-200.7-2402.8z"/>
		<path class="st9" d="M-194.7-2392.8c0,0-4.4-1.1-4.8-2c-0.4-0.9-1.6-3-1.6-3l0.5-0.6l2.2,1.7c0,0,2.6,2,3.8,2.2
			S-194.7-2392.8-194.7-2392.8z"/>
		<path class="st10" d="M-194.7-2392.8c0,0-4.4-1.1-4.8-2c-0.4-0.9-1.6-3-1.6-3l0.5-0.6l2.2,1.7c0,0,2.6,2,3.8,2.2
			S-194.7-2392.8-194.7-2392.8z"/>
		<path class="st9" d="M-190.9-2398v2.4h-0.4c-1.9,0-3.8,0.5-5.5,1.4l-0.7,0.4l-0.2,0.1l-1.2-2.8l1.2-1h0.1c0.7,0.1,1.4,0.1,2,0
			c0.8-0.5,1.7-0.6,2.6-0.3c0.7,0.2,1.3,1,2,0.7L-190.9-2398z"/>
		<path class="st1" d="M-187-2402.4l0.8,0.9v2.2c0,0-0.7,6.9-2.8,7.7c-2.2,0.8-6-0.4-6-0.4s-1-2.6-0.5-2.8c0.5-0.2,4.1-1.1,4.1-1.1
			s-0.1-4,0.8-5.3c0,0-0.5-3.8,1.3-3.9S-187-2402.4-187-2402.4z"/>
		<path class="st3" d="M-186.9-2402.4l0.8,0.9v2.2c0,0-0.7,6.9-2.8,7.7c-2.2,0.8-6-0.4-6-0.4s-1-2.6-0.5-2.8
			c0.5-0.2,4.1-1.1,4.1-1.1s-0.1-4,0.8-5.3c0,0-0.5-3.8,1.3-3.9S-186.9-2402.4-186.9-2402.4z"/>
		<path class="st1" d="M-192.5-2411.7c0-0.3,0-0.5-0.1-0.8c-0.1-0.3-0.4-0.4-0.6-0.4c-0.3,0.1-0.5,0.5-0.8,0.6
			c-0.3,0.1-0.6-0.1-0.7-0.4c-0.1-0.3-0.2-0.6-0.1-0.9v-1c0-0.4,0-0.7-0.2-1c-0.4-0.3-0.9-0.5-1.4-0.5c-0.3,0-0.6,0.1-0.8,0.3
			c-0.2,0.2-0.5,0.3-0.8,0.3c-0.3,0-0.5-0.2-0.6-0.5v0c1.4-1.8,3.9-2.2,5.7-0.8c1.8,1.4,2.2,3.9,0.8,5.7c-0.1,0.2-0.3,0.4-0.5,0.5
			C-192.6-2410.8-192.6-2411.2-192.5-2411.7z"/>
		<path class="st11" d="M-198.2-2415.5c-0.3,0-0.5-0.2-0.6-0.5c0-0.1,0-0.3-0.1-0.4c-0.1-0.3-0.4-0.5-0.7-0.7
			c-0.4-0.5-0.5-1.3-0.1-1.8c0.2-0.5,0.7-0.8,1.3-0.8c0.3,0.1,0.6,0.3,0.9,0.3c0.3,0,0.6-0.1,0.9-0.3c0.7-0.3,1.5-0.4,2.2-0.2
			c0.2,0,0.4,0.2,0.6,0.3c0.1,0.1,0.2,0.3,0.3,0.5c0.4,0.4,1,0.7,1.6,0.7c0.6,0.1,1.3,0.3,1.5,0.9c0.1,0.4,0.1,0.8-0.1,1.2
			c0,0.1,0,0.2,0,0.2c0.1,0.2,0.3,0.1,0.5,0.1c0.3,0.1,0.4,0.5,0.4,0.9c0,0.4,0,0.8,0,1.2c0,0.1,0,0.3,0,0.4
			c-0.1,0.2-0.2,0.4-0.3,0.6l-1.3,1.6c-0.7,0.6-1.1,1.5-1.1,2.4c-0.3,0.1-0.6-0.1-0.7-0.4c0,0,0,0,0,0c-0.1-0.3,0-0.6,0-0.9
			c0.1-0.5,0.2-1,0.2-1.6c0-0.3,0-0.5-0.1-0.8c-0.1-0.3-0.4-0.4-0.6-0.4c-0.3,0.1-0.5,0.5-0.8,0.6c-0.3,0.1-0.6-0.1-0.7-0.4
			c-0.1-0.3-0.2-0.6-0.1-0.9v-1c0-0.4,0-0.7-0.2-1c-0.4-0.3-0.9-0.5-1.4-0.5c-0.3,0-0.6,0.1-0.8,0.3
			C-197.6-2415.6-197.9-2415.4-198.2-2415.5z"/>
		<path class="st1" d="M-197.3-2402.9l1.3,5.2C-196-2397.7-195-2397.7-197.3-2402.9z"/>
		<path class="st1" d="M-193-2403.7c-1,1.7-1.3,3.6-1,5.5l0.3,0C-193.7-2398.2-194.2-2399.5-193-2403.7z"/>
		<path class="st1" d="M-191.9-2388.5c0,0,2-0.7,2.2,0.9C-189.7-2387.6-190.1-2388.7-191.9-2388.5z"/>
		<path class="st1" d="M-197.8-2397.4c0,0-0.4,2.8,0.3,3.9c-1.1,0.4-2.3,0.6-3.5,0.5l-0.2-4.4H-197.8z"/>
		<path class="st1" d="M-197.5-2393.8l-0.2,0.1l-1.2-2.8l1.2-1h0.1C-197.9-2396.3-197.8-2395-197.5-2393.8z"/>
		<path class="st3" d="M-197.8-2397.5c0,0-0.4,2.8,0.3,3.9c-1.1,0.4-2.3,0.6-3.5,0.5l-1.4-4.4H-197.8z"/>
		<path class="st8" d="M-201.2-2350.6c0,0.4-0.4,0.7-0.8,0.8c-1.5,0.2-2.9,0.5-4.4,0.9c-0.8,0.4-4.2,0.1-4.3-0.3
			c0-0.2,0-0.3,0.1-0.5c0.1-0.2,0.3-0.4,0.5-0.6c0.1,0,0.2-0.1,0.2-0.1c0.8-0.2,1.5-0.6,2.1-1.1c0.7-0.6,1.3-1.3,1.9-2
			c0.2-0.3,0.4-0.5,0.8-0.5c0.4,0,0.7,0.2,0.9,0.9c0,0,1.9,1.1,2.4,0.1c0,0.6,0.2,1.3,0.4,1.9l0,0
			C-201.3-2350.9-201.2-2350.8-201.2-2350.6z"/>
		<path class="st1" d="M-201.2-2350.6c0,0.4-0.4,0.7-0.8,0.8c-1.5,0.2-2.9,0.5-4.4,0.9c-0.8,0.4-4.2,0.1-4.3-0.3
			c0-0.2,0-0.3,0.1-0.5c0.1-0.2,0.3-0.4,0.5-0.6c0.5,0.4,1.7,0.7,4.4,0.3c1.5-0.2,3-0.5,4.4-1l0,0
			C-201.2-2350.9-201.2-2350.8-201.2-2350.6z"/>
		<path class="st12" d="M-192.6-2412.5c0.1,0.1,0.1,0.3,0.1,0.5c0-0.2,0-0.4-0.1-0.6c-0.1-0.3-0.4-0.4-0.6-0.4
			c-0.3,0.1-0.5,0.5-0.8,0.6c-0.3,0.1-0.6-0.1-0.7-0.4c-0.1-0.3-0.2-0.6-0.1-0.9v-1c0-0.4,0-0.7-0.2-1c-0.4-0.3-0.9-0.5-1.4-0.5
			c-0.3,0-0.6,0.1-0.8,0.3c-0.2,0.2-0.5,0.3-0.8,0.3c-0.3,0-0.5-0.2-0.6-0.5c0-0.1,0-0.3-0.1-0.4c-0.1-0.3-0.4-0.5-0.7-0.7
			c-0.2-0.2-0.3-0.5-0.3-0.9c0,0.4,0.1,0.7,0.3,1c0.2,0.2,0.6,0.4,0.7,0.7c0,0.1,0,0.3,0.1,0.4c0.1,0.3,0.3,0.5,0.6,0.5
			c0.3,0,0.6-0.1,0.8-0.3c0.2-0.2,0.5-0.3,0.8-0.3c0.5,0,1,0.2,1.4,0.5c0.2,0.3,0.3,0.7,0.2,1v1c0,0.3,0,0.6,0.1,0.9
			c0.1,0.3,0.4,0.4,0.7,0.4c0.3-0.1,0.5-0.6,0.8-0.6C-193-2412.9-192.7-2412.8-192.6-2412.5z"/>
		<path d="M-189.3-2413.6c-0.1,0.2-0.2,0.4-0.3,0.6l-1.3,1.6c-0.6,0.6-1,1.4-1.1,2.3c0.1-0.8,0.5-1.5,1.1-2.1l1.3-1.6
			c0.2-0.2,0.3-0.3,0.3-0.6c0-0.1,0-0.3,0-0.4C-189.3-2413.8-189.3-2413.7-189.3-2413.6z"/>
		<path d="M-192.8-2409.4c0-0.1,0-0.1,0-0.2c0,0.1,0,0.3,0,0.4c0.1,0.3,0.4,0.5,0.7,0.4c0,0,0,0,0,0c0-0.1,0-0.1,0-0.2
			C-192.4-2409-192.7-2409.1-192.8-2409.4z"/>
		<path class="st1" d="M-193.3-2353c0.7,0.9,2,1.1,3,0.5"/>
		<path class="st1" d="M-189.4-2371.2c0,0-0.9,0.6-1,0.9s0.5-0.2,0.5-0.2L-189.4-2371.2z"/>
		<path class="st1" d="M-189.1-2366.8c-0.3,0.3-0.7,0.4-1.1,0.4c-0.7,0-0.6,0.9-0.2,0.7C-189.9-2366-189.5-2366.4-189.1-2366.8z"/>
	</g>
</g>
</svg>
