<?xml version="1.0" encoding="utf-8"?>
<!-- Generator: Adobe Illustrator 22.1.0, SVG Export Plug-In . SVG Version: 6.00 Build 0)  -->
<svg version="1.1" id="Layer_1" xmlns="http://www.w3.org/2000/svg" xmlns:xlink="http://www.w3.org/1999/xlink" x="0px" y="0px"
	 viewBox="0 0 226.1 202.9" style="enable-background:new 0 0 226.1 202.9;" xml:space="preserve">
<style type="text/css">
	.st0{opacity:0.1;fill:#EC7E73;enable-background:new    ;}
	.st1{opacity:0.1;}
	.st2{fill:#EC7E73;}
	.st3{fill:url(#SVGID_1_);}
	.st4{fill:#535461;}
	.st5{fill:#F6F7F9;}
	.st6{opacity:0.2;}
	.st7{fill:#DCE0ED;}
	.st8{fill:url(#SVGID_2_);}
	.st9{fill:#65617D;}
	.st10{fill:#A27772;}
	.st11{opacity:0.1;enable-background:new    ;}
	.st12{fill:#FBBEBE;}
	.st13{opacity:5.000000e-02;enable-background:new    ;}
	.st14{fill:#7C5C5C;}
	.st15{fill:#FFD037;}
	.st16{fill:#A8A8A8;}
	.st17{opacity:0.2;enable-background:new    ;}
</style>
<g transform="translate(-134 3372)">
	<g transform="translate(134 -3372)">
		<path class="st0" d="M49,14.1c-7.3-0.3-14.9-0.5-21.4,2.7s-11.7,10.7-9.5,17.6c0.9,2.2,2,4.3,3.3,6.3c5.9,10.6,6.2,23.4,0.7,34.2
			c-4.2,8.1-11.4,14.3-16.5,21.8s-8.1,18-3,25.6c3.5,5.2,9.9,7.8,16.1,8.4s12.5-0.4,18.8-0.6c12.2-0.5,24.3,1.8,35.5,6.7
			c15.4,6.7,28.6,18.3,44.8,22.7c1.9,0.6,4,0.8,6,0.6c3.5-0.6,6.1-3.6,8.8-5.9c8.8-7.3,21-8.7,32.4-9s23.3-0.1,33.7-5
			c9-4.3,16-12.3,20.3-21.3s6.2-19,6.9-29c0.4-5.9,0.4-12.1-1.7-17.6c-2.4-6.2-7.2-11.2-12.3-15.6c-5.3-4.5-11.1-8.7-17.6-11.1
			c-7.8-2.9-16.3-3.3-24.6-4c-17.1-1.4-34-4.1-50.7-8.1c-15.8-3.8-33.2-7.9-47.6-15.6C64.1,14.1,57.2,14.4,49,14.1z"/>
		<g transform="translate(145.456 95.421)" class="st1">
			<path class="st2" d="M3.8,50.2c0,0,0.7-10.4,6.6-16c2.5-2.4,4.1-5.4,4.7-8.8c0.3-1.6,0.4-3.2,0.3-4.8"/>
			<path class="st2" d="M19,17c-0.4,1.1-3.7,3.7-3.7,3.7s-0.8-4.1-0.4-5.2c0.4-1.1,1.7-1.7,2.8-1.3C18.9,14.6,19.5,15.8,19,17L19,17
				z"/>
			<path class="st2" d="M20.1,24.6c-1,0.7-5.1,1.1-5.1,1.1s1.5-3.9,2.5-4.6c1-0.7,2.4-0.4,3.1,0.6C21.2,22.6,21,23.9,20.1,24.6
				L20.1,24.6z"/>
			<path class="st2" d="M15.9,35.4c-1.2,0.1-5-1.7-5-1.7s3.3-2.6,4.5-2.7c1.2-0.1,2.3,0.9,2.3,2.1C17.8,34.2,17,35.2,15.9,35.4
				L15.9,35.4z"/>
			<path class="st2" d="M10.9,42.8C9.7,43.2,5.7,42,5.7,42s2.8-3.1,4-3.4c1.2-0.4,2.4,0.2,2.8,1.4c0.4,1.2-0.2,2.4-1.4,2.8
				C11,42.8,10.9,42.8,10.9,42.8L10.9,42.8z"/>
			<path class="st2" d="M10.5,24.3c0.5,1.1,4,3.4,4,3.4s0.5-4.2,0-5.3c-0.6-1.1-1.9-1.5-3-1C10.5,21.9,10,23.2,10.5,24.3L10.5,24.3z
				"/>
			<path class="st2" d="M4.8,33c0.8,0.9,4.9,2,4.9,2S8.8,30.9,8,30c-0.9-0.9-2.3-0.9-3.1,0C4,30.8,4,32.2,4.8,33z"/>
			<path class="st2" d="M0.3,42.3c0.7,1,4.5,2.8,4.5,2.8S4.7,41,4,39.9c-0.7-1-2.1-1.2-3.1-0.5C0,40.1-0.3,41.3,0.3,42.3L0.3,42.3z"
				/>
			<path class="st2" d="M19,17c-0.4,1.1-3.7,3.7-3.7,3.7s-0.8-4.1-0.4-5.2c0.4-1.1,1.7-1.7,2.8-1.3C18.9,14.6,19.5,15.8,19,17L19,17
				z"/>
			<path class="st2" d="M20.1,24.6c-1,0.7-5.1,1.1-5.1,1.1s1.5-3.9,2.5-4.6c1-0.7,2.4-0.4,3.1,0.6C21.2,22.6,21,23.9,20.1,24.6
				L20.1,24.6z"/>
			<path class="st2" d="M15.9,35.4c-1.2,0.1-5-1.7-5-1.7s3.3-2.6,4.5-2.7c1.2-0.1,2.3,0.9,2.3,2.1C17.8,34.2,17,35.2,15.9,35.4
				L15.9,35.4z"/>
			<path class="st2" d="M10.9,42.8C9.7,43.2,5.7,42,5.7,42s2.8-3.1,4-3.4c1.2-0.4,2.4,0.2,2.8,1.4c0.4,1.2-0.2,2.4-1.4,2.8
				C11,42.8,10.9,42.8,10.9,42.8L10.9,42.8z"/>
			<path class="st2" d="M10.5,24.3c0.5,1.1,4,3.4,4,3.4s0.5-4.2,0-5.3c-0.6-1.1-1.9-1.5-3-1C10.5,21.9,10,23.2,10.5,24.3L10.5,24.3z
				"/>
			<path class="st2" d="M4.8,33c0.8,0.9,4.9,2,4.9,2S8.8,30.9,8,30c-0.9-0.9-2.3-0.9-3.1,0C4,30.8,4,32.2,4.8,33z"/>
			<path class="st2" d="M0.3,42.3c0.7,1,4.5,2.8,4.5,2.8S4.7,41,4,39.9c-0.7-1-2.1-1.2-3.1-0.5C0,40.1-0.3,41.3,0.3,42.3L0.3,42.3z"
				/>
		</g>
		<g transform="translate(147.437 56.153)" class="st1">
			<path class="st2" d="M3.9,50.2c0,0,0.7-10.4,6.6-16c2.5-2.4,4.1-5.4,4.7-8.8c0.3-1.6,0.4-3.2,0.3-4.8"/>
			<path class="st2" d="M19.1,17c-0.4,1.1-3.7,3.7-3.7,3.7s-0.8-4.1-0.4-5.2c0.4-1.1,1.7-1.7,2.8-1.3C19,14.6,19.5,15.8,19.1,17
				L19.1,17L19.1,17z"/>
			<path class="st2" d="M20.2,24.6c-1,0.7-5.1,1.1-5.1,1.1s1.5-3.9,2.5-4.6c1-0.8,2.4-0.6,3.1,0.4c0.8,1,0.6,2.4-0.4,3.1
				C20.2,24.5,20.2,24.6,20.2,24.6L20.2,24.6z"/>
			<path class="st2" d="M16,35.4c-1.2,0.1-5-1.7-5-1.7s3.3-2.6,4.5-2.7c1.2-0.2,2.3,0.7,2.5,1.9s-0.7,2.3-1.9,2.5
				C16,35.4,16,35.4,16,35.4L16,35.4z"/>
			<path class="st2" d="M10.9,42.8C9.8,43.2,5.7,42,5.7,42s2.8-3.1,4-3.4c1.2-0.3,2.4,0.3,2.7,1.5C12.8,41.3,12.1,42.5,10.9,42.8
				L10.9,42.8L10.9,42.8z"/>
			<path class="st2" d="M10.6,24.3c0.5,1.1,4,3.4,4,3.4s0.5-4.2,0-5.3c-0.5-1.1-1.8-1.6-2.9-1.1S10,23,10.5,24.1
				C10.5,24.2,10.6,24.2,10.6,24.3L10.6,24.3z"/>
			<path class="st2" d="M4.8,33c0.8,0.9,4.9,2,4.9,2s-0.8-4.1-1.6-5c-0.9-0.9-2.3-0.8-3.1,0C4.1,30.9,4.1,32.2,4.8,33z"/>
			<path class="st2" d="M0.4,42.3c0.7,1,4.5,2.8,4.5,2.8S4.8,41,4.1,39.9c-0.6-1-2-1.4-3-0.8c-1,0.6-1.4,2-0.8,3
				C0.3,42.3,0.4,42.3,0.4,42.3L0.4,42.3z"/>
			<path class="st2" d="M19.1,17c-0.4,1.1-3.7,3.7-3.7,3.7s-0.8-4.1-0.4-5.2c0.4-1.1,1.7-1.7,2.8-1.3C19,14.6,19.5,15.8,19.1,17
				L19.1,17L19.1,17z"/>
			<path class="st2" d="M20.2,24.6c-1,0.7-5.1,1.1-5.1,1.1s1.5-3.9,2.5-4.6c1-0.8,2.4-0.6,3.1,0.4c0.8,1,0.6,2.4-0.4,3.1
				C20.2,24.5,20.2,24.6,20.2,24.6L20.2,24.6z"/>
			<path class="st2" d="M16,35.4c-1.2,0.1-5-1.7-5-1.7s3.3-2.6,4.5-2.7c1.2-0.2,2.3,0.7,2.5,1.9s-0.7,2.3-1.9,2.5
				C16,35.4,16,35.4,16,35.4L16,35.4z"/>
			<path class="st2" d="M10.9,42.8C9.8,43.2,5.7,42,5.7,42s2.8-3.1,4-3.4c1.2-0.3,2.4,0.3,2.7,1.5C12.8,41.3,12.1,42.5,10.9,42.8
				L10.9,42.8L10.9,42.8z"/>
			<path class="st2" d="M10.6,24.3c0.5,1.1,4,3.4,4,3.4s0.5-4.2,0-5.3c-0.5-1.1-1.8-1.6-2.9-1.1S10,23,10.5,24.1
				C10.5,24.2,10.6,24.2,10.6,24.3L10.6,24.3z"/>
			<path class="st2" d="M4.8,33c0.8,0.9,4.9,2,4.9,2s-0.8-4.1-1.6-5c-0.9-0.9-2.3-0.8-3.1,0C4.1,30.9,4.1,32.2,4.8,33z"/>
			<path class="st2" d="M0.4,42.3c0.7,1,4.5,2.8,4.5,2.8S4.8,41,4.1,39.9c-0.6-1-2-1.4-3-0.8c-1,0.6-1.4,2-0.8,3
				C0.3,42.3,0.4,42.3,0.4,42.3L0.4,42.3z"/>
		</g>
		<g transform="translate(13.718 76.799)" class="st1">
			<path class="st2" d="M26.7,43.2c0,0-8.9-5.3-11.4-13.1c-1-3.3-3-6.1-5.8-8.1c-1.3-0.9-2.7-1.8-4.2-2.5"/>
			<path class="st2" d="M3.8,14.6c0.8,0.9,1.6,5,1.6,5s-4-1.1-4.9-2c-0.8-0.9-0.7-2.3,0.2-3.1C1.7,13.8,3,13.8,3.8,14.6L3.8,14.6z"
				/>
			<path class="st2" d="M11.1,17.1c0.2,1.2-1.4,5.1-1.4,5.1s-2.8-3.1-3-4.3c-0.2-1.2,0.5-2.4,1.7-2.6c1.2-0.2,2.4,0.5,2.6,1.7
				C11.1,17,11.1,17.1,11.1,17.1L11.1,17.1z"/>
			<path class="st2" d="M18.8,25.7c-0.4,1.1-3.7,3.7-3.7,3.7s-0.8-4.1-0.4-5.2c0.4-1.2,1.6-1.8,2.8-1.4s1.8,1.6,1.4,2.8
				C18.9,25.6,18.9,25.7,18.8,25.7L18.8,25.7z"/>
			<path class="st2" d="M23.2,33.6c-0.2,1.2-3.1,4.3-3.1,4.3s-1.5-3.9-1.3-5.1c0.2-1.2,1.4-2,2.6-1.8S23.5,32.4,23.2,33.6L23.2,33.6
				L23.2,33.6z"/>
			<path class="st2" d="M6.5,25.5c1.2,0,4.8-2.1,4.8-2.1s-3.5-2.3-4.7-2.3c-1.2,0-2.2,0.9-2.3,2.2C4.3,24.5,5.3,25.5,6.5,25.5
				L6.5,25.5z"/>
			<path class="st2" d="M11.7,34.6c1.2-0.3,4-3.4,4-3.4s-4-1.1-5.2-0.8c-1.2,0.4-1.8,1.6-1.4,2.8C9.4,34.3,10.6,34.9,11.7,34.6
				L11.7,34.6z"/>
			<path class="st2" d="M18,42.8c1.2-0.1,4.5-2.7,4.5-2.7s-3.8-1.8-5-1.7c-1.2,0.1-2.2,1.1-2.1,2.3c0.1,1.2,1.1,2.2,2.3,2.1
				C17.9,42.8,18,42.8,18,42.8L18,42.8z"/>
			<path class="st2" d="M3.8,14.6c0.8,0.9,1.6,5,1.6,5s-4-1.1-4.9-2c-0.8-0.9-0.7-2.3,0.2-3.1C1.7,13.8,3,13.8,3.8,14.6L3.8,14.6z"
				/>
			<path class="st2" d="M11.1,17.1c0.2,1.2-1.4,5.1-1.4,5.1s-2.8-3.1-3-4.3c-0.2-1.2,0.5-2.4,1.7-2.6c1.2-0.2,2.4,0.5,2.6,1.7
				C11.1,17,11.1,17.1,11.1,17.1L11.1,17.1z"/>
			<path class="st2" d="M18.8,25.7c-0.4,1.1-3.7,3.7-3.7,3.7s-0.8-4.1-0.4-5.2c0.4-1.2,1.6-1.8,2.8-1.4s1.8,1.6,1.4,2.8
				C18.9,25.6,18.9,25.7,18.8,25.7L18.8,25.7z"/>
			<path class="st2" d="M23.2,33.6c-0.2,1.2-3.1,4.3-3.1,4.3s-1.5-3.9-1.3-5.1c0.2-1.2,1.4-2,2.6-1.8S23.5,32.4,23.2,33.6L23.2,33.6
				L23.2,33.6z"/>
			<path class="st2" d="M6.5,25.5c1.2,0,4.8-2.1,4.8-2.1s-3.5-2.3-4.7-2.3c-1.2,0-2.2,0.9-2.3,2.2C4.3,24.5,5.3,25.5,6.5,25.5
				L6.5,25.5z"/>
			<path class="st2" d="M11.7,34.6c1.2-0.3,4-3.4,4-3.4s-4-1.1-5.2-0.8c-1.2,0.4-1.8,1.6-1.4,2.8C9.4,34.3,10.6,34.9,11.7,34.6
				L11.7,34.6z"/>
			<path class="st2" d="M18,42.8c1.2-0.1,4.5-2.7,4.5-2.7s-3.8-1.8-5-1.7c-1.2,0.1-2.2,1.1-2.1,2.3c0.1,1.2,1.1,2.2,2.3,2.1
				C17.9,42.8,18,42.8,18,42.8L18,42.8z"/>
		</g>
		<path class="st0" d="M149.9,182.6c6,2.6,13.3,1,20.1,1.2c0.9,0,1.8,0.1,2.7,0.6c0.6,0.5,1.2,1.1,1.6,1.8c1.9,2.3,5.8,3.1,9.2,2.7
			s6.6-1.7,9.8-2.7c5.6-1.7,12-2.5,17.5-0.6c0.5,0.2,1,0.3,1.6,0.3c1.2-0.2,1.6-1.4,2.4-2.1c1.5-1.3,4.8-0.9,5.5-2.6
			c0.4-1-0.5-2-1.5-2.7c-3.8-2.6-9.1-3-14.1-2.6s-9.8,1.5-14.7,1.5c-6.2,0-12.1-1.7-18.2-2.4c-4.2-0.5-8.8-0.4-12.8,1
			C154.7,177.4,153.8,180.8,149.9,182.6z"/>
		<path class="st0" d="M36.3,174.6c10.2,3,22.8,1.2,34.4,1.4c1.5-0.1,3.1,0.2,4.6,0.6c1,0.5,2,1.2,2.8,2c3.3,2.6,9.9,3.5,15.8,3
			s11.2-1.9,16.7-3.1c9.5-1.9,20.4-2.8,29.8-0.7c0.9,0.3,1.8,0.4,2.7,0.3c2.1-0.2,2.7-1.6,4.1-2.4c2.6-1.5,8.2-1.1,9.4-3
			c0.7-1.1-0.9-2.3-2.5-3c-6.4-2.9-15.6-3.4-24-3s-16.7,1.7-25.1,1.7c-10.5,0-20.7-1.9-31.1-2.7c-7.2-0.5-15.1-0.5-21.9,1.1
			C44.5,168.7,42.9,172.6,36.3,174.6z"/>
		<path class="st0" d="M8.8,181.8c2.9,1.8,6.5,0.7,9.8,0.8c0.5,0,0.9,0.1,1.3,0.4c0.3,0.4,0.6,0.8,0.8,1.2c1,1.5,2.8,2.2,4.5,1.8
			c1.7-0.4,3.3-1,4.8-1.8c2.7-1.2,5.8-1.7,8.5-0.4c0.2,0.1,0.5,0.2,0.8,0.2c0.6-0.1,0.8-0.9,1.2-1.4c0.7-0.9,2.4-0.6,2.7-1.8
			c0.1-0.7-0.2-1.4-0.7-1.8c-1.8-1.8-4.4-2-6.8-1.8s-4.7,1-7.2,1c-3,0-5.9-1.1-8.9-1.6c-2.1-0.4-4.3-0.2-6.2,0.7
			C11.2,178.3,10.7,180.6,8.8,181.8z"/>
		
			<linearGradient id="SVGID_1_" gradientUnits="userSpaceOnUse" x1="13.3909" y1="200.3369" x2="13.3909" y2="201.3369" gradientTransform="matrix(114.984 0 0 -152.378 -1442.8846 30700.7617)">
			<stop  offset="0" style="stop-color:#808080;stop-opacity:0.251"/>
			<stop  offset="0.54" style="stop-color:#808080;stop-opacity:0.122"/>
			<stop  offset="1" style="stop-color:#808080;stop-opacity:0.102"/>
		</linearGradient>
		<path class="st3" d="M145.4,21.4H48.3c-4.9,0-8.9,4-8.9,8.9v134.6c0,4.9,4,8.9,8.9,8.9h97.2c4.9,0,8.9-4,8.9-8.9V30.3
			C154.3,25.4,150.4,21.4,145.4,21.4z"/>
		<path class="st4" d="M47.7,23.3H146c3.9,0,7,3.1,7,7v135.2c0,3.9-3.1,7-7,7H47.7c-3.9,0-7-3.1-7-7V30.3
			C40.7,26.4,43.9,23.3,47.7,23.3z"/>
		<rect x="46.4" y="37.4" class="st5" width="100.8" height="121"/>
		<circle class="st5" cx="96.4" cy="30.1" r="1.4"/>
		<circle class="st5" cx="96.4" cy="165.2" r="4.1"/>
		<g transform="translate(46.436 23.4)" class="st6">
			<rect x="0" y="14" class="st2" width="100.8" height="6"/>
		</g>
		<circle class="st5" cx="49.6" cy="40.4" r="1.3"/>
		<circle class="st5" cx="52.9" cy="40.4" r="1.3"/>
		<circle class="st5" cx="56.1" cy="40.4" r="1.3"/>
		<rect x="49.5" y="72.9" class="st7" width="93.9" height="0.3"/>
		<rect x="49.5" y="80.2" class="st7" width="93.9" height="0.3"/>
		<rect x="49.5" y="87.5" class="st7" width="93.9" height="0.3"/>
		<rect x="49.5" y="94.8" class="st7" width="93.9" height="0.3"/>
		<rect x="49.5" y="102.1" class="st7" width="93.9" height="0.3"/>
		<g transform="translate(49.332 63.404)" class="st6">
			<path class="st2" d="M94,39H0V24.7l8.6,4.2l8.9,1.2l7.8-2.4l9.4-7.3l4.8-2.7L43,17l3.3,0.2l5.5,2.7l7.4,4.7l5.8,0.7l4.6-1.6
				l9.8-8l5-1.8l5.2,0.8l4.3,2.5L94,39z"/>
		</g>
		<path class="st2" d="M65.7,93.5c-8.5,0-16.3-5.2-16.4-5.2l0.2-0.3C49.7,88,61.7,96,72,92c3.3-1.4,6.3-3.4,9-5.9
			c2.7-2.3,5.2-4.4,8.7-5.4c4.1-1.1,8.4-0.1,11.6,2.6c2.8,2.3,8.4,6,14.3,4.9c3-0.6,5.6-2.8,8.2-5.1c5.2-4.5,10.5-9.1,19.7-2.5
			l-0.2,0.3c-9-6.4-14.2-1.9-19.2,2.4c-2.7,2.4-5.3,4.6-8.4,5.2c-6.1,1.1-11.8-2.6-14.7-5c-3.1-2.6-7.3-3.5-11.2-2.5
			c-3.4,0.9-5.9,3-8.5,5.3c-2.7,2.5-5.7,4.5-9.1,6C70.1,93.2,67.9,93.5,65.7,93.5z"/>
		<circle class="st2" cx="94.6" cy="80.4" r="2.3"/>
		<g transform="translate(95.152 35.627)" class="st6">
			<path class="st2" d="M29.8,14H0.5C0.2,14,0,14.2,0,14.5v19.9c0,0.3,0.2,0.5,0.5,0.5c0.1,0,0.3-0.1,0.3-0.1l5.1-5.4
				c0.1-0.1,0.2-0.2,0.3-0.2h23.6c0.3,0,0.5-0.2,0.5-0.5V14.5C30.3,14.2,30.1,14,29.8,14z"/>
		</g>
		<rect x="102" y="53.3" class="st5" width="16.7" height="2.1"/>
		<rect x="102" y="57.9" class="st5" width="4.6" height="2.1"/>
		<g transform="translate(57.377 103.374)" class="st6">
			<rect x="0" y="14" class="st2" width="4.6" height="2.1"/>
		</g>
		<g transform="translate(57.377 107.416)" class="st6">
			<rect x="0" y="14" class="st2" width="4.6" height="2.1"/>
		</g>
		<g transform="translate(57.377 111.459)" class="st6">
			<rect x="0" y="14" class="st2" width="4.6" height="2.1"/>
		</g>
		<g transform="translate(57.377 115.503)" class="st6">
			<rect x="0" y="14" class="st2" width="4.6" height="2.1"/>
		</g>
		<g transform="translate(57.377 119.545)" class="st6">
			<rect x="0" y="14" class="st2" width="4.6" height="2.1"/>
		</g>
		<g transform="translate(57.377 123.587)" class="st6">
			<rect x="0" y="14" class="st2" width="4.6" height="2.1"/>
		</g>
		<g transform="translate(57.377 127.632)" class="st6">
			<rect x="0" y="14" class="st2" width="4.6" height="2.1"/>
		</g>
		<g transform="translate(57.377 131.674)" class="st6">
			<rect x="0" y="14" class="st2" width="4.6" height="2.1"/>
		</g>
		<g transform="translate(66.02 133.765)" class="st6">
			<rect x="0" y="14" class="st2" width="4.6" height="2.1"/>
		</g>
		<g transform="translate(74.106 133.765)" class="st6">
			<rect x="0" y="14" class="st2" width="4.6" height="2.1"/>
		</g>
		<g transform="translate(82.193 133.765)" class="st6">
			<rect x="0" y="14" class="st2" width="4.6" height="2.1"/>
		</g>
		<g transform="translate(90.277 133.765)" class="st6">
			<rect x="0" y="14" class="st2" width="4.6" height="2.1"/>
		</g>
		<g transform="translate(98.364 133.765)" class="st6">
			<rect x="0" y="14" class="st2" width="4.6" height="2.1"/>
		</g>
		<g transform="translate(106.45 133.765)" class="st6">
			<rect x="0" y="14" class="st2" width="4.6" height="2.1"/>
		</g>
		<g transform="translate(114.534 133.765)" class="st6">
			<rect x="0" y="14" class="st2" width="4.6" height="2.1"/>
		</g>
		<g transform="translate(122.621 133.765)" class="st6">
			<rect x="0" y="14" class="st2" width="4.6" height="2.1"/>
		</g>
		<g transform="translate(130.707 133.765)" class="st6">
			<rect x="0" y="14" class="st2" width="4.6" height="2.1"/>
		</g>
		<rect x="111.7" y="57.9" class="st5" width="7" height="2.1"/>
		<rect x="66" y="132.6" class="st2" width="4.6" height="13.1"/>
		<rect x="74.1" y="126.5" class="st2" width="4.6" height="19.2"/>
		<rect x="82.2" y="121.4" class="st2" width="4.6" height="24.3"/>
		<rect x="90.3" y="124" class="st2" width="4.6" height="21.6"/>
		<rect x="98.4" y="119.4" class="st2" width="4.6" height="26.2"/>
		<g transform="translate(106.45 115.503)" class="st6">
			<rect x="0" y="14" class="st2" width="4.6" height="16.2"/>
		</g>
		<g transform="translate(114.534 115.503)" class="st6">
			<rect x="0" y="14" class="st2" width="4.6" height="16.2"/>
		</g>
		<g transform="translate(122.621 115.503)" class="st6">
			<rect x="0" y="14" class="st2" width="4.6" height="16.2"/>
		</g>
		<g transform="translate(130.707 115.503)" class="st6">
			<rect x="0" y="14" class="st2" width="4.6" height="16.2"/>
		</g>
		
			<linearGradient id="SVGID_2_" gradientUnits="userSpaceOnUse" x1="13.2372" y1="200.3293" x2="13.2372" y2="201.3293" gradientTransform="matrix(48.7223 0 0 -137.9883 -458.6387 27825.6563)">
			<stop  offset="0" style="stop-color:#808080;stop-opacity:0.251"/>
			<stop  offset="0.54" style="stop-color:#808080;stop-opacity:0.122"/>
			<stop  offset="1" style="stop-color:#808080;stop-opacity:0.102"/>
		</linearGradient>
		<path class="st8" d="M206.9,71c-2.2-1.3-4.5-2.5-6.9-3.6l-0.1-0.1c-0.5-0.4-1-1-1.3-1.6c0-0.1,0-0.2,0-0.3v0
			c0.1-1.5,1.2-2.9,2.2-4.1l2.6-3.1c0.3-0.3,0.5-0.7,0.7-1.1c0.1-0.2,0.1-0.4,0.1-0.7v-0.3c0-0.8,0-1.5-0.1-2.3
			c0-0.7-0.2-1.5-0.9-1.6c-0.3-0.1-0.8,0.1-1-0.2c-0.1-0.1-0.1-0.3,0-0.4c0,0,0,0,0,0v0c0.1-0.5,0.2-1,0.2-1.6c0-0.3,0-0.5-0.1-0.8
			c-0.4-1.1-1.7-1.6-2.9-1.8s-2.5-0.4-3.2-1.3c-0.2-0.3-0.4-0.6-0.6-0.9c-0.3-0.3-0.8-0.5-1.2-0.6c-1.5-0.4-3-0.2-4.4,0.4
			c-0.5,0.3-1.1,0.5-1.8,0.6c-0.6,0-1.2-0.5-1.8-0.6c-1.1-0.1-2.1,0.5-2.5,1.5c-0.3,0.5-0.5,1.1-0.5,1.7v0.1l0,0
			c0,0.7,0.2,1.3,0.7,1.8c0.4,0.5,1.1,0.8,1.3,1.4c0.1,0.2,0.1,0.5,0.1,0.8c0,0,0,0.1,0,0.1l0,0c-1.1,1.4-1.6,3.1-1.6,4.8
			c0,3.5,2.3,6.5,5.6,7.5V65c0,1-0.3,2-1.1,2.6l-7,2.8c0,0-4.2-0.5-5.8,5.7c-0.2,1-0.3,2.1-0.3,3.1c0,1.6-0.4,3.3-1.2,4.7
			c-1.7,3.4-1.3,11.2,2.2,12c3.4,0.7,4.7,0.4,4.8,0.4v0.1c-0.1,1.5-0.6,14.1-2.5,15.7c-0.5,0.4-0.4,0.7,0,0.9c0,0,0,0.1,0,0.2
			c-0.1,0.9-0.4,4.5-1.7,6.5c-1.5,2.3-1.3,15.7-1.3,15.7l-1,7.9c0,0,0.6,4.9,0,5.7c-0.6,0.8-1.3,18.8-1.5,22.7h-0.1
			c-0.6,0-1.2,0.4-1.5,0.9c-1.1,1.4-2.4,2.7-3.7,3.8c-0.6,0.9-3,1.8-4.2,2.2c-0.2,0.1-0.3,0.1-0.5,0.2c-0.5,0.3-0.8,0.6-1.1,1.1
			c-0.2,0.3-0.2,0.6-0.1,0.9c0.3,0.8,6.9,1.3,8.5,0.5c1.3-0.6,6.5-1.4,8.6-1.7c0.8-0.1,1.4-0.7,1.5-1.5c0-0.3,0-0.6-0.2-0.8l0,0
			c-0.4-0.9-0.7-1.8-0.7-2.8c0.2-0.1,0.3-0.2,0.5-0.3c-0.2-2.8,0.2-5.6,1.2-8.3c1.6-4.2,2.1-11.9,1.7-17c0,0,4.8-20.8,8.6-22.7l0,0
			c0.1,0.1,1.9,2.4,2.1,9.8c0.1,4.3,1.1,8.5,2.9,12.3c0,0-1.2,12.6,0,17.4l-1.6,7.5c-0.1-0.1-0.2-0.2-0.2-0.2s0,0.2,0.1,0.5l0,0.2
			l0.1,0c0.3,1.2,0.4,2.3,0.3,3.5c-0.1,0.5-0.2,1.3-0.3,2c-0.2,1.1-0.2,2.3,0.4,2.5c1,0.4,6.8,0.9,7.8-0.3c0.5-0.5,0.6-1.3,0.3-1.9
			c-0.1-0.2-0.2-0.3-0.3-0.5c0,0-1.5-2.5-1.1-4.3c0.1-0.4,0-0.7-0.2-1c0.2-2.8,0.7-5.6,1.3-8.4c1-3.7,3.1-11.9,1.5-17.3l0,0
			c-0.1-0.2-0.1-0.4-0.2-0.6c-0.9-2.9-1.2-6-0.9-9.1c-0.6-2.6-0.6-5.3,0-7.9c0.9-4.3,1.6-8.6,1.6-8.6c0.3-3.1,0.3-6.2,0.1-9.2l0-0.2
			l0.3-0.1c0,0-1.3-6-1.8-9.8c-0.1-0.9-0.3-2-0.4-3.2c0.4-0.1,0.9-0.2,1.3-0.3c4.3-1.5,5.6-14.8,5.6-14.8v-4.2
			C210.5,80.3,211.9,73.8,206.9,71z M175.1,173.9c-0.1-0.1-0.2-0.1-0.2-0.1l0,0L175.1,173.9z"/>
		<path class="st9" d="M204.3,147.9c1.9,5.3-0.3,14-1.3,17.8c-0.7,2.8-1.1,5.6-1.3,8.5c-2.3,0.4-4.6,0.3-6.8-0.2l1.6-7.9
			c-1.2-4.7,0-17.3,0-17.3c-1.8-3.8-2.8-8-2.9-12.3c-0.2-7.3-2-9.7-2.1-9.7l0,0c-3.7,1.9-8.4,22.6-8.4,22.6c0.4,5-0.1,12.7-1.6,16.9
			c-0.9,2.6-1.3,5.5-1.2,8.3c-0.6,0.4-1.4,0.6-2.1,0.4c-1.7-0.4-3.4-1.2-4.8-2.3c0,0,0.8-22.5,1.5-23.4s0-5.7,0-5.7l1-7.9
			c0,0-0.2-13.4,1.3-15.7c1.3-2,1.6-5.5,1.6-6.4c0-0.1,0-0.2,0-0.2l2.2-2.7c0,0,21.6-1.6,23.2,0c0.5,0.7,0.8,1.6,0.8,2.4
			c0.2,3.1,0.2,6.2-0.1,9.2c0,0-0.6,4.2-1.6,8.6c-0.6,2.6-0.6,5.3,0,7.9C203.2,141.9,203.5,144.9,204.3,147.9z"/>
		<path class="st10" d="M203,181.7c-1,1.3-6.6,0.7-7.6,0.3c-0.6-0.2-0.5-1.4-0.4-2.5c0.1-0.7,0.2-1.5,0.3-2c0-1.4-0.1-2.8-0.5-4.2
			c0,0,1.3,1.4,1.6,0c0.1-0.5,0.6-0.9,1.1-1c0.7-0.2,1.4-0.2,2,0.1c1,0.4,2.7,1.4,2.4,2.6c-0.4,1.8,1.1,4.3,1.1,4.3
			c0.1,0.1,0.2,0.3,0.3,0.5C203.5,180.5,203.4,181.2,203,181.7z"/>
		<path class="st11" d="M203,181.7c-1,1.3-6.6,0.7-7.6,0.3c-0.6-0.2-0.5-1.4-0.4-2.5c1.1,0.4,2.2,0.5,3.4,0.4c0.4,0,0.8-0.1,1.2,0
			c1.2,0.1,2.5,0,3.7-0.1C203.5,180.5,203.4,181.2,203,181.7z"/>
		<path class="st11" d="M183.2,149.4c0.4,5-0.1,12.7-1.6,16.9c-0.9,2.6-1.3,5.5-1.2,8.3c-0.6,0.4-1.4,0.6-2.1,0.4
			c0.5-3.3,2.5-17.3,3.7-28.4c0.9-7.7,3.7-15,8.2-21.3l1.4,1.5C187.9,128.7,183.2,149.4,183.2,149.4z"/>
		<path class="st12" d="M200.7,68.3l-0.9,4.6l-4.6,7.8l-5.7-2.4c0,0-7.7-8.1-2.9-9.3c0.6-0.1,1.1-0.4,1.6-0.7
			c0.8-0.7,1.3-1.7,1.3-2.8c0-1.1-0.3-2.3-0.8-3.3l10-3.1c-0.4,1.3-0.7,2.7-0.7,4c-0.1,2.7,0.9,4,1.8,4.7
			C199.9,68,200.3,68.2,200.7,68.3z"/>
		<path class="st11" d="M198.6,59c-0.4,1.3-0.7,2.7-0.7,4c-0.2,0.2-0.4,0.4-0.6,0.6c-2.1,2-5.1,2.7-7.9,1.8c0-1.1-0.3-2.3-0.8-3.3
			L198.6,59z"/>
		<path class="st12" d="M199.7,57.7c0,4.3-3.5,7.8-7.9,7.8c-4.3,0-7.8-3.5-7.8-7.9c0-4.3,3.5-7.8,7.9-7.8c2.1,0,4.1,0.8,5.5,2.3
			C198.9,53.6,199.7,55.6,199.7,57.7z"/>
		<path class="st11" d="M200.7,68.3l-0.9,4.6l-4.6,7.8l-5.7-2.4c0,0-7.7-8.1-2.9-9.3c0.6-0.1,1.1-0.4,1.6-0.7
			c-0.9,2.4,2.7,7.4,2.7,7.4c0.4,0.6,1.4,0.2,1.4,0.2c2.3-0.4,6.6-7.1,7.3-8.2C199.9,68,200.3,68.2,200.7,68.3z"/>
		<path class="st11" d="M205.1,113.2c-1.4,0.3-9,2-11.8,1.6c-3.2-0.5-9.3-0.8-9.3-0.8s-3.9,0.2-5.1-0.3c0-0.1,0-0.2,0-0.2l2.2-2.7
			c0,0,21.6-1.6,23.2,0C204.8,111.5,205.1,112.3,205.1,113.2z"/>
		<path class="st2" d="M190.9,75.9c0,0-4.1-5.6-2.5-7.8l-6.9,2.8c0,0-4.1-0.5-5.6,5.7c-0.2,1-0.3,2.1-0.3,3.1c0,1.6-0.3,3.3-1.1,4.7
			c-1.7,3.4-1.3,11.2,2.2,12s4.7,0.4,4.7,0.4s-0.5,14.1-2.5,15.8s5.1,1.2,5.1,1.2s6.2,0.3,9.3,0.8s12-1.6,12-1.6s-1.3-5.9-1.8-9.7
			S202,91.3,202,91.3l7.9-10.7c0,0,1.4-6.4-3.5-9.3c-2.1-1.3-4.4-2.5-6.7-3.6c0,0-4.9,7.9-7.4,8.3C192.3,76.1,191.3,76.5,190.9,75.9
			z"/>
		<path class="st11" d="M181.9,78.1c-0.1,1.2,0.1,2.4,0.4,3.6c0.5,1,2.2,6.6,2.2,6.6h-3.9c0,0,2.1-2.2,1.9-3.3
			S181.9,78.1,181.9,78.1z"/>
		<path class="st12" d="M193.3,97.4c0,0-8.5-2.1-9.3-3.9s-3-5.7-3-5.7l0.9-1.2l4.1,3.3c0,0,4.9,3.9,7.3,4.3S193.3,97.4,193.3,97.4z"
			/>
		<path class="st13" d="M193.3,97.4c0,0-8.5-2.1-9.3-3.9s-3-5.7-3-5.7l0.9-1.2l4.1,3.3c0,0,4.9,3.9,7.3,4.3S193.3,97.4,193.3,97.4z"
			/>
		<path class="st12" d="M200.7,87.3V92h-0.7c-3.7,0-7.3,0.9-10.5,2.7l-1.4,0.8l-0.4,0.2l-2.4-5.4l2.2-2h0.1c1.3,0.2,2.6,0.1,3.9-0.1
			c1-0.3,2.1-1.4,4.9-0.6c1.4,0.4,2.6,1.9,3.9,1.4L200.7,87.3z"/>
		<path class="st11" d="M208.1,78.9l1.5,1.7v4.2c0,0-1.3,13.3-5.5,14.7s-11.6-0.9-11.6-0.9s-1.9-5.1-1-5.4s7.9-2.2,7.9-2.2
			s-0.1-7.8,1.4-10.1c0,0-1-7.3,2.5-7.4S208.1,78.9,208.1,78.9z"/>
		<path class="st2" d="M208.4,78.9l1.5,1.7v4.2c0,0-1.3,13.3-5.5,14.7s-11.6-0.9-11.6-0.9s-1.9-5.1-1-5.4s7.9-2.2,7.9-2.2
			s-0.1-7.8,1.4-10.1c0,0-1-7.3,2.5-7.4S208.4,78.9,208.4,78.9z"/>
		<path class="st11" d="M197.6,61.1c0.1-0.5,0-1-0.2-1.5c-0.2-0.5-0.7-0.8-1.2-0.7c-0.7,0.2-0.9,1-1.6,1.2c-0.6,0.1-1.2-0.2-1.4-0.7
			c-0.2-0.5-0.3-1.1-0.3-1.7v-1.9c0.1-0.7-0.1-1.4-0.5-2c-0.7-0.7-1.7-1-2.6-1c-0.6,0-1.1,0.2-1.5,0.6c-0.4,0.4-1,0.6-1.6,0.6
			c-0.5-0.1-1-0.5-1.1-1v0c2.6-3.5,7.6-4.1,11-1.5c3.5,2.6,4.1,7.6,1.5,11c-0.3,0.3-0.5,0.7-0.8,0.9
			C197.4,62.7,197.5,61.9,197.6,61.1z"/>
		<path class="st14" d="M186.7,53.7c-0.5-0.1-1-0.5-1.1-1c-0.1-0.2,0-0.5-0.1-0.8c-0.2-0.6-0.8-0.9-1.3-1.4c-0.8-1-0.9-2.4-0.2-3.6
			c0.4-1,1.4-1.5,2.5-1.5c0.6,0.1,1.2,0.6,1.8,0.6c0.6,0,1.2-0.2,1.7-0.6c1.3-0.6,2.8-0.7,4.3-0.4c0.4,0.1,0.8,0.3,1.2,0.6
			c0.2,0.3,0.4,0.6,0.6,0.9c0.7,0.9,2,1.1,3.2,1.3s2.4,0.7,2.8,1.8c0.1,0.8,0.1,1.5-0.1,2.3c0,0.2,0,0.3,0,0.5
			c0.2,0.3,0.6,0.2,1,0.2c0.7,0.1,0.8,1,0.8,1.6c0,0.8,0,1.5,0.1,2.3c0.1,0.7-0.2,1.4-0.7,1.9l-2.5,3.1c-1.1,1.4-2.3,2.9-2.1,4.7
			c-0.6,0.2-1.2-0.2-1.3-0.8c0,0,0,0,0,0c-0.1-0.6-0.1-1.2,0.1-1.7c0.2-1,0.3-2,0.4-3c0.1-0.5,0-1-0.2-1.5c-0.2-0.5-0.7-0.8-1.2-0.7
			c-0.7,0.2-0.9,1-1.6,1.2c-0.6,0.1-1.2-0.2-1.4-0.7c-0.2-0.5-0.3-1.1-0.3-1.7v-1.9c0.1-0.7-0.1-1.4-0.5-2c-0.7-0.7-1.7-1-2.6-1
			c-0.6,0-1.1,0.2-1.5,0.6C187.9,53.6,187.3,53.8,186.7,53.7z"/>
		<path class="st11" d="M188.5,78l2.4,9.9C190.9,87.9,192.8,87.9,188.5,78z"/>
		<path class="st11" d="M196.7,76.3c0,0-3.2,5.2-1.9,10.5l0.6,0C195.4,86.9,194.3,84.4,196.7,76.3z"/>
		<path class="st11" d="M198.7,105.6c0,0,3.9-1.3,4.2,1.7C202.9,107.3,202.2,105.3,198.7,105.6z"/>
		<path class="st11" d="M187.5,88.5c0,0-0.8,5.4,0.6,7.6c-2.2,0.8-4.5,1.1-6.8,0.9l-0.5-8.5H187.5z"/>
		<path class="st11" d="M188,95.5l-0.4,0.2l-2.4-5.4l2.2-2h0.1C187.6,88.5,187,93.2,188,95.5z"/>
		<path class="st2" d="M187.5,88.3c0,0-0.8,5.4,0.6,7.6c-2.2,0.8-4.5,1.1-6.8,0.9l-2.7-8.5H187.5z"/>
		<path class="st10" d="M180.8,178.5c-0.1,0.8-0.7,1.4-1.5,1.5c-2.1,0.3-7.1,1.1-8.4,1.7c-1.6,0.8-8,0.2-8.3-0.5
			c-0.1-0.3,0-0.6,0.1-0.9c0.2-0.5,0.6-0.9,1-1.1c0.1-0.1,0.3-0.2,0.5-0.2c1.2-0.4,3.5-1.3,4.1-2.2c1.3-1.2,2.6-2.4,3.7-3.8
			c0.3-0.5,0.9-0.9,1.5-0.9c0.7,0,1.4,0.3,1.7,1.8c0,0,3.7,2.1,4.7,0.3c0,0,0.2,2.8,0.8,3.6l0,0
			C180.8,177.9,180.9,178.2,180.8,178.5L180.8,178.5z"/>
		<path class="st11" d="M180.8,178.4c-0.1,0.8-0.7,1.4-1.5,1.5c-2.1,0.3-7.1,1.1-8.4,1.7c-1.6,0.8-8,0.2-8.3-0.5
			c-0.1-0.3,0-0.6,0.1-0.9c0.2-0.5,0.6-0.9,1-1.1c1,0.7,3.4,1.4,8.5,0.6c2.9-0.3,5.7-1,8.5-2l0,0
			C180.8,177.9,180.9,178.2,180.8,178.4z"/>
		<g transform="translate(183.549 34.726)" class="st1">
			<path d="M18.4,17.5L18.4,17.5c0.2-0.6,0.2-1.2,0.2-1.8c0,0.5-0.1,0.9-0.2,1.4C18.3,17.2,18.3,17.3,18.4,17.5z"/>
			<path d="M13.8,24.7C14,25,14,25.3,14,25.6c0-0.4,0-0.8-0.2-1.2c-0.2-0.5-0.7-0.8-1.2-0.7c-0.7,0.2-0.9,1-1.6,1.2
				c-0.6,0.1-1.2-0.2-1.4-0.7c-0.2-0.5-0.3-1.1-0.3-1.7v-1.9c0.1-0.7-0.1-1.4-0.5-2c-0.7-0.7-1.7-1-2.6-1c-0.6,0-1.1,0.2-1.5,0.6
				c-0.4,0.4-1,0.6-1.6,0.6c-0.5-0.1-1-0.5-1.1-1C2,17.5,2,17.2,1.9,17c-0.2-0.6-0.8-0.9-1.3-1.4C0.3,15.2,0,14.6,0,14
				c-0.1,0.7,0.2,1.4,0.7,2c0.4,0.5,1.1,0.8,1.3,1.4C2,17.6,2,17.9,2,18.1c0.2,0.5,0.6,0.9,1.1,1c0.6,0.1,1.2-0.1,1.6-0.6
				c0.4-0.4,0.9-0.6,1.5-0.6c1-0.1,1.9,0.3,2.6,1c0.4,0.6,0.5,1.3,0.5,2v1.9c0,0.6,0,1.1,0.3,1.7c0.2,0.5,0.8,0.8,1.4,0.7
				c0.6-0.2,0.9-1.1,1.6-1.2C13.1,23.9,13.6,24.2,13.8,24.7z"/>
			<path d="M20.2,22.6c-0.1,0.4-0.4,0.8-0.7,1.1c-0.8,1-1.7,2-2.5,3.1c-1.1,1.3-2.2,2.8-2.1,4.4c0.1-1.5,1.1-2.9,2.1-4.1l2.5-3.1
				c0.3-0.3,0.5-0.7,0.7-1.1c0.1-0.3,0.1-0.6,0.1-0.8C20.3,22.2,20.2,22.4,20.2,22.6z"/>
			<path d="M13.5,30.6c0-0.1-0.1-0.3-0.1-0.4c0,0.3,0,0.5,0.1,0.8c0.1,0.6,0.7,0.9,1.3,0.8c0,0,0,0,0,0c0-0.1,0-0.2,0-0.3
				C14.3,31.5,13.7,31.2,13.5,30.6C13.5,30.6,13.5,30.6,13.5,30.6z"/>
		</g>
		<path class="st11" d="M171.4,173.6c0,0,0.8,1.4,3.7,0.2"/>
		<path class="st11" d="M196.1,174c0,0,2.5,3,5.7,1"/>
		<path class="st11" d="M203.5,138.8c0,0-1.8,1.1-1.8,1.8s0.9-0.5,0.9-0.5L203.5,138.8z"/>
		<path class="st11" d="M204.2,147.4c-0.6,0.5-1.4,0.8-2.2,0.9c-1.3,0.1-1.2,1.8-0.4,1.3C202.6,148.9,203.4,148.2,204.2,147.4z"/>
		<path class="st11" d="M204.5,148.5c0,0-0.9,4.2-1.6,3.4"/>
		<path class="st2" d="M28.6,168c0,0,1.1,1.5-0.5,3.8s-3.1,4.2-2.5,5.6c0,0,2.5-4.2,4.6-4.3S30.9,170.6,28.6,168z"/>
		<path class="st11" d="M28.6,168c0.1,0.1,0.2,0.3,0.2,0.5c2,2.4,3.1,4.6,1.1,4.6c-1.8,0-4,3.3-4.5,4.1c0,0.1,0,0.1,0.1,0.2
			c0,0,2.5-4.2,4.6-4.3S30.9,170.6,28.6,168z"/>
		<path class="st15" d="M30.7,170c0,0.5-0.1,1-0.1,1s-0.1-0.4-0.1-1s0.1-0.3,0.1-0.3S30.7,169.4,30.7,170z"/>
		<path class="st15" d="M31.5,170.6c-0.5,0.3-0.9,0.4-0.9,0.3s0.3-0.3,0.8-0.6s0.3-0.1,0.3,0S31.9,170.3,31.5,170.6z"/>
		<path class="st2" d="M22.5,168c0,0-1.1,1.5,0.5,3.8s3.1,4.2,2.5,5.6c0,0-2.5-4.2-4.6-4.3S20.3,170.6,22.5,168z"/>
		<path class="st11" d="M22.5,168c-0.1,0.1-0.2,0.3-0.2,0.5c-2,2.4-3.1,4.6-1.1,4.6c1.8,0,4,3.3,4.5,4.1c0,0.1,0,0.1-0.1,0.2
			c0,0-2.5-4.2-4.6-4.3S20.3,170.6,22.5,168z"/>
		<path class="st15" d="M20.4,170c0,0.5,0.1,1,0.1,1s0.1-0.4,0.1-1s-0.1-0.3-0.1-0.3S20.4,169.4,20.4,170z"/>
		<path class="st15" d="M19.7,170.6c0.5,0.3,0.9,0.4,0.9,0.3s-0.3-0.3-0.8-0.6s-0.3-0.1-0.3,0S19.2,170.3,19.7,170.6z"/>
		<path class="st16" d="M20.8,177.2c0,0,3.2-0.1,4.2-0.8s4.9-1.5,5.2-0.4s4.8,5.5,1.2,5.5s-8.4-0.6-9.4-1.2S20.8,177.2,20.8,177.2z"
			/>
		<path class="st17" d="M31.4,181.2c-3.6,0-8.4-0.6-9.4-1.2c-0.7-0.4-1-2.1-1.1-2.8h-0.1c0,0,0.2,2.6,1.2,3.2s5.8,1.2,9.4,1.2
			c1,0,1.4-0.4,1.4-0.9C32.6,180.9,32.2,181.2,31.4,181.2z"/>
	</g>
</g>
</svg>
