<svg xmlns="http://www.w3.org/2000/svg" xmlns:xlink="http://www.w3.org/1999/xlink" width="212.151" height="182.515" viewBox="0 0 212.151 182.515"><defs><style>.a,.g{fill:#ec7e73;}.a{opacity:0.2;}.b{fill:none;stroke:#535461;stroke-miterlimit:10;stroke-width:2px;}.c{fill:#8ed16f;}.d{opacity:0.3;}.e{fill:#58595b;}.f{fill:url(#a);}.h{fill:#d6d6e3;}.i{fill:#fff;}.j{fill:#ffc107;}</style><linearGradient id="a" x1="0.5" y1="1" x2="0.5" gradientUnits="objectBoundingBox"><stop offset="0" stop-color="gray" stop-opacity="0.251"/><stop offset="0.54" stop-color="gray" stop-opacity="0.122"/><stop offset="1" stop-color="gray" stop-opacity="0.102"/></linearGradient></defs><g transform="translate(3237 -364.192)"><g transform="translate(-3237 364.192)"><path class="a" d="M178.626,258.927a9.276,9.276,0,0,0-5.952,6.7c-.778,3.816,1.016,7.663,1.276,11.581.838,12.838-14.362,21.9-12.194,34.506.861,5.014,4.341,8.7,7.77,11.75,5.493,4.866,11.588,9.165,18.338,10.378,10.245,1.844,20.948-3.576,30.906-.151,8.032,2.764,14.177,10.863,22.154,13.852,6.072,2.276,12.613,1.379,18.92.457,3.4-.5,6.964-1.068,9.709-3.52,5.1-4.565,5.423-13.578,8.839-20.038,5.276-9.962,16.845-11.918,26.546-9.982s19.12,6.7,28.948,6.314a11.421,11.421,0,0,0,6.084-1.665c2.228-1.5,3.733-4.156,5.064-6.779a126.454,126.454,0,0,0,13.238-54.505c.057-3.308-.04-6.759-1.335-9.678-1.637-3.693-4.909-5.9-8.165-7.389-7.821-3.576-16.461-4.161-24.124-8.194-7.392-3.89-13.378-10.713-19.815-16.559a97.985,97.985,0,0,0-43.472-23.262c-3.7-.858-7.534-1.471-11.208-.48-4.233,1.142-7.881,4.312-11.161,7.724-8.727,9.078-15.721,20.278-23.763,30.227a146.016,146.016,0,0,1-18.053,18.7c-2.976,2.577-6.14,5.637-9.456,7.543C184.682,258.2,181.836,257.764,178.626,258.927Z" transform="translate(-149.144 -166.462)"/><path class="b" d="M380.809,138.88s-9.872,13.111-2.81,28.393S365.69,207.11,365.69,207.11" transform="translate(-301.146 -127.094)"/><path class="c" d="M423.6,99.618c-.784,3.374-4.536,5.384-4.536,5.384s-2.478-3.461-1.694-6.835,2.81-5.785,4.536-5.384S424.387,96.244,423.6,99.618Z" transform="translate(-339.514 -92.739)"/><ellipse class="c" cx="1.969" cy="0.738" rx="1.969" ry="0.738" transform="translate(79.684 7.874) rotate(-76.9)"/><ellipse class="d" cx="1.969" cy="0.738" rx="1.969" ry="0.738" transform="translate(79.684 7.874) rotate(-76.9)"/><path class="c" d="M415.166,158.861c-3.259,1.175-6.986-.884-6.986-.884s1.558-3.962,4.82-5.134,6.386-.766,6.986.884S418.425,157.686,415.166,158.861Z" transform="translate(-332.782 -136.991)"/><ellipse class="c" cx="1.969" cy="0.738" rx="1.969" ry="0.738" transform="matrix(0.94, -0.34, 0.34, 0.94, 79.114, 18.55)"/><ellipse class="d" cx="1.969" cy="0.738" rx="1.969" ry="0.738" transform="matrix(0.94, -0.34, 0.34, 0.94, 79.114, 18.55)"/><path class="c" d="M412.2,205.631c-3.259,1.175-6.986-.884-6.986-.884s1.558-3.962,4.82-5.134,6.386-.766,6.986.884S415.455,204.459,412.2,205.631Z" transform="translate(-330.572 -171.815)"/><ellipse class="c" cx="1.969" cy="0.738" rx="1.969" ry="0.738" transform="translate(78.394 30.673) rotate(-19.8)"/><ellipse class="d" cx="1.969" cy="0.738" rx="1.969" ry="0.738" transform="translate(78.394 30.673) rotate(-19.8)"/><path class="c" d="M427.106,260.5c-3.259,1.175-6.986-.884-6.986-.884s1.558-3.962,4.82-5.134,6.386-.766,6.986.884S430.365,259.334,427.106,260.5Z" transform="translate(-341.674 -212.67)"/><ellipse class="c" cx="1.969" cy="0.738" rx="1.969" ry="0.738" transform="translate(82.202 44.694) rotate(-19.8)"/><ellipse class="d" cx="1.969" cy="0.738" rx="1.969" ry="0.738" transform="translate(82.202 44.694) rotate(-19.8)"/><path class="c" d="M417.406,310.681c-3.259,1.175-6.986-.884-6.986-.884s1.558-3.962,4.82-5.134,6.386-.766,6.986.884S420.668,309.509,417.406,310.681Z" transform="translate(-334.451 -250.032)"/><ellipse class="c" cx="1.969" cy="0.738" rx="1.969" ry="0.738" transform="matrix(0.94, -0.34, 0.34, 0.94, 79.732, 57.298)"/><ellipse class="d" cx="1.969" cy="0.738" rx="1.969" ry="0.738" transform="matrix(0.94, -0.34, 0.34, 0.94, 79.732, 57.298)"/><path class="c" d="M370.26,170.516c2.406,2.493,6.659,2.3,6.659,2.3s.35-4.243-2.056-6.736-5.387-3.52-6.659-2.3S367.854,168.023,370.26,170.516Z" transform="translate(-302.592 -145.252)"/><ellipse class="c" cx="0.738" cy="1.969" rx="0.738" ry="1.969" transform="matrix(0.719, -0.695, 0.695, 0.719, 68.161, 22.059)"/><ellipse class="d" cx="0.738" cy="1.969" rx="0.738" ry="1.969" transform="matrix(0.719, -0.695, 0.695, 0.719, 68.161, 22.059)"/><path class="c" d="M364.85,325.506c2.406,2.493,6.659,2.3,6.659,2.3s.35-4.243-2.056-6.736-5.387-3.52-6.659-2.3S362.443,323.013,364.85,325.506Z" transform="translate(-298.563 -260.654)"/><ellipse class="c" cx="0.738" cy="1.969" rx="0.738" ry="1.969" transform="matrix(0.719, -0.695, 0.695, 0.719, 66.776, 61.651)"/><ellipse class="d" cx="0.738" cy="1.969" rx="0.738" ry="1.969" transform="matrix(0.719, -0.695, 0.695, 0.719, 66.776, 61.651)"/><path class="c" d="M372.278,226.4c3.1,1.548,7.042-.061,7.042-.061s-1.086-4.115-4.184-5.663-6.253-1.533-7.042.061S369.177,224.851,372.278,226.4Z" transform="translate(-302.802 -187.142)"/><ellipse class="c" cx="0.738" cy="1.969" rx="0.738" ry="1.969" transform="translate(68.864 36.062) rotate(-63.48)"/><ellipse class="d" cx="0.738" cy="1.969" rx="0.738" ry="1.969" transform="translate(68.864 36.062) rotate(-63.48)"/><path class="c" d="M377.37,280.969c3.1,1.548,7.042-.061,7.042-.061s-1.086-4.115-4.184-5.663-6.253-1.533-7.042.061S374.282,279.436,377.37,280.969Z" transform="translate(-306.594 -227.773)"/><ellipse class="c" cx="0.738" cy="1.969" rx="0.738" ry="1.969" transform="translate(70.165 50.003) rotate(-63.48)"/><ellipse class="d" cx="0.738" cy="1.969" rx="0.738" ry="1.969" transform="translate(70.165 50.003) rotate(-63.48)"/><path class="c" d="M183.46,249.21A43.055,43.055,0,0,1,191.311,294c-10.179,26.756,17.448,71.249,17.448,71.249s-.3-.043-.845-.14c-37.037-6.536-55.428-48.891-34.84-80.355C180.719,273.052,187.015,259.33,183.46,249.21Z" transform="translate(-151.345 -209.243)"/><path class="c" d="M113,534.063s20.575-3.277,22.449,15.162,39.563,21,39.563,21-.255.169-.708.47c-31.119,20.434-60.866,13.011-56.383-14.112C119.593,546.492,119.455,536.364,113,534.063Z" transform="translate(-113 -421.17)"/><path class="e" d="M113,534.063s20.575-3.277,22.449,15.162,39.563,21,39.563,21-.255.169-.708.47c-31.119,20.434-60.866,13.011-56.383-14.112C119.593,546.492,119.455,536.364,113,534.063Z" transform="translate(-113 -421.17)"/><ellipse class="c" cx="5.658" cy="14.761" rx="5.658" ry="14.761" transform="translate(21.249 83.144)"/><ellipse class="d" cx="5.658" cy="14.761" rx="5.658" ry="14.761" transform="translate(21.249 83.144)"/><ellipse class="c" cx="3.814" cy="8.488" rx="3.814" ry="8.488" transform="translate(11.69 142.208) rotate(-45)"/><ellipse class="d" cx="3.814" cy="8.488" rx="3.814" ry="8.488" transform="translate(11.69 142.208) rotate(-45)"/><path class="f" d="M428.692,358.2H294.762a6.1,6.1,0,0,0-6.1,6.1v78.5a6.1,6.1,0,0,0,6.1,6.1h133.93a6.1,6.1,0,0,0,6.1-6.1V364.3a6.1,6.1,0,0,0-6.1-6.1Z" transform="translate(-243.792 -290.394)"/><rect class="g" width="142.694" height="88.569" rx="6" transform="translate(46.586 68.873)"/><rect class="d" width="142.694" height="16.237" transform="translate(46.586 84.373)"/><rect class="h" width="115.632" height="7.872" transform="translate(60.12 112.666)"/><circle class="d" cx="11.318" cy="11.318" r="11.318" transform="translate(60.185 128.904)"/></g><ellipse class="i" cx="23.816" cy="23.816" rx="23.816" ry="23.816" transform="translate(-3079.99 425.123)"/><path class="j" d="M583.872,441.442a31.831,31.831,0,1,1-31.831-31.832A31.831,31.831,0,0,1,583.872,441.442Zm-35.51,16.849,23.612-23.612a2.052,2.052,0,0,0,0-2.905l-2.905-2.884a2.047,2.047,0,0,0-2.9,0L546.91,448.148l-8.992-9.013a2.06,2.06,0,0,0-2.905,0l-2.905,2.922a2.06,2.06,0,0,0,0,2.905l13.35,13.346a2.052,2.052,0,0,0,2.905,0Z" transform="translate(-3608.721 4.172)"/></g></svg>