<svg xmlns="http://www.w3.org/2000/svg" width="241.374" height="137.077" viewBox="0 0 241.374 137.077"><defs><style>.a,.b{fill:#ec7e73;}.a{opacity:0.2;}.c,.d{fill:#fff;}.c{opacity:0.3;}.e{fill:#3f3d56;}</style></defs><g transform="translate(3279.58 -11.449)"><path class="a" d="M-3219.218,148.1s-66.821,8.609-59.852-51.243,36.9-15.988,51.243-61.492,107.405-17.218,103.716,11.888,94.7,15.578,85.269,53.7-78.3,48.783-113.965,47.144S-3219.218,148.1-3219.218,148.1Z" transform="translate(0 0)"/><rect class="b" width="182.517" height="91.569" transform="translate(-3252.183 38.938)"/><rect class="c" width="134.715" height="0.31" transform="translate(-3226.575 71.841)"/><rect class="c" width="134.715" height="0.31" transform="translate(-3226.42 79.601)"/><rect class="c" width="134.715" height="0.31" transform="translate(-3226.42 95.121)"/><rect class="c" width="134.715" height="0.31" transform="translate(-3226.42 101.95)"/><rect class="c" width="134.715" height="0.31" transform="translate(-3226.42 87.361)"/><path class="d" d="M209.77,200.14l-.428-.449,20.052-19.112,17.676,12.715,14.294-15.848,6.268,5.328,17.05-10.23,18.939,12.729,29.725-16.907.307.539L303.595,186l-18.93-12.724L267.57,183.534l-6.148-5.226-14.263,15.813-17.71-12.738Z" transform="translate(-3432.453 -97.965)"/><path class="e" d="M596.437,698.356c1.459,5.393,6.456,8.733,6.456,8.733s2.632-5.4,1.173-10.8-6.456-8.733-6.456-8.733S594.978,692.963,596.437,698.356Z" transform="translate(-3793.966 -668.16)"/><path class="b" d="M582.1,709.222c4,3.9,4.492,9.887,4.492,9.887s-6-.328-10-4.225S572.091,705,572.091,705,578.092,705.326,582.1,709.222Z" transform="translate(-3777.481 -680.185)"/><circle class="a" cx="10.399" cy="10.399" r="10.399" transform="translate(-3123.987 14.416)"/><circle class="d" cx="4.035" cy="4.035" r="4.035" transform="translate(-3103.345 67.961)"/></g></svg>