<svg xmlns="http://www.w3.org/2000/svg" width="338.596" height="283" viewBox="0 0 338.596 283"><defs><style>.a,.b,.c{fill:#ec7e73;}.a{font-size:236px;font-family:Roboto-Bold, Roboto;font-weight:700;opacity:0.35;}.b{opacity:0.2;}.d,.e{fill:none;stroke:#535461;stroke-miterlimit:10;}.e{stroke-width:2px;}.f{fill:#dbaca2;}.g{fill:#e8c2b8;}.h{opacity:0.1;}.i{fill:#ebecf0;}.j{fill:#f8f9fa;}.k{fill:#58595b;opacity:0.03;}.l{fill:#fff;}.m{fill:#dcdcdc;}</style></defs><g transform="translate(-1384 -3419)"><text class="a" transform="translate(1452 3643)"><tspan x="-67.7" y="0">4</tspan></text><g transform="translate(13618 3842)"><path class="b" d="M408.987,151.344c-8.739,6.493-9.492,19.246-7.99,30.032.5,3.61,1.136,7.457-.389,10.767-1.865,4.048-6.493,6.121-10.915,6.685a26.133,26.133,0,0,1-22.07-7.992c-4.782-5.144-7.32-12.083-12.246-17.089-8.248-8.377-21.291-9.606-32.993-8.555-8.28.742-17.491,2.132-24.176-2.811-4.7-3.479-6.979-9.454-7.529-15.278-.262-2.813-.211-5.763-1.48-8.282a13.448,13.448,0,0,0-3.2-3.851c-11.472-10.175-29.172-11.209-40.066-22-7.358-7.286-10.4-18.087-10.236-28.44s3.213-20.431,6.556-30.244c2.371-6.967,5.224-14.318,11.239-18.557,6.347-4.482,15.154-4.4,22.285-1.282s12.8,8.87,17.476,15.1c5.839,7.783,10.755,16.835,19.214,21.642,5.772,3.285,12.512,4.175,18.982,5.611,10.814,2.4,21.192,6.419,31.477,10.533,9.847,3.936,19.735,8.011,28.52,13.959,6.218,4.2,10.558,9.94,16.224,14.669,3.693,3.082,8.147,4.864,11.472,8.413,4.095,4.372,7.172,10.877,4.23,16.708C420.579,146.623,413.623,147.9,408.987,151.344Z" transform="translate(-12319.94 -391.224)"/><path class="c" d="M72.9,579.693s-10.484,16.378,23.884,16.66c0,0,.505-14.251-10.729-20.122a10.08,10.08,0,0,0-12.994,3.219Z" transform="translate(-12190.393 -819.264)"/><path class="d" d="M78.88,595.61s17.6,3.469,23.806,16.935" transform="translate(-12196.297 -835.456)"/><path class="e" d="M124.675,467.858s-11.3-14.606-10.27-29a28.053,28.053,0,0,0-4.274-17.176,47.06,47.06,0,0,0-5.311-6.768" transform="translate(-12216.75 -692.973)"/><path class="c" d="M79.134,362.205c.789,2.022-.584,9.316-.584,9.316s-5.949-4.439-6.738-6.461a3.932,3.932,0,1,1,7.322-2.855Z" transform="translate(-12190.472 -649.344)"/><path class="c" d="M128.018,395.778c-.436,2.128-5.554,7.5-5.554,7.5s-2.584-6.958-2.149-9.094a3.932,3.932,0,1,1,7.7,1.58Z" transform="translate(-12228.93 -674.081)"/><path class="c" d="M159.01,480.328c-1.451,1.616-8.58,3.674-8.58,3.674s1.282-7.311,2.73-8.927a3.932,3.932,0,1,1,5.85,5.254Z" transform="translate(-12252.714 -739.385)"/><path class="c" d="M172.058,557c-1.157,1.838-7.838,5.076-7.838,5.076s.027-7.421,1.184-9.259A3.931,3.931,0,1,1,172.059,557Z" transform="translate(-12263.587 -800.263)"/><path class="c" d="M86.024,437.1c2,.846,9.329-.334,9.329-.334s-4.268-6.074-6.269-6.92a3.937,3.937,0,1,0-3.06,7.254Z" transform="translate(-12200.031 -704.503)"/><path class="c" d="M94.5,523.18c2.161.211,8.8-3.111,8.8-3.111s-5.894-4.509-8.056-4.716a3.932,3.932,0,1,0-.744,7.825Z" transform="translate(-12205.729 -772.15)"/><path class="b" d="M215.109,532.6c-4.018-.089-8.335.112-11.529,1.692-5.922,2.923-5.125,8.851-8.986,12.965-3.261,3.473-9.494,5.277-15.539,6.427-9.847,1.876-20.175,2.578-29.954,4.594-5.765,1.189-11.488,2.917-15.439,5.873s-5.723,7.366-3.052,10.865c2.47,3.234,7.912,4.964,12.867,6.639s10.2,3.872,11.584,7.364c.768,1.944.2,4.039,1.093,5.958,1.768,3.786,8.39,5.573,14.339,6.539,4.752.772,9.583,1.341,14.452,1.692a54.194,54.194,0,0,0,11.685-.121c3.306-.482,6.366-1.48,9.536-2.248,20.143-4.9,43.31-.662,63.855-4.816a32.292,32.292,0,0,0,10.251-3.538,18.764,18.764,0,0,0,5-4.56A23.278,23.278,0,0,0,290.6,574.2c.085-2.851-.423-5.732.357-8.54.819-2.923,3-5.611,4.166-8.485,2.115-5.224.635-11-3.97-15.517a14.8,14.8,0,0,0-5.88-3.655,31.624,31.624,0,0,0-5.992-1.057,102.773,102.773,0,0,0-17.256-.893c-4.1.25-8.111.988-12.222,1.121-5.77.188-10.289-1.142-15.52-2.392A94.325,94.325,0,0,0,215.109,532.6Z" transform="translate(-12236.08 -785.762)"/><path class="f" d="M120.14,290.648v56.569L195.407,332.6l-1.438-43.386Z" transform="translate(-12213.731 -587.042)"/><path class="g" d="M254.7,346.843v18.7L175.12,388.791l-.812-.421L111.36,355.711v-77.3l77.9-2.517.48,42.906-3.117.96-1.2-40.131L116.872,282l-.478,58.128,59.684,26.128.047-.011Z" transform="translate(-12206.809 -576.539)"/><path class="h" d="M489.384,611.37v18.7L409.8,653.318l-.812-.421,1.817-22.122Z" transform="translate(-12441.49 -841.066)"/><path class="i" d="M243.042,504.627s-38.53,3.845-42.272,9.414-.032,12.4-.032,12.4L260.3,552.328l80.779-20.853s-2.157-14.623-8.868-16.3-60.171-13.183-60.171-13.183S250.471,500.672,243.042,504.627Z" transform="translate(-12291.09 -761.471)"/><path class="j" d="M206.83,513.876,267.6,534.85s64.813-19.652,73.994-17.8c0,0-45.338-16.228-63.449-15.522a294.765,294.765,0,0,0-29.544,2.931S208.509,508.485,206.83,513.876Z" transform="translate(-12297.186 -761.253)"/><path class="c" d="M383.392,816.823a3.368,3.368,0,0,1-1.1-1.658,1.477,1.477,0,0,1,.768-1.692,2.139,2.139,0,0,1,2.03.713,2.682,2.682,0,0,0,1.973.952,3.005,3.005,0,0,1-.928-2.813,1.175,1.175,0,0,1,.258-.571c.391-.423,1.1-.239,1.569.091,1.48,1.057,1.9,3.073,1.914,4.9a9.315,9.315,0,0,0,.027-2.018,2.074,2.074,0,0,1,.757-1.785,2.283,2.283,0,0,1,1.155-.271,2.383,2.383,0,0,1,1.874.533,1.86,1.86,0,0,1-.074,2.3,7.318,7.318,0,0,1-1.939,1.555,4.3,4.3,0,0,0-1.385,1.322,1.31,1.31,0,0,0-.1.237h-4.2A11.709,11.709,0,0,1,383.392,816.823Z" transform="translate(-12435.51 -1005.692)"/><path class="c" d="M843.529,735.153a2.08,2.08,0,0,1-.683-1.032.93.93,0,0,1,.478-1.057c.438-.167.907.135,1.269.444a1.688,1.688,0,0,0,1.227.592,1.868,1.868,0,0,1-.577-1.749A.73.73,0,0,1,845.4,732c.243-.26.685-.148.977.057a3.632,3.632,0,0,1,1.191,3.043,5.771,5.771,0,0,0,.017-1.254,1.28,1.28,0,0,1,.472-1.108,1.419,1.419,0,0,1,.719-.169,1.483,1.483,0,0,1,1.165.332,1.156,1.156,0,0,1-.047,1.43,4.553,4.553,0,0,1-1.206.967,2.674,2.674,0,0,0-.861.823.817.817,0,0,0-.063.146h-2.625A7.277,7.277,0,0,1,843.529,735.153Z" transform="translate(-12798.668 -942.877)"/><path class="k" d="M-11859.16,122.194c1.881-3.987,5.793-3.912,14.219-3.611s18.355-4.363,20.086-.828,3.309,4.363-.9,6.018-12.338,6.018-19.184,5.116S-11861.041,126.181-11859.16,122.194Z" transform="translate(-204.69 -374.874)"/><path class="l" d="M-11867.483,75.921s17.151-2.713,23.4-1.434,10.382,10.908,10.23,12.789-23.245,5.04-23.245,5.04Z" transform="translate(-198.322 -341.535)"/><path class="m" d="M-11855.9,98.339c-5.567,4.514-11.585-15.793-11.585-15.793S-11850.332,93.825-11855.9,98.339Z" transform="translate(-198.322 -348.161)"/><path class="c" d="M-11820.924,176.714V160.695s41.134-13.858,73.935-17.036c.509-.127,11.951,3.687,13.858,4.45-.128.127-52.508,9.027-72.722,18.435.381,0,0,16.528,0,16.528Z" transform="translate(-235.034 -396.345)"/><path class="l" d="M6.384,4.945.818,2.688S-1.665.958,2.021.13,12.4,2.688,12.4,2.688Z" transform="matrix(0.995, 0.105, -0.105, 0.995, -12025.333, -244.042)"/><g transform="matrix(0.995, -0.105, 0.105, 0.995, -12014.919, -246.056)"><path class="l" d="M.771.195A3.508,3.508,0,0,1,2.09.3l-.268-.2L2.609,0l1.88,1.415L3.7,1.51,3.427,1.3c-.021.145-.23.295-.721.354A3.634,3.634,0,0,1,.324,1.091C-.263.649-.015.29.771.195Zm.618.29C.971.535.766.726,1.122.994A2.105,2.105,0,0,0,2.5,1.318c.429-.052.623-.247.266-.515A2.081,2.081,0,0,0,1.389.485Z" transform="translate(0 2.251)"/><path class="l" d="M1.771.023A3.583,3.583,0,0,1,4.146.578c.587.442.358.811-.434.906a3.639,3.639,0,0,1-1.319-.1l1.164.876-.781.094L0,.263.781.169l.272.2C1.077.231,1.291.081,1.771.023Zm.211.339c-.418.051-.617.246-.261.515A2.086,2.086,0,0,0,3.089,1.2c.424-.051.616-.252.26-.52A2.065,2.065,0,0,0,1.982.362Z" transform="translate(3.374 1.895)"/><path class="l" d="M.771.195a3.508,3.508,0,0,1,1.32.1l-.268-.2L2.609,0l1.88,1.415L3.7,1.51,3.427,1.3c-.021.145-.23.295-.721.354A3.634,3.634,0,0,1,.324,1.091C-.263.649-.015.29.771.195Zm.618.29C.971.535.765.726,1.122.995A2.108,2.108,0,0,0,2.5,1.318c.429-.052.623-.247.266-.516A2.08,2.08,0,0,0,1.389.485Z" transform="translate(7.567 1.338)"/><path class="l" d="M.855.739.487.783.1.489.465.445,0,.095.786,0l.465.35L1.943.267l.39.294L1.641.644l.909.685a.639.639,0,0,0,.509.1l.362-.044.4.3-.491.059a2.117,2.117,0,0,1-1.57-.32Z" transform="translate(10.6 0.786)"/><path class="l" d="M2.84,1.49A3.763,3.763,0,0,1,.319.946C-.275.5-.016.139.9.028A3.668,3.668,0,0,1,3.351.545a1.208,1.208,0,0,1,.161.141L1.253.958A1.885,1.885,0,0,0,2.43,1.2c.334-.04.417-.139.392-.246l.842-.1C3.843,1.129,3.6,1.4,2.84,1.49ZM.94.717,2.407.54A1.793,1.793,0,0,0,1.267.325C.893.37.744.516.94.717Z" transform="translate(13.527 0.77)"/><path class="l" d="M0,.094.781,0,3.292,1.891l-.781.094Z" transform="translate(15.918 0)"/></g></g></g></svg>