<svg xmlns="http://www.w3.org/2000/svg" width="250.699" height="177.611" viewBox="0 0 250.699 177.611"><defs><style>.a,.d{fill:#ec7e73;}.a{opacity:0.2;}.b{fill:#3f3d56;}.c{fill:#ff6584;}.e{fill:#ccc;}.f{fill:#f2f2f2;}.g{opacity:0.1;}</style></defs><g transform="translate(3211.426 -27)"><path class="a" d="M-2901.7,221.479c-.831,10.8,4.986,65.657-46.542,63.579s-53.606-38.231-98.07-34.491-53.606-70.228-19.531-77.708,67.735-3.324,91.006-23.686,89.759-24.517,84.772,7.064-21.609,34.906-19.115,49.866S-2900.867,210.674-2901.7,221.479Z" transform="translate(-105.28 -80.504)"/><g transform="translate(-3211.426 27)"><path class="b" d="M167.419,533.838l-.472-.106a107.494,107.494,0,0,1,209.628-.286l-.472.107A106.39,106.39,0,0,0,271.794,450.43C222.183,450.43,178.287,485.508,167.419,533.838Z" transform="translate(-148.526 -366.08)"/><circle class="c" cx="13.146" cy="13.146" r="13.146" transform="translate(73.453 3.652)"/><path class="b" d="M214.243,774.715a4.872,4.872,0,0,0,1.814,2.454,4.194,4.194,0,0,0-1.485-5.489A4.871,4.871,0,0,0,214.243,774.715Z" transform="translate(-184.281 -609.944)"/><path class="d" d="M208.315,779.153a4.871,4.871,0,0,1,1.262,2.779,4.194,4.194,0,0,1-4.074-3.966A4.872,4.872,0,0,1,208.315,779.153Z" transform="translate(-177.751 -614.707)"/><path class="b" d="M343.243,774.715a4.872,4.872,0,0,0,1.814,2.454,4.194,4.194,0,0,0-1.485-5.489A4.871,4.871,0,0,0,343.243,774.715Z" transform="translate(-282.059 -609.944)"/><path class="d" d="M337.315,779.153a4.872,4.872,0,0,1,1.262,2.779,4.194,4.194,0,0,1-4.074-3.966A4.872,4.872,0,0,1,337.315,779.153Z" transform="translate(-275.528 -614.707)"/><path class="d" d="M322.229,92.2l-4.943-3.955,27.683-24.716h70.195V85.28l-45.479,30.648Z" transform="translate(-254.854 -48.153)"/><path class="e" d="M592.2,77.394V64.023h-9.32V67.3L579.4,63.529,556.659,88.245l-8.9,5.932-13.8,100.8,20.807,20.807h48.355V89.234Z" transform="translate(-419.088 -48.153)"/><rect class="f" width="75.138" height="127.537" transform="translate(62.432 40.093)"/><rect class="e" width="13.841" height="31.143" transform="translate(91.598 136.487)"/><path class="b" d="M357.939,585.2v-4.943h-5.932V585.2h5.932Z" transform="translate(-281.171 -439.811)"/><path class="b" d="M357.445,617.016h-5.438v4.943h5.932v-4.943Z" transform="translate(-281.171 -467.676)"/><rect class="b" width="5.932" height="4.943" transform="translate(80.723 140.442)"/><rect class="b" width="5.932" height="4.943" transform="translate(80.723 149.34)"/><path class="b" d="M525.415,585.2v-4.943h-5.932V585.2h5.932Z" transform="translate(-408.112 -439.811)"/><path class="b" d="M524.921,617.016h-5.438v4.943h5.932v-4.943Z" transform="translate(-408.112 -467.676)"/><rect class="b" width="5.932" height="4.943" transform="translate(121.258 140.442)"/><rect class="b" width="5.932" height="4.943" transform="translate(121.258 149.34)"/><path class="b" d="M696.975,176.719v-4.943h-5.932v4.943h5.932Z" transform="translate(-538.148 -130.2)"/><path class="b" d="M696.481,208.539h-5.438v4.943h5.932v-4.943Z" transform="translate(-538.148 -158.065)"/><rect class="b" width="5.932" height="4.943" transform="translate(162.781 41.576)"/><rect class="b" width="5.932" height="4.943" transform="translate(162.781 50.474)"/><path class="b" d="M696.975,291.092v-4.943h-5.932v4.943h5.932Z" transform="translate(-538.148 -216.891)"/><path class="b" d="M696.481,322.912h-5.438v4.943h5.932v-4.943Z" transform="translate(-538.148 -244.756)"/><rect class="b" width="5.932" height="4.943" transform="translate(162.781 69.258)"/><rect class="b" width="5.932" height="4.943" transform="translate(162.781 78.156)"/><path class="b" d="M696.975,405.466v-4.943h-5.932v4.943h5.932Z" transform="translate(-538.148 -303.582)"/><path class="b" d="M696.481,437.286h-5.438v4.943h5.932v-4.943Z" transform="translate(-538.148 -331.447)"/><rect class="b" width="5.932" height="4.943" transform="translate(162.781 96.941)"/><rect class="b" width="5.932" height="4.943" transform="translate(162.781 105.839)"/><path class="b" d="M696.975,519.84V514.9h-5.932v4.943h5.932Z" transform="translate(-538.148 -390.273)"/><path class="b" d="M696.481,551.66h-5.438V556.6h5.932V551.66Z" transform="translate(-538.148 -418.138)"/><rect class="b" width="5.932" height="4.943" transform="translate(162.781 124.624)"/><rect class="b" width="5.932" height="4.943" transform="translate(162.781 133.522)"/><rect class="d" width="57.342" height="11.864" transform="translate(70.836 46.519)"/><rect class="d" width="57.342" height="11.864" transform="translate(70.836 70.247)"/><rect class="d" width="57.342" height="11.864" transform="translate(70.836 93.975)"/><rect class="d" width="57.342" height="11.864" transform="translate(70.836 117.703)"/><path class="b" d="M0,0H229.085V.484L.278.6Z" transform="translate(8.693 167.133)"/><rect class="b" width="1.422" height="56.165" transform="translate(31.722 111.243)"/><path class="d" d="M194.994,481.469c.091,19.64-13.727,35.624-13.727,35.624s-13.964-15.857-14.055-35.5,13.727-35.625,13.727-35.625S194.9,461.83,194.994,481.469Z" transform="translate(-148.727 -363.069)"/><path class="g" d="M194.994,481.469c.091,19.64-13.727,35.624-13.727,35.624s-13.964-15.857-14.055-35.5,13.727-35.625,13.727-35.625S194.9,461.83,194.994,481.469Z" transform="translate(-148.727 -363.069)"/><rect class="b" width="1.422" height="56.165" transform="translate(13.238 111.243)"/><path class="d" d="M118.622,481.469c.091,19.64-13.727,35.624-13.727,35.624S90.931,501.237,90.84,481.6s13.727-35.625,13.727-35.625S118.531,461.83,118.622,481.469Z" transform="translate(-90.84 -363.069)"/><path class="f" d="M913.428,237.445c-11.2.052-20.317.217-20.317.217s10.837-14.354,20.277-9.036a128.9,128.9,0,0,0,20.284,8.849S924.628,237.393,913.428,237.445Z" transform="translate(-698.933 -197.431)"/><path class="f" d="M142.428,351.445c-11.2.052-20.317.217-20.317.217s10.837-14.354,20.277-9.036a128.9,128.9,0,0,0,20.284,8.849S153.629,351.393,142.428,351.445Z" transform="translate(-114.542 -283.839)"/><path class="f" d="M310.428,113.445c-11.2.052-20.318.217-20.318.217s10.837-14.354,20.277-9.036a128.9,128.9,0,0,0,20.284,8.849S321.629,113.393,310.428,113.445Z" transform="translate(-241.88 -103.444)"/><rect class="b" width="1.422" height="56.165" transform="translate(236.152 111.243)"/><path class="d" d="M1039.627,481.469c.09,19.64-13.727,35.624-13.727,35.624s-13.964-15.857-14.055-35.5,13.727-35.625,13.727-35.625S1039.535,461.83,1039.627,481.469Z" transform="translate(-788.929 -363.069)"/></g></g></svg>