<svg xmlns="http://www.w3.org/2000/svg" width="191.786" height="166.418" viewBox="0 0 191.786 166.418"><defs><style>.a,.c{fill:#ec7e73;}.a,.d{opacity:0.2;}.b{fill:#ffb8b8;}.e{fill:#2f2e41;}.f{opacity:0.1;}.g{fill:#3f3d56;}.h{fill:#fff;font-size:20px;font-family:Roboto-Bold, Roboto;font-weight:700;}</style></defs><g transform="translate(3076.205 10.278)"><path class="a" d="M-2881.627,154.915c-8.759,9.209-50.759,53.9-98.375,28.524s-24.481-60.417-48.064-79.508-6.513-49.187,21.337-55.252,49.637,11.23,70.524-6.963,68.952-26.727,76.139,0,25.38,60.867-1.8,86.022S-2872.867,145.706-2881.627,154.915Z" transform="translate(-37 -35)"/><path class="b" d="M826.66,604.414s21.454,1.109,16.457,7.863-18.128-3.962-18.128-3.962Z" transform="translate(-3760.5 -499.399)"/><path class="c" d="M629.357,313.448l4.367,1.092s2.547,7.642,4.367,14.556,5.458,27.657,5.458,27.657l28.212,19.772-3.365,7.527-37.584-14.812-8.37-32.865Z" transform="translate(-3602.733 -272.76)"/><path class="d" d="M435.68,291.607l-1.628,34.083,3.4,10.133-9.949-7.3Z" transform="translate(-3404.947 -237.354)"/><path class="e" d="M520.912,631.743s4.731,12.737,5.459,21.47,1.456,15.648,1.456,15.648h-22.2l-4.367-6.55v6.55H475.424s-7.278-23.653-4.367-26.565,30.568-15.284,30.568-15.284Z" transform="translate(-3484.28 -517.001)"/><circle class="b" cx="13.828" cy="13.828" r="13.828" transform="translate(-3005.035 -0.797)"/><path class="b" d="M521.482,214.688,520.39,230.7l13.828,18.559,6.914-17.467s-6.186-4-2.547-12.373Z" transform="translate(-3523.242 -195.834)"/><path class="c" d="M484.949,347.25c0,3.276-9.1,8.37-9.1,8.37v1.819l-3.639,1.819-8.005-16.011-2.182,17.465s-16.013,2.549-21.107,0-7.643-1.455-14.921-4,2.912-36.755,2.912-36.755l-7.278-52.766,15.9-7.95.838-.42,2.187-.4,3.352-.619,11.2,7.572.9,4.731.555,2.912,2.909-3.276,2.2-7.227,15.635,8.684-4.366,34.933S484.949,343.976,484.949,347.25Z" transform="translate(-3446.316 -229.415)"/><path class="b" d="M453.251,713.428s16.739,13.464,8.734,16.012-12.373-13.828-12.373-13.828Z" transform="translate(-3468.111 -584.312)"/><path class="c" d="M386.806,301.008l-3.639-.728s-5.459,2.911-5.822,8.734-5.095,46.579-5.095,46.579l15.284,41.121,12.373-4.731L387.9,353.41l9.1-33.479Z" transform="translate(-3407.852 -262.503)"/><circle class="e" cx="1.326" cy="1.326" r="1.326" transform="translate(-2990.933 46.957)"/><circle class="e" cx="1.326" cy="1.326" r="1.326" transform="translate(-2990.933 55.579)"/><circle class="e" cx="1.326" cy="1.326" r="1.326" transform="translate(-2983.416 112.397)"/><path class="e" d="M507.5,92.278l-2.556-1.023s5.345-5.884,12.781-5.373l-2.091-2.3s5.112-2.047,9.76,3.326c2.443,2.824,5.27,6.144,7.032,9.884h2.737l-1.143,2.516,4,2.516-4.1-.452a14.053,14.053,0,0,1,.111,4.173,5.4,5.4,0,0,1-1.977,3.532h0s-3.17-6.562-3.17-7.585v2.558s-2.556-2.3-2.556-3.838L524.932,102h-9.3l1.394-2.3-5.345.767,2.092-2.814L505.5,109.272S500.764,96.116,507.5,92.278Z" transform="translate(-3510.385 -93.413)"/><circle class="c" cx="22.108" cy="22.108" r="22.108" transform="translate(-2942.76 52.47)"/><circle class="f" cx="19.013" cy="19.013" r="19.013" transform="translate(-2939.664 55.565)"/><path class="d" d="M250.005,500.923l8.842,27.62L251.773,499.8Z" transform="translate(-3266.693 -399.522)"/><path class="g" d="M230.87,309.073h-5.612a.924.924,0,0,1-.923-.923v-8.068a.924.924,0,0,1,.923-.923h5.613a.924.924,0,0,1,.923.923v8.068A.924.924,0,0,1,230.87,309.073Zm-5.613-9.471a.481.481,0,0,0-.48.48v8.068a.481.481,0,0,0,.481.48h5.613a.481.481,0,0,0,.48-.48v-8.068a.481.481,0,0,0-.48-.48Z" transform="translate(-3292.639 -261.631)"/><path class="g" d="M278.2,278.176h-5.069a1.2,1.2,0,0,1-1.195-1.195V260.688a1.2,1.2,0,0,1,1.195-1.195H278.2a1.2,1.2,0,0,1,1.195,1.195v16.294A1.2,1.2,0,0,1,278.2,278.176Zm-5.068-18.241a.753.753,0,0,0-.753.753v16.294a.753.753,0,0,0,.752.753H278.2a.753.753,0,0,0,.753-.753V260.688a.753.753,0,0,0-.753-.753Z" transform="translate(-3329.715 -230.734)"/><path class="g" d="M325.6,249.751h-4.677a1.392,1.392,0,0,1-1.39-1.39V224.39a1.392,1.392,0,0,1,1.39-1.39H325.6a1.392,1.392,0,0,1,1.39,1.39v23.97A1.392,1.392,0,0,1,325.6,249.751Zm-4.677-26.309a.949.949,0,0,0-.948.948v23.97a.949.949,0,0,0,.948.948H325.6a.949.949,0,0,0,.948-.948V224.39a.949.949,0,0,0-.948-.948Z" transform="translate(-3366.792 -202.308)"/><rect class="c" width="4.209" height="6.84" transform="translate(-3066.68 39.066)"/><rect class="c" width="4.209" height="15.522" transform="translate(-3056.156 30.384)"/><rect class="c" width="4.209" height="23.59" transform="translate(-3045.633 22.316)"/><path class="g" d="M826.426,122.288h-29.4a.221.221,0,0,1-.221-.221V92.221a.221.221,0,0,1,.442,0v29.625h29.183a.221.221,0,1,1,0,.442Z" transform="translate(-3738.543 -100.27)"/><path class="g" d="M242.953,234.152H208.022a.221.221,0,0,1-.221-.221v-34.71a.221.221,0,1,1,.442,0V233.71h34.71a.221.221,0,0,1,0,.442Z" transform="translate(-3279.76 -183.614)"/><path class="g" d="M820.674,181.541h-5.613a.924.924,0,0,1-.923-.923V172.55a.924.924,0,0,1,.923-.923h5.613a.924.924,0,0,1,.923.923v8.068a.924.924,0,0,1-.922.923Zm-5.613-9.471a.481.481,0,0,0-.481.48v8.068a.481.481,0,0,0,.481.48h5.613a.481.481,0,0,0,.48-.48V172.55a.481.481,0,0,0-.48-.48Z" transform="translate(-3752.048 -162.294)"/><path class="g" d="M873.451,156.905h-5.166a1.147,1.147,0,0,1-1.146-1.146V141.146A1.147,1.147,0,0,1,868.285,140h5.166a1.147,1.147,0,0,1,1.146,1.146v14.613A1.147,1.147,0,0,1,873.451,156.905Zm-5.166-16.463a.7.7,0,0,0-.7.7v14.613a.7.7,0,0,0,.7.7h5.166a.7.7,0,0,0,.7-.7V141.146a.7.7,0,0,0-.7-.7Z" transform="translate(-3793.331 -137.658)"/><rect class="c" width="4.209" height="6.84" transform="translate(-2936.386 10.947)"/><rect class="c" width="4.209" height="13.235" transform="translate(-2924.567 4.177)"/><circle class="c" cx="1.99" cy="1.99" r="1.99" transform="translate(-2936.215 3.005)"/><circle class="c" cx="1.99" cy="1.99" r="1.99" transform="translate(-2924.498 -4.512)"/><text class="h" transform="translate(-2932.158 81.037)"><tspan x="0" y="0">Rp</tspan></text></g></svg>