<?xml version="1.0" encoding="utf-8"?>
<!-- Generator: Adobe Illustrator 22.1.0, SVG Export Plug-In . SVG Version: 6.00 Build 0)  -->
<svg version="1.1" id="Layer_1" xmlns="http://www.w3.org/2000/svg" xmlns:xlink="http://www.w3.org/1999/xlink" x="0px" y="0px"
	 viewBox="0 0 245.7 220.6" style="enable-background:new 0 0 245.7 220.6;" xml:space="preserve">
<style type="text/css">
	.st0{opacity:0.1;fill:#EC7E73;enable-background:new    ;}
	.st1{fill:url(#SVGID_1_);}
	.st2{fill:#FFFFFF;}
	.st3{fill:url(#SVGID_2_);}
	.st4{fill:url(#SVGID_3_);}
	.st5{fill:#EC7E73;}
	.st6{fill:url(#SVGID_4_);}
	.st7{fill:url(#SVGID_5_);}
	.st8{fill:#69F0AE;}
	.st9{fill:#E0E0E0;}
	.st10{fill:url(#SVGID_6_);}
	.st11{fill:url(#SVGID_7_);}
	.st12{fill:#BE7C5E;}
	.st13{fill:#FDA57D;}
	.st14{fill:#333333;}
</style>
<g transform="translate(684.319 3145.681)">
	<path class="st0" d="M-624.7-3105.2c33.6,2.3,39.7,4.7,77.1-28.7s78.4,11.7,70.7,41.4c-7.7,29.6,40.8,42.2,38.2,68
		c-2.7,25.9-58.2,19.2-65.4,48.6c-7.2,29.3-104.3,64.6-117.4,25.6c-13.1-39-32.3-51.5-45.1-53.9s-33.3-39,1.6-63.2
		C-630-3091.8-658.3-3107.5-624.7-3105.2z"/>
	
		<linearGradient id="SVGID_1_" gradientUnits="userSpaceOnUse" x1="-660.7624" y1="-2936.6211" x2="-660.7624" y2="-2935.4019" gradientTransform="matrix(88.6498 -40.4374 -55.8721 -122.4868 -106013.9063 -389364.4063)">
		<stop  offset="0" style="stop-color:#808080;stop-opacity:0.251"/>
		<stop  offset="0.54" style="stop-color:#808080;stop-opacity:0.122"/>
		<stop  offset="1" style="stop-color:#808080;stop-opacity:0.102"/>
	</linearGradient>
	<polygon class="st1" points="-638.3,-3074.4 -530.2,-3123.7 -462.1,-2974.4 -570.2,-2925.1 	"/>
	
		<rect x="-608.4" y="-3105.2" transform="matrix(0.9098 -0.415 0.415 0.9098 1205.7493 -501.253)" class="st2" width="115.8" height="160.5"/>
	
		<linearGradient id="SVGID_2_" gradientUnits="userSpaceOnUse" x1="-660.797" y1="-2935.7295" x2="-660.797" y2="-2934.5103" gradientTransform="matrix(42.8587 -19.5499 -4.7357 -10.3819 13836.6709 -46490.4727)">
		<stop  offset="0" style="stop-color:#808080;stop-opacity:0.251"/>
		<stop  offset="0.54" style="stop-color:#808080;stop-opacity:0.122"/>
		<stop  offset="1" style="stop-color:#808080;stop-opacity:0.102"/>
	</linearGradient>
	<polygon class="st3" points="-611.5,-3090 -559.3,-3113.8 -553.5,-3101.2 -605.8,-3077.3 	"/>
	
		<linearGradient id="SVGID_3_" gradientUnits="userSpaceOnUse" x1="-661.1546" y1="-2935.752" x2="-661.1546" y2="-2934.5291" gradientTransform="matrix(13.4915 0 0 -13.516 8332.1309 -42783.7578)">
		<stop  offset="0" style="stop-color:#808080;stop-opacity:0.251"/>
		<stop  offset="0.54" style="stop-color:#808080;stop-opacity:0.122"/>
		<stop  offset="1" style="stop-color:#808080;stop-opacity:0.102"/>
	</linearGradient>
	<path class="st4" d="M-591-3114.3c-4.2,1.8-6.1,6.6-4.3,10.8c1.8,4.2,6.6,6.1,10.8,4.3c4.2-1.8,6.1-6.6,4.3-10.8
		c0-0.1-0.1-0.1-0.1-0.2C-582.1-3114.2-586.9-3116.1-591-3114.3z M-585.7-3102.5c-2.4,1.1-5.2,0.2-6.3-2.2c-1.1-2.4-0.2-5.2,2.2-6.3
		c2.4-1.1,5.2-0.2,6.3,2.2c0,0,0,0.1,0,0.1C-582.3-3106.4-583.3-3103.6-585.7-3102.5C-585.7-3102.5-585.7-3102.5-585.7-3102.5
		L-585.7-3102.5z"/>
	
		<rect x="-610.7" y="-3102.5" transform="matrix(0.9098 -0.415 0.415 0.9098 1232.265 -520.9946)" class="st5" width="56.2" height="13.3"/>
	<path class="st5" d="M-590.8-3113.7c-4,1.8-5.7,6.5-3.9,10.4c1.8,3.9,6.5,5.7,10.4,3.9c3.9-1.8,5.7-6.5,3.9-10.4c0,0,0,0,0,0
		C-582.2-3113.8-586.8-3115.5-590.8-3113.7z M-585.6-3102.4c-2.3,1-5,0-6-2.2c-1-2.3,0-5,2.2-6c2.3-1,5,0,6,2.2
		C-582.4-3106.2-583.4-3103.5-585.6-3102.4C-585.6-3102.4-585.6-3102.4-585.6-3102.4z"/>
	
		<linearGradient id="SVGID_4_" gradientUnits="userSpaceOnUse" x1="-661.2415" y1="-2935.7349" x2="-661.2415" y2="-2934.5168" gradientTransform="matrix(18.4975 -8.4376 -8.4376 -18.4975 -13145.8662 -62934.5938)">
		<stop  offset="0" style="stop-color:#808080;stop-opacity:0.251"/>
		<stop  offset="0.54" style="stop-color:#808080;stop-opacity:0.122"/>
		<stop  offset="1" style="stop-color:#808080;stop-opacity:0.102"/>
	</linearGradient>
	<polygon class="st6" points="-620.7,-3052.6 -598.2,-3062.9 -587.9,-3040.3 -610.4,-3030 	"/>
	
		<linearGradient id="SVGID_5_" gradientUnits="userSpaceOnUse" x1="-661.2408" y1="-2936.3901" x2="-661.2408" y2="-2935.1709" gradientTransform="matrix(18.4975 -8.4376 -8.4376 -18.4975 -13129.082 -62897.9648)">
		<stop  offset="0" style="stop-color:#808080;stop-opacity:0.251"/>
		<stop  offset="0.54" style="stop-color:#808080;stop-opacity:0.122"/>
		<stop  offset="1" style="stop-color:#808080;stop-opacity:0.102"/>
	</linearGradient>
	<polygon class="st7" points="-600.2,-3007.9 -577.7,-3018.2 -567.4,-2995.6 -590,-2985.4 	"/>
	
		<rect x="-615.8" y="-3057.9" transform="matrix(0.9098 -0.415 0.415 0.9098 1209.8059 -525.5237)" class="st8" width="23" height="23"/>
	
		<rect x="-595.6" y="-3013.6" transform="matrix(0.9098 -0.415 0.415 0.9098 1193.2516 -513.1482)" class="st5" width="23" height="23"/>
	
		<rect x="-582.9" y="-3068.1" transform="matrix(0.9098 -0.415 0.415 0.9098 1221.6948 -511.9574)" class="st9" width="31.5" height="2.2"/>
	
		<rect x="-582.4" y="-3069.4" transform="matrix(0.9098 -0.415 0.415 0.9098 1223.1812 -507.6312)" class="st9" width="52" height="2.2"/>
	
		<rect x="-580.9" y="-3065.6" transform="matrix(0.9098 -0.415 0.415 0.9098 1221.5944 -507.4171)" class="st9" width="48.3" height="2.2"/>
	
		<rect x="-562.7" y="-3023.8" transform="matrix(0.9098 -0.415 0.415 0.9098 1205.1395 -499.5811)" class="st9" width="31.5" height="2.2"/>
	
		<rect x="-562.2" y="-3025.1" transform="matrix(0.9098 -0.415 0.415 0.9098 1206.6263 -495.2551)" class="st9" width="52" height="2.2"/>
	
		<rect x="-560.7" y="-3021.3" transform="matrix(0.9098 -0.415 0.415 0.9098 1205.0392 -495.0408)" class="st9" width="48.3" height="2.2"/>
	
		<linearGradient id="SVGID_6_" gradientUnits="userSpaceOnUse" x1="-661.7094" y1="-2935.8767" x2="-661.7094" y2="-2934.7795" gradientTransform="matrix(9.074 0 0 -11.087 5398.9971 -35603.8203)">
		<stop  offset="0" style="stop-color:#808080;stop-opacity:0.251"/>
		<stop  offset="0.54" style="stop-color:#808080;stop-opacity:0.122"/>
		<stop  offset="1" style="stop-color:#808080;stop-opacity:0.102"/>
	</linearGradient>
	<path class="st10" d="M-609.6-3045.5l5.4,1.7l1.8-10.4l2.6,0.7l-2.9,12.8l-8.1-3.6L-609.6-3045.5z"/>
	<path class="st2" d="M-608.9-3045.7l4.7,1.5l1.5-9l2.3,0.6l-2.6,11.1l-7.1-3.1L-608.9-3045.7z"/>
	<path class="st2" d="M-588.6-3001.1l4.7,1.5l1.5-9l2.3,0.6l-2.6,11.1l-7.1-3.1L-588.6-3001.1z"/>
	
		<rect x="-563.8" y="-2985.9" transform="matrix(0.9098 -0.415 0.415 0.9098 1186.573 -486.9169)" class="st9" width="73.5" height="24.5"/>
	<path class="st5" d="M-508.4-2982.3c-2.6-0.7-5.2-0.6-6,2.3c-0.3,1-0.3,2.5-1.4,3c-1.6,0.8-3.4-0.8-4.8-1.4c-2.4-1.2-5.3-0.3-6.6,2
		c-0.7,1.2-1.1,2.6-1.3,4c-0.1,0.6-0.2,1.3-0.4,1.9c-0.5,1.1-2,1-3,0.9c-0.2,0-0.4,0-0.7,0c0.8-1.1,1.2-2.4,1.1-3.7
		c-0.1-2.2-1.5-4.6-4-4.3c-2.2,0.3-3.8,2.3-3.6,4.6c0.3,1.8,1.4,3.3,3,4.2c-0.8,0.3-1.6,0.6-2.3,0.9c-0.3,0.2-0.7,0.3-1,0.5
		c-2.2-1.1-4.7-1.2-7-0.2c-0.9,0.5-0.3,2.1,0.7,1.5c1.5-0.7,3.2-0.7,4.7-0.1l0.1,0c-0.2,0.2-0.3,0.4-0.4,0.6c-0.9,1.7,0,4.4,2.1,4.6
		c3,0.3,3.2-3.7,1.5-5.3c-0.1-0.1-0.1-0.1-0.2-0.2c0.7-0.3,1.4-0.6,2.1-0.9c0.6-0.2,1.1-0.5,1.6-0.9l0.1,0c2.3,0.5,5.9,0.7,6.7-2.1
		c0.7-2.4,0.8-7.6,4.6-7.1c1.6,0.2,2.8,1.4,4.3,1.8c1.3,0.5,2.8,0.3,4-0.6c0.8-0.9,1.2-2,1.4-3.1c0.1-0.6,0.3-1.2,0.7-1.7
		c0.8-0.7,2.2-0.3,3.2,0C-508-2980.4-507.4-2982-508.4-2982.3z M-538.3-2962.7c-0.5,0.5-1,0.1-1.3-0.4c-0.3-0.6-0.2-1.3,0.2-1.8
		c0.1-0.1,0.1-0.2,0.2-0.3C-538.2-2964.6-537.4-2963.6-538.3-2962.7L-538.3-2962.7z M-536.6-2975.2c0.7-0.8,1.9-0.8,2.6-0.1
		c0.2,0.2,0.4,0.4,0.5,0.7c0.6,1.5,0.4,3.1-0.5,4.4c-0.1,0.2-0.2,0.3-0.4,0.4c-0.6-0.2-1.2-0.5-1.7-0.9
		C-537.2-2971.9-537.9-2973.9-536.6-2975.2L-536.6-2975.2z"/>
	
		<linearGradient id="SVGID_7_" gradientUnits="userSpaceOnUse" x1="-660.7266" y1="-2936.5957" x2="-660.7266" y2="-2935.3765" gradientTransform="matrix(168.244 0 0 -96.2587 110610.1172 -285660.75)">
		<stop  offset="0" style="stop-color:#808080;stop-opacity:0.251"/>
		<stop  offset="0.54" style="stop-color:#808080;stop-opacity:0.122"/>
		<stop  offset="1" style="stop-color:#808080;stop-opacity:0.102"/>
	</linearGradient>
	<path class="st11" d="M-494.5-3072.3l-18.7,7.3c-6.3-0.5-12.5-2.1-18.3-4.7c-8.1-3.9-17.5-3.8-25.5,0.2
		c-18.3,0.4-28.4-1.9-33.8-4.1l1.4-2.9l-19-7.4l-47.4-21.3v87.1l16.6,7.4l8.9-21.4l19.5,9l3.8-9.5l12.8,9.5l0.9,0.7l-1.2,1.2
		c-2.3,2.4-2.3,6.2,0,8.6l0,0c2.2,2.3,5.8,2.4,8.1,0.2c0.1-0.1,0.2-0.1,0.2-0.2l-0.7,0.7c-2.3,2.4-2.3,6.2,0,8.6l0,0
		c2.2,2.3,5.8,2.4,8.1,0.2c0.1-0.1,0.2-0.1,0.2-0.2l3.8-4l0,0l-2.6,2.7c-2.3,2.4-2.3,6.2,0,8.6l0,0c2.2,2.3,5.8,2.4,8.1,0.2
		c0.1-0.1,0.2-0.1,0.2-0.2l3.8-3.9l0,0l-1.6,1.6c-1.6,1.7-1.6,4.3,0,6c1.5,1.6,4,1.7,5.6,0.2c0.1-0.1,0.1-0.1,0.2-0.2l2.5-2.6
		c4.3,3.1,7.8,5.4,9.5,6c7.1,2.5,7.1-2.5,7.1-2.5c9.5,4.9,14.2-4.9,14.2-4.9c11.9,4.9,11.9-7.4,11.9-7.4c3,2.1,5.1,1.1,6.6-0.7
		c2-2.5,2.3-5.9,0.9-8.7l11.3-10.5l4.9,10l19.5-9l8.9,19.7l13.1-5.9v-86.2L-494.5-3072.3z"/>
	<path class="st12" d="M-497.7-3026.7l-20.6,18.3l-16-29.8l36.7-9.2V-3026.7z"/>
	<path class="st13" d="M-596.3-3074.9c0,0,6.6,9.2,45.9,6.9l22.9,34.4l15.4,17.3c2.4,2.7,2.5,6.8,0.2,9.6c-1.4,1.7-3.5,2.5-6.4,0.6
		c0,0,0,11.5-11.5,6.9c0,0-4.6,9.2-13.8,4.6c0,0,0,4.6-6.9,2.3c-6.9-2.3-43.6-32.1-43.6-32.1l-16-11.5L-596.3-3074.9z"/>
	<path class="st12" d="M-513.7-3063.4c-6.8-0.2-13.5-1.7-19.7-4.4c-8.9-4.1-19.2-3.4-27.5,1.8c-6.7,4.3-12.5,11.5-12.4,23.3
		c0,0,8.9,9.2,18.3-9.2h6.9c0,0,6.6,22.9,25.2,20.6c18.6-2.3,22.9-4.6,22.9-4.6L-513.7-3063.4z"/>
	<path class="st12" d="M-574.3-3018.5L-574.3-3018.5c2.2,2.2,2.2,5.8,0,8l-4.6,4.6c-2.2,2.2-5.8,2.2-8,0l0,0c-2.2-2.2-2.2-5.8,0-8
		l4.6-4.6C-580.1-3020.7-576.5-3020.7-574.3-3018.5z"/>
	<path class="st12" d="M-581.7-3027.2L-581.7-3027.2c2.2,2.2,2.2,5.8,0,8l-4.6,4.6c-2.2,2.2-5.8,2.2-8,0l0,0c-2.2-2.2-2.2-5.8,0-8
		l4.6-4.6C-587.5-3029.4-583.9-3029.4-581.7-3027.2z"/>
	<path class="st12" d="M-564-3012.8L-564-3012.8c2.2,2.2,2.2,5.8,0,8l-5.7,5.7c-2.2,2.2-5.8,2.2-8,0l0,0c-2.2-2.2-2.2-5.8,0-8
		l5.7-5.7C-569.8-3015-566.2-3015-564-3012.8z"/>
	<path class="st12" d="M-558.4-3004.7L-558.4-3004.7c1.5,1.5,1.5,4.1,0,5.6l-3.6,3.6c-1.5,1.5-4.1,1.5-5.6,0l0,0
		c-1.5-1.5-1.5-4.1,0-5.6l3.6-3.6C-562.5-3006.2-560-3006.2-558.4-3004.7z"/>
	<path class="st2" d="M-474.7-3022.2l-20.6,9.2l-20.6-50.4l18.3-6.9L-474.7-3022.2z"/>
	<path class="st2" d="M-630.6-3033.6l20.6,9.2l20.6-50.4l-18.3-6.9L-630.6-3033.6z"/>
	<path class="st14" d="M-653.6-3102.4l45.9,20.6l-29.8,68.8l-16-6.9V-3102.4z"/>
	<path class="st5" d="M-451.8-3090.9l-45.9,20.6l29.8,68.8l16-6.9V-3090.9z"/>
</g>
</svg>
