<svg xmlns="http://www.w3.org/2000/svg" xmlns:xlink="http://www.w3.org/1999/xlink" width="332.784" height="283" viewBox="0 0 332.784 283"><defs><style>.a,.b,.h{fill:#ec7e73;}.a{font-size:236px;font-family:Roboto-Bold, Roboto;font-weight:700;opacity:0.35;}.b{opacity:0.2;}.c{fill:none;stroke:#535461;stroke-miterlimit:10;stroke-width:2px;}.d{fill:#8ed16f;}.e{opacity:0.3;}.f{fill:#fff;}.g{fill:url(#a);}.i{fill:#d6d6e3;}</style><linearGradient id="a" x1="0.5" y1="1" x2="0.5" gradientUnits="objectBoundingBox"><stop offset="0" stop-color="gray" stop-opacity="0.251"/><stop offset="0.54" stop-color="gray" stop-opacity="0.122"/><stop offset="1" stop-color="gray" stop-opacity="0.102"/></linearGradient></defs><g transform="translate(-554 -3419)"><text class="a" transform="translate(622 3643)"><tspan x="-67.7" y="0">2</tspan></text><g transform="translate(11432 3125.192)"><path class="b" d="M180.557,266.521a10.325,10.325,0,0,0-6.625,7.46c-.866,4.248,1.131,8.529,1.42,12.89.932,14.289-15.986,24.371-13.573,38.407.958,5.581,4.832,9.686,8.649,13.078,6.114,5.416,12.9,10.2,20.411,11.551,11.4,2.053,23.317-3.98,34.4-.168,8.94,3.076,15.78,12.091,24.658,15.418,6.758,2.533,14.039,1.535,21.059.509,3.786-.552,7.752-1.188,10.807-3.918,5.679-5.081,6.036-15.114,9.839-22.3,5.873-11.088,18.75-13.266,29.547-11.111s21.282,7.46,32.221,7.028a12.713,12.713,0,0,0,6.772-1.854c2.48-1.675,4.155-4.626,5.636-7.545A140.75,140.75,0,0,0,380.512,265.3c.064-3.682-.045-7.523-1.486-10.772-1.822-4.111-5.464-6.57-9.089-8.225-8.705-3.98-18.322-4.631-26.852-9.12-8.227-4.33-14.891-11.924-22.056-18.431a109.064,109.064,0,0,0-48.387-25.892c-4.115-.955-8.386-1.638-12.475-.535-4.711,1.271-8.772,4.8-12.423,8.6-9.713,10.1-17.5,22.571-26.45,33.645a162.524,162.524,0,0,1-20.094,20.82c-3.313,2.869-6.834,6.275-10.525,8.4C187.3,265.717,184.13,265.228,180.557,266.521Z" transform="translate(-10925.742 160.397)"/><path class="c" d="M382.518,138.88s-10.988,14.593-3.127,31.6-13.7,44.34-13.7,44.34" transform="translate(-11071.849 198.238)"/><path class="d" d="M424.324,100.4c-.873,3.756-5.049,5.993-5.049,5.993s-2.758-3.852-1.885-7.608,3.127-6.44,5.049-5.993S425.2,96.64,424.324,100.4Z" transform="translate(-11108.729 231.261)"/><ellipse class="d" cx="2.192" cy="0.822" rx="2.192" ry="0.822" transform="translate(-10689.307 332.764) rotate(-76.9)"/><ellipse class="e" cx="2.192" cy="0.822" rx="2.192" ry="0.822" transform="translate(-10689.307 332.764) rotate(-76.9)"/><path class="d" d="M415.956,159.617c-3.628,1.308-7.776-.984-7.776-.984s1.734-4.41,5.365-5.715,7.108-.853,7.776.984S419.583,158.309,415.956,159.617Z" transform="translate(-11102.258 188.725)"/><ellipse class="d" cx="2.192" cy="0.822" rx="2.192" ry="0.822" transform="matrix(0.94, -0.34, 0.34, 0.94, -10689.941, 344.647)"/><ellipse class="e" cx="2.192" cy="0.822" rx="2.192" ry="0.822" transform="matrix(0.94, -0.34, 0.34, 0.94, -10689.941, 344.647)"/><path class="d" d="M412.986,206.387c-3.628,1.308-7.776-.984-7.776-.984s1.734-4.41,5.365-5.715,7.108-.853,7.776.984S416.613,205.082,412.986,206.387Z" transform="translate(-11100.134 155.252)"/><ellipse class="d" cx="2.192" cy="0.822" rx="2.192" ry="0.822" transform="translate(-10690.743 358.141) rotate(-19.8)"/><ellipse class="e" cx="2.192" cy="0.822" rx="2.192" ry="0.822" transform="translate(-10690.743 358.141) rotate(-19.8)"/><path class="d" d="M427.9,261.257c-3.628,1.308-7.776-.984-7.776-.984s1.734-4.41,5.365-5.715,7.108-.853,7.776.984S431.524,259.958,427.9,261.257Z" transform="translate(-11110.805 115.982)"/><ellipse class="d" cx="2.192" cy="0.822" rx="2.192" ry="0.822" transform="translate(-10686.504 373.747) rotate(-19.8)"/><ellipse class="e" cx="2.192" cy="0.822" rx="2.192" ry="0.822" transform="translate(-10686.504 373.747) rotate(-19.8)"/><path class="d" d="M418.2,311.437c-3.628,1.308-7.776-.984-7.776-.984s1.734-4.41,5.365-5.715,7.108-.853,7.776.984S421.826,310.132,418.2,311.437Z" transform="translate(-11103.862 80.068)"/><ellipse class="d" cx="2.192" cy="0.822" rx="2.192" ry="0.822" transform="matrix(0.94, -0.34, 0.34, 0.94, -10689.254, 387.776)"/><ellipse class="e" cx="2.192" cy="0.822" rx="2.192" ry="0.822" transform="matrix(0.94, -0.34, 0.34, 0.94, -10689.254, 387.776)"/><path class="d" d="M370.557,171.336c2.678,2.775,7.412,2.559,7.412,2.559s.389-4.722-2.289-7.5-6-3.918-7.412-2.559S367.879,168.561,370.557,171.336Z" transform="translate(-11073.238 180.785)"/><ellipse class="d" cx="0.822" cy="2.192" rx="0.822" ry="2.192" transform="matrix(0.719, -0.695, 0.695, 0.719, -10702.133, 348.553)"/><ellipse class="e" cx="0.822" cy="2.192" rx="0.822" ry="2.192" transform="matrix(0.719, -0.695, 0.695, 0.719, -10702.133, 348.553)"/><path class="d" d="M365.147,326.326c2.678,2.775,7.412,2.559,7.412,2.559s.39-4.722-2.289-7.5-6-3.918-7.412-2.559S362.469,323.551,365.147,326.326Z" transform="translate(-11069.366 69.859)"/><ellipse class="d" cx="0.822" cy="2.192" rx="0.822" ry="2.192" transform="matrix(0.719, -0.695, 0.695, 0.719, -10703.675, 392.621)"/><ellipse class="e" cx="0.822" cy="2.192" rx="0.822" ry="2.192" transform="matrix(0.719, -0.695, 0.695, 0.719, -10703.675, 392.621)"/><path class="d" d="M372.771,227.176c3.451,1.723,7.838-.068,7.838-.068s-1.208-4.58-4.657-6.3-6.96-1.706-7.838.068S369.32,225.453,372.771,227.176Z" transform="translate(-11073.44 140.519)"/><ellipse class="d" cx="0.822" cy="2.192" rx="0.822" ry="2.192" transform="translate(-10701.351 364.139) rotate(-63.48)"/><ellipse class="e" cx="0.822" cy="2.192" rx="0.822" ry="2.192" transform="translate(-10701.351 364.139) rotate(-63.48)"/><path class="d" d="M377.863,281.746c3.452,1.723,7.838-.068,7.838-.068s-1.208-4.58-4.657-6.3-6.96-1.706-7.838.068S374.426,280.04,377.863,281.746Z" transform="translate(-11077.085 101.464)"/><ellipse class="d" cx="0.822" cy="2.192" rx="0.822" ry="2.192" transform="translate(-10699.902 379.656) rotate(-63.48)"/><ellipse class="e" cx="0.822" cy="2.192" rx="0.822" ry="2.192" transform="translate(-10699.902 379.656) rotate(-63.48)"/><path class="d" d="M185.6,249.21s20.069,20.069,8.74,49.85,19.421,79.3,19.421,79.3-.33-.048-.941-.156c-41.224-7.275-61.694-54.419-38.779-89.44C182.553,275.747,189.561,260.474,185.6,249.21Z" transform="translate(-10927.857 119.275)"/><path class="d" d="M113,534.089s22.9-3.648,24.988,16.876,44.036,23.37,44.036,23.37-.284.188-.788.523C146.6,597.6,113.489,589.34,118.479,559.15,120.338,547.923,120.184,536.65,113,534.089Z" transform="translate(-10891 -84.431)"/><path class="f" d="M113,534.089s22.9-3.648,24.988,16.876,44.036,23.37,44.036,23.37-.284.188-.788.523C146.6,597.6,113.489,589.34,118.479,559.15,120.338,547.923,120.184,536.65,113,534.089Z" transform="translate(-10891 -84.431)"/><ellipse class="d" cx="6.297" cy="16.43" rx="6.297" ry="16.43" transform="translate(-10754.349 416.544)"/><ellipse class="e" cx="6.297" cy="16.43" rx="6.297" ry="16.43" transform="translate(-10754.349 416.544)"/><ellipse class="d" cx="4.245" cy="9.447" rx="4.245" ry="9.447" transform="translate(-10764.988 482.286) rotate(-45)"/><ellipse class="e" cx="4.245" cy="9.447" rx="4.245" ry="9.447" transform="translate(-10764.988 482.286) rotate(-45)"/><path class="g" d="M444.525,358.2H295.452a6.792,6.792,0,0,0-6.792,6.792v87.375a6.792,6.792,0,0,0,6.792,6.792H444.525a6.792,6.792,0,0,0,6.792-6.792V364.992a6.792,6.792,0,0,0-6.792-6.792Z" transform="translate(-11016.719 41.272)"/><rect class="h" width="158.827" height="98.583" rx="7" transform="translate(-10726.146 400.66)"/><rect class="e" width="158.827" height="18.073" transform="translate(-10726.146 417.912)"/><rect class="i" width="128.705" height="8.762" transform="translate(-10711.083 449.404)"/><circle class="e" cx="12.598" cy="12.598" r="12.598" transform="translate(-10711.011 467.477)"/></g></g></svg>