<svg xmlns="http://www.w3.org/2000/svg" width="230.237" height="141" viewBox="0 0 230.237 141"><defs><style>.a,.d{fill:#ec7e73;}.a{opacity:0.2;}.b{fill:#58595b;}.c{fill:#ffc107;}.e{fill:#3f3d56;}</style></defs><g transform="translate(2961.606 -533.852)"><path class="a" d="M-2937.415,628.645c-40.1-10.089-44.263-.42-32.536-38.253s46.155-5.044,67.341-28.164,70.746-41.616,75.286-15.974,27.239,57.17,55.234,53.807,38.589,50.864,8.7,58.431-85.122-16.394-104.795,9.248S-2897.313,638.734-2937.415,628.645Z" transform="translate(14.074)"/><g transform="translate(-2907.42 617.621)"><path class="b" d="M49.012,18.287a2.607,2.607,0,0,0-2.248-1.8L32.58,15.2,26.972,2.076a2.612,2.612,0,0,0-4.8,0L16.56,15.2,2.375,16.491a2.615,2.615,0,0,0-1.482,4.57l10.721,9.4L8.452,44.389a2.608,2.608,0,0,0,3.884,2.822L24.57,39.9,36.8,47.21a2.611,2.611,0,0,0,3.886-2.822L37.525,30.463l10.721-9.4a2.613,2.613,0,0,0,.766-2.776Zm0,0" transform="translate(0 -0.491)"/><path class="b" d="M49.012,18.287a2.607,2.607,0,0,0-2.248-1.8L32.58,15.2,26.972,2.076a2.612,2.612,0,0,0-4.8,0L16.56,15.2,2.375,16.491a2.615,2.615,0,0,0-1.482,4.57l10.721,9.4L8.452,44.389a2.608,2.608,0,0,0,3.884,2.822L24.57,39.9,36.8,47.21a2.611,2.611,0,0,0,3.886-2.822L37.525,30.463l10.721-9.4a2.613,2.613,0,0,0,.766-2.776Zm0,0" transform="translate(57.272 -0.491)"/></g><g transform="translate(-2934.692 565.804)"><path class="b" d="M49.012,18.287a2.607,2.607,0,0,0-2.248-1.8L32.58,15.2,26.972,2.076a2.612,2.612,0,0,0-4.8,0L16.56,15.2,2.375,16.491a2.615,2.615,0,0,0-1.482,4.57l10.721,9.4L8.452,44.389a2.608,2.608,0,0,0,3.884,2.822L24.57,39.9,36.8,47.21a2.611,2.611,0,0,0,3.886-2.822L37.525,30.463l10.721-9.4a2.613,2.613,0,0,0,.766-2.776Zm0,0" transform="translate(55.453 -0.491)"/><path class="b" d="M49.012,18.287a2.607,2.607,0,0,0-2.248-1.8L32.58,15.2,26.972,2.076a2.612,2.612,0,0,0-4.8,0L16.56,15.2,2.375,16.491a2.615,2.615,0,0,0-1.482,4.57l10.721,9.4L8.452,44.389a2.608,2.608,0,0,0,3.884,2.822L24.57,39.9,36.8,47.21a2.611,2.611,0,0,0,3.886-2.822L37.525,30.463l10.721-9.4a2.613,2.613,0,0,0,.766-2.776Zm0,0" transform="translate(110.907 -0.491)"/><path class="b" d="M49.012,18.287a2.607,2.607,0,0,0-2.248-1.8L32.58,15.2,26.972,2.076a2.612,2.612,0,0,0-4.8,0L16.56,15.2,2.375,16.491a2.615,2.615,0,0,0-1.482,4.57l10.721,9.4L8.452,44.389a2.608,2.608,0,0,0,3.884,2.822L24.57,39.9,36.8,47.21a2.611,2.611,0,0,0,3.886-2.822L37.525,30.463l10.721-9.4a2.613,2.613,0,0,0,.766-2.776Zm0,0" transform="translate(0 -0.491)"/></g><g transform="translate(-2910.147 616.712)"><path class="c" d="M49.012,18.287a2.607,2.607,0,0,0-2.248-1.8L32.58,15.2,26.972,2.076a2.612,2.612,0,0,0-4.8,0L16.56,15.2,2.375,16.491a2.615,2.615,0,0,0-1.482,4.57l10.721,9.4L8.452,44.389a2.608,2.608,0,0,0,3.884,2.822L24.57,39.9,36.8,47.21a2.611,2.611,0,0,0,3.886-2.822L37.525,30.463l10.721-9.4a2.613,2.613,0,0,0,.766-2.776Zm0,0" transform="translate(0 -0.491)"/><path class="c" d="M49.012,18.287a2.607,2.607,0,0,0-2.248-1.8L32.58,15.2,26.972,2.076a2.612,2.612,0,0,0-4.8,0L16.56,15.2,2.375,16.491a2.615,2.615,0,0,0-1.482,4.57l10.721,9.4L8.452,44.389a2.608,2.608,0,0,0,3.884,2.822L24.57,39.9,36.8,47.21a2.611,2.611,0,0,0,3.886-2.822L37.525,30.463l10.721-9.4a2.613,2.613,0,0,0,.766-2.776Zm0,0" transform="translate(57.272 -0.491)"/></g><g transform="translate(-2937.419 564.895)"><path class="c" d="M49.012,18.287a2.607,2.607,0,0,0-2.248-1.8L32.58,15.2,26.972,2.076a2.612,2.612,0,0,0-4.8,0L16.56,15.2,2.375,16.491a2.615,2.615,0,0,0-1.482,4.57l10.721,9.4L8.452,44.389a2.608,2.608,0,0,0,3.884,2.822L24.57,39.9,36.8,47.21a2.611,2.611,0,0,0,3.886-2.822L37.525,30.463l10.721-9.4a2.613,2.613,0,0,0,.766-2.776Zm0,0" transform="translate(55.453 -0.491)"/><path class="c" d="M49.012,18.287a2.607,2.607,0,0,0-2.248-1.8L32.58,15.2,26.972,2.076a2.612,2.612,0,0,0-4.8,0L16.56,15.2,2.375,16.491a2.615,2.615,0,0,0-1.482,4.57l10.721,9.4L8.452,44.389a2.608,2.608,0,0,0,3.884,2.822L24.57,39.9,36.8,47.21a2.611,2.611,0,0,0,3.886-2.822L37.525,30.463l10.721-9.4a2.613,2.613,0,0,0,.766-2.776Zm0,0" transform="translate(110.907 -0.491)"/><path class="c" d="M49.012,18.287a2.607,2.607,0,0,0-2.248-1.8L32.58,15.2,26.972,2.076a2.612,2.612,0,0,0-4.8,0L16.56,15.2,2.375,16.491a2.615,2.615,0,0,0-1.482,4.57l10.721,9.4L8.452,44.389a2.608,2.608,0,0,0,3.884,2.822L24.57,39.9,36.8,47.21a2.611,2.611,0,0,0,3.886-2.822L37.525,30.463l10.721-9.4a2.613,2.613,0,0,0,.766-2.776Zm0,0" transform="translate(0 -0.491)"/></g><g transform="translate(-2949.84 646.751)"><ellipse class="d" cx="30.997" cy="5.242" rx="30.997" ry="5.242" transform="translate(0 17.617)"/><path class="d" d="M908.56,836.914a9.023,9.023,0,0,0,2.953-4.463,3.979,3.979,0,0,0-2.067-4.54c-1.9-.725-3.927.594-5.458,1.919s-3.3,2.845-5.312,2.56a8.079,8.079,0,0,0,2.508-7.562,3.186,3.186,0,0,0-.7-1.542c-1.048-1.126-2.962-.647-4.217.247-4.008,2.813-5.126,8.267-5.149,13.158-.409-1.765-.062-3.608-.077-5.4s-.5-3.858-2.035-4.8a6.118,6.118,0,0,0-3.083-.725c-1.8-.069-3.808.116-5.041,1.433-1.542,1.634-1.125,4.379.2,6.167s3.354,2.937,5.219,4.178a11.566,11.566,0,0,1,3.72,3.554,3.211,3.211,0,0,1,.276.64h11.263a31.646,31.646,0,0,0,7-4.822Z" transform="translate(-864.744 -822.627)"/></g><path class="d" d="M799.022,156.862s-32.163-1.941-28.374,20.6a5.476,5.476,0,0,0,2.857,5.791s.057-1.669,3.3-1.1a15.091,15.091,0,0,0,3.5.168,7.282,7.282,0,0,0,4.27-1.746h0s9.042-3.736,12.556-18.511c0,0,2.6-3.224,2.5-4.053l-5.427,2.319s1.856,3.915.382,7.168c0,0-.176-7.029-1.219-6.876-.21.031-2.819,1.356-2.819,1.356s3.19,6.818.783,11.777c0,0,.913-8.4-1.78-11.284l-3.82,2.231s3.728,7.044,1.2,12.793c0,0,.649-8.816-2.006-12.25l-3.461,2.7s3.5,6.941,1.367,11.709c0,0-.279-10.26-2.116-11.035,0,0-3.029,2.674-3.492,3.766,0,0,2.4,5.042.909,7.7,0,0-.913-6.837-1.662-6.876,0,0-3.018,4.53-3.331,7.64a16.461,16.461,0,0,1,2.6-8.067,9.1,9.1,0,0,0-4.622,2.39s.47-3.2,5.367-3.484c0,0,2.494-3.438,3.159-3.644,0,0-4.866-.41-7.819.9,0,0,2.6-3.021,8.713-1.646l3.419-2.792s-6.41-.875-9.129.092c0,0,3.129-2.674,10.05-.726l3.721-2.223s-5.466-1.177-8.721-.764c0,0,3.438-1.853,9.813.157l2.674-1.195s-4-.787-5.176-.913-1.234-.447-1.234-.447a13.885,13.885,0,0,1,7.521.837S799.118,157.218,799.022,156.862Z" transform="translate(-3547.772 391.87)"/><path class="d" d="M15.938.023S-1.933-1.055.172,11.467A3.043,3.043,0,0,0,1.76,14.685s.032-.927,1.834-.611a8.383,8.383,0,0,0,1.942.093,4.046,4.046,0,0,0,2.373-.97h0s5.024-2.076,6.976-10.285c0,0,1.445-1.791,1.388-2.252L13.257,1.948a5.377,5.377,0,0,1,.212,3.983s-.1-3.905-.677-3.82c-.117.017-1.566.753-1.566.753S13,6.653,11.661,9.408c0,0,.507-4.669-.989-6.27L8.549,4.378s2.072,3.914.667,7.108c0,0,.36-4.9-1.114-6.807l-1.923,1.5s1.946,3.856.76,6.506c0,0-.155-5.7-1.176-6.132a11.824,11.824,0,0,0-1.94,2.093s1.333,2.8.505,4.279c0,0-.507-3.8-.923-3.82a12.613,12.613,0,0,0-1.851,4.245A9.146,9.146,0,0,1,3,8.867,5.057,5.057,0,0,0,.431,10.194S.692,8.416,3.413,8.259A11.674,11.674,0,0,1,5.168,6.234a10.991,10.991,0,0,0-4.345.5S2.267,5.056,5.665,5.82l1.9-1.551S4,3.783,2.492,4.32c0,0,1.738-1.486,5.584-.4l2.067-1.235A18.962,18.962,0,0,0,5.3,2.257s1.91-1.029,5.452.087l1.486-.664s-2.224-.437-2.876-.507S8.674.925,8.674.925a7.715,7.715,0,0,1,4.179.465A18.81,18.81,0,0,0,15.938.023Z" transform="translate(-2891.656 539.414) rotate(98)"/><path class="d" d="M15.938.023S-1.933-1.055.172,11.467A3.043,3.043,0,0,0,1.76,14.685s.032-.927,1.834-.611a8.383,8.383,0,0,0,1.942.093,4.046,4.046,0,0,0,2.373-.97h0s5.024-2.076,6.976-10.285c0,0,1.445-1.791,1.388-2.252L13.257,1.948a5.377,5.377,0,0,1,.212,3.983s-.1-3.905-.677-3.82c-.117.017-1.566.753-1.566.753S13,6.653,11.661,9.408c0,0,.507-4.669-.989-6.27L8.549,4.378s2.072,3.914.667,7.108c0,0,.36-4.9-1.114-6.807l-1.923,1.5s1.946,3.856.76,6.506c0,0-.155-5.7-1.176-6.132a11.824,11.824,0,0,0-1.94,2.093s1.333,2.8.505,4.279c0,0-.507-3.8-.923-3.82a12.613,12.613,0,0,0-1.851,4.245A9.146,9.146,0,0,1,3,8.867,5.057,5.057,0,0,0,.431,10.194S.692,8.416,3.413,8.259A11.674,11.674,0,0,1,5.168,6.234a10.991,10.991,0,0,0-4.345.5S2.267,5.056,5.665,5.82l1.9-1.551S4,3.783,2.492,4.32c0,0,1.738-1.486,5.584-.4l2.067-1.235A18.962,18.962,0,0,0,5.3,2.257s1.91-1.029,5.452.087l1.486-.664s-2.224-.437-2.876-.507S8.674.925,8.674.925a7.715,7.715,0,0,1,4.179.465A18.81,18.81,0,0,0,15.938.023Z" transform="matrix(0.998, 0.07, -0.07, 0.998, -2793.121, 633.102)"/><g transform="translate(-2883.229 562.531)"><path class="e" d="M596.4,697.374c1.326,4.9,5.869,7.939,5.869,7.939s2.392-4.912,1.066-9.815-5.869-7.939-5.869-7.939S595.071,692.472,596.4,697.374Z" transform="translate(-589.251 -687.56)"/><path class="d" d="M581.186,708.838c3.639,3.543,4.084,8.988,4.084,8.988s-5.456-.3-9.095-3.841S572.091,705,572.091,705,577.547,705.3,581.186,708.838Z" transform="translate(-572.091 -700.077)"/></g></g></svg>