<?xml version="1.0" encoding="utf-8"?>
<!-- Generator: Adobe Illustrator 24.0.1, SVG Export Plug-In . SVG Version: 6.00 Build 0)  -->
<svg version="1.1" id="Layer_1" xmlns="http://www.w3.org/2000/svg" xmlns:xlink="http://www.w3.org/1999/xlink" x="0px" y="0px"
	 viewBox="0 0 240.3 240.3" style="enable-background:new 0 0 240.3 240.3;" xml:space="preserve">
<style type="text/css">
	.st0{fill:none;}
	.st1{opacity:0.2;fill:#EC7E73;enable-background:new    ;}
	.st2{fill:url(#Path_782_1_);}
	.st3{fill:#D38884;}
	.st4{fill:#444053;}
	.st5{fill:#B07473;}
	.st6{opacity:0.1;enable-background:new    ;}
	.st7{fill:#EC7E73;}
	.st8{fill:#67647E;}
	.st9{fill:#585268;}
	.st10{fill:#E1E7EF;}
	.st11{fill:url(#Path_830_1_);}
	.st12{fill:#A27772;}
	.st13{fill:#CC818C;}
	.st14{opacity:0.22;enable-background:new    ;}
	.st15{fill:#F6F8FB;}
	.st16{fill:#6C63FF;}
	.st17{fill:url(#Path_880_1_);}
	.st18{fill:#65617D;}
	.st19{fill:#FBBEBE;}
	.st20{opacity:5.000000e-02;enable-background:new    ;}
	.st21{fill:#7C5C5C;}
	.st22{opacity:0.28;enable-background:new    ;}
	.st23{opacity:0.1;fill:#EC7E73;enable-background:new    ;}
	.st24{fill:#A8A8A8;}
	.st25{opacity:0.2;enable-background:new    ;}
</style>
<rect class="st0" width="240.3" height="240.3"/>
<g id="Group_2984" transform="translate(3025.286 -379.171)">
	<path id="Path_1019" class="st1" d="M-2998.3,494.2c7.5-10,4.2-9.5-9.6-28.8c-13.7-19.3,11.2-36.1,28.9-33.1c17.7,3,29.1,17,52,7.2
		s63.1-23.1,78.1,8.4c14.9,31.5,19.8,48.2,35.7,50.1c15.8,1.9,45.7,31.5,14.9,51c-30.8,19.6-49.2,2.8-75.7,2.3
		c-26.6-0.5-72.9,3.3-75-18.2c-2.1-21.4-37-11.4-43.8-1.6s-42.9,1.6-29.4-19.1C-3008.8,491.7-3005.7,504.1-2998.3,494.2z"/>
	<ellipse id="Ellipse_157" class="st1" cx="-2915.3" cy="570" rx="17.3" ry="3.9"/>
	<ellipse id="Ellipse_158" class="st1" cx="-2875.2" cy="582.3" rx="31.1" ry="2.6"/>
	<ellipse id="Ellipse_160" class="st1" cx="-2952.7" cy="559" rx="23.4" ry="3.9"/>
	
		<linearGradient id="Path_782_1_" gradientUnits="userSpaceOnUse" x1="-3293.7156" y1="803.4119" x2="-3293.7156" y2="804.4319" gradientTransform="matrix(45.5255 0 0 -132.9249 146991.0156 107354.4063)">
		<stop  offset="0" style="stop-color:#808080;stop-opacity:0.251"/>
		<stop  offset="0.54" style="stop-color:#808080;stop-opacity:0.122"/>
		<stop  offset="1" style="stop-color:#808080;stop-opacity:0.102"/>
	</linearGradient>
	<path id="Path_782" class="st2" d="M-2935.2,466.9c-0.5-3.3-3.5-11.1-3.5-11.1l0,0c-0.1-0.2-0.1-0.5-0.2-0.7c-2.1-7.4-5.1-8-5.1-8
		l-10.7-2.3c0.1,0.1,0.2,0.1,0.2,0.2c-0.1,0-0.1,0-0.2,0c-0.5-0.6-0.8-1.3-0.9-2c0-0.1,0-0.2-0.1-0.3c3-2.9,3-7.6,0.1-10.6
		c-0.2-0.2-0.5-0.5-0.7-0.7c-0.1-0.1-0.2-0.2-0.3-0.3c0.5-0.6,0.5-1.4,0.1-2c-1-1.7-2.6-2.9-4.5-3.4c-1.4-0.5-3-0.5-4.4-0.1
		c-0.8,0.3-1.6,0.7-2.3,1.1c-1.5,0.6-2.9,1.4-4,2.4c-0.3,0.2-0.4,0.6-0.4,1c0.1,0.3,0.2,0.5,0.4,0.7c0.3,0.6,0.3,1.2,0,1.8
		c-0.2,0.6-0.5,1.1-0.7,1.7c-0.2,0.6-0.1,1.2,0.4,1.7c0.2,0.2,0.4,0.3,0.7,0.5c0.2,0.2,0.5,0.4,0.6,0.7c0.4,0.6,0.8,1.1,1.3,1.7
		c0.6,0.8,1.1,1.6,1.6,2.4c0.3,0.6,0.6,1.3,1,1.8c0.1,0.2,0.3,0.3,0.4,0.4l-0.1,0c0.4,0.4,0.9,0.6,1.4,0.6h0.1c0.1,0,0.2,0,0.3-0.1
		v0.2c0,0.8,0,1.7,0,2.5l-0.1,0c-0.3-0.1-0.7-0.1-0.9,0.1l-9.8,7.9c-1.5,2.4-2.1,5.2-1.8,8l-1.7,7.5c0,0-2.1,6.4-0.5,11
		c1.7,4.6,2.6,7.2,2.6,7.2s0.7,5.2,1.7,5.6c1,0.4,1.4,0.7,1.4,0.7l0.2,1.2l0,0c0,0,0.1,0.1,0.2,0.3c0.7,1.3,3.4,5.7,5,5.2
		c0.2,1.2,0.3,2.4,0.3,3.6l1.5,10.3c0.5,1.4,0.9,2.8,1,4.3c0.1,1.3,0.6,2.5,1.3,3.6c-0.8,1.5-1,3.2-0.7,4.8
		c0.6,2.8,1.4,15.4,1.4,15.4l1.1,3.1l0,3.6c-0.1,0.6-0.3,1.1-0.7,1.6c-0.7,0.8-0.7,1.7-2.5,2.8c-1.8,1.1-2.9,1.5-2.9,3
		c0,0.2,0,0.4-0.1,0.6c-0.2,1.1-0.5,1.7,2.8,2c2.4,0.2,4.7-0.6,6.4-2.2c0,0,0.6-1,3.2-1.4c0,0,0.9,0,1-0.9c0-0.3,0-0.8,0-1.4
		c0-0.8-0.1-1.7-0.3-2.5c-0.3-0.5-0.5-1-0.6-1.6h0.7c0.4-2.8,0.4-5.7,0-8.6c-0.4-1.9-0.4-3.9-0.1-5.8l-0.1-8.9
		c-0.6-0.8-0.7-1.8-0.2-2.7c0.7-1.7,0-10.3,0-10.3s0.3-3.1,1-3.8c0.8-0.7,0-4.5,0-4.7l1.4,4.5c0,0,0.6,9,1.9,10.7l0.4,4.1
		c0,0,2.6,3.8,2.1,5.8c-0.5,2,0.5,9.4,0.5,9.4v7.5c0,0-1.2,3,0.5,4.1l0.7,0c-0.2,0.2-0.4,0.5-0.7,0.8c-0.4,0.8-0.6,1.7-0.6,2.6
		c-0.1,0.9-0.1,1.6-0.1,1.6c0.5,0.7,1.2,1.1,2,1.2c1.3,0.1,5.6,3.3,5.6,3.3c1.8,0,3.5-0.1,5.3-0.2l0.1,0c0.4-0.1,0.6-0.4,0.8-0.7
		c0.2-0.4,0.3-0.8,0.2-1.2c-0.3-0.9-0.9-1.6-1.8-2c-2.8-1.5-3.2-2.9-3.2-2.9l-1.9-2.8h0.3c0-2.2,0.7-4.4,1.9-6.2l-0.1-14.5
		c0,0,0.8-5-0.6-7.7c0,0-0.1-2.9,0.8-3.8s-1.3-9.8-1.3-9.8s-0.5-4.8-1-9.2l0,0c2.2,2.1,4.5-5.5,4.9-6.9h0.1l0-0.1c0-0.1,0-0.1,0-0.1
		l0,0c0,0-0.5-1.8-0.1-1.4c0.4,0.4,1.3-1,1.3-1s-0.1-7.3,1.4-11C-2933,475.8-2935.2,466.9-2935.2,466.9z M-2941.8,471.5
		L-2941.8,471.5c0.2,4.4,0,13.9,0,13.9s-0.3,1.2-0.6,2.7l-0.2-9l0,0l-0.2-8.5L-2941.8,471.5z M-2970.3,468.4c0,0,1.1,14.1,0,16.1
		c-0.4,0.9-0.7,1.8-0.8,2.8c-0.4-1-1.2-3.3-0.9-4.5c0.4-1.6-0.7-5.7-0.7-5.8c0-1.4,0.2-2.7,0.7-4c0.8-1.7,0.3-2.4,0.3-2.4
		S-2971.1,467.9-2970.3,468.4L-2970.3,468.4z"/>
	<path id="Path_783" class="st3" d="M-2967.6,500.1c-1,4.3-4.9-2.2-5.8-3.8c-0.1-0.2-0.2-0.3-0.2-0.3l0.4-2l2.2-0.9
		c0.4,0.2,0.7,0.4,1,0.7C-2967.9,495.2-2967,497.7-2967.6,500.1z"/>
	<path id="Path_784" class="st3" d="M-2937.4,493.1C-2937.4,493.1-2937.4,493.1-2937.4,493.1c0,0.1,0,0.2-0.1,0.2
		c-0.4,1.3-2.7,8.9-4.8,6.8c-2.4-2.3-1.2-7.6-1.2-7.6h0l5-0.5L-2937.4,493.1L-2937.4,493.1L-2937.4,493.1z"/>
	<path id="Path_785" class="st4" d="M-2940.3,530.3l0.1,14.4c-1.2,1.9-1.8,4-1.8,6.2l-6.5,0.3c-1.6-1.1-0.5-4.1-0.5-4.1v-7.4
		c0,0-1-7.3-0.5-9.3s-2-5.7-2-5.7l-0.4-4.1c-1.2-1.6-1.8-10.6-1.8-10.6l-1.3-4.5c0,0.2,0.7,4,0,4.7c-0.7,0.7-1,3.8-1,3.8
		s0.7,8.5,0,10.2c-0.5,0.9-0.4,1.9,0.2,2.7l0.1,8.8c-0.4,1.9-0.4,3.8,0.1,5.7c0.4,2.8,0.4,5.7,0,8.5h-7l0-3.6l-1.1-3.1
		c0,0-0.8-12.6-1.4-15.3c-0.4-1.6-0.1-3.3,0.6-4.8c-0.7-1.1-1.1-2.3-1.2-3.5c-0.1-1.5-0.5-2.9-1-4.2l-1.5-10.3c0-2-0.2-3.9-0.7-5.8
		c-0.9-2.9-2.2-6.8-2.2-6.8l1.5,0.1l7.4,0.7c0,0,18-1.2,18.8-0.2c0.2,0.3,0.3,0.7,0.3,1c0.8,3.6,1.9,15,1.9,15s2.2,8.9,1.2,9.7
		s-0.8,3.7-0.8,3.7C-2939.5,525.3-2940.3,530.3-2940.3,530.3z"/>
	<path id="Path_786" class="st5" d="M-2955.5,555.4c-0.1,0.8-0.9,0.9-0.9,0.9c-2.6,0.4-3.2,1.4-3.2,1.4c-1.7,1.6-4,2.3-6.3,2.1
		c-3.2-0.3-2.9-0.9-2.8-2c0-0.2,0.1-0.4,0.1-0.6c0-1.5,1.1-1.9,2.9-3c1.7-1.1,1.7-2,2.4-2.8c0.5-0.7,0.8-1.5,0.8-2.4
		c0.8-1.4,2.9,0.2,2.9,0.2c0.1,0.5,3.2,0.4,3.2,0.4c0.1,0.6,0.3,1.2,0.6,1.8c0.2,0.8,0.3,1.6,0.3,2.5
		C-2955.5,554.6-2955.5,555.1-2955.5,555.4z"/>
	<path id="Path_787" class="st6" d="M-2955.5,555.4c-0.1,0.8-0.9,0.9-0.9,0.9c-2.6,0.4-3.2,1.4-3.2,1.4c-1.7,1.6-4,2.3-6.3,2.1
		c-3.2-0.3-2.9-0.9-2.8-2c1.4,0.4,4.2,0.9,5.8,0c2.2-1.2,3.8-2.1,3.8-2.1l3.5-1.8C-2955.5,554.6-2955.5,555.1-2955.5,555.4z"/>
	<path id="Path_788" class="st5" d="M-2935.7,559.7c-0.2,0.3-0.5,0.6-0.8,0.7l-0.1,0c-1.7,0.2-3.5,0.2-5.2,0.2c0,0-4.2-3.2-5.5-3.3
		c-0.8-0.1-1.5-0.5-1.9-1.2c0,0,0-0.8,0.1-1.6c0-0.9,0.2-1.8,0.6-2.6c0.6-0.6,0.7-1.4,1.9-0.9c0,0,1.8-3.2,3.9-0.7l2.2,3.3
		c0,0,0.4,1.4,3.2,2.9c0.8,0.4,1.5,1.1,1.7,1.9C-2935.4,558.9-2935.4,559.4-2935.7,559.7z"/>
	<path id="Path_789" class="st6" d="M-2935.7,559.7c-0.2,0.2-0.5,0.4-0.8,0.7l-0.1,0c-1.7,0.2-3.5,0.2-5.2,0.2c0,0-4.2-3.2-5.5-3.3
		c-0.8-0.1-1.5-0.5-1.9-1.2c0,0,0-0.8,0.1-1.6c1.3,0.4,3.2,1.1,3.8,1.8c1,1,2,1.9,3.2,2.7c0,0,4.5-0.4,6.6-0.5
		C-2935.4,558.9-2935.4,559.4-2935.7,559.7z"/>
	<path id="Path_790" class="st3" d="M-2953.4,446.5l-6,6.3c0,0-7.3-0.5-6-2.7c0.6-1.1,0.7-3.4,0.7-5.4c-0.1-1.9-0.3-3.5-0.3-3.5
		s10.2-5.1,9.4-0.3c-0.2,0.9-0.2,1.8,0,2.7C-2955.4,444.9-2954.6,446-2953.4,446.5z"/>
	<path id="Path_791" class="st6" d="M-2955.5,440.9c-0.2,0.9-0.2,1.8,0,2.7c-1.4,1.4-3.3,2.2-5.3,2.2c-1.4,0-2.9-1.1-4-1.8
		c-0.1-1.9-0.1-2.8-0.1-2.8S-2954.7,436.2-2955.5,440.9z"/>
	<path id="Path_792" class="st3" d="M-2953.4,437.9c0,4.1-3.4,7.5-7.5,7.5c-4.1,0-7.5-3.4-7.5-7.5c0-4.1,3.4-7.5,7.5-7.5
		c1.7,0,3.3,0.6,4.7,1.6C-2954.4,433.5-2953.4,435.6-2953.4,437.9z"/>
	<path id="Path_793" class="st6" d="M-2943.2,494.2c-1.9,4.4-13.9,4.5-13.9,4.5v-4.8l-0.7,0c0.3,1.4-0.4,4.8-0.4,4.8
		c-9.5,1.3-11.8-4.1-11.8-4.1l0.3-1.9l7.4,0.7c0,0,18-1.2,18.8-0.2C-2943.3,493.5-2943.2,493.8-2943.2,494.2z"/>
	<path id="Path_794" class="st7" d="M-2957,498.1v-4.8l-0.7,0c0.3,1.4-0.4,4.8-0.4,4.8c-7.1,1-10.2-1.8-11.3-3.3
		c-0.2-0.3-0.4-0.5-0.5-0.8l2.9-16.3l0.7-24l1-4.2l0.2-2v0h0l0.7,0.3l4.4,1.9l5-3.8l0.1-0.1l0.3-0.2l0.4,0.3l1,0.8l3.3,21.4
		c0,0,5.7,16.5,6.8,23.1c0,0.3,0.1,0.5,0.1,0.7C-2942.2,498-2957,498.1-2957,498.1z"/>
	<circle id="Ellipse_162" class="st8" cx="-2959.4" cy="450.1" r="0.4"/>
	<circle id="Ellipse_163" class="st8" cx="-2959.2" cy="454" r="0.4"/>
	<circle id="Ellipse_164" class="st8" cx="-2958.8" cy="460.3" r="0.4"/>
	<circle id="Ellipse_165" class="st8" cx="-2958.1" cy="467.1" r="0.4"/>
	<circle id="Ellipse_166" class="st8" cx="-2957.7" cy="473.4" r="0.4"/>
	<circle id="Ellipse_167" class="st8" cx="-2957.2" cy="480.2" r="0.4"/>
	<circle id="Ellipse_168" class="st8" cx="-2957.4" cy="487" r="0.4"/>
	<path id="Path_795" class="st6" d="M-2964.8,480c0,0-0.5,6.2-1.4,8.1c-0.9,1.8-1.3,6.9-1.3,6.9l-2-0.2c-0.2-0.3-0.4-0.5-0.5-0.8
		l2.9-16.3l0.7-24l1-4.2l0.2-2l0,0c0.2-0.1,0.5-0.1,0.7,0l0.1,0c0,0.1-0.1,0.2-0.1,0.3c-0.6,2.3-0.9,4.7-1.1,7.1
		c0,0,1.1,8.4,1.3,12.3S-2964.8,480-2964.8,480z"/>
	<path id="Path_796" class="st6" d="M-2946.9,505.5c0,0.1,0,0.1-0.1,0.2c-0.9,1.1-2.1,2-3.4,2.4c-0.1-0.2-0.2-0.3-0.2-0.3l0.4-2
		l2.2-0.9C-2947.6,505-2947.2,505.2-2946.9,505.5z"/>
	<path id="Path_797" class="st8" d="M-2975.3,461.9l-1.9,1.1l-1.7,7.5c0,0-2.1,6.4-0.5,10.9c1.6,4.5,2.6,7.1,2.6,7.1
		s0.6,5.2,1.6,5.6c1,0.4,1.4,0.6,1.4,0.6l0.2,1.2c0,0,2.6-0.9,3.6-2.5c0.9-1.6-0.7-5.5-0.7-5.5s-1.4-3.3-1-4.9
		c0.4-1.6-0.7-5.6-0.7-5.7c0-1.3,0.2-2.7,0.7-3.9c0.8-1.7,0.3-2.4,0.3-2.4l-0.5-4.8L-2975.3,461.9z"/>
	<path id="Path_798" class="st6" d="M-2943,492.8c0,0-4.9,1.8-6.5,0.2c-1.6-1.6-1.4-9.2-1.4-9.2s-1.5-14-2.4-16.3
		c-0.9-2.3-0.5-18.9-0.5-18.9c-0.3-1-0.7-1.9-1.2-2.7c0,0-0.1-0.1-0.1-0.1l0.2,0l0.7,0.1l1,0.8l3.3,21.4c0,0,5.7,16.5,6.8,23.1
		L-2943,492.8z"/>
	<path id="Path_799" class="st6" d="M-2937.4,493.3L-2937.4,493.3c-0.7,0.1-6.1,0.7-6.1-0.4c0-0.1,0-0.3,0-0.4l5-0.5l1,1l0,0
		c0,0.1,0,0.1,0,0.2L-2937.4,493.3z"/>
	<path id="Path_800" class="st8" d="M-2942.6,454.4l3.6,1.9c0,0,3,7.7,3.5,11c0,0,2.2,8.9,0.7,12.5c-1.5,3.6-1.4,10.9-1.4,10.9
		s-0.9,1.3-1.2,1c-0.4-0.4,0.1,1.4,0.1,1.4s-6.1,0.8-6.1-0.4c0.3-2.3,0.8-4.7,1.4-6.9c0,0,0.4-13.7-0.2-15.8
		C-2942.8,467.8-2942.6,454.4-2942.6,454.4z"/>
	<path id="Path_801" class="st6" d="M-2953.3,469c0,0-2,4.9-2.7,5.3s0.1,1.6,0.1,1.6S-2952.1,470.7-2953.3,469z"/>
	<path id="Path_802" class="st6" d="M-2954.5,451.7c0-0.1-2.4,2.4-3.1,2.8C-2958.2,454.8-2955.1,454.4-2954.5,451.7z"/>
	<path id="Path_803" class="st6" d="M-2961.2,468.6c0,0-3.7,2.4-3.2,3.3C-2963.9,472.9-2961.2,468.6-2961.2,468.6z"/>
	<path id="Path_804" class="st6" d="M-2954.5,503.5c2.5,1.4,5.2,2.3,8,2.5L-2954.5,503.5z"/>
	<path id="Path_805" class="st6" d="M-2962,508.4c0,0,2.9,3.7,4.3,3.8C-2956.5,512.2-2962,508.4-2962,508.4z"/>
	<path id="Path_806" class="st6" d="M-2958,522.7c-0.1,0.1-1.7,3.3-3.2,3.4C-2962.7,526.2-2958,522.7-2958,522.7z"/>
	<path id="Path_807" class="st6" d="M-2944.4,529.8c0,0,2.9-0.6,3.5,1.4C-2940.9,531.3-2941.1,530.6-2944.4,529.8z"/>
	<path id="Path_808" class="st6" d="M-2946.4,541.7c0,0,3.5-0.7,4.3,0.3S-2946.4,541.7-2946.4,541.7z"/>
	<path id="Path_809" class="st6" d="M-2956.3,543.4c0,0-3.6,0.7-3.4,1.2c0.1,0.5,3.8,0.4,3.9-0.3
		C-2955.7,543.9-2955.9,543.5-2956.3,543.4C-2956.3,543.4-2956.3,543.4-2956.3,543.4L-2956.3,543.4z"/>
	<path id="Path_810" class="st6" d="M-2947.5,546.5c0,0,5.9-0.7,5.5,0.5C-2942.4,548.2-2947.5,546.5-2947.5,546.5z"/>
	<path id="Path_811" class="st6" d="M-2955.3,485.9c0,0.1,3.9,0.6,4.4,1.9C-2952.3,487.1-2953.8,486.5-2955.3,485.9"/>
	<path id="Path_812" class="st6" d="M-2949.9,495.9c0,0-3.2,1-3,2.5S-2953.2,497.8-2949.9,495.9z"/>
	<path id="Path_813" class="st6" d="M-2951.4,503.7c0,0,1.2-1.6,2.3-1.3C-2948,502.7-2951.4,503.7-2951.4,503.7z"/>
	<path id="Path_814" class="st6" d="M-2956.2,432.1c-0.1,0.1-0.2,0.2-0.4,0.3c-0.8,0.6-1.3,1.4-1.6,2.3c-0.3,0.9-0.9,1.7-1.7,2.3
		c-1.1,0.6-2.4,0.4-3.5,1c-1,0.5-1.6,1.6-1.5,2.7c0.1,0.4,0.2,0.8,0.3,1.2c0.2,0.9,0.4,1.8,0.3,2.7c0,0,0,0.1,0,0.1
		c-3.7-1.9-5.2-6.4-3.4-10.1c1.9-3.7,6.4-5.2,10.1-3.4C-2957,431.4-2956.6,431.7-2956.2,432.1L-2956.2,432.1z"/>
	<path id="Path_815" class="st9" d="M-2956.4,429.8c-0.9-1.7-2.6-2.9-4.5-3.4c-1.4-0.5-2.9-0.5-4.3-0.1c-0.8,0.3-1.5,0.6-2.3,1.1
		c-1.5,0.6-2.8,1.4-4,2.4c-0.3,0.2-0.4,0.6-0.4,1c0.1,0.3,0.2,0.5,0.4,0.7c0.3,0.6,0.3,1.2,0,1.8c-0.2,0.6-0.5,1.1-0.6,1.7
		c-0.2,0.6-0.1,1.2,0.3,1.7c0.2,0.2,0.4,0.3,0.7,0.5c0.2,0.2,0.4,0.4,0.6,0.7l1.2,1.7c0.6,0.8,1.1,1.5,1.6,2.4
		c0.3,0.6,0.6,1.2,1,1.8c0.4,0.6,1,0.9,1.7,0.9c0.1,0,0.2,0,0.3-0.1c0-0.1,0-0.1,0-0.2c0-0.9-0.1-1.8-0.3-2.7
		c-0.1-0.4-0.2-0.8-0.3-1.2c-0.1-1.1,0.5-2.2,1.5-2.7c1.1-0.6,2.5-0.3,3.5-1c0.8-0.6,1.4-1.4,1.7-2.3c0.3-0.9,0.8-1.7,1.6-2.3
		c0.8-0.4,1.1-1.4,0.7-2.2C-2956.3,429.9-2956.3,429.8-2956.4,429.8z"/>
	<path id="Path_816" class="st6" d="M-2959.7,552.3c0,0,1.1,1.5,0.8,2.3C-2959.2,555.5-2959.7,552.3-2959.7,552.3z"/>
	<path id="Path_817" class="st6" d="M-2944.2,556c0,0,0.3-2,1.3-2c0.6-0.1,1.3,0,1.9,0.2c0.8,0.3,1.5,0.8,1.3,0.8s-1.3-1.1-2.5-0.5
		C-2943,554.9-2943.6,555.4-2944.2,556L-2944.2,556z"/>
	<path id="Path_818" class="st6" d="M-2963.1,452.1l3.2-2.3c0,0-4.7-2.8-5.3-2.4c-0.6,0.4-0.9,3.9-0.9,3.9L-2963.1,452.1z"/>
	<path id="Path_819" class="st10" d="M-2963.2,451.9l3.2-2.3c0,0-4.7-2.8-5.3-2.4c-0.6,0.4-0.9,4.1-0.9,4.1L-2963.2,451.9z"/>
	<path id="Path_820" class="st7" d="M-2963.2,451.9l3.2-2.3c0,0-4.7-2.8-5.3-2.4c-0.6,0.4-0.9,4.1-0.9,4.1L-2963.2,451.9z"/>
	<path id="Path_821" class="st8" d="M-2964.7,447.3L-2964.7,447.3c-0.4-0.2-0.7-0.2-1,0l-9.6,7.8c-1.4,2.4-2.1,5.1-1.8,7.9l5.7,8
		c0,0,0.6-2.7,1.4-2.2c0,0,1.1,14,0,16c-1.1,2-1.6,9.5-1.6,9.5l3.7,0.4c0,0,0.4-5.1,1.3-6.9c0.9-1.8,1.4-8.1,1.4-8.1s0.8-9.1,0.7-13
		s-1.3-12.3-1.3-12.3C-2965.7,452.1-2965.3,449.7-2964.7,447.3z"/>
	<path id="Path_822" class="st6" d="M-2955.1,450.6l-4-1.5c0,0,5.1-5.6,5.7-2.5L-2955.1,450.6z"/>
	<path id="Path_823" class="st10" d="M-2955.1,450.4l-4-1.5c0,0,5.1-5.6,5.7-2.5L-2955.1,450.4z"/>
	<path id="Path_824" class="st7" d="M-2955.1,450.4l-4-1.5c0,0,5.1-5.6,5.7-2.5L-2955.1,450.4z"/>
	<path id="Path_825" class="st6" d="M-2955.2,445.7c0.1,0,0.1,0,0.2,0L-2955.2,445.7z"/>
	<path id="Path_826" class="st8" d="M-2954.8,445.3l10.6,2.3c0,0,2.9,0.6,5,8c2.1,7.3-2.9,16.3-2.9,16.3l-1.1-0.9l0.6,21.4
		c0,0-4.9,1.8-6.5,0.2c-1.6-1.6-1.4-9.2-1.4-9.2s-1.5-14-2.4-16.3c-0.9-2.3-0.5-18.9-0.5-18.9S-2954.2,445.2-2954.8,445.3z"/>
	<path id="Path_827" class="st6" d="M-2945.1,459c-0.3,3.9-0.1,7.7,0.3,11.6c0.4,3,1,6,1.8,8.9l-1-19.8
		C-2943.9,459.6-2944.7,458.5-2945.1,459z"/>
	<path id="Path_828" class="st6" d="M-2946.4,453.4c0.3,0.2,1.4,2.9,0.9,4C-2946.1,458.4-2946.4,453.4-2946.4,453.4z"/>
	<path id="Path_829" class="st6" d="M-2956.4,429.8c-0.5-1-1.3-1.9-2.3-2.4c0.7,0.5,1.3,1.2,1.8,2.1c0.5,0.7,0.3,1.8-0.4,2.3
		c0,0-0.1,0.1-0.1,0.1c-0.8,0.6-1.3,1.4-1.6,2.3c-0.3,0.9-0.9,1.7-1.7,2.3c-1.1,0.6-2.4,0.4-3.5,1c-1,0.5-1.6,1.6-1.5,2.7
		c0.1,0.4,0.2,0.8,0.3,1.2c0.2,0.9,0.4,1.8,0.3,2.7c0,0.1,0,0.1,0,0.2c-0.1,0.1-0.2,0.1-0.3,0.1c-0.3,0-0.6,0-0.8-0.1
		c0.4,0.4,0.9,0.6,1.4,0.5c0.1,0,0.3-0.1,0.3-0.2c0,0,0-0.1,0-0.1c0-0.9-0.1-1.8-0.3-2.7c-0.1-0.4-0.2-0.8-0.3-1.2
		c-0.1-1.1,0.5-2.2,1.5-2.7c1.1-0.6,2.5-0.3,3.5-1c0.8-0.6,1.4-1.4,1.7-2.3c0.3-0.9,0.8-1.7,1.6-2.3c0.8-0.4,1.1-1.4,0.7-2.2
		C-2956.4,429.9-2956.4,429.8-2956.4,429.8z"/>
	
		<linearGradient id="Path_830_1_" gradientUnits="userSpaceOnUse" x1="-3293.4641" y1="803.4666" x2="-3293.4641" y2="804.4866" gradientTransform="matrix(43.8508 0 0 -137.3182 141507.7031 110903.3047)">
		<stop  offset="0" style="stop-color:#808080;stop-opacity:0.251"/>
		<stop  offset="0.54" style="stop-color:#808080;stop-opacity:0.122"/>
		<stop  offset="1" style="stop-color:#808080;stop-opacity:0.102"/>
	</linearGradient>
	<path id="Path_830" class="st11" d="M-2891.1,458.6c-3.2-0.1-5.9-2.3-7.5-5c-0.4-0.6-0.7-1.4-0.8-2.1c0-0.2,0-0.3,0.1-0.5
		c0.1-0.3,0.2-0.5,0.2-0.8c0-0.1,0-0.2,0-0.3v0c0-0.6-0.2-1.2-0.7-1.5c-0.4-0.4-1-0.7-1.4-1.1c-1.3-1.3-1.9-3.1-1.8-4.9v-0.1
		c0-0.8,0.1-1.6,0.1-2.3c0-0.4,0-0.9-0.1-1.3c-0.1-1.1-0.6-2.2-1.4-2.9c-2.3-1.8-6.1,0.1-8.4-1.7c-0.6-0.4-1-1.1-1.7-1.2
		c-0.5-0.1-1.1,0-1.6,0.2c-1.7,0.6-3.6,1.3-4.3,3c-0.4,1-0.3,2-0.6,3c-0.3,0.6-0.6,1.2-1,1.8c-0.3,0.5-0.4,1-0.4,1.5
		c0,0.3,0,0.6,0.1,0.8c0.1,0.3,0.3,0.6,0.6,0.8c-0.1,0.2-0.2,0.4-0.3,0.5c-0.4,0.5-1.1,0.9-1.6,1.5c-0.8,1-0.9,2.3-0.4,3.5
		c0.4,1.2,1.2,2.2,1.7,3.3c0.3,0.5,0.3,1,0.2,1.5c-0.2,0.3-0.5,0.6-0.8,0.9c-0.4,0.4-0.6,1-0.7,1.5c-5.2,1.2-5.2,5.3-5.2,5.3l0,0
		l-2.8,7c0,0-0.4,1.2-1,2.7l-3.3-0.6l2.3,3.8c-0.4,1.2-0.6,2.5-0.6,3.7c0,0-1,4.8,0.8,5.7l4,1.8c0.2,0.1,0.4,0.2,0.6,0.2l0.2,0.1
		c0.1,0.1,0.3,0.1,0.4,0h0.1c0.1,0,0.2,0,0.2,0c0.1,0,0.2-0.1,0.2-0.2c0,0,0,0,0,0l1.2-0.3l1,1.2c0.5,0.3,0.9,0.6,1.4,0.9l-1.6,15.7
		c0,0-0.3,20.9-1,25.6c-0.2,1.2-0.3,2.5-0.2,3.8l0,0c0.2,1.3,0.7,1.6,0.7,1.6v0c0,0,0,0,0,0c0.2-0.6,0.5-1.2,0.8-1.8v0.3
		c0,1.8-0.1,4.2-0.3,5.9c-0.3,2.8,0.8,11.8,0.8,11.8l0.4,8.3c0.1,1.4-0.3,2.8-0.9,4c-1,1.6-1.7,3.2-2.2,5c0,0.1,0,0.1,0,0.2l0,0
		l-2,2.4c0,0-0.8,1.2,1,1.7c1.3,0.2,2.6,0.1,3.8-0.3c1.2-0.3,2-1.3,2-2.5c0.3-1.1,0.9-2.2,1.6-3.1l0.3,1.9l2.2,0.5l0.3-5.2
		c0.1-0.3,0.2-0.6,0.1-0.9l0,0c0.4-3.7-1-3.4-1-3.4c0,0,0.1,0.1,0.1,0.1l-0.1-0.1l0,0c-0.5-1.5-0.7-3-0.5-4.6c0,0,1.1-8.3,1.5-10.4
		c0.2-3.1,0.2-6.3,0.1-9.4c0-0.1,0-0.2,0-0.3c3.4,0,7.5-0.2,10.4-0.4v0.3l-0.5,19.5c0,1.2-0.3,2.5-0.7,3.6c0,0,0,0,0,0.1
		c-0.6,1.6-1,3.4-1.1,5.1l-0.2,6.2v0.2l0,0c-0.4,0.2-1.1,0.6-1.1,2c0,2,3.6,1.4,3.6,1.4c3.6,0,3.6-3.7,3.6-3.7s0.1-3.4,0.3-5.7
		c0.2-2.3-0.5-1.8-0.5-1.8l-0.1,6.5v-5.7l0.1-0.8v0l0,0v-0.2l0.5-6.7c0,0,3.3-11.2,3.8-13.4c0.4-1.5,0.2-6.1,0.1-8.7
		c0-0.1,0-0.2,0-0.3c1-0.1,1.9-0.1,2.3-0.1h0.2c0,0-0.2-18-0.6-24.8c-0.4-6.8-1.1-13-2.8-14.9c-1-1.1-2.5-4.6-3.4-7.2
		c2,0.9,4.2,1.6,6.3,2.1c5.4,1.1,4.7-3.6,4.7-3.6l-0.5-8.9h0c0-2.3-0.2-4.6-0.6-6.9c-0.2-1.7-0.7-3.4-1.4-5c0.6-0.2,1.2-0.5,1.7-0.7
		c1.5-0.6,3.1-1.6,3.3-3.2h-0.1C-2891.1,458.8-2891.1,458.7-2891.1,458.6L-2891.1,458.6z M-2924.6,471.4L-2924.6,471.4
		c0,0.9,0,2.5-0.1,4.3l-1.7-2.3l1.7-2.8L-2924.6,471.4z M-2900.9,479.6l-2.9-0.9c0.5-0.8,1.1-1.5,1.8-2.2l0.2-0.2l-0.1,0l0.1-0.1
		l0.1,0l-0.1,0.1l0.2,0c0.2,0.7,0.5,1.4,1,2C-2899.6,479.3-2900.9,479.6-2900.9,479.6L-2900.9,479.6z"/>
	<path id="Path_831" class="st12" d="M-2918.3,562.1l-0.3,6.3l-2.1-0.5l-0.4-2.6L-2918.3,562.1z"/>
	<path id="Path_832" class="st6" d="M-2918.3,562.1l-0.3,6.3l-2.1-0.5l-0.4-2.6L-2918.3,562.1z"/>
	<path id="Path_833" class="st13" d="M-2910.4,569.3l3.3,0.7l2.4-2.1v-6l0.1-0.8v0l0,0v-0.2l0.4-6.7c0,0,3.3-11.1,3.8-13.3
		c0.4-1.5,0.2-6.1,0.1-8.6c0-1-0.1-1.7-0.1-1.7l-7.2-1.7l-0.2,5.5l-0.5,19.4c0,1.2-0.3,2.5-0.7,3.6l0,0.1c-0.6,1.6-1,3.3-1,5.1
		l-0.2,6.2v0.2L-2910.4,569.3z"/>
	<path id="Path_834" class="st6" d="M-2904.7,560.8v0.2l0,0V560.8L-2904.7,560.8z"/>
	<path id="Path_835" class="st6" d="M-2910.4,569.3l3.3,0.7l2.4-2.1v-0.5c0,0.2-0.1,0.4-0.3,0.6l0,0c-1.1,0.6-2.4,0.8-3.7,0.7
		l-1.3-0.1c-0.1,0-0.2,0-0.3,0.1v0.2L-2910.4,569.3z"/>
	<path id="Path_836" class="st5" d="M-2905.2,568.1L-2905.2,568.1c0.3-0.1,0.4-0.4,0.4-0.6l0.1-6.5c0,0,0.7-0.5,0.5,1.8
		c-0.2,2.3-0.3,5.7-0.3,5.7s0,3.7-3.6,3.7c0,0-3.5,0.7-3.5-1.3s1.5-2.1,1.5-2.1l1.3,0.1C-2907.6,568.9-2906.3,568.7-2905.2,568.1z"
		/>
	<path id="Path_837" class="st13" d="M-2927.4,568c0.1,1.5,4.4,0.6,4.4,0.6l2.9-5.6c0,0,2.4-1.9,1.2-3.5c-0.1-0.1-0.1-0.2-0.2-0.3
		l0,0l0,0c0,0,0-0.1-0.1-0.1l0,0c-0.5-1.5-0.7-3-0.4-4.5c0,0,1.1-8.2,1.5-10.4c0.2-3.1,0.2-6.2,0.1-9.3c0-1.2-0.1-1.9-0.1-1.9
		l-7.1-1.9v2.1c0,1.8-0.1,4.2-0.3,5.8c-0.3,2.7,0.8,11.7,0.8,11.7l0.4,8.2c0.1,1.4-0.3,2.8-0.9,4c-0.9,1.5-1.7,3.2-2.1,5
		C-2927.4,567.8-2927.4,567.9-2927.4,568L-2927.4,568z"/>
	<path id="Path_838" class="st6" d="M-2927.4,568c0.1,1.5,4.4,0.6,4.4,0.6l2.9-5.6c0,0,2.4-1.9,1.2-3.5c-0.1-0.1-0.1-0.2-0.2-0.3
		c-0.2,1-0.5,2-1,3c0,0-2.4,4.8-3.1,5.9c-0.8,1.1-4.1-0.2-4.2-0.2C-2927.4,567.8-2927.4,567.9-2927.4,568z"/>
	<path id="Path_839" class="st5" d="M-2919.2,559c0,0,1.4-0.3,1,3.4l0,0c0,0.9-0.4,1.7-1.1,2.1c-1.7,1.1-2.9,2.7-3.4,4.7l0,0
		c0,1.2-0.8,2.2-2,2.5c-1.2,0.4-2.5,0.5-3.8,0.3c-1.7-0.5-1-1.7-1-1.7l2-2.3c0,0,3.4,1.3,4.2,0.3s3.2-5.9,3.2-5.9
		S-2918.8,559.4-2919.2,559z"/>
	<path id="Path_840" class="st6" d="M-2907.7,529.5l-0.2,5.5c1.9-0.2,3.3-0.4,3.5-0.8c0.5-0.8,2.3-1.1,3.9-1.2c0-1-0.1-1.7-0.1-1.7
		L-2907.7,529.5z"/>
	<path id="Path_841" class="st6" d="M-2925.3,533.7c0.2-0.4,0.5-0.7,0.8-0.9c0.8-0.4,0.7,2.7,0.7,2.7s2.5,0,5.7,0
		c0-1.2-0.1-1.9-0.1-1.9l-7.1-1.9C-2925.3,531.6-2925.2,532.5-2925.3,533.7z"/>
	<path id="Path_842" class="st4" d="M-2926.1,534.5c0,0,0.8-2.3,1.6-2.7c0.8-0.4,0.7,2.7,0.7,2.7s18.5,0.2,19.5-1.3
		c0.9-1.4,6.3-1.3,6.3-1.3s-0.2-17.9-0.6-24.6s-1.1-12.9-2.8-14.7c-1.1-1.2-2.6-5.1-3.6-7.7c-0.5-1.4-0.9-2.4-0.9-2.4l-17.7,1
		l-0.1,1.4l-1.9,18.8c0,0-0.3,20.7-1,25.4C-2927.3,533.8-2926.1,534.5-2926.1,534.5z"/>
	<path id="Path_843" class="st14" d="M-2905.8,533.2c0.9-1.4,6.3-1.3,6.3-1.3s-0.2-17.9-0.6-24.6c-0.4-6.7-1.1-12.9-2.8-14.7
		c-1.1-1.2-2.6-5.1-3.6-7.7c-0.4-1.2-0.8-2.1-0.8-2.4l1.4-0.1c0,0,0.3,1,0.9,2.4c1,2.6,2.5,6.5,3.6,7.7c1.7,1.9,2.4,8,2.8,14.7
		c0.4,6.7,0.6,24.6,0.6,24.6s-5.4-0.1-6.3,1.3c-0.8,1.2-14.4,1.3-18.4,1.3C-2917.7,534.5-2906.5,534.3-2905.8,533.2z"/>
	<path id="Path_844" d="M-2925.9,531.8c0.3-0.2,0.5,0.3,0.6,1c-0.3,0.6-0.6,1.1-0.8,1.7c0,0-0.5-0.3-0.7-1.6
		C-2926.6,532.4-2926.3,532.1-2925.9,531.8z"/>
	<path id="Path_845" class="st9" d="M-2920.6,439.2c-1.2,1.7,0,4-1.3,5.7c-0.4,0.5-1.1,0.9-1.6,1.4c-0.7,1-0.9,2.3-0.4,3.5
		c0.4,1.1,1.1,2.2,1.7,3.3c0.3,0.5,0.3,1,0.2,1.5c-0.2,0.3-0.5,0.6-0.8,0.9c-0.8,0.9-0.9,2.3-0.4,3.4c0.5,1.1,1.3,2.1,2.2,3
		c0.4,0.7,1.3,1,2,0.6c0,0,0.1-0.1,0.1-0.1c4-2.1,5.7-6.9,3.9-11.1c-0.7-1.7-1.9-3.3-1.9-5.1c0-1.4,0.7-2.8,0.9-4.2
		c0.2-1.7-0.9-4.5-3-5.2C-2918.8,437.8-2920,438.3-2920.6,439.2z"/>
	<path id="Path_846" class="st6" d="M-2920.6,439.2c-1.2,1.7,0,4-1.3,5.7c-0.4,0.5-1.1,0.9-1.6,1.4c-0.7,1-0.9,2.3-0.4,3.5
		c0.4,1.1,1.1,2.2,1.7,3.3c0.3,0.5,0.3,1,0.2,1.5c-0.2,0.3-0.5,0.6-0.8,0.9c-0.8,0.9-0.9,2.3-0.4,3.4c0.5,1.1,1.3,2.1,2.2,3
		c0.4,0.7,1.3,1,2,0.6c0,0,0.1-0.1,0.1-0.1c4-2.1,5.7-6.9,3.9-11.1c-0.7-1.7-1.9-3.3-1.9-5.1c0-1.4,0.7-2.8,0.9-4.2
		c0.2-1.7-0.9-4.5-3-5.2C-2918.8,437.8-2920,438.3-2920.6,439.2z"/>
	<path id="Path_847" class="st6" d="M-2907,499.9c-2.5,0.3-4.8,1.1-6.9,2.4c-2.1,1.3-4.3,2.4-6.5,3.4"/>
	<path id="Path_848" class="st6" d="M-2908.5,505.7c-2.4,0.2-4.7,1.3-6.4,3.1c-0.6,0.6-1.1,1.3-1.7,1.9c-1,0.9-2.1,1.6-3.4,1.9"/>
	<path id="Path_849" class="st6" d="M-2908,510.1c-2,0.5-3.7,1.6-5.1,3.1c-0.4,0.4-0.7,0.8-1.1,1.2c-2,2.2-4.9,3.3-7.7,4.4"/>
	<path id="Path_850" class="st13" d="M-2908.2,449.1c0.1,2,0.2,3.9,0.5,5.9c0.1,1.1,0.4,2.2,1,3.2c1.3,1.6-6.6,3.7-6.6,3.7l-4.7-3.6
		c0,0,3.7-3.4,2-6.7C-2917.7,448.2-2908.2,449.1-2908.2,449.1z"/>
	<path id="Path_851" class="st6" d="M-2923.7,484.8h18.7c-0.5-1.4-0.9-2.4-0.9-2.4l-17.7,1L-2923.7,484.8z"/>
	<path id="Path_852" class="st7" d="M-2924.9,484.5h20c-0.5-1.8-0.2-3.7,0.8-5.3c0.6-1,1.3-1.9,2.1-2.7l0.1-0.1l7-1.5l0.4-0.1
		c0,0,0.1-12.7-4.4-14.4c-2.6-1-5-2.4-7.2-4.1l-6.2,1.9l-4.6-2.3c-1.5,1.6-5.3,1-5.3,1c-6.3,0.7-6.3,5.5-6.3,5.5s3.7,8.6,4,8.6
		C-2924.3,470.9-2924.9,484.5-2924.9,484.5z"/>
	<path id="Path_853" class="st6" d="M-2918,476.4c0,0-4.1-0.9-5.5-2.5"/>
	<path id="Path_854" class="st6" d="M-2897.4,471.7l-4.7,3.9c0,0.3,0.1,0.6,0.2,0.9l0.1-0.1l7-1.5L-2897.4,471.7z"/>
	<path id="Path_855" class="st6" d="M-2910.2,483.2c0,0,1,0.6,2.6,1.3h2.7c-0.5-1.8-0.2-3.7,0.8-5.3l-4.8-1.6
		C-2907.2,479.2-2910.2,483.2-2910.2,483.2z"/>
	<path id="Path_856" class="st7" d="M-2925.7,460.8l-2.8,1.5l-2.8,7c0,0-2.9,7.6-2.6,9.7c0,0-1,4.8,0.8,5.6l4.7,2.1
		c0.2,0.1,0.5,0,0.6-0.2c0.1-0.1,0-0.3,0-0.4c-0.7-1.3-1.4-3.2-0.2-4.3l-1.3-2.8l4.9-8l1.6-2.8L-2925.7,460.8z"/>
	<path id="Path_857" class="st6" d="M-2919.5,474.8c0.2,1,1.1,2.5,3.8,3.1l3,2.4l3.2,1.4l1.3,0.6l0.5-4l-1.2-0.7l-1.5-0.8
		c0,0-3.3-5.9-8.5-3.4C-2919.4,473.8-2919.6,474.3-2919.5,474.8z"/>
	<path id="Path_858" class="st13" d="M-2919.3,474.5c0.2,1,1.1,2.5,3.8,3.1l3,2.4l3.2,1.4l1.3,0.6l0.5-4l-1.2-0.7l-1.4-0.8
		c0,0-3.3-5.9-8.5-3.4C-2919.2,473.4-2919.4,474-2919.3,474.5z"/>
	<circle id="Ellipse_169" class="st6" cx="-2913.5" cy="447" r="7.2"/>
	<circle id="Ellipse_170" class="st13" cx="-2913.5" cy="446.8" r="7.2"/>
	<path id="Path_859" class="st6" d="M-2909,462.3l-2.2-4.2c0,0,3.2-1.3,3.4-2.8c0.2-1.5,3.1,1.8,2.4,2.8
		C-2906.4,459.6-2907.7,461-2909,462.3z"/>
	<path id="Path_860" class="st7" d="M-2909,462l-2.2-4.2c0,0,3.2-1.3,3.4-2.8c0.2-1.5,3.1,1.8,2.4,2.8
		C-2906.4,459.3-2907.7,460.7-2909,462z"/>
	<path id="Path_861" class="st15" d="M-2926.8,472.9l12,16.2c0,0-4.4,2.4-10.6-1.9l-2.6-3.1l-7.5-12.7L-2926.8,472.9z"/>
	<path id="Path_862" class="st13" d="M-2929.2,481.7l1.1,0c0,0,6.7-6.5,8.3-3.2s-4.2,6.4-4.2,6.4l-1.8,1l-2.3,0.7l-1.5-2
		L-2929.2,481.7z"/>
	<path id="Path_863" class="st6" d="M-2927.6,485.2c0.1,0.4,0.2,0.8,0,1.1c0,0.1-0.1,0.2-0.2,0.2c-0.1,0-0.2,0-0.2,0
		c-0.6,0-1.1-0.3-1.5-0.7c-0.4-0.4-0.7-0.9-1-1.4c-0.4-0.5-0.5-1.1-0.5-1.7c0.2-0.6,0.7-1.2,1.3-1.4c1.1-0.7,1.1,0.1,1.4,1.1
		C-2928.1,483.3-2927.8,484.3-2927.6,485.2z"/>
	<path id="Path_864" class="st16" d="M-2927.7,485.2c0.1,0.4,0.2,0.8,0,1.1c0,0.1-0.1,0.2-0.2,0.2c-0.1,0-0.2,0-0.2,0
		c-0.6,0-1.1-0.3-1.5-0.7c-0.4-0.4-0.7-0.9-1-1.4c-0.4-0.5-0.5-1.1-0.5-1.7c0.2-0.6,0.6-1.2,1.2-1.5c1.1-0.7,1.1,0.1,1.4,1.1
		C-2928.3,483.3-2928,484.3-2927.7,485.2z"/>
	<path id="Path_865" class="st6" d="M-2924.5,470.9l0.6-0.9l-0.5,1.8L-2924.5,470.9z"/>
	<path id="Path_866" class="st6" d="M-2909.4,481.5l1.3,0.6l0.5-4l-1.2-0.7C-2907.9,478.4-2908.7,480.2-2909.4,481.5z"/>
	<path id="Path_867" class="st6" d="M-2904.2,476.9c0,0-4.2,0.3-5.9-0.9"/>
	<path id="Path_868" class="st14" d="M-2904.7,479.5c0.6-1,1.3-1.9,2.1-2.7c0.2-0.1,0.4-0.2,0.6-0.3l6.5-1.3l0.4-0.1
		c0,0,0.1-12.7-4.4-14.4c-2.5-1-4.9-2.3-7-3.9l0.5-0.2c2.2,1.7,4.6,3.1,7.2,4.1c4.5,1.7,4.4,14.4,4.4,14.4h-0.7l-6.7,1.3
		c0,0-0.3,0.3-0.4,0.4c-0.8,0.8-1.5,1.8-2.1,2.8c-0.9,1.6-1.1,3.5-0.6,5.3h-0.7C-2906,483-2905.7,481.1-2904.7,479.5z"/>
	<path id="Path_869" d="M-2922.5,457.1c0.1,0,0.2,0,0.3,0c0.5,0.1,0.9,0.1,1.4,0.1C-2921.3,457.2-2921.9,457.2-2922.5,457.1z"/>
	<path id="Path_870" d="M-2912.9,458.4l-4.1-2.1c0.1-0.1,0.2-0.1,0.2-0.2l4.3,2.2L-2912.9,458.4z"/>
	<path id="Path_871" class="st7" d="M-2897.3,471.4l2.8,3.4l0.6,9.2c0,0,0.7,4.7-4.6,3.5c-4-1-7.9-2.6-11.5-4.6c0,0,3-4,1.3-5.5
		l7.6,2.5c0,0,1.3-0.3,0.3-1.4c-0.7-0.9-1.1-2-1.2-3.1L-2897.3,471.4z"/>
	<path id="Path_872" class="st6" d="M-2896,481l1.5,1.7C-2895.3,482.5-2895.9,481.9-2896,481z"/>
	<path id="Path_873" class="st6" d="M-2898.6,480.7l2.4,3l-1.2,0.3L-2898.6,480.7z"/>
	<path id="Path_874" class="st6" d="M-2922.1,443.5c-0.2-0.7-0.1-1.4,0.3-2c0.4-0.6,0.7-1.2,1-1.8c0.3-1,0.2-2,0.6-3
		c0.7-1.7,2.6-2.4,4.3-3c0.5-0.2,1-0.3,1.6-0.2c0.7,0.2,1.1,0.8,1.7,1.2c2.3,1.7,6.1-0.2,8.3,1.6c0.8,0.8,1.3,1.8,1.4,2.9
		c0.1,1.1,0.1,2.2,0,3.3c0,1.9,0.3,4,1.8,5.3c0.4,0.4,0.9,0.7,1.4,1.1c0.5,0.4,0.7,0.9,0.7,1.5c-0.1,0.3-0.1,0.5-0.2,0.8
		c-0.2,1,0.1,2.1,0.7,3c1.6,2.7,4.3,4.9,7.4,5c-0.2,1.6-1.8,2.5-3.3,3.1c-1.8,1-3.8,1.5-5.8,1.5c-2-0.1-4.1-1.4-4.5-3.4
		c-0.1-0.7-0.1-1.5-0.7-1.9c-0.4-0.2-0.8-0.2-1.2-0.3c-0.5-0.3-0.9-0.8-1-1.4c-0.4-1.2-0.6-2.4-0.6-3.7c0-1.5,0.2-3.1-0.7-4.3
		c-0.8-1.1-2.2-1.7-3-2.7c-0.8-1-1.7-2.1-3.1-2.3C-2917.1,443.7-2921,446.2-2922.1,443.5z"/>
	<path id="Path_875" class="st9" d="M-2922.1,443.2c-0.2-0.7-0.1-1.4,0.3-2c0.4-0.6,0.7-1.2,1-1.8c0.3-1,0.2-2,0.6-3
		c0.7-1.7,2.6-2.4,4.3-3c0.5-0.2,1-0.3,1.6-0.2c0.7,0.2,1.1,0.8,1.7,1.2c2.3,1.7,6.1-0.2,8.3,1.6c0.8,0.8,1.3,1.8,1.4,2.9
		c0.1,1.1,0.1,2.2,0,3.3c0,1.9,0.3,4,1.8,5.3c0.4,0.4,0.9,0.7,1.4,1.1c0.5,0.4,0.7,0.9,0.7,1.5c-0.1,0.3-0.1,0.5-0.2,0.8
		c-0.2,1,0.1,2.1,0.7,3c1.6,2.7,4.3,4.9,7.4,5c-0.2,1.6-1.8,2.5-3.3,3.1c-1.8,1-3.8,1.5-5.8,1.5c-2-0.1-4.1-1.4-4.5-3.4
		c-0.1-0.7-0.1-1.5-0.7-1.9c-0.4-0.2-0.8-0.2-1.2-0.3c-0.5-0.3-0.9-0.8-1-1.4c-0.4-1.2-0.6-2.4-0.6-3.7c0-1.5,0.2-3.1-0.7-4.3
		c-0.8-1.1-2.2-1.7-3-2.7c-0.8-1-1.7-2.1-3.1-2.3C-2917.1,443.4-2921,445.9-2922.1,443.2z"/>
	<path id="Path_876" class="st6" d="M-2917,461.8l4.2-3.4c0,0-2.8-1.5-3.2-2.9s-2.6,0.6-2.4,1.8S-2917,461.8-2917,461.8z"/>
	<path id="Path_877" class="st7" d="M-2916.8,461.3l4.2-3.4c0,0-2.8-1.5-3.2-2.9c-0.3-1.3-2.6,0.6-2.4,1.8
		C-2918,458.1-2916.8,461.3-2916.8,461.3z"/>
	<circle id="Ellipse_171" class="st6" cx="-2912.5" cy="460.8" r="0.3"/>
	<circle id="Ellipse_172" class="st6" cx="-2912.5" cy="462.6" r="0.3"/>
	<circle id="Ellipse_173" class="st6" cx="-2912.5" cy="464.4" r="0.3"/>
	<path id="Path_878" d="M-2920.4,438.5c0.3-0.9,0.3-1.9,0.6-2.8c-0.1,0.2-0.3,0.4-0.4,0.6c-0.4,0.9-0.3,2-0.6,3l0,0.1
		C-2920.7,439.1-2920.6,438.8-2920.4,438.5L-2920.4,438.5z"/>
	<path id="Path_879" class="st14" d="M-2894.2,461.2c-1.8,1-3.8,1.5-5.8,1.5c-2-0.1-4.1-1.4-4.5-3.4c-0.1-0.7-0.1-1.5-0.7-1.9
		c-0.4-0.2-0.8-0.2-1.2-0.3c-0.5-0.3-0.9-0.8-1-1.4c-0.4-1.2-0.6-2.4-0.6-3.7c0-1.5,0.2-3.1-0.7-4.3c-0.8-1.1-2.2-1.7-3-2.7
		c-0.8-1-1.7-2.1-3.1-2.3c-1.9-0.3-5.7,2.3-6.8-0.4c-0.2-0.5-0.2-1.1,0.1-1.6c-0.1,0.1-0.2,0.3-0.2,0.4c-0.4,0.6-0.5,1.3-0.2,2
		c1.1,2.7,5,0.2,6.8,0.4c1.4,0.2,2.3,1.3,3.1,2.3c0.9,1,2.3,1.6,3,2.7c0.8,1.2,0.6,2.8,0.7,4.3c0,1.2,0.2,2.5,0.6,3.7
		c0.1,0.6,0.5,1.1,1,1.4c0.4,0.2,0.8,0.1,1.2,0.3c0.6,0.4,0.6,1.2,0.7,1.9c0.4,2,2.5,3.3,4.5,3.4c2,0,4-0.6,5.8-1.5
		c1.3-0.6,2.8-1.4,3.2-2.8C-2892.2,460.1-2893.2,460.8-2894.2,461.2z"/>
	
		<linearGradient id="Path_880_1_" gradientUnits="userSpaceOnUse" x1="-3293.8301" y1="803.3981" x2="-3293.8301" y2="804.4182" gradientTransform="matrix(46.6757 0 0 -132.1358 150868.0313 106740.8594)">
		<stop  offset="0" style="stop-color:#808080;stop-opacity:0.251"/>
		<stop  offset="0.54" style="stop-color:#808080;stop-opacity:0.122"/>
		<stop  offset="1" style="stop-color:#808080;stop-opacity:0.102"/>
	</linearGradient>
	<path id="Path_880" class="st17" d="M-2853.7,474.2c-2.1-1.3-4.4-2.5-6.7-3.5l-0.1-0.1c-0.5-0.4-1-0.9-1.2-1.5c0-0.1,0-0.2,0-0.3
		c0,0,0,0,0,0c0.1-1.5,1.1-2.8,2.1-4l2.6-3c0.3-0.3,0.5-0.7,0.7-1c0.1-0.2,0.1-0.4,0.1-0.6v-0.3c0-0.7,0-1.5-0.1-2.2
		c0-0.7-0.2-1.5-0.8-1.6c-0.3-0.1-0.8,0.1-1-0.2c-0.1-0.1-0.1-0.3,0-0.4c0,0,0,0,0,0v0c0.1-0.5,0.2-1,0.2-1.5c0-0.3,0-0.5-0.1-0.8
		c-0.4-1.1-1.7-1.5-2.8-1.7c-1.1-0.2-2.4-0.4-3.2-1.3c-0.2-0.3-0.4-0.6-0.6-0.9c-0.3-0.3-0.7-0.5-1.2-0.6c-1.4-0.4-2.9-0.2-4.3,0.4
		c-0.5,0.3-1.1,0.5-1.7,0.5c-0.6,0-1.2-0.5-1.8-0.6c-1-0.1-2,0.5-2.5,1.4c-0.3,0.5-0.5,1.1-0.5,1.7v0.1l0,0c0,0.6,0.2,1.3,0.7,1.7
		c0.4,0.5,1.1,0.8,1.3,1.4c0.1,0.2,0.1,0.5,0.1,0.7c0,0,0,0.1,0,0.1l0,0c-1,1.3-1.6,3-1.6,4.7c0,3.4,2.2,6.3,5.4,7.3
		c0,0.1,0,0.2,0,0.2c0,1-0.3,1.9-1.1,2.6l-6.9,2.7c0,0-4.1-0.5-5.6,5.6c-0.2,1-0.3,2-0.3,3.1c0,1.6-0.4,3.2-1.1,4.6
		c-1.7,3.3-1.3,11,2.2,11.7c3.3,0.7,4.6,0.4,4.7,0.4v0.1c-0.1,1.4-0.6,13.8-2.5,15.3c-0.5,0.4-0.4,0.7,0,0.9c0,0,0,0.1,0,0.2
		c-0.1,0.9-0.3,4.4-1.6,6.3c-1.5,2.3-1.3,15.4-1.3,15.4l-1,7.7c0,0,0.6,4.8,0,5.6c-0.6,0.7-1.3,18.4-1.4,22.2h-0.1
		c-0.6,0-1.2,0.4-1.5,0.9c-1.1,1.4-2.3,2.6-3.7,3.8c-0.6,0.9-2.9,1.7-4.1,2.1c-0.2,0.1-0.3,0.1-0.5,0.2c-0.5,0.2-0.8,0.6-1,1.1
		c-0.2,0.3-0.2,0.6-0.1,0.9c0.3,0.8,6.7,1.3,8.3,0.5c1.3-0.6,6.3-1.4,8.4-1.7c0.8-0.1,1.4-0.7,1.5-1.5c0-0.3,0-0.5-0.2-0.7l0,0
		c-0.4-0.9-0.7-1.8-0.7-2.8c0.2-0.1,0.3-0.2,0.5-0.3c-0.2-2.7,0.2-5.5,1.1-8.1c1.5-4.1,2-11.7,1.6-16.6c0,0,4.7-20.3,8.4-22.2l0,0
		c0.1,0.1,1.9,2.4,2.1,9.5c0.1,4.2,1,8.3,2.9,12c0,0-1.2,12.3,0,17l-1.5,7.3c-0.1-0.1-0.2-0.2-0.2-0.2s0,0.2,0.1,0.5l0,0.2l0.1,0
		c0.2,1.1,0.4,2.3,0.3,3.4c-0.1,0.5-0.2,1.3-0.3,2c-0.2,1.1-0.2,2.2,0.4,2.4c1,0.4,6.7,0.9,7.6-0.3c0.4-0.5,0.6-1.2,0.3-1.9
		c-0.1-0.2-0.2-0.3-0.3-0.5c0,0-1.5-2.5-1.1-4.2c0.1-0.3,0-0.7-0.2-1c0.2-2.8,0.6-5.5,1.3-8.2c1-3.6,3-11.6,1.5-16.9l0,0
		c-0.1-0.2-0.1-0.4-0.2-0.6c-0.9-2.9-1.2-5.9-0.9-8.9c-0.6-2.5-0.6-5.2,0-7.7c0.9-4.2,1.6-8.4,1.6-8.4c0.3-3,0.3-6,0.1-9
		c0-0.1,0-0.2,0-0.2l0.2-0.1c0,0-1.3-5.8-1.8-9.5c-0.1-0.9-0.3-2-0.4-3.2c0.4-0.1,0.8-0.2,1.3-0.3c4.2-1.4,5.5-14.4,5.5-14.4v-4.1
		C-2850.2,483.3-2848.8,477-2853.7,474.2z M-2884.8,574.7c-0.1-0.1-0.2-0.1-0.2-0.1l0,0L-2884.8,574.7z"/>
	<path id="Path_881" class="st18" d="M-2856.2,549.3c1.8,5.2-0.3,13.7-1.3,17.4c-0.6,2.7-1.1,5.5-1.3,8.3c-2.2,0.4-4.5,0.3-6.6-0.2
		l1.6-7.8c-1.1-4.6,0-16.9,0-16.9c-1.8-3.8-2.7-7.8-2.8-12c-0.2-7.1-2-9.4-2-9.5l0,0c-3.6,1.9-8.2,22.1-8.2,22.1
		c0.4,4.9-0.1,12.4-1.6,16.5c-0.9,2.6-1.3,5.3-1.1,8.1c-0.6,0.4-1.4,0.6-2.1,0.4c-1.7-0.4-3.3-1.2-4.7-2.2c0,0,0.8-22,1.4-22.8
		s0-5.6,0-5.6l1-7.7c0,0-0.2-13.1,1.3-15.3c1.2-2,1.5-5.4,1.6-6.3v-0.2l2.2-2.6c0,0,21.1-1.6,22.7,0c0.5,0.7,0.7,1.5,0.8,2.4
		c0.2,3,0.2,6-0.1,9c0,0-0.6,4.1-1.5,8.4c-0.5,2.5-0.5,5.2,0,7.7C-2857.4,543.4-2857.1,546.4-2856.2,549.3z"/>
	<path id="Path_882" class="st12" d="M-2857.5,582.3c-0.9,1.2-6.5,0.7-7.4,0.3c-0.6-0.2-0.5-1.3-0.4-2.4c0.1-0.7,0.2-1.4,0.3-2
		c0-1.4-0.1-2.8-0.5-4.1c0,0,1.2,1.3,1.5,0c0.1-0.5,0.6-0.9,1.1-1c0.6-0.2,1.3-0.2,2,0.1c1,0.4,2.6,1.3,2.3,2.6
		c-0.4,1.7,1.1,4.2,1.1,4.2c0.1,0.1,0.2,0.3,0.3,0.5C-2857,581.1-2857.1,581.8-2857.5,582.3L-2857.5,582.3z"/>
	<path id="Path_883" class="st6" d="M-2857.5,582.3c-0.9,1.2-6.5,0.7-7.4,0.3c-0.6-0.2-0.5-1.3-0.4-2.4c1,0.4,2.2,0.5,3.3,0.4
		c0.4,0,0.8,0,1.2,0c1.2,0.1,2.4,0,3.6-0.1C-2857,581.1-2857.1,581.8-2857.5,582.3z"/>
	<path id="Path_884" class="st6" d="M-2876.9,550.8c0.4,4.9-0.1,12.4-1.6,16.5c-0.9,2.6-1.3,5.3-1.1,8.1c-0.6,0.4-1.4,0.6-2.1,0.4
		c0.5-3.2,2.4-16.9,3.6-27.7c0.9-7.5,3.7-14.7,8-20.8l1.3,1.4C-2872.3,530.6-2876.9,550.8-2876.9,550.8z"/>
	<path id="Path_885" class="st19" d="M-2859.8,471.5l-0.9,4.5l-4.5,7.6l-5.6-2.4c0,0-7.6-7.9-2.8-9.1c0.6-0.1,1.1-0.4,1.6-0.7
		c0.8-0.7,1.3-1.7,1.2-2.7c0-1.1-0.3-2.2-0.8-3.2l9.7-3.1c-0.4,1.3-0.6,2.6-0.7,3.9c-0.1,2.7,0.9,4,1.7,4.6
		C-2860.5,471.2-2860.2,471.4-2859.8,471.5z"/>
	<path id="Path_886" class="st6" d="M-2861.8,462.5c-0.4,1.3-0.6,2.6-0.7,3.9c-0.2,0.2-0.4,0.4-0.6,0.6c-2,2-5,2.6-7.7,1.8
		c0-1.1-0.3-2.2-0.8-3.2L-2861.8,462.5z"/>
	<path id="Path_887" class="st19" d="M-2860.7,461.2c0,4.2-3.5,7.6-7.7,7.6s-7.6-3.5-7.6-7.7c0-4.2,3.5-7.6,7.7-7.6
		c2,0,4,0.8,5.4,2.2C-2861.5,457.2-2860.7,459.2-2860.7,461.2z"/>
	<path id="Path_888" class="st6" d="M-2859.8,471.5l-0.9,4.5l-4.5,7.6l-5.6-2.4c0,0-7.6-7.9-2.8-9.1c0.6-0.1,1.1-0.4,1.6-0.7
		c-0.9,2.4,2.7,7.3,2.7,7.3c0.4,0.6,1.4,0.2,1.4,0.2c2.3-0.3,6.5-6.9,7.2-8C-2860.5,471.2-2860.2,471.4-2859.8,471.5z"/>
	<path id="Path_889" class="st6" d="M-2855.5,515.4c-1.3,0.3-8.7,1.9-11.6,1.5c-3.1-0.5-9.1-0.8-9.1-0.8s-3.8,0.2-5-0.3v-0.2
		l2.2-2.6c0,0,21.1-1.6,22.7,0C-2855.7,513.7-2855.5,514.5-2855.5,515.4z"/>
	<path id="Path_890" class="st7" d="M-2869.4,479c0,0-4-5.5-2.5-7.7l-6.7,2.8c0,0-4-0.5-5.5,5.5c-0.2,1-0.3,2-0.3,3.1
		c0,1.6-0.3,3.2-1.1,4.6c-1.7,3.3-1.3,10.9,2.1,11.7c3.4,0.8,4.6,0.4,4.6,0.4s-0.5,13.8-2.4,15.4c-2,1.6,5,1.2,5,1.2s6,0.3,9.1,0.8
		s11.8-1.6,11.8-1.6s-1.3-5.8-1.7-9.5s-1.5-11.6-1.5-11.6l7.7-10.4c0,0,1.4-6.3-3.4-9.1c-2.1-1.3-4.3-2.5-6.5-3.5
		c0,0-4.8,7.8-7.3,8.2C-2868,479.2-2868.9,479.6-2869.4,479z"/>
	<path id="Path_891" class="st6" d="M-2878.2,481.2c-0.1,1.2,0.1,2.3,0.4,3.5c0.5,1,2.1,6.4,2.1,6.4h-3.8c0,0,2-2.2,1.9-3.2
		C-2877.7,486.8-2878.2,481.2-2878.2,481.2z"/>
	<path id="Path_892" class="st19" d="M-2867,499.9c0,0-8.3-2-9.1-3.8c-0.8-1.7-2.9-5.6-2.9-5.6l0.9-1.2l4.1,3.2c0,0,4.8,3.8,7.1,4.2
		C-2864.7,497.1-2867,499.9-2867,499.9z"/>
	<path id="Path_893" class="st20" d="M-2867,499.9c0,0-8.3-2-9.1-3.8c-0.8-1.7-2.9-5.6-2.9-5.6l0.9-1.2l4.1,3.2c0,0,4.8,3.8,7.1,4.2
		C-2864.7,497.1-2867,499.9-2867,499.9z"/>
	<path id="Path_894" class="st19" d="M-2859.8,490.1v4.5h-0.7c-3.6,0-7.1,0.9-10.3,2.7l-1.4,0.8l-0.4,0.2l-2.3-5.3l2.2-2h0.1
		c1.3,0.2,2.6,0.1,3.8-0.1c1.5-0.9,3.2-1.1,4.8-0.6c1.4,0.3,2.5,1.9,3.8,1.4L-2859.8,490.1z"/>
	<path id="Path_895" class="st6" d="M-2852.5,481.9l1.5,1.7v4.1c0,0-1.3,13-5.4,14.4c-4.1,1.4-11.3-0.8-11.3-0.8s-1.9-5-1-5.3
		c0.9-0.3,7.8-2.1,7.8-2.1s-0.1-7.6,1.4-9.9c0,0-1-7.1,2.4-7.2C-2853.7,476.6-2852.5,481.9-2852.5,481.9z"/>
	<path id="Path_896" class="st7" d="M-2852.3,481.9l1.5,1.7v4.1c0,0-1.3,13-5.4,14.4c-4.1,1.4-11.3-0.8-11.3-0.8s-1.9-5-1-5.3
		c0.9-0.3,7.8-2.1,7.8-2.1s-0.1-7.6,1.4-9.9c0,0-1-7.1,2.4-7.2C-2853.5,476.6-2852.3,481.9-2852.3,481.9z"/>
	<path id="Path_897" class="st6" d="M-2862.8,464.5c0.1-0.5,0-1-0.2-1.5c-0.2-0.5-0.7-0.8-1.2-0.7c-0.6,0.2-0.9,1-1.6,1.2
		c-0.6,0.1-1.1-0.2-1.4-0.7c-0.2-0.5-0.3-1.1-0.3-1.6v-1.9c0.1-0.7-0.1-1.4-0.4-2c-0.7-0.7-1.6-1-2.6-0.9c-0.5,0-1.1,0.2-1.5,0.6
		c-0.4,0.4-1,0.6-1.6,0.6c-0.5-0.1-0.9-0.4-1.1-0.9v0c2.6-3.4,7.4-4.1,10.8-1.5c3.4,2.6,4.1,7.4,1.5,10.8c-0.3,0.3-0.5,0.7-0.9,1
		C-2863,466-2862.9,465.2-2862.8,464.5L-2862.8,464.5z"/>
	<path id="Path_898" class="st21" d="M-2873.5,457.3c-0.5-0.1-0.9-0.4-1.1-0.9c-0.1-0.2,0-0.5-0.1-0.7c-0.2-0.6-0.8-0.9-1.2-1.4
		c-0.8-1-0.9-2.4-0.2-3.5c0.4-0.9,1.4-1.5,2.4-1.4c0.6,0.1,1.1,0.5,1.8,0.6c0.6,0,1.2-0.2,1.7-0.5c1.3-0.6,2.8-0.7,4.2-0.4
		c0.4,0.1,0.8,0.3,1.1,0.6c0.2,0.3,0.4,0.6,0.6,0.9c0.7,0.9,2,1.1,3.1,1.3s2.4,0.6,2.8,1.7c0.1,0.7,0.1,1.5-0.1,2.2
		c0,0.2,0,0.3,0,0.5c0.2,0.3,0.6,0.2,0.9,0.2c0.6,0.1,0.8,1,0.8,1.6c0,0.7,0,1.5,0.1,2.2c0,0.3,0,0.6-0.1,0.8
		c-0.1,0.4-0.4,0.7-0.6,1l-2.5,3c-1.1,1.3-2.3,2.9-2.1,4.6c-0.6,0.2-1.2-0.2-1.3-0.7c0,0,0,0,0,0c-0.1-0.6-0.1-1.1,0.1-1.7
		c0.2-1,0.3-2,0.4-2.9c0.1-0.5,0-1-0.2-1.5c-0.2-0.5-0.7-0.8-1.2-0.7c-0.6,0.2-0.9,1-1.6,1.2c-0.6,0.1-1.1-0.2-1.4-0.7
		c-0.2-0.5-0.3-1.1-0.3-1.6V459c0.1-0.7-0.1-1.4-0.4-2c-0.7-0.7-1.6-1-2.6-0.9c-0.5,0-1.1,0.2-1.5,0.6
		C-2872.3,457.2-2872.9,457.4-2873.5,457.3z"/>
	<path id="Path_899" class="st6" d="M-2871.7,481l2.4,9.7C-2869.4,490.7-2867.5,490.7-2871.7,481z"/>
	<path id="Path_900" class="st6" d="M-2863.7,479.4c0,0-3.1,5.1-1.9,10.3l0.6,0C-2865,489.7-2866,487.3-2863.7,479.4z"/>
	<path id="Path_901" class="st6" d="M-2861.7,508c0,0,3.8-1.3,4.1,1.7C-2857.6,509.7-2858.3,507.7-2861.7,508z"/>
	<path id="Path_902" class="st6" d="M-2872.7,491.3c0,0-0.8,5.3,0.6,7.4c-2.1,0.8-4.4,1.1-6.6,0.9l-0.5-8.3H-2872.7z"/>
	<path id="Path_903" class="st6" d="M-2872.2,498.1l-0.4,0.2l-2.3-5.3l2.2-2h0.1C-2872.6,491.3-2873.2,495.8-2872.2,498.1z"/>
	<path id="Path_904" class="st7" d="M-2872.7,491c0,0-0.8,5.3,0.6,7.4c-2.1,0.8-4.4,1.1-6.6,0.9l-2.6-8.3H-2872.7z"/>
	<path id="Path_905" class="st12" d="M-2879.2,579.1c-0.1,0.8-0.7,1.4-1.5,1.5c-2,0.3-7,1.1-8.2,1.7c-1.6,0.8-7.8,0.2-8.1-0.5
		c-0.1-0.3,0-0.6,0.1-0.9c0.2-0.5,0.6-0.8,1-1.1c0.1-0.1,0.3-0.2,0.5-0.2c1.2-0.4,3.4-1.2,4-2.1c1.3-1.1,2.5-2.4,3.6-3.7
		c0.3-0.5,0.8-0.9,1.4-0.9c0.7,0,1.4,0.3,1.7,1.8c0,0,3.6,2.1,4.6,0.3c0,0,0.2,2.8,0.8,3.5l0,0
		C-2879.2,578.6-2879.2,578.9-2879.2,579.1z"/>
	<path id="Path_906" class="st6" d="M-2879.2,579.1c-0.1,0.8-0.7,1.4-1.5,1.5c-2,0.3-7,1.1-8.2,1.7c-1.6,0.8-7.8,0.2-8.1-0.5
		c-0.1-0.3,0-0.6,0.1-0.9c0.2-0.5,0.6-0.8,1-1.1c1,0.7,3.3,1.3,8.3,0.6c2.8-0.3,5.6-1,8.3-2l0,0
		C-2879.2,578.6-2879.2,578.9-2879.2,579.1L-2879.2,579.1z"/>
	<path id="Path_907" d="M-2858.6,455.8L-2858.6,455.8c0.1-0.6,0.2-1.2,0.2-1.8c0,0.5-0.1,0.9-0.2,1.4
		C-2858.6,455.5-2858.6,455.7-2858.6,455.8z"/>
	<path id="Path_908" class="st22" d="M-2863,462.9c0.1,0.3,0.2,0.6,0.2,0.9c0-0.4,0-0.8-0.2-1.2c-0.2-0.5-0.7-0.8-1.2-0.7
		c-0.6,0.2-0.9,1-1.6,1.2c-0.6,0.1-1.1-0.2-1.4-0.7c-0.2-0.5-0.3-1.1-0.3-1.6v-1.9c0.1-0.7-0.1-1.4-0.4-2c-0.7-0.7-1.6-1-2.6-0.9
		c-0.5,0-1.1,0.2-1.5,0.6c-0.4,0.4-1,0.6-1.6,0.6c-0.5-0.1-0.9-0.4-1.1-0.9c-0.1-0.2,0-0.5-0.1-0.7c-0.2-0.6-0.8-0.9-1.2-1.4
		c-0.4-0.4-0.6-1-0.6-1.6c-0.1,0.7,0.2,1.4,0.6,1.9c0.4,0.5,1.1,0.8,1.2,1.4c0.1,0.2,0.1,0.5,0.1,0.7c0.2,0.5,0.6,0.9,1.1,0.9
		c0.6,0.1,1.1-0.1,1.6-0.6c0.4-0.4,0.9-0.6,1.5-0.6c1-0.1,1.9,0.3,2.6,0.9c0.4,0.6,0.5,1.3,0.4,2v1.9c0,0.6,0,1.1,0.3,1.6
		c0.2,0.5,0.8,0.8,1.4,0.7c0.6-0.2,0.9-1,1.6-1.2C-2863.7,462.1-2863.2,462.4-2863,462.9z"/>
	<path id="Path_909" d="M-2856.8,460.8c-0.1,0.4-0.4,0.7-0.6,1l-2.5,3c-1,1.3-2.2,2.7-2.1,4.3c0.3-1.5,1-2.9,2.1-4l2.5-3
		c0.3-0.3,0.5-0.6,0.6-1c0.1-0.3,0.1-0.6,0.1-0.8C-2856.8,460.5-2856.8,460.6-2856.8,460.8z"/>
	<path id="Path_910" d="M-2863.3,468.6c0-0.1-0.1-0.3-0.1-0.4c0,0.3,0,0.5,0.1,0.7c0.1,0.6,0.7,0.9,1.3,0.8c0,0,0,0,0,0
		c0-0.1,0-0.2,0-0.3C-2862.6,469.5-2863.2,469.2-2863.3,468.6z"/>
	<path id="Path_911" class="st6" d="M-2888.4,574.4c0,0,0.8,1.4,3.6,0.2"/>
	<path id="Path_912" class="st6" d="M-2864.2,574.8c0,0,2.5,2.9,5.6,1"/>
	<path id="Path_913" class="st6" d="M-2857.1,540.4c0,0-1.7,1.1-1.8,1.7s0.9-0.5,0.9-0.5L-2857.1,540.4z"/>
	<path id="Path_914" class="st6" d="M-2856.4,548.8c-0.6,0.5-1.4,0.8-2.1,0.8c-1.3,0.1-1.2,1.8-0.3,1.2
		C-2858,550.2-2857.1,549.5-2856.4,548.8z"/>
	<path id="Path_915" class="st6" d="M-2856,549.9c0,0-0.8,4.1-1.5,3.3"/>
	<path id="Path_943" d="M-2969,533.4L-2969,533.4l-0.3,0C-2969.2,533.4-2969.1,533.4-2969,533.4z"/>
	<path id="Path_960" d="M-2956.3,484.4L-2956.3,484.4L-2956.3,484.4z"/>
	<ellipse id="Ellipse_180" class="st23" cx="-2982.4" cy="519.8" rx="6.2" ry="1"/>
	<ellipse id="Ellipse_181" class="st23" cx="-3006.7" cy="534.6" rx="6.2" ry="1"/>
	<ellipse id="Ellipse_182" class="st7" cx="-3013.2" cy="521.4" rx="9.2" ry="1.6"/>
	<path id="Path_1016" class="st7" d="M-3017,518.8c-0.4-0.3-0.7-0.8-0.9-1.3c-0.1-0.5,0.1-1.1,0.6-1.4c0.6-0.1,1.2,0.1,1.6,0.6
		c0.4,0.5,1,0.7,1.6,0.8c-0.6-0.6-0.9-1.4-0.7-2.3c0-0.2,0.1-0.3,0.2-0.5c0.3-0.3,0.9-0.2,1.3,0.1c1.1,1,1.7,2.4,1.5,3.9
		c0.1-0.5,0.1-1.1,0-1.6c0-0.5,0.2-1.1,0.6-1.4c0.3-0.2,0.6-0.2,0.9-0.2c0.5-0.1,1.1,0.1,1.5,0.4c0.4,0.6,0.4,1.3-0.1,1.8
		c-0.4,0.5-1,0.9-1.6,1.2c-0.4,0.3-0.8,0.6-1.1,1.1c0,0.1-0.1,0.1-0.1,0.2h-3.3C-3015.7,519.9-3016.4,519.4-3017,518.8z"/>
	<ellipse id="Ellipse_183" class="st23" cx="-2840.2" cy="557.9" rx="6.2" ry="1"/>
	<path id="Path_1017" class="st24" d="M-2844.3,553c0,0,3.5-0.1,4.6-0.9c1.1-0.8,5.4-1.7,5.7-0.4c0.3,1.2,5.3,6,1.3,6.1
		c-4,0-9.2-0.6-10.3-1.3C-2844.1,555.9-2844.3,553-2844.3,553z"/>
	<path id="Path_1018" class="st25" d="M-2832.6,557.4c-4,0-9.2-0.6-10.3-1.3c-0.8-0.5-1.1-2.3-1.2-3.1h-0.1c0,0,0.2,2.8,1.3,3.5
		c1.1,0.6,6.3,1.3,10.3,1.3c1.1,0,1.5-0.4,1.5-1C-2831.4,557.1-2831.8,557.4-2832.6,557.4z"/>
</g>
</svg>
