<svg xmlns="http://www.w3.org/2000/svg" width="345.192" height="283" viewBox="0 0 345.192 283"><defs><style>.a,.c,.e{fill:#ec7e73;}.a{font-size:236px;font-family:Roboto-Bold, Roboto;font-weight:700;opacity:0.35;}.b{fill:none;stroke:#3f3d56;stroke-miterlimit:10;}.d{fill:#f2f2f2;}.e{font-size:16px;font-family:Roboto-Regular, Roboto;}.f{fill:#656380;}.g{opacity:0.2;}</style></defs><g transform="translate(-128 -3419)"><text class="a" transform="translate(196 3643)"><tspan x="-67.7" y="0">1</tspan></text><g transform="translate(0 -30)"><g transform="translate(10927 2938)"><circle class="b" cx="10.931" cy="10.931" r="10.931" transform="translate(-10683.741 639.948)"/><path class="c" d="M707.352,185.571l-2.643-2.657a1.4,1.4,0,0,0-1.992-.014l-16.59,16.452-7.015-7.071a1.4,1.4,0,0,0-1.979-.014l-2.671,2.643a1.416,1.416,0,0,0-.014,1.993L685.1,207.641a1.416,1.416,0,0,0,1.992.014l20.243-20.091a1.4,1.4,0,0,0,.014-1.993Z" transform="translate(-11357.883 444.75)"/><rect class="d" width="198.198" height="22.59" rx="11.295" transform="translate(-10658.699 644.979)"/><rect class="b" width="198.198" height="22.59" rx="11.295" transform="translate(-10652.506 639.149)"/><text class="e" transform="translate(-10643 654)"><tspan x="0" y="0">myapatel.com</tspan></text></g><path class="c" d="M1014.933,597.565a11.464,11.464,0,1,0,1.527-21.986l.287,5.9-2.792-5.057a11.421,11.421,0,0,0-5.885,6.457,11.237,11.237,0,0,0-.659,3.1,11.462,11.462,0,0,0,7.522,11.584Z" transform="translate(-608.883 2999.138)"/><path class="b" d="M1035.554,662.508c-.985-5.018,3.285-9.467,7.5-12.359s9.146-5.733,10.586-10.64c2.068-7.053-4.093-13.512-8.888-19.082a69.016,69.016,0,0,1-9.1-13.527,18.626,18.626,0,0,1-2.177-6.151c-.378-3.126.626-6.237,1.638-9.219q5.056-14.9,10.812-29.552" transform="translate(-615.692 3002.632)"/><path class="b" d="M1015.563,595.507a11.464,11.464,0,1,0,1.527-21.986l.287,5.9-2.792-5.057a11.421,11.421,0,0,0-5.885,6.457,11.242,11.242,0,0,0-.66,3.1,11.462,11.462,0,0,0,7.522,11.584Z" transform="translate(-609.048 2999.677)"/><path class="c" d="M1034.176,556.542a11.451,11.451,0,0,1,8.251-7.27l.944,5.609,1.75-5.891a11.463,11.463,0,1,1-10.945,7.552Z" transform="translate(-615.716 3006.032)"/><path class="b" d="M1035.027,553.8a11.451,11.451,0,0,1,8.254-7.27l.944,5.609,1.75-5.891a11.463,11.463,0,1,1-10.945,7.552Z" transform="translate(-615.94 3006.75)"/><path class="c" d="M1043.37,633.419a11.463,11.463,0,0,0,10.146-20.393l-1.345,4.527-.953-5.676-.029-.011a11.463,11.463,0,1,0-7.818,21.552Z" transform="translate(-616.325 2989.754)"/><path class="b" d="M1044.111,630.64a11.463,11.463,0,0,0,10.146-20.393l-1.345,4.527-.953-5.676-.029-.011a11.463,11.463,0,1,0-7.818,21.552Z" transform="translate(-616.519 2990.482)"/><path class="c" d="M1029.828,662.327a11.458,11.458,0,1,0,2.209-8.977l5.108,7.688-6.979-4.08a11.356,11.356,0,0,0-.338,5.37Z" transform="translate(-614.712 2979.884)"/><path class="b" d="M1030.468,660.269a11.458,11.458,0,1,0,2.209-8.977l5.107,7.688-6.979-4.08A11.357,11.357,0,0,0,1030.468,660.269Z" transform="translate(-614.88 2980.422)"/><path class="f" d="M1014.76,704.126s10.116-3.964,13.165-6.135,15.561-4.763,16.318-1.281,15.2,17.317,3.782,17.409-26.538,1.874-29.58.02S1014.76,704.126,1014.76,704.126Z" transform="translate(-610.814 2967.811)"/><path class="g" d="M1048.224,716.134c-11.421.092-26.538,1.874-29.58.02-2.317-1.412-3.241-6.477-3.55-8.813l-.338.013s.641,8.159,3.684,10.012,18.159.072,29.58-.02c3.3-.027,4.436-1.2,4.373-2.937C1051.937,715.459,1050.675,716.114,1048.224,716.134Z" transform="translate(-610.813 2964.583)"/></g></g></svg>