<svg xmlns="http://www.w3.org/2000/svg" xmlns:xlink="http://www.w3.org/1999/xlink" width="235.563" height="156.394" viewBox="0 0 235.563 156.394"><defs><style>.a,.g,.w{fill:#ec7e73;}.a,.y{opacity:0.2;}.b{fill:url(#a);}.c{fill:#d38884;}.d{fill:#444053;}.e{fill:#b07473;}.f,.w{opacity:0.1;}.h{fill:#67647e;}.i{fill:#585268;}.j{fill:#e1e7ef;}.k{fill:url(#b);}.l{fill:#a27772;}.m{fill:#cc818c;}.n{opacity:0.22;}.o{fill:#f6f8fb;}.p{fill:#6c63ff;}.q{fill:url(#c);}.r{fill:#65617d;}.s{fill:#fbbebe;}.t{opacity:0.05;}.u{fill:#7c5c5c;}.v{opacity:0.28;}.x{fill:#a8a8a8;}</style><linearGradient id="a" x1="0.5" y1="1" x2="0.5" gradientUnits="objectBoundingBox"><stop offset="0" stop-color="gray" stop-opacity="0.251"/><stop offset="0.54" stop-color="gray" stop-opacity="0.122"/><stop offset="1" stop-color="gray" stop-opacity="0.102"/></linearGradient><linearGradient id="b" x1="0.5" x2="0.5" y2="0" xlink:href="#a"/><linearGradient id="c" x1="0.5" x2="0.5" y2="0" xlink:href="#a"/></defs><g transform="translate(3025.286 -379.171)"><path class="a" d="M-2998.815,456.249c7.31-9.757,4.112-9.3-9.365-28.259s10.965-35.407,28.325-32.437,28.554,16.675,50.94,7.081,61.9-22.615,76.524,8.223,19.417,47.285,34.95,49.112,44.772,30.838,14.62,50.026-48.2,2.741-74.24,2.284-71.5,3.2-73.554-17.818-36.32-11.193-42.945-1.6-42.031,1.6-28.782-18.731S-3006.125,466.006-2998.815,456.249Z" transform="translate(0 -9.582)"/><ellipse class="a" cx="16.915" cy="3.798" rx="16.915" ry="3.798" transform="translate(-2934.354 517.201)"/><ellipse class="a" cx="30.517" cy="2.505" rx="30.517" ry="2.505" transform="translate(-2908.649 530.555)"/><ellipse class="a" cx="22.962" cy="3.798" rx="22.962" ry="3.798" transform="translate(-2977.094 506.453)"/><path class="b" d="M455.864,180.047c-.486-3.269-3.456-10.9-3.456-10.9h0q-.078-.337-.175-.675c-2.107-7.24-5.023-7.87-5.023-7.87l-10.447-2.248a.809.809,0,0,1,.225.209,1.45,1.45,0,0,0-.164.025,4.093,4.093,0,0,1-.915-1.979c-.02-.108-.038-.225-.052-.335a7.348,7.348,0,0,0-.6-11.047c-.11-.085-.225-.169-.335-.247a1.665,1.665,0,0,0,.139-1.981,6.9,6.9,0,0,0-4.452-3.319,7.548,7.548,0,0,0-4.322-.092,15.611,15.611,0,0,0-2.262,1.05,12.717,12.717,0,0,0-3.96,2.381,1.162,1.162,0,0,0-.4.956,2.579,2.579,0,0,0,.393.695,2.1,2.1,0,0,1,.02,1.74,16.866,16.866,0,0,0-.645,1.673,1.749,1.749,0,0,0,.349,1.68,7.4,7.4,0,0,0,.652.45,3.421,3.421,0,0,1,.623.7q.621.832,1.237,1.671a17.21,17.21,0,0,1,1.549,2.354,11.472,11.472,0,0,0,.958,1.8,2.665,2.665,0,0,0,.411.432l-.121-.047a1.873,1.873,0,0,0,1.374.56h.063a.378.378,0,0,0,.252-.1v.225c.025.8.02,1.657-.036,2.46l-.1-.049a.843.843,0,0,0-.9.094l-9.617,7.717a12.665,12.665,0,0,0-1.8,7.8l-1.686,7.4s-2.107,6.282-.486,10.768,2.561,7.051,2.561,7.051.648,5.1,1.621,5.513,1.394.641,1.394.641l.193,1.219h0s.065.119.18.319c.708,1.232,3.332,5.581,4.857,5.115a19.494,19.494,0,0,1,.247,3.573l1.509,10.13a14.9,14.9,0,0,1,.987,4.2,8,8,0,0,0,1.228,3.5,6.689,6.689,0,0,0-.648,4.711c.616,2.7,1.394,15.128,1.394,15.128l1.124,3.013-.031,3.532a3.373,3.373,0,0,1-.7,1.574c-.729.791-.675,1.707-2.431,2.788s-2.869,1.491-2.869,2.923a3.761,3.761,0,0,1-.054.6c-.162,1.052-.477,1.623,2.752,1.929a8.513,8.513,0,0,0,6.323-2.114s.558-1.012,3.184-1.421c0,0,.9-.047.947-.841.018-.274.013-.8,0-1.376a8.469,8.469,0,0,0-.288-2.446,5.334,5.334,0,0,1-.587-1.585h.731a31.975,31.975,0,0,0,0-8.4,13.624,13.624,0,0,1-.065-5.642l-.13-8.717a2.491,2.491,0,0,1-.193-2.662c.706-1.7,0-10.1,0-10.1s.261-3.013,1.005-3.719.036-4.414,0-4.607l1.327,4.45s.582,8.846,1.817,10.447l.355,4.007s2.527,3.688,2.042,5.673.519,9.167.519,9.167v7.341s-1.135,2.948.45,4.007l.675-.027c-.225.209-.4.524-.661.8a6.078,6.078,0,0,0-.573,2.525c-.081.866-.108,1.61-.108,1.61a2.651,2.651,0,0,0,1.945,1.154c1.27.074,5.457,3.258,5.457,3.258a49.511,49.511,0,0,0,5.205-.225l.063-.016a1.405,1.405,0,0,0,.807-.659,1.686,1.686,0,0,0,.193-1.212,3.026,3.026,0,0,0-1.745-1.913c-2.763-1.457-3.175-2.822-3.175-2.822l-1.815-2.723h.259a11.648,11.648,0,0,1,1.815-6.123l-.128-14.262s.809-4.9-.582-7.566c0,0-.115-2.82.816-3.685s-1.239-9.615-1.239-9.615-.45-4.7-.978-8.983h0c2.188,2.075,4.457-5.4,4.839-6.725h.056l-.025-.1c.016-.063.025-.094.025-.094h0s-.486-1.727-.13-1.376,1.232-.962,1.232-.962-.13-7.148,1.394-10.75S455.864,180.047,455.864,180.047Zm-6.521,4.549.011-.02c.225,4.364-.043,13.678-.043,13.678s-.3,1.194-.623,2.6l-.225-8.848h0l-.225-8.335Zm-27.906-3.009s1.1,13.781,0,15.769a10.411,10.411,0,0,0-.794,2.723c-.364-.956-1.135-3.2-.859-4.389.358-1.538-.713-5.579-.713-5.673a9.586,9.586,0,0,1,.675-3.894c.771-1.646.265-2.359.265-2.359S420.659,181.066,421.437,181.588Z" transform="translate(-3392.838 239.856)"/><path class="c" d="M447.374,441.749c-.96,4.22-4.778-2.161-5.648-3.692-.112-.2-.175-.317-.175-.317l.414-1.94,2.188-.9a6.115,6.115,0,0,1,.98.639A5.911,5.911,0,0,1,447.374,441.749Z" transform="translate(-3416.089 10.733)"/><path class="c" d="M577.489,430.922a.294.294,0,0,1-.025.094.479.479,0,0,1-.029.1c-.375,1.318-2.6,8.735-4.751,6.676-2.352-2.249-1.21-7.447-1.21-7.447h.016l4.947-.506.98,1.007h0Z" transform="translate(-3516.585 14.655)"/><path class="d" d="M482.138,469.395l.126,14.166a11.618,11.618,0,0,0-1.781,6.071l-6.395.252c-1.56-1.05-.45-3.975-.45-3.975v-7.294s-.987-7.126-.51-9.1-2-5.621-2-5.621l-.351-3.978c-1.21-1.59-1.783-10.37-1.783-10.37l-1.3-4.434c.036.191.711,3.892,0,4.573s-.987,3.69-.987,3.69.7,8.337,0,10.022a2.481,2.481,0,0,0,.189,2.642l.128,8.655a13.534,13.534,0,0,0,.063,5.6,31.832,31.832,0,0,1,0,8.337h-6.86l.031-3.532-1.111-2.991s-.764-12.344-1.369-15.018a6.71,6.71,0,0,1,.634-4.677,7.958,7.958,0,0,1-1.207-3.467,14.83,14.83,0,0,0-.98-4.164l-1.48-10.053a19.529,19.529,0,0,0-.733-5.727c-.859-2.865-2.132-6.62-2.132-6.62l1.437.128,7.249.645s17.626-1.185,18.415-.2a3.308,3.308,0,0,1,.333,1.028c.791,3.555,1.837,14.692,1.837,14.692s2.132,8.686,1.216,9.545-.8,3.656-.8,3.656C482.936,464.516,482.138,469.395,482.138,469.395Z" transform="translate(-3424.097 12.687)"/><path class="e" d="M475.193,683.2c-.049.789-.929.836-.929.836-2.577.4-3.125,1.408-3.125,1.408a8.276,8.276,0,0,1-6.2,2.1c-3.17-.306-2.862-.87-2.7-1.916a3.952,3.952,0,0,0,.052-.589c0-1.432,1.1-1.839,2.815-2.923s1.671-1.981,2.386-2.768a4.386,4.386,0,0,0,.789-2.314c.809-1.41,2.862.225,2.862.225.1.5,3.148.43,3.148.43a6.719,6.719,0,0,0,.614,1.718,8.443,8.443,0,0,1,.281,2.428C475.207,682.408,475.211,682.927,475.193,683.2Z" transform="translate(-3432.053 -176.513)"/><path class="f" d="M475.193,701.74c-.049.789-.929.836-.929.836-2.577.4-3.125,1.408-3.125,1.408a8.276,8.276,0,0,1-6.2,2.1c-3.17-.306-2.862-.87-2.7-1.916,1.417.351,4.124.841,5.7-.018,2.2-1.192,3.773-2.024,3.773-2.024l3.472-1.747C475.207,700.949,475.211,701.468,475.193,701.74Z" transform="translate(-3432.053 -195.053)"/><path class="e" d="M560.994,690.586a1.372,1.372,0,0,1-.792.654l-.061.016a47.7,47.7,0,0,1-5.109.225s-4.1-3.173-5.345-3.245a2.61,2.61,0,0,1-1.909-1.147s.025-.738.1-1.6a6.1,6.1,0,0,1,.564-2.507c.549-.573.675-1.349,1.909-.859,0,0,1.763-3.108,3.84-.706l2.15,3.26s.4,1.349,3.128,2.813a3.017,3.017,0,0,1,1.711,1.9A1.676,1.676,0,0,1,560.994,690.586Z" transform="translate(-3498.434 -179.651)"/><path class="f" d="M560.994,707.763c-.243.2-.51.425-.792.654l-.061.016a47.7,47.7,0,0,1-5.109.225s-4.1-3.173-5.345-3.245a2.61,2.61,0,0,1-1.909-1.147s.025-.737.1-1.6c1.264.378,3.177,1.046,3.69,1.765a15.636,15.636,0,0,0,3.177,2.624s4.457-.429,6.435-.488A1.675,1.675,0,0,1,560.994,707.763Z" transform="translate(-3498.434 -196.829)"/><path class="c" d="M488.448,205.8l-5.869,6.2s-7.112-.524-5.871-2.624c.632-1.07.731-3.31.675-5.257-.052-1.878-.245-3.476-.245-3.476s9.974-4.965,9.219-.335a7.62,7.62,0,0,0-.027,2.642A3.463,3.463,0,0,0,488.448,205.8Z" transform="translate(-3443.23 194.103)"/><path class="f" d="M488.33,200.314a7.619,7.619,0,0,0-.027,2.642,7.321,7.321,0,0,1-5.221,2.179c-1.349,0-2.808-1.109-3.9-1.749-.052-1.88-.063-2.736-.063-2.736S489.094,195.684,488.33,200.314Z" transform="translate(-3445.212 194.103)"/><path class="c" d="M478.739,168.839a7.35,7.35,0,1,1-2.766-5.743A7.35,7.35,0,0,1,478.739,168.839Z" transform="translate(-3433.521 222.666)"/><path class="f" d="M483.151,434.407c-1.83,4.355-13.6,4.445-13.6,4.445V434.1l-.713-.047c.308,1.36-.432,4.677-.432,4.677-9.3,1.313-11.573-3.989-11.573-3.989l.324-1.815,7.249.645s17.626-1.185,18.415-.2A3.306,3.306,0,0,1,483.151,434.407Z" transform="translate(-3427.934 12.26)"/><path class="g" d="M469.547,279.1v-4.749l-.713-.045c.308,1.349-.432,4.677-.432,4.677-7,.987-10.019-1.77-11.083-3.2a4.353,4.353,0,0,1-.49-.791l2.842-15.987.675-23.528,1.019-4.128.236-1.981v-.022h.025l.724.31,4.333,1.873,4.922-3.717.072-.052.245-.187.407.326,1.012.812,3.245,20.954s5.621,16.133,6.674,22.645c.043.261.076.5.1.731C484.057,278.992,469.547,279.1,469.547,279.1Z" transform="translate(-3427.934 171.437)"/><circle class="h" cx="0.418" cy="0.418" r="0.418" transform="translate(-2961.143 403.017)"/><circle class="h" cx="0.418" cy="0.418" r="0.418" transform="translate(-2960.949 406.835)"/><circle class="h" cx="0.418" cy="0.418" r="0.418" transform="translate(-2960.531 413.016)"/><circle class="h" cx="0.418" cy="0.418" r="0.418" transform="translate(-2959.841 419.674)"/><circle class="h" cx="0.418" cy="0.418" r="0.418" transform="translate(-2959.423 425.925)"/><circle class="h" cx="0.418" cy="0.418" r="0.418" transform="translate(-2959.005 432.583)"/><circle class="h" cx="0.418" cy="0.418" r="0.418" transform="translate(-2959.171 439.169)"/><path class="f" d="M461.872,267.218s-.468,6.123-1.327,7.9S459.3,281.9,459.3,281.9l-1.994-.225a4.352,4.352,0,0,1-.49-.791l2.842-15.987.675-23.528,1.021-4.131.236-1.981.027-.011a.8.8,0,0,1,.711.011l.094.049q-.043.121-.081.25a38.218,38.218,0,0,0-1.068,6.923s1.124,8.209,1.241,12.027S461.872,267.218,461.872,267.218Z" transform="translate(-3427.926 165.556)"/><path class="f" d="M445.132,435.545a1.151,1.151,0,0,1-.076.148,7.158,7.158,0,0,1-3.33,2.363c-.112-.2-.175-.317-.175-.317l.414-1.94,2.188-.9A6.113,6.113,0,0,1,445.132,435.545Z" transform="translate(-3393.604 22.201)"/><path class="h" d="M418.235,298.81l-1.815,1.082-1.653,7.35s-2.069,6.235-.479,10.689,2.514,7,2.514,7,.636,5.059,1.592,5.473,1.367.636,1.367.636l.191,1.21s2.59-.879,3.505-2.428-.675-5.4-.675-5.4-1.367-3.278-1.016-4.805-.7-5.536-.7-5.621a9.527,9.527,0,0,1,.675-3.867c.769-1.639.256-2.338.256-2.338l-.479-4.677Z" transform="translate(-3394.493 116.223)"/><path class="f" d="M533.834,274.4s-4.805,1.812-6.332.225-1.369-9.037-1.369-9.037-1.461-13.745-2.386-16-.45-18.55-.45-18.55a9.875,9.875,0,0,0-1.162-2.658.588.588,0,0,0-.115-.092l.187.04.652.139,1.012.812,3.245,20.954s5.621,16.133,6.674,22.645Z" transform="translate(-3478.466 170.887)"/><path class="f" d="M578.429,431.1h-.054c-.6.079-5.943.724-5.965-.387a3.262,3.262,0,0,1,.02-.384l4.947-.506.98,1.007h0c.018.065.031.121.045.166Z" transform="translate(-3517.525 14.671)"/><path class="h" d="M573.306,266.07l3.508,1.83s2.923,7.568,3.391,10.813c0,0,2.165,8.693.675,12.268s-1.367,10.671-1.367,10.671-.859,1.3-1.21.956.128,1.367.128,1.367-6,.8-6.021-.382a61.5,61.5,0,0,1,1.376-6.808s.382-13.394-.16-15.494S573.306,266.07,573.306,266.07Z" transform="translate(-3517.524 141.602)"/><path class="f" d="M519.978,329.52s-1.974,4.834-2.61,5.154.128,1.59.128,1.59S521.091,331.238,519.978,329.52Z" transform="translate(-3474.664 92.418)"/><path class="f" d="M513.993,254.091c.022-.092-2.354,2.332-2.991,2.7S513.326,256.767,513.993,254.091Z" transform="translate(-3469.857 150.889)"/><path class="f" d="M484.178,327.82s-3.627,2.345-3.148,3.274S484.178,327.82,484.178,327.82Z" transform="translate(-3446.658 93.736)"/><path class="f" d="M524.47,480.07a19.414,19.414,0,0,0,7.89,2.473Z" transform="translate(-3480.365 -24.28)"/><path class="f" d="M491.5,501.3s2.862,3.6,4.169,3.69S491.5,501.3,491.5,501.3Z" transform="translate(-3454.808 -40.737)"/><path class="f" d="M497.424,564c-.128.063-1.623,3.245-3.148,3.341S497.424,564,497.424,564Z" transform="translate(-3456.723 -89.339)"/><path class="f" d="M568.33,594.675s2.838-.636,3.469,1.4C571.8,596.067,571.608,595.431,568.33,594.675Z" transform="translate(-3514.363 -113.043)"/><path class="f" d="M559.84,645.9s3.438-.7,4.169.254S559.84,645.9,559.84,645.9Z" transform="translate(-3507.782 -152.634)"/><path class="f" d="M504.951,654c0,.031-3.5.7-3.373,1.147s3.733.382,3.861-.319a.675.675,0,0,0-.488-.827Z" transform="translate(-3462.618 -159.102)"/><path class="f" d="M554.75,666.723s5.749-.7,5.4.508S554.75,666.723,554.75,666.723Z" transform="translate(-3503.836 -168.807)"/><path class="f" d="M420.89,352.44c.031.094,3.786.6,4.295,1.815a32.294,32.294,0,0,0-4.272-1.72" transform="translate(-3377.59 86.119)"/><path class="f" d="M434.357,396.16s-3.119.987-2.9,2.473S431.144,397.945,434.357,396.16Z" transform="translate(-3385.775 52.23)"/><path class="f" d="M437.92,425.332s1.135-1.558,2.217-1.273S437.92,425.332,437.92,425.332Z" transform="translate(-3390.791 30.631)"/><path class="f" d="M476.011,163.092a1.769,1.769,0,0,1-.364.272,4.2,4.2,0,0,0-1.574,2.262,4.811,4.811,0,0,1-1.639,2.237c-1.037.625-2.4.4-3.478.94a2.7,2.7,0,0,0-1.439,2.66,7.674,7.674,0,0,0,.306,1.219,8.689,8.689,0,0,1,.328,2.646.452.452,0,0,1,0,.079,7.348,7.348,0,1,1,7.87-12.315Z" transform="translate(-3433.558 222.67)"/><path class="i" d="M463.168,146.179a6.782,6.782,0,0,0-4.369-3.294,7.338,7.338,0,0,0-4.243-.09,15.563,15.563,0,0,0-2.219,1.041,12.552,12.552,0,0,0-3.885,2.363,1.184,1.184,0,0,0-.389.949,2.649,2.649,0,0,0,.384.688,2.088,2.088,0,0,1,.02,1.729,15.858,15.858,0,0,0-.634,1.662,1.748,1.748,0,0,0,.342,1.666,6.232,6.232,0,0,0,.643.45,3.386,3.386,0,0,1,.609.693l1.214,1.659a16.828,16.828,0,0,1,1.52,2.336,11.133,11.133,0,0,0,.94,1.783,2.035,2.035,0,0,0,1.7.911.33.33,0,0,0,.27-.128.355.355,0,0,0,.034-.169,8.63,8.63,0,0,0-.322-2.637,7.612,7.612,0,0,1-.306-1.219,2.709,2.709,0,0,1,1.439-2.66c1.079-.544,2.444-.315,3.478-.938a4.779,4.779,0,0,0,1.639-2.249,4.233,4.233,0,0,1,1.574-2.262A1.582,1.582,0,0,0,463.168,146.179Z" transform="translate(-3420.907 237.371)"/><path class="f" d="M501.63,693.06s1.124,1.432.832,2.249S501.63,693.06,501.63,693.06Z" transform="translate(-3462.66 -189.379)"/><path class="f" d="M569.28,702.231s.25-1.92,1.25-1.938a3.348,3.348,0,0,1,1.815.191c.765.295,1.482.751,1.252.818s-1.315-1.1-2.431-.5a8.031,8.031,0,0,0-1.886,1.43Z" transform="translate(-3515.099 -194.966)"/><path class="f" d="M476.6,240.087l3.148-2.206s-4.6-2.721-5.154-2.338-.926,3.822-.926,3.822Z" transform="translate(-3440.987 165.293)"/><path class="j" d="M476.542,239.31l3.148-2.248s-4.6-2.721-5.154-2.338-.926,4.011-.926,4.011Z" transform="translate(-3440.941 165.929)"/><path class="g" d="M476.542,239.31l3.148-2.248s-4.6-2.721-5.154-2.338-.926,4.011-.926,4.011Z" transform="translate(-3440.941 165.929)"/><path class="h" d="M437.935,234.46l-.094-.047a.816.816,0,0,0-.884.092l-9.444,7.661a12.682,12.682,0,0,0-1.767,7.739l5.57,7.89s.636-2.671,1.4-2.163c0,0,1.082,13.682,0,15.654s-1.558,9.354-1.558,9.354l3.658.414s.382-5,1.241-6.777,1.327-7.9,1.327-7.9.773-8.9.645-12.713-1.241-12.027-1.241-12.027A36.456,36.456,0,0,1,437.935,234.46Z" transform="translate(-3403.818 166.21)"/><path class="f" d="M508.364,233.109l-3.924-1.453s5-5.473,5.621-2.437Z" transform="translate(-3464.839 170.878)"/><path class="j" d="M508.364,232.259l-3.924-1.453s5-5.473,5.621-2.437Z" transform="translate(-3464.839 171.537)"/><path class="g" d="M508.364,232.259l-3.924-1.453s5-5.473,5.621-2.437Z" transform="translate(-3464.839 171.537)"/><path class="f" d="M521.32,228.11a.225.225,0,0,1,.162.036Z" transform="translate(-3477.923 171.028)"/><path class="h" d="M523,226.416l10.411,2.249s2.865.636,4.933,7.827-2.833,16-2.833,16l-1.082-.92.542,21s-4.805,1.812-6.332.225-1.367-9.044-1.367-9.044-1.464-13.743-2.388-16-.45-18.548-.45-18.548S523.585,226.29,523,226.416Z" transform="translate(-3479.226 172.342)"/><path class="f" d="M564.889,285.615a59.588,59.588,0,0,0,.319,11.326,61.729,61.729,0,0,0,1.8,8.717l-.944-19.375S565.335,285.2,564.889,285.615Z" transform="translate(-3511.59 126.525)"/><path class="f" d="M559.7,261.6c.254.16,1.369,2.8.859,3.881S559.7,261.6,559.7,261.6Z" transform="translate(-3507.673 145.067)"/><path class="f" d="M482.506,150.527a5.747,5.747,0,0,0-2.289-2.4,5.444,5.444,0,0,1,1.716,2.024,1.6,1.6,0,0,1-.558,2.291,4.211,4.211,0,0,0-1.574,2.262,4.889,4.889,0,0,1-1.641,2.249c-1.034.625-2.4.393-3.478.938a2.716,2.716,0,0,0-1.439,2.662,7.644,7.644,0,0,0,.308,1.216,8.7,8.7,0,0,1,.328,2.646.355.355,0,0,1-.036.169.322.322,0,0,1-.268.128,1.549,1.549,0,0,1-.785-.146,1.826,1.826,0,0,0,1.349.528.265.265,0,0,0,.3-.3,8.627,8.627,0,0,0-.326-2.646,7.388,7.388,0,0,1-.308-1.219,2.709,2.709,0,0,1,1.439-2.66c1.079-.544,2.444-.315,3.478-.938a4.779,4.779,0,0,0,1.639-2.249,4.233,4.233,0,0,1,1.574-2.262A1.6,1.6,0,0,0,482.506,150.527Z" transform="translate(-3440.305 233.023)"/><path class="k" d="M649.77,196.584c-3.1-.061-5.833-2.249-7.382-4.922a4.947,4.947,0,0,1-.747-2.107,2.434,2.434,0,0,1,.085-.5,5.237,5.237,0,0,0,.225-.771,1.351,1.351,0,0,0,0-.315v-.018a1.86,1.86,0,0,0-.675-1.513c-.414-.389-.933-.675-1.365-1.061a6.392,6.392,0,0,1-1.761-4.83v-.094c.016-.764.076-1.531.07-2.3a9.649,9.649,0,0,0-.056-1.3,4.294,4.294,0,0,0-1.39-2.874c-2.217-1.8-5.945.074-8.241-1.626-.558-.416-1.01-1.03-1.686-1.192a2.841,2.841,0,0,0-1.54.209c-1.691.558-3.577,1.291-4.238,2.923-.378.938-.272,2.008-.618,2.957a14.771,14.771,0,0,1-.967,1.785,2.8,2.8,0,0,0-.36,1.491,1.682,1.682,0,0,0,.11.794,2.024,2.024,0,0,0,.551.789,2.622,2.622,0,0,1-.328.526c-.432.528-1.1.9-1.545,1.426a3.368,3.368,0,0,0-.391,3.409c.409,1.133,1.149,2.165,1.659,3.269a1.755,1.755,0,0,1,.169,1.491,4.277,4.277,0,0,1-.747.868,2.728,2.728,0,0,0-.675,1.507c-5.061,1.156-5.066,5.223-5.066,5.223h0l-2.734,6.876s-.438,1.158-.953,2.687l-3.236-.58,2.248,3.764a11.885,11.885,0,0,0-.627,3.67s-1.005,4.722.782,5.547l3.944,1.774a2.338,2.338,0,0,0,.546.245l.16.072a.423.423,0,0,0,.369,0h.054a.531.531,0,0,0,.225-.034.45.45,0,0,0,.2-.214.069.069,0,0,1,0-.022l1.18-.342,1,1.185c.45.317.9.591,1.324.839L615.8,240.679s-.25,20.461-1.005,25.125a13.058,13.058,0,0,0-.175,3.705l-.029.049c.187,1.315.675,1.574.675,1.574v-.018a.148.148,0,0,0,.029.018,13.237,13.237,0,0,1,.809-1.736v.337c-.016,1.736-.07,4.166-.25,5.747-.306,2.7.782,11.591.782,11.591l.375,8.095a7.483,7.483,0,0,1-.922,3.944,18.618,18.618,0,0,0-2.132,4.9,1.024,1.024,0,0,0,0,.164h0l-1.929,2.32s-.753,1.165.949,1.635a9.112,9.112,0,0,0,3.762-.3,2.514,2.514,0,0,0,1.949-2.446,8.656,8.656,0,0,1,1.592-3.056l.317,1.864,2.123.526.272-5.109a2.249,2.249,0,0,0,.146-.9h0c.418-3.634-.985-3.308-.985-3.308a.2.2,0,0,1,.068.126l-.068-.124h0a9.191,9.191,0,0,1-.45-4.5s1.124-8.095,1.509-10.233a74.219,74.219,0,0,0,.07-9.219,3.3,3.3,0,0,0-.011-.335c3.292-.043,7.326-.153,10.156-.427v.333l-.522,19.123a10.5,10.5,0,0,1-.733,3.557.2.2,0,0,1-.025.065,15.514,15.514,0,0,0-1.036,5.012l-.243,6.071v.169h0c-.423.162-1.09.632-1.108,1.994-.029,2,3.49,1.331,3.49,1.331,3.517,0,3.546-3.661,3.546-3.661s.11-3.357.279-5.6-.531-1.752-.531-1.752l-.054,6.39v-5.552l.054-.812v-.022h0v-.173l.443-6.59s3.24-10.982,3.742-13.089c.358-1.5.209-6.008.092-8.5a1.98,1.98,0,0,0-.018-.331c1.005-.09,1.893-.1,2.248-.1h.164s-.166-17.637-.587-24.284-1.088-12.729-2.763-14.559c-1.012-1.106-2.422-4.522-3.373-7.051a35.275,35.275,0,0,0,6.2,2.024c5.3,1.111,4.578-3.494,4.578-3.494l-.537-8.708h.036a44.4,44.4,0,0,0-.585-6.808,20.027,20.027,0,0,0-1.367-4.947c.576-.225,1.145-.465,1.7-.713,1.441-.636,3.065-1.538,3.272-3.092h-.07a2.009,2.009,0,0,0,.054-.342Zm-32.88,12.592h0c.011.9-.023,2.46-.076,4.184l-1.684-2.248,1.689-2.739ZM639.456,213.742Zm.7,3.4-2.806-.9a12.591,12.591,0,0,1,1.734-2.145l.243-.225-.088.018.135-.124.081-.018-.128.124.153-.031a4.787,4.787,0,0,0,.956,1.922c1.007,1.1-.277,1.378-.277,1.378Z" transform="translate(-3543.516 215.203)"/><path class="l" d="M641.282,715.66l-.328,6.224-2.093-.524-.441-2.588Z" transform="translate(-3561.687 -202.369)"/><path class="f" d="M641.282,715.66l-.328,6.224-2.093-.524-.441-2.588Z" transform="translate(-3561.687 -202.369)"/><path class="m" d="M716.48,630.259l3.193.661,2.368-2.091v-5.893l.054-.8v-.025h0v-.171l.441-6.55s3.2-10.9,3.692-13c.351-1.484.2-5.963.088-8.439-.047-1.014-.088-1.693-.088-1.693l-7.049-1.707-.148,5.419-.515,18.986a10.522,10.522,0,0,1-.722,3.532l-.025.065a15.448,15.448,0,0,0-1.023,4.974l-.238,6.037v.166Z" transform="translate(-3629.201 -109.919)"/><path class="f" d="M741.45,730.134v.166h0v-.171Z" transform="translate(-3648.557 -218.114)"/><path class="f" d="M716.48,760.491l3.193.661,2.368-2.091v-.5a.674.674,0,0,1-.339.54l-.034.02a6.363,6.363,0,0,1-3.584.708l-1.246-.106a1.165,1.165,0,0,0-.331.081v.166Z" transform="translate(-3629.201 -240.152)"/><path class="e" d="M717.962,737.676l.034-.018a.675.675,0,0,0,.344-.585l.052-6.343s.688-.492.522,1.738-.274,5.563-.274,5.563-.027,3.634-3.5,3.634c0,0-3.469.661-3.442-1.322s1.432-2.064,1.432-2.064l1.246.108A6.347,6.347,0,0,0,717.962,737.676Z" transform="translate(-3625.496 -218.544)"/><path class="m" d="M642.52,636.072c.081,1.432,4.295.6,4.295.6l2.835-5.5s2.368-1.819,1.183-3.416a2.539,2.539,0,0,1-.173-.272l-.011-.013h0c-.025-.04-.047-.083-.07-.128h0a9.063,9.063,0,0,1-.432-4.452s1.1-8.041,1.486-10.161a74.53,74.53,0,0,0,.07-9.158c-.036-1.142-.07-1.909-.07-1.909l-7-1.873v2.087c-.016,1.725-.07,4.137-.247,5.707-.3,2.669.771,11.508.771,11.508l.371,8.043a7.449,7.449,0,0,1-.9,3.915,18.815,18.815,0,0,0-2.1,4.868.97.97,0,0,0-.011.155Z" transform="translate(-3571.871 -117.081)"/><path class="f" d="M642.513,731.547c.081,1.432,4.295.6,4.295.6l2.835-5.5s2.368-1.819,1.183-3.416a2.562,2.562,0,0,1-.173-.272,13.674,13.674,0,0,1-.953,2.923s-2.341,4.684-3.085,5.756-3.978-.2-4.1-.245A.975.975,0,0,0,642.513,731.547Z" transform="translate(-3571.865 -212.556)"/><path class="e" d="M643.369,722.275s1.385-.322.971,3.285h0a2.323,2.323,0,0,1-1.1,2.062,7.874,7.874,0,0,0-3.294,4.569h0a2.491,2.491,0,0,1-1.922,2.428,9.016,9.016,0,0,1-3.71.3c-1.68-.468-.935-1.623-.935-1.623l1.927-2.287s3.359,1.322,4.1.247S642.5,725.5,642.5,725.5,643.781,722.578,643.369,722.275Z" transform="translate(-3564.662 -212.019)"/><path class="f" d="M727.968,593.52l-.148,5.419c1.878-.182,3.222-.436,3.451-.794.5-.769,2.3-1.093,3.834-1.225-.047-1.014-.088-1.693-.088-1.693Z" transform="translate(-3637.991 -112.221)"/><path class="f" d="M651.94,604.807a2.573,2.573,0,0,1,.771-.931c.742-.411.661,2.644.661,2.644s2.473.022,5.632-.018c-.036-1.142-.07-1.911-.07-1.911l-7-1.871S651.953,603.588,651.94,604.807Z" transform="translate(-3579.173 -119.352)"/><path class="d" d="M645.878,439.222s.827-2.249,1.574-2.649.661,2.642.661,2.642,18.172.166,19.081-1.239,6.195-1.322,6.195-1.322-.164-17.511-.578-24.117-1.073-12.639-2.725-14.456c-1.068-1.176-2.588-4.98-3.528-7.517-.51-1.385-.85-2.395-.85-2.395l-17.345.989-.142,1.405-1.842,18.42s-.247,20.32-.992,24.945S645.878,439.222,645.878,439.222Z" transform="translate(-3573.909 46.956)"/><path class="n" d="M679.5,437.977c.9-1.4,6.195-1.322,6.195-1.322s-.164-17.511-.578-24.117-1.073-12.639-2.725-14.456c-1.073-1.18-2.588-4.98-3.528-7.517-.43-1.165-.738-2.062-.823-2.318l1.349-.076s.34,1.01.852,2.395c.94,2.536,2.458,6.341,3.526,7.517,1.653,1.817,2.314,7.847,2.725,14.456s.58,24.117.58,24.117-5.286-.081-6.2,1.322c-.776,1.2-14.148,1.255-18.029,1.243C667.83,439.209,678.8,439.06,679.5,437.977Z" transform="translate(-3587.63 46.956)"/><path d="M646.11,603.307c.335-.187.5.331.585.958a12.973,12.973,0,0,0-.78,1.691s-.479-.259-.674-1.574A3.06,3.06,0,0,1,646.11,603.307Z" transform="translate(-3573.98 -119.777)"/><path class="i" d="M660.305,191.175c-1.2,1.637.013,3.964-1.275,5.556-.425.526-1.079.9-1.522,1.417a3.364,3.364,0,0,0-.387,3.384c.4,1.124,1.124,2.15,1.637,3.247a1.737,1.737,0,0,1,.166,1.48,4.191,4.191,0,0,1-.738.861,3.106,3.106,0,0,0-.4,3.3,10.667,10.667,0,0,0,2.134,2.946,1.456,1.456,0,0,0,2.116.483,8.319,8.319,0,0,0,3.786-10.858c-.7-1.671-1.859-3.272-1.871-5.037,0-1.4.72-2.739.848-4.133.155-1.7-.848-4.387-2.894-5.127C662.036,189.778,660.914,190.334,660.305,191.175Z" transform="translate(-3582.976 201.583)"/><path class="f" d="M660.305,191.175c-1.2,1.637.013,3.964-1.275,5.556-.425.526-1.079.9-1.522,1.417a3.364,3.364,0,0,0-.387,3.384c.4,1.124,1.124,2.15,1.637,3.247a1.737,1.737,0,0,1,.166,1.48,4.191,4.191,0,0,1-.738.861,3.106,3.106,0,0,0-.4,3.3,10.667,10.667,0,0,0,2.134,2.946,1.456,1.456,0,0,0,2.116.483,8.319,8.319,0,0,0,3.786-10.858c-.7-1.671-1.859-3.272-1.871-5.037,0-1.4.72-2.739.848-4.133.155-1.7-.848-4.387-2.894-5.127C662.036,189.778,660.914,190.334,660.305,191.175Z" transform="translate(-3582.976 201.583)"/><path class="f" d="M686.026,464.55a15.968,15.968,0,0,0-6.77,2.329,46.378,46.378,0,0,1-6.406,3.323" transform="translate(-3595.382 -12.25)"/><path class="f" d="M685.913,489.74a9.909,9.909,0,0,0-6.24,3.035c-.585.618-1.088,1.311-1.7,1.9a7.542,7.542,0,0,1-3.346,1.9" transform="translate(-3596.761 -31.776)"/><path class="f" d="M680.1,508.91a10.909,10.909,0,0,0-5.019,3.026c-.369.4-.7.823-1.073,1.221-1.99,2.136-4.8,3.269-7.515,4.342" transform="translate(-3590.451 -46.636)"/><path class="m" d="M693.2,242.659a49.343,49.343,0,0,0,.495,5.738,7.511,7.511,0,0,0,.992,3.1c1.322,1.574-6.442,3.676-6.442,3.676l-4.585-3.553s3.634-3.346,1.94-6.608S693.2,242.659,693.2,242.659Z" transform="translate(-3603.761 159.839)"/><path class="f" d="M658.79,390.565h18.336c-.51-1.385-.85-2.395-.85-2.395l-17.345.989Z" transform="translate(-3584.483 46.956)"/><path class="g" d="M641.2,300.371h19.6a6.8,6.8,0,0,1,.785-5.2,11.488,11.488,0,0,1,2.053-2.662l.135-.124,6.844-1.515.369-.081s.056-12.445-4.351-14.154a25.764,25.764,0,0,1-7.049-4.018l-6.055,1.871-4.461-2.249c-1.432,1.54-5.232.935-5.232.935-6.222.715-6.222,5.4-6.222,5.4s3.634,8.479,3.91,8.479S641.2,300.371,641.2,300.371Z" transform="translate(-3568.073 136.819)"/><path class="f" d="M665.168,353.765s-4-.886-5.358-2.435" transform="translate(-3585.274 75.512)"/><path class="f" d="M757.306,341.51l-4.636,3.8a7.883,7.883,0,0,0,.153.9l.135-.124,6.844-1.516Z" transform="translate(-3657.254 83.124)"/><path class="f" d="M717.46,372.866s1.014.571,2.568,1.322h2.665a6.8,6.8,0,0,1,.785-5.2l-4.7-1.52C720.379,368.956,717.46,372.866,717.46,372.866Z" transform="translate(-3629.961 63.002)"/><path class="g" d="M621.379,293.76l-2.752,1.486-2.7,6.829s-2.808,7.487-2.534,9.471c0,0-.989,4.681.771,5.507l4.587,2.078a.427.427,0,0,0,.551-.589c-.654-1.239-1.374-3.177-.225-4.243l-1.322-2.752,4.778-7.82,1.6-2.7Z" transform="translate(-3549.08 120.138)"/><path class="f" d="M676.966,348.67c.238.971,1.043,2.473,3.708,3.033L683.6,354.1l3.11,1.41,1.268.573.537-3.883-1.221-.675-1.423-.778s-3.211-5.817-8.295-3.373A1.124,1.124,0,0,0,676.966,348.67Z" transform="translate(-3598.544 79.045)"/><path class="m" d="M677.723,347.245c.238.974,1.041,2.473,3.706,3.033l2.923,2.395,3.112,1.41,1.266.573.537-3.883-1.221-.675-1.412-.771s-3.213-5.817-8.3-3.362A1.124,1.124,0,0,0,677.723,347.245Z" transform="translate(-3599.134 80.139)"/><circle class="f" cx="7.103" cy="7.103" r="7.103" transform="translate(-2922.786 393.328)"/><circle class="m" cx="7.103" cy="7.103" r="7.103" transform="translate(-2922.786 393.164)"/><path class="f" d="M715.516,275.623l-2.136-4.151s3.125-1.264,3.352-2.727,2.995,1.716,2.4,2.77A39.316,39.316,0,0,1,715.516,275.623Z" transform="translate(-3626.798 139.822)"/><path class="g" d="M715.516,274.154,713.38,270s3.125-1.264,3.352-2.727,2.995,1.718,2.4,2.77A39.556,39.556,0,0,1,715.516,274.154Z" transform="translate(-3626.798 140.961)"/><path class="o" d="M615.767,341.542l11.8,15.868s-4.351,2.368-10.343-1.871l-2.588-3.085L607.25,340Z" transform="translate(-3544.532 84.295)"/><path class="m" d="M633.847,371.137l1.075-.029s6.566-6.372,8.178-3.148-4.09,6.237-4.09,6.237l-1.734.935-2.26.675-1.446-1.94Z" transform="translate(-3564.934 63.328)"/><path class="f" d="M630.306,386.343a1.6,1.6,0,0,1,.027,1.111.45.45,0,0,1-.2.214.5.5,0,0,1-.225.031,2.26,2.26,0,0,1-1.482-.733,6.767,6.767,0,0,1-.96-1.39,2.563,2.563,0,0,1-.492-1.655A2.413,2.413,0,0,1,628.2,382.5c1.088-.72,1.124.119,1.363,1.046S630.057,385.407,630.306,386.343Z" transform="translate(-3559.808 51.565)"/><path class="p" d="M629.574,386.343a1.617,1.617,0,0,1,.027,1.111.45.45,0,0,1-.2.214.506.506,0,0,1-.225.031,2.248,2.248,0,0,1-1.482-.733,6.691,6.691,0,0,1-.962-1.39,2.548,2.548,0,0,1-.49-1.655,2.41,2.41,0,0,1,1.219-1.426c1.09-.72,1.124.119,1.365,1.046S629.322,385.407,629.574,386.343Z" transform="translate(-3559.24 51.565)"/><path class="f" d="M623.85,314.739l.549-.929-.479,1.725Z" transform="translate(-3550.393 109.125)"/><path class="f" d="M721.19,370.414l1.266.573.537-3.883-1.221-.675C722.616,367.4,721.878,369.184,721.19,370.414Z" transform="translate(-3632.853 63.808)"/><path class="f" d="M723.714,361.116s-4.088.25-5.824-.866" transform="translate(-3630.294 68.598)"/><path class="n" d="M735.251,297.945a11.509,11.509,0,0,1,2.053-2.664,5.463,5.463,0,0,1,.6-.328l6.372-1.309.369-.081s.056-12.445-4.349-14.154a26.471,26.471,0,0,1-6.871-3.87l.484-.148a25.7,25.7,0,0,0,7.049,4.018c4.407,1.707,4.349,14.154,4.349,14.154h-.661l-6.521,1.248s-.281.272-.367.351a12.638,12.638,0,0,0-2.084,2.757,6.912,6.912,0,0,0-.547,5.226h-.675A6.874,6.874,0,0,1,735.251,297.945Z" transform="translate(-3642.34 134.377)"/><path d="M664.13,277.853c.106-.016.207-.031.317-.043a11.4,11.4,0,0,0,1.349.11A12.261,12.261,0,0,1,664.13,277.853Z" transform="translate(-3588.622 132.501)"/><path d="M691.794,275.935l-4.034-2.042a2.137,2.137,0,0,0,.225-.214l4.209,2.129Z" transform="translate(-3606.939 135.703)"/><path class="g" d="M730.739,340l2.7,3.305.551,8.976s.715,4.569-4.515,3.467a48.227,48.227,0,0,1-11.283-4.506s2.923-3.91,1.322-5.4L727,348.27s1.266-.277.274-1.376a6.2,6.2,0,0,1-1.167-3.085Z" transform="translate(-3630.527 84.295)"/><path class="f" d="M779.42,382.17l1.486,1.707A2.143,2.143,0,0,1,779.42,382.17Z" transform="translate(-3677.989 51.607)"/><path class="f" d="M736.99,360.8l2.314,2.973-1.156.277Z" transform="translate(-3638.093 72.7)"/><path class="f" d="M665.177,184.838a2.372,2.372,0,0,1,.247-1.936,15.286,15.286,0,0,0,.956-1.774c.339-.94.236-2,.607-2.923.654-1.63,2.514-2.359,4.18-2.923a2.81,2.81,0,0,1,1.52-.207c.675.16,1.113.771,1.664,1.183,2.262,1.686,5.941-.171,8.128,1.614a4.254,4.254,0,0,1,1.369,2.851,25.171,25.171,0,0,1-.013,3.242c-.036,1.893.319,3.964,1.736,5.219.427.378.931.661,1.349,1.052a1.842,1.842,0,0,1,.674,1.5,5.209,5.209,0,0,1-.225.764,3.914,3.914,0,0,0,.652,2.923c1.529,2.646,4.225,4.828,7.281,4.888-.2,1.542-1.8,2.437-3.227,3.069a12.672,12.672,0,0,1-5.7,1.5c-1.981-.1-4.047-1.369-4.394-3.321-.119-.675-.1-1.486-.675-1.837-.351-.214-.8-.16-1.183-.319a2.084,2.084,0,0,1-1-1.4,12.628,12.628,0,0,1-.587-3.6c-.025-1.448.166-3.029-.654-4.22-.76-1.1-2.109-1.664-2.986-2.678-.809-.94-1.689-2.073-3.015-2.249C670.056,185,666.261,187.494,665.177,184.838Z" transform="translate(-3589.343 212.169)"/><path class="i" d="M665.177,183.368a2.372,2.372,0,0,1,.247-1.936,15.284,15.284,0,0,0,.956-1.774c.339-.94.236-2,.607-2.923.654-1.632,2.514-2.361,4.18-2.923a2.81,2.81,0,0,1,1.52-.207c.675.16,1.113.771,1.664,1.183,2.262,1.686,5.941-.171,8.128,1.614a4.255,4.255,0,0,1,1.369,2.853,25.134,25.134,0,0,1-.013,3.24c-.036,1.893.319,3.964,1.736,5.219.427.378.931.661,1.349,1.052a1.842,1.842,0,0,1,.674,1.5,5.207,5.207,0,0,1-.225.764,3.914,3.914,0,0,0,.652,2.923c1.533,2.638,4.218,4.825,7.274,4.886-.2,1.542-1.8,2.437-3.227,3.071a12.7,12.7,0,0,1-5.7,1.5c-1.981-.1-4.047-1.369-4.393-3.321-.119-.675-.1-1.486-.675-1.837-.351-.214-.8-.16-1.183-.319a2.084,2.084,0,0,1-1-1.4,12.613,12.613,0,0,1-.587-3.6c-.025-1.448.166-3.029-.654-4.22-.76-1.1-2.109-1.664-2.986-2.678-.81-.94-1.689-2.073-3.015-2.248C670.056,183.53,666.261,186.028,665.177,183.368Z" transform="translate(-3589.343 213.308)"/><path class="f" d="M683.169,275.818l4.072-3.305s-2.788-1.511-3.121-2.8-2.563.612-2.336,1.767S683.169,275.818,683.169,275.818Z" transform="translate(-3602.294 139.111)"/><path class="g" d="M683.926,273.616l4.072-3.3s-2.788-1.511-3.107-2.8-2.563.612-2.336,1.767S683.926,273.616,683.926,273.616Z" transform="translate(-3602.891 140.817)"/><circle class="f" cx="0.324" cy="0.324" r="0.324" transform="translate(-2915.057 413.572)"/><circle class="f" cx="0.324" cy="0.324" r="0.324" transform="translate(-2915.057 415.371)"/><circle class="f" cx="0.324" cy="0.324" r="0.324" transform="translate(-2915.057 417.167)"/><path d="M671.433,187.216c.322-.884.252-1.875.553-2.766a3.021,3.021,0,0,0-.344.634c-.373.929-.268,1.992-.609,2.923l-.022.054a5.134,5.134,0,0,0,.423-.845Z" transform="translate(-3593.955 204.869)"/><path class="n" d="M692.686,226.535a12.7,12.7,0,0,1-5.7,1.5c-1.981-.1-4.047-1.369-4.394-3.319-.119-.675-.1-1.488-.675-1.839-.351-.214-.8-.16-1.183-.319a2.084,2.084,0,0,1-1-1.4,12.615,12.615,0,0,1-.587-3.6c-.025-1.446.169-3.027-.652-4.22-.762-1.1-2.111-1.662-2.988-2.678-.809-.938-1.689-2.073-3.015-2.249-1.819-.247-5.621,2.249-6.7-.409a2.091,2.091,0,0,1,.07-1.536c-.079.133-.155.265-.225.4a2.382,2.382,0,0,0-.245,1.938c1.081,2.653,4.877.16,6.7.409,1.327.18,2.206,1.315,3.015,2.249.877,1.016,2.226,1.574,2.986,2.68.823,1.192.63,2.772.654,4.218a12.613,12.613,0,0,0,.587,3.6,2.088,2.088,0,0,0,1,1.4c.378.16.832.108,1.183.319.58.351.564,1.171.675,1.839.351,1.949,2.415,3.218,4.394,3.319a12.715,12.715,0,0,0,5.7-1.5c1.3-.58,2.757-1.383,3.148-2.7A6.812,6.812,0,0,1,692.686,226.535Z" transform="translate(-3589.52 187.808)"/><path class="q" d="M815.307,265.1a52.912,52.912,0,0,0-6.568-3.413l-.1-.07a3.959,3.959,0,0,1-1.2-1.516,3.191,3.191,0,0,1,0-.326.136.136,0,0,0,0,.031c.074-1.45,1.106-2.77,2.084-3.921l2.5-2.943a2.9,2.9,0,0,0,.645-1.021,2.355,2.355,0,0,0,.068-.627v-.256c-.014-.731-.034-1.464-.061-2.195-.022-.639-.187-1.444-.825-1.574-.333-.067-.774.052-.949-.225a.546.546,0,0,1-.043-.38.123.123,0,0,0,0,.031v-.036a8.48,8.48,0,0,0,.236-1.5,2.053,2.053,0,0,0-.1-.762c-.369-1.059-1.644-1.5-2.77-1.7s-2.39-.371-3.1-1.252a9.161,9.161,0,0,0-.616-.848,2.43,2.43,0,0,0-1.151-.569,6.521,6.521,0,0,0-4.189.364,3.76,3.76,0,0,1-1.689.535c-.6-.036-1.151-.468-1.763-.571a2.515,2.515,0,0,0-2.424,1.419,3.47,3.47,0,0,0-.45,1.673v.1h0a2.447,2.447,0,0,0,.643,1.709c.427.45,1.061.747,1.239,1.329.072.236.054.492.119.733a.666.666,0,0,0,.027.088l-.031.043a7.42,7.42,0,0,0-1.574,4.573,7.591,7.591,0,0,0,5.333,7.2c0,.074,0,.148,0,.225a3.235,3.235,0,0,1-1.034,2.518l-6.743,2.694s-4.065-.483-5.531,5.457a10.128,10.128,0,0,0-.252,3.013,8.735,8.735,0,0,1-1.124,4.513c-1.666,3.265-1.286,10.759,2.123,11.5,3.218.7,4.477.409,4.609.376v.13c-.054,1.408-.564,13.536-2.419,15-.513.407-.418.675,0,.866,0,0,0,.079-.011.225-.056.9-.342,4.272-1.574,6.188-1.441,2.226-1.291,15.065-1.291,15.065l-.983,7.568s.6,4.675,0,5.491c-.542.726-1.261,18.02-1.412,21.77H782.9a1.826,1.826,0,0,0-1.457.9,25.407,25.407,0,0,1-3.584,3.683c-.6.859-2.842,1.682-4.025,2.069a2.5,2.5,0,0,0-.45.2,2.4,2.4,0,0,0-1.016,1.07,1.149,1.149,0,0,0-.108.9c.3.74,6.59,1.261,8.182.517,1.25-.582,6.206-1.349,8.263-1.65a1.7,1.7,0,0,0,1.47-1.471.969.969,0,0,0-.189-.735h0a6.519,6.519,0,0,1-.675-2.7,1.825,1.825,0,0,0,.463-.274,19.754,19.754,0,0,1,1.124-7.939c1.516-4.007,1.97-11.427,1.592-16.25,0,0,4.621-19.886,8.259-21.741h0c.056.072,1.821,2.336,2.046,9.349a28.329,28.329,0,0,0,2.8,11.8s-1.138,12.095,0,16.621l-1.486,7.139c-.11-.092-.18-.164-.18-.164s.045.2.106.515l-.031.153.065.014a14.044,14.044,0,0,1,.315,3.373c-.058.519-.2,1.232-.3,1.931-.157,1.1-.2,2.165.378,2.4.949.382,6.521.9,7.465-.324a1.752,1.752,0,0,0,.274-1.833,1.855,1.855,0,0,0-.274-.468s-1.48-2.417-1.061-4.122a1.255,1.255,0,0,0-.178-.978,50.276,50.276,0,0,1,1.275-8c.949-3.571,2.948-11.4,1.477-16.547h0q-.083-.3-.189-.594a22.223,22.223,0,0,1-.834-8.681,17.7,17.7,0,0,1,0-7.568c.911-4.155,1.547-8.236,1.547-8.236a52.081,52.081,0,0,0,.063-8.857,2.233,2.233,0,0,0-.029-.225l.238-.054s-1.288-5.713-1.743-9.349c-.108-.859-.247-1.945-.4-3.105a7.924,7.924,0,0,0,1.234-.308c4.09-1.41,5.378-14.166,5.378-14.166v-4.047S820.081,267.844,815.307,265.1Zm-30.481,98.538c-.126-.063-.2-.106-.2-.106h0Z" transform="translate(-3672.403 161.935)"/><path class="r" d="M850.888,554.7c1.774,5.1-.3,13.383-1.259,17.089a51.654,51.654,0,0,0-1.257,8.135,17.132,17.132,0,0,1-6.507-.148l1.554-7.616c-1.111-4.511,0-16.565,0-16.565a28.737,28.737,0,0,1-2.736-11.757c-.225-6.986-1.94-9.246-1.994-9.316h0c-3.548,1.848-8.059,21.667-8.059,21.667.369,4.8-.076,12.2-1.554,16.189a20.011,20.011,0,0,0-1.109,7.91,2.406,2.406,0,0,1-2.024.387,13.811,13.811,0,0,1-4.643-2.161s.812-21.586,1.405-22.4,0-5.473,0-5.473l.96-7.542s-.148-12.794,1.257-15.011c1.214-1.916,1.493-5.284,1.547-6.168v-.225l2.141-2.563s20.7-1.554,22.26,0a4.438,4.438,0,0,1,.756,2.339,52.982,52.982,0,0,1-.063,8.825s-.621,4.068-1.509,8.207a18.016,18.016,0,0,0,0,7.544A22.581,22.581,0,0,0,850.888,554.7Z" transform="translate(-3710.452 -54.022)"/><path class="l" d="M920.217,792.387c-.924,1.221-6.359.7-7.285.324-.564-.225-.522-1.3-.369-2.392.1-.695.238-1.405.3-1.922a17.7,17.7,0,0,0-.45-4.031s1.219,1.3,1.513,0a1.41,1.41,0,0,1,1.057-1,2.761,2.761,0,0,1,1.92.119c.96.418,2.561,1.306,2.275,2.507-.407,1.7,1.034,4.108,1.034,4.108a1.87,1.87,0,0,1,.27.463,1.774,1.774,0,0,1-.263,1.828Z" transform="translate(-3781.076 -259.285)"/><path class="f" d="M920.4,816.779c-.924,1.221-6.359.7-7.285.324-.564-.225-.522-1.3-.369-2.392a6.273,6.273,0,0,0,3.231.349,9.1,9.1,0,0,1,1.162-.036,27.021,27.021,0,0,0,3.53-.072A1.774,1.774,0,0,1,920.4,816.779Z" transform="translate(-3781.261 -283.676)"/><path class="f" d="M846.626,606.674c.369,4.8-.076,12.2-1.554,16.189a20.011,20.011,0,0,0-1.109,7.91,2.406,2.406,0,0,1-2.024.387c.45-3.119,2.347-16.556,3.564-27.173a44.465,44.465,0,0,1,7.87-20.407L854.667,585C851.136,586.856,846.626,606.674,846.626,606.674Z" transform="translate(-3726.452 -104.516)"/><path class="s" d="M885.308,310.063l-.9,4.436-4.423,7.431-5.453-2.329s-7.42-7.764-2.754-8.873a4.127,4.127,0,0,0,1.547-.688,3.2,3.2,0,0,0,1.207-2.676,8.2,8.2,0,0,0-.751-3.179l9.538-2.995a15.313,15.313,0,0,0-.675,3.863c-.074,2.6.9,3.879,1.684,4.5A2.864,2.864,0,0,0,885.308,310.063Z" transform="translate(-3748.387 114.378)"/><path class="f" d="M895.529,301.19a15.307,15.307,0,0,0-.675,3.863,7.249,7.249,0,0,1-.555.591,7.546,7.546,0,0,1-7.541,1.72,8.2,8.2,0,0,0-.758-3.179Z" transform="translate(-3760.605 114.378)"/><path class="s" d="M881.237,269.761a7.508,7.508,0,1,1-2.2-5.343A7.544,7.544,0,0,1,881.237,269.761Z" transform="translate(-3745.218 144.586)"/><path class="f" d="M885.308,338.859l-.9,4.436-4.423,7.431-5.453-2.329s-7.42-7.764-2.754-8.873a4.128,4.128,0,0,0,1.547-.688c-.841,2.311,2.631,7.121,2.631,7.121.4.6,1.331.225,1.331.225,2.237-.34,6.354-6.772,7.027-7.843A2.864,2.864,0,0,0,885.308,338.859Z" transform="translate(-3748.387 85.582)"/><path class="f" d="M869.5,521.457c-1.313.3-8.578,1.907-11.332,1.5-3.031-.45-8.924-.738-8.924-.738s-3.753.2-4.909-.326v-.225l2.141-2.563s20.7-1.554,22.26,0A4.416,4.416,0,0,1,869.5,521.457Z" transform="translate(-3728.304 -54.006)"/><path class="g" d="M838.14,346.421s-3.9-5.4-2.431-7.51l-6.59,2.7s-3.966-.481-5.4,5.439a10.3,10.3,0,0,0-.245,3,8.888,8.888,0,0,1-1.086,4.5c-1.626,3.254-1.257,10.723,2.071,11.467s4.508.369,4.508.369-.45,13.531-2.365,15.085,4.9,1.183,4.9,1.183,5.893.3,8.927.74,11.535-1.554,11.535-1.554-1.257-5.693-1.7-9.316-1.482-11.339-1.482-11.339l7.541-10.217s1.331-6.174-3.328-8.911a52.652,52.652,0,0,0-6.41-3.406s-4.681,7.622-7.121,7.991C839.471,346.641,838.544,347.014,838.14,346.421Z" transform="translate(-3710.572 85.341)"/><path class="f" d="M852.847,382.74a11.119,11.119,0,0,0,.371,3.4c.443.96,2.071,6.3,2.071,6.3h-3.7s2-2.145,1.851-3.182S852.847,382.74,852.847,382.74Z" transform="translate(-3733.932 51.165)"/><path class="s" d="M865.234,428.9s-8.167-2-8.927-3.7-2.858-5.507-2.858-5.507l.861-1.16,3.971,3.116s4.722,3.771,6.952,4.142S865.234,428.9,865.234,428.9Z" transform="translate(-3735.374 23.415)"/><path class="t" d="M865.234,428.9s-8.167-2-8.927-3.7-2.858-5.507-2.858-5.507l.861-1.16,3.971,3.116s4.722,3.771,6.952,4.142S865.234,428.9,865.234,428.9Z" transform="translate(-3735.374 23.415)"/><path class="s" d="M886.4,421.71v4.43h-.711a20.706,20.706,0,0,0-10.059,2.606l-1.332.738-.357.2-2.294-5.172,2.145-1.922h.11a12.825,12.825,0,0,0,3.755-.083,6.1,6.1,0,0,1,4.735-.607c1.324.34,2.458,1.824,3.742,1.36Z" transform="translate(-3749.481 20.995)"/><path class="f" d="M913.492,368.672l1.477,1.664v4.032s-1.257,12.718-5.248,14.123-11.121-.814-11.121-.814-1.841-4.879-.98-5.172,7.611-2.078,7.611-2.078-.094-7.461,1.383-9.68c0,0-.96-6.95,2.368-7.1S913.492,368.672,913.492,368.672Z" transform="translate(-3769.434 65.966)"/><path class="g" d="M914.5,368.672l1.48,1.664v4.032s-1.257,12.718-5.25,14.123-11.121-.814-11.121-.814-1.841-4.879-.978-5.172,7.611-2.078,7.611-2.078-.1-7.461,1.383-9.68c0,0-.962-6.95,2.365-7.1S914.5,368.672,914.5,368.672Z" transform="translate(-3770.213 65.966)"/><path class="f" d="M884.486,272.87a2.972,2.972,0,0,0-.169-1.441,1.1,1.1,0,0,0-1.174-.675c-.632.148-.9.971-1.524,1.169a1.218,1.218,0,0,1-1.349-.693,3.45,3.45,0,0,1-.256-1.61v-1.853a3.066,3.066,0,0,0-.436-1.927,3.4,3.4,0,0,0-2.536-.917,2.152,2.152,0,0,0-1.448.582,1.864,1.864,0,0,1-1.522.542,1.311,1.311,0,0,1-1.061-.917v-.022a7.541,7.541,0,1,1,11.211,10.01,20.324,20.324,0,0,0,.265-2.248Z" transform="translate(-3750.535 144.679)"/><path class="u" d="M867.331,250.055a1.322,1.322,0,0,1-1.063-.92c-.061-.238-.045-.492-.115-.729-.173-.582-.794-.884-1.21-1.327a2.972,2.972,0,0,1-.189-3.4,2.457,2.457,0,0,1,2.365-1.412c.6.1,1.124.528,1.722.569a3.475,3.475,0,0,0,1.648-.533,6.21,6.21,0,0,1,4.1-.364,2.361,2.361,0,0,1,1.124.569,9.849,9.849,0,0,1,.6.843c.688.877,1.922,1.05,3.022,1.248s2.343.634,2.7,1.691a4.419,4.419,0,0,1-.13,2.19.661.661,0,0,0,.029.45c.173.283.6.164.926.225.623.133.782.935.807,1.574q.038,1.093.058,2.188a2.787,2.787,0,0,1-.065.809,2.857,2.857,0,0,1-.627,1.019l-2.442,2.934c-1.084,1.3-2.233,2.815-2.024,4.5a1.047,1.047,0,0,1-1.291-.751,3.358,3.358,0,0,1,.081-1.666,20.43,20.43,0,0,0,.391-2.889,2.963,2.963,0,0,0-.169-1.439,1.1,1.1,0,0,0-1.174-.675c-.634.148-.9.971-1.524,1.169a1.218,1.218,0,0,1-1.349-.693,3.44,3.44,0,0,1-.256-1.608v-1.855a3.067,3.067,0,0,0-.436-1.927,3.4,3.4,0,0,0-2.536-.917,2.152,2.152,0,0,0-1.446.582A1.867,1.867,0,0,1,867.331,250.055Z" transform="translate(-3743.795 160.454)"/><path class="f" d="M885.3,381.92l2.316,9.513S889.442,391.422,885.3,381.92Z" transform="translate(-3760.062 51.801)"/><path class="f" d="M913.174,374.85s-3.031,4.965-1.848,10.1l.564.04S910.883,382.614,913.174,374.85Z" transform="translate(-3780.024 57.281)"/><path class="f" d="M929,498.909s3.724-1.232,3.993,1.626C933,500.535,932.3,498.576,929,498.909Z" transform="translate(-3793.936 -38.679)"/><path class="f" d="M859.246,426.81s-.74,5.172.591,7.247a16.217,16.217,0,0,1-6.507.888l-.45-8.135Z" transform="translate(-3734.932 17.004)"/><path class="f" d="M874.3,432.684l-.357.2-2.294-5.172,2.145-1.922h.11C873.871,426.046,873.273,430.492,874.3,432.684Z" transform="translate(-3749.481 17.795)"/><path class="g" d="M851.874,425.83s-.74,5.172.591,7.245a16.17,16.17,0,0,1-6.507.888l-2.588-8.133Z" transform="translate(-3727.56 17.764)"/><path class="l" d="M792.3,788.587a1.675,1.675,0,0,1-1.437,1.466c-2.008.3-6.844,1.064-8.065,1.646-1.554.74-7.69.225-7.987-.517a1.174,1.174,0,0,1,.106-.9,2.37,2.37,0,0,1,.992-1.066,2.633,2.633,0,0,1,.45-.2c1.156-.384,3.339-1.2,3.928-2.062a25.06,25.06,0,0,0,3.5-3.667,1.776,1.776,0,0,1,1.421-.886c.648-.029,1.369.3,1.666,1.716,0,0,3.546,2.024,4.5.25,0,0,.148,2.725.737,3.472h0A.99.99,0,0,1,792.3,788.587Z" transform="translate(-3674.383 -258.633)"/><path class="f" d="M792.3,807.336a1.675,1.675,0,0,1-1.437,1.466c-2.008.3-6.844,1.064-8.065,1.646-1.554.74-7.69.225-7.987-.517a1.174,1.174,0,0,1,.106-.9,2.371,2.371,0,0,1,.992-1.066c1,.675,3.222,1.313,8.108.551a35.793,35.793,0,0,0,8.095-1.927h0a.989.989,0,0,1,.189.747Z" transform="translate(-3674.383 -277.382)"/><path d="M942.408,266.236V266.2a6.623,6.623,0,0,0,.225-1.68,11.085,11.085,0,0,1-.225,1.349A.818.818,0,0,0,942.408,266.236Z" transform="translate(-3804.313 142.803)"/><path class="v" d="M877.552,267.56a2.138,2.138,0,0,1,.182.845,2.549,2.549,0,0,0-.182-1.178,1.093,1.093,0,0,0-1.171-.675c-.634.148-.9.971-1.527,1.169a1.221,1.221,0,0,1-1.349-.693,3.422,3.422,0,0,1-.256-1.61v-1.853a3.066,3.066,0,0,0-.436-1.927,3.407,3.407,0,0,0-2.536-.92,2.154,2.154,0,0,0-1.448.585,1.868,1.868,0,0,1-1.525.542,1.318,1.318,0,0,1-1.061-.917c-.061-.238-.045-.495-.115-.731-.173-.58-.794-.884-1.21-1.324a2.421,2.421,0,0,1-.623-1.574,2.52,2.52,0,0,0,.623,1.9c.416.45,1.037.744,1.21,1.324.07.225.054.492.115.731a1.318,1.318,0,0,0,1.061.917,1.868,1.868,0,0,0,1.525-.542,2.154,2.154,0,0,1,1.448-.585,3.4,3.4,0,0,1,2.536.92,3.084,3.084,0,0,1,.436,1.927v1.853a3.4,3.4,0,0,0,.256,1.608,1.224,1.224,0,0,0,1.349.695c.621-.2.9-1.021,1.527-1.169A1.136,1.136,0,0,1,877.552,267.56Z" transform="translate(-3743.772 148.4)"/><path d="M932.737,292.229a2.841,2.841,0,0,1-.63,1.016l-2.442,2.934c-1.028,1.234-2.114,2.664-2.024,4.241a7.275,7.275,0,0,1,2.024-3.908l2.442-2.934a2.841,2.841,0,0,0,.63-1.016,2.8,2.8,0,0,0,.065-.812A2.142,2.142,0,0,1,932.737,292.229Z" transform="translate(-3792.879 121.696)"/><path d="M921.72,326.746a1.726,1.726,0,0,1-.074-.4,2,2,0,0,0,.074.729,1.043,1.043,0,0,0,1.291.749,3.158,3.158,0,0,1-.027-.324A1.045,1.045,0,0,1,921.72,326.746Z" transform="translate(-3788.23 94.876)"/><path class="f" d="M812.69,789.36s.774,1.349,3.575.162" transform="translate(-3703.778 -264.026)"/><path class="f" d="M918,790.82s2.415,2.844,5.459.933" transform="translate(-3785.409 -265.158)"/><path class="f" d="M943.183,641.23s-1.707,1.066-1.761,1.675.881-.45.881-.45Z" transform="translate(-3803.563 -149.203)"/><path class="f" d="M941.7,677.59a3.568,3.568,0,0,1-2.1.821c-1.277.056-1.169,1.72-.335,1.221A20.934,20.934,0,0,0,941.7,677.59Z" transform="translate(-3801.404 -177.388)"/><path class="f" d="M948.584,682.34s-.818,4.023-1.484,3.247" transform="translate(-3807.966 -181.07)"/><path d="M359.992,559.3v.025H359.7Q359.866,559.313,359.992,559.3Z" transform="translate(-3330.158 -74.228)"/><path d="M416.39,345.87l.038.011Z" transform="translate(-3374.102 91.212)"/><ellipse class="w" cx="6.055" cy="1.023" rx="6.055" ry="1.023" transform="translate(-2989.317 470.76)"/><ellipse class="w" cx="6.055" cy="1.023" rx="6.055" ry="1.023" transform="translate(-3013.171 485.27)"/><ellipse class="g" cx="9.041" cy="1.529" rx="9.041" ry="1.529" transform="translate(-3022.462 471.783)"/><path class="g" d="M69.928,717.516a2.615,2.615,0,0,1-.863-1.3,1.159,1.159,0,0,1,.6-1.324,1.692,1.692,0,0,1,1.592.558,2.137,2.137,0,0,0,1.549.749,2.359,2.359,0,0,1-.729-2.208.9.9,0,0,1,.2-.45c.306-.328.863-.187,1.232.072a4.588,4.588,0,0,1,1.5,3.841,7.083,7.083,0,0,0,.022-1.574,1.619,1.619,0,0,1,.594-1.4,1.8,1.8,0,0,1,.9-.225,1.881,1.881,0,0,1,1.471.418,1.446,1.446,0,0,1-.058,1.8,5.88,5.88,0,0,1-1.52,1.219,3.355,3.355,0,0,0-1.088,1.037,1.059,1.059,0,0,0-.081.184H71.967A9.092,9.092,0,0,1,69.928,717.516Z" transform="translate(-3087.087 -246.704)"/><ellipse class="w" cx="6.055" cy="1.023" rx="6.055" ry="1.023" transform="translate(-2849.858 508.099)"/><path class="x" d="M1042.91,746.677s3.454-.106,4.5-.848,5.311-1.626,5.569-.436,5.192,5.911,1.291,5.943-9.059-.607-10.1-1.241S1042.91,746.677,1042.91,746.677Z" transform="translate(-3890.778 -242.311)"/><path class="y" d="M1054.335,757.35c-3.9.031-9.059-.607-10.1-1.241-.792-.481-1.106-2.21-1.212-3.008h-.115s.225,2.786,1.257,3.418,6.2,1.273,10.1,1.241c1.124,0,1.515-.409,1.493-1C1055.6,757.125,1055.173,757.35,1054.335,757.35Z" transform="translate(-3890.778 -248.736)"/></g></svg>