<svg xmlns="http://www.w3.org/2000/svg" xmlns:xlink="http://www.w3.org/1999/xlink" width="208.453" height="155.961" viewBox="0 0 208.453 155.961"><defs><style>.a,.d{fill:#ec7e73;}.a{opacity:0.2;}.b{fill:url(#a);}.c{fill:#fff;}.e{fill:#ffc107;}</style><linearGradient id="a" x1="0.5" y1="1" x2="0.5" gradientUnits="objectBoundingBox"><stop offset="0.01" stop-color="gray" stop-opacity="0.251"/><stop offset="0.54" stop-color="gray" stop-opacity="0.122"/><stop offset="1" stop-color="gray" stop-opacity="0.102"/></linearGradient></defs><g transform="translate(3077.807 -626.325)"><g transform="translate(-3077.807 626.325)"><path class="a" d="M-3069.847,715.514s53.1-41.884,58.254-73.331,42.789-7.733,72.174,0,95.373,27.839,59.8,53.1-73.205,38.149-86.093,71.143-56.193,8.248-92.279-17.528S-3069.847,715.514-3069.847,715.514Z" transform="translate(3077.807 -626.325)"/></g><path class="b" d="M174.6,132.63H293.131a9.124,9.124,0,0,1,9.06,9.189V219.8a9.124,9.124,0,0,1-9.06,9.189H224.343c-2.29,7.959-8.043,18.939-22.507,23.82l4.086-23.82H174.61a9.124,9.124,0,0,1-9.06-9.189V141.814A9.1,9.1,0,0,1,174.6,132.63Z" transform="translate(-3210.045 519.341)"/><path class="c" d="M180.608,142.1h115.71a8.838,8.838,0,0,1,8.838,8.838v75.075a8.838,8.838,0,0,1-8.838,8.838H229.172c-2.235,7.661-7.851,18.221-21.969,22.928l3.987-22.928H180.608a8.838,8.838,0,0,1-8.838-8.838V150.946A8.838,8.838,0,0,1,180.608,142.1Z" transform="translate(-3214.694 512.263)"/><rect class="d" width="62.282" height="6.833" transform="translate(-3032.214 699.482)"/><rect class="d" width="101.45" height="6.833" transform="translate(-3031.904 712.098)"/><rect class="d" width="26.138" height="6.833" transform="translate(-3031.593 724.711)"/><g transform="translate(-3011.297 672.999)"><path class="e" d="M12.721,5.11a.677.677,0,0,0-.584-.466L8.456,4.31,7,.9A.678.678,0,0,0,5.754.9L4.3,4.31.616,4.644A.679.679,0,0,0,.232,5.83L3.014,8.27l-.82,3.614a.677.677,0,0,0,1.008.732l3.175-1.9,3.174,1.9a.678.678,0,0,0,1.009-.732L9.74,8.27l2.783-2.44a.678.678,0,0,0,.2-.721Zm0,0" transform="translate(14.393 -0.491)"/><path class="e" d="M12.721,5.11a.677.677,0,0,0-.584-.466L8.456,4.31,7,.9A.678.678,0,0,0,5.754.9L4.3,4.31.616,4.644A.679.679,0,0,0,.232,5.83L3.014,8.27l-.82,3.614a.677.677,0,0,0,1.008.732l3.175-1.9,3.174,1.9a.678.678,0,0,0,1.009-.732L9.74,8.27l2.783-2.44a.678.678,0,0,0,.2-.721Zm0,0" transform="translate(43.202 -0.491)"/><path class="e" d="M12.721,5.11a.677.677,0,0,0-.584-.466L8.456,4.31,7,.9A.678.678,0,0,0,5.754.9L4.3,4.31.616,4.644A.679.679,0,0,0,.232,5.83L3.014,8.27l-.82,3.614a.677.677,0,0,0,1.008.732l3.175-1.9,3.174,1.9a.678.678,0,0,0,1.009-.732L9.74,8.27l2.783-2.44a.678.678,0,0,0,.2-.721Zm0,0" transform="translate(28.785 -0.491)"/><path class="e" d="M12.721,5.11a.677.677,0,0,0-.584-.466L8.456,4.31,7,.9A.678.678,0,0,0,5.754.9L4.3,4.31.616,4.644A.679.679,0,0,0,.232,5.83L3.014,8.27l-.82,3.614a.677.677,0,0,0,1.008.732l3.175-1.9,3.174,1.9a.678.678,0,0,0,1.009-.732L9.74,8.27l2.783-2.44a.678.678,0,0,0,.2-.721Zm0,0" transform="translate(57.595 -0.491)"/><path class="e" d="M12.721,5.11a.677.677,0,0,0-.584-.466L8.456,4.31,7,.9A.678.678,0,0,0,5.754.9L4.3,4.31.616,4.644A.679.679,0,0,0,.232,5.83L3.014,8.27l-.82,3.614a.677.677,0,0,0,1.008.732l3.175-1.9,3.174,1.9a.678.678,0,0,0,1.009-.732L9.74,8.27l2.783-2.44a.678.678,0,0,0,.2-.721Zm0,0" transform="translate(0 -0.491)"/></g></g></svg>