<svg xmlns="http://www.w3.org/2000/svg" width="284.511" height="278.523" viewBox="0 0 284.511 278.523"><defs><style>.a,.c{fill:#ec7e73;}.a{opacity:0.2;}.b{fill:#fff;}.d{fill:#3f3d56;}</style></defs><g transform="translate(3286.691 218.184)"><path class="a" d="M30.654,130.1s-48.066-25.559,12.207-64.088S68.039,8.41,108.475.781,224.063,42.743,185.915,93.1s-57.221,47.684-77.44,103.38S19.592,157.186,3.57,150.319,30.654,130.1,30.654,130.1Z" transform="translate(-3185.535 60.339) rotate(-121)"/><circle class="b" cx="44.526" cy="44.526" r="44.526" transform="translate(-3198.075 -113.318)"/><path class="c" d="M639.231,469.123a59.511,59.511,0,1,1-59.511-59.512A59.51,59.51,0,0,1,639.231,469.123Zm-66.388,31.5,44.144-44.144a3.835,3.835,0,0,0,0-5.432l-5.432-5.392a3.828,3.828,0,0,0-5.424,0l-36,36.005-16.811-16.851a3.851,3.851,0,0,0-5.432,0l-5.432,5.464a3.851,3.851,0,0,0,0,5.432l24.96,24.951a3.836,3.836,0,0,0,5.432,0Z" transform="translate(-3734.216 -544.132)"/><ellipse class="c" cx="16.896" cy="2.857" rx="16.896" ry="2.857" transform="translate(-3102.663 -32.387)"/><path class="c" d="M895.519,830.415a4.918,4.918,0,0,0,1.609-2.433A2.169,2.169,0,0,0,896,825.507c-1.034-.395-2.14.324-2.975,1.046s-1.8,1.551-2.9,1.4a4.4,4.4,0,0,0,1.367-4.122,1.737,1.737,0,0,0-.382-.84c-.571-.614-1.615-.353-2.3.135-2.185,1.534-2.794,4.506-2.807,7.172a13.482,13.482,0,0,1-.042-2.941,3.035,3.035,0,0,0-1.109-2.618,3.335,3.335,0,0,0-1.681-.395,3.5,3.5,0,0,0-2.748.781,2.709,2.709,0,0,0,.109,3.362,10.7,10.7,0,0,0,2.845,2.277,6.3,6.3,0,0,1,2.028,1.937,1.75,1.75,0,0,1,.15.349H891.7a17.252,17.252,0,0,0,3.815-2.628Z" transform="translate(-3974.298 -864.617)"/><path class="c" d="M801.891,156.866s-35.38-2.135-31.212,22.657c0,0-.84,4.382,3.143,6.37,0,0,.063-1.836,3.63-1.21a16.6,16.6,0,0,0,3.845.185,8.01,8.01,0,0,0,4.7-1.92h0s9.946-4.109,13.812-20.362c0,0,2.861-3.546,2.748-4.458l-5.97,2.55s2.042,4.307.42,7.885c0,0-.193-7.732-1.341-7.563-.231.034-3.1,1.492-3.1,1.492s3.509,7.5.861,12.955c0,0,1-9.244-1.958-12.413l-4.2,2.454s4.1,7.749,1.32,14.072c0,0,.713-9.7-2.206-13.476l-3.807,2.971s3.853,7.635,1.5,12.88c0,0-.307-11.286-2.328-12.139,0,0-3.332,2.941-3.841,4.143,0,0,2.639,5.547,1,8.471,0,0-1-7.521-1.828-7.563,0,0-3.319,4.983-3.664,8.4a18.107,18.107,0,0,1,2.861-8.874A10.011,10.011,0,0,0,771.191,177s.517-3.521,5.9-3.832c0,0,2.744-3.782,3.475-4.009,0,0-5.353-.451-8.6.992,0,0,2.857-3.324,9.585-1.811l3.76-3.072s-7.051-.962-10.042.1c0,0,3.441-2.941,11.055-.8l4.093-2.446s-6.013-1.294-9.593-.84c0,0,3.782-2.038,10.795.172l2.941-1.314s-4.4-.866-5.694-1-1.357-.492-1.357-.492a15.274,15.274,0,0,1,8.273.92S802,157.257,801.891,156.866Z" transform="translate(-3876.552 -306.476)"/><path class="c" d="M18.456.027S-2.239-1.222.2,13.279a3.524,3.524,0,0,0,1.838,3.726s.037-1.074,2.123-.708a9.708,9.708,0,0,0,2.249.108,4.685,4.685,0,0,0,2.748-1.123h0s5.818-2.4,8.079-11.911c0,0,1.674-2.074,1.607-2.608L15.352,2.256s1.194,2.519.246,4.612c0,0-.113-4.522-.784-4.424-.135.02-1.814.872-1.814.872s2.052,4.387.5,7.578c0,0,.587-5.407-1.145-7.26L9.9,5.069s2.4,4.532.772,8.231c0,0,.417-5.673-1.29-7.882L7.155,7.156s2.254,4.466.88,7.534c0,0-.179-6.6-1.362-7.1a13.692,13.692,0,0,0-2.247,2.423s1.543,3.244.585,4.955c0,0-.587-4.4-1.069-4.424,0,0-1.942,2.915-2.143,4.916a10.592,10.592,0,0,1,1.674-5.191A5.856,5.856,0,0,0,.5,11.805s.3-2.06,3.453-2.241A13.517,13.517,0,0,1,5.985,7.219,12.727,12.727,0,0,0,.954,7.8S2.625,5.855,6.56,6.74l2.2-1.8S4.636,4.38,2.886,5c0,0,2.013-1.72,6.466-.467l2.394-1.431a21.958,21.958,0,0,0-5.611-.492s2.212-1.192,6.314.1l1.72-.769s-2.576-.506-3.33-.587-.794-.288-.794-.288a8.934,8.934,0,0,1,4.839.538S18.518.256,18.456.027Z" transform="translate(-3219.78 -128.15) rotate(60)"/><path class="d" d="M14.253.021S-1.714-.942.152,10.261a2.73,2.73,0,0,0,1.42,2.878s.029-.84,1.643-.55a7.357,7.357,0,0,0,1.735.084A3.6,3.6,0,0,0,7.072,11.8h0s4.5-1.857,6.244-9.2c0,0,1.29-1.6,1.239-2.013l-2.7,1.151a4.847,4.847,0,0,1,.2,3.563s-.088-3.492-.6-3.412c-.105,0-1.4.676-1.4.676s1.588,3.391.391,5.853c0,0,.454-4.177-.887-5.61l-1.9,1.127s1.853,3.5.6,6.358c0,0,.324-4.382-1-6.088L5.533,5.546s1.74,3.45.681,5.82c0,0-.143-5.1-1.055-5.488A10.543,10.543,0,0,0,3.424,7.753s1.193,2.521.454,3.828c0,0-.454-3.4-.84-3.417a11.319,11.319,0,0,0-1.656,3.782A8.2,8.2,0,0,1,2.676,7.937a4.521,4.521,0,0,0-2.3,1.189S.613,7.534,3.046,7.4A11.5,11.5,0,0,1,4.617,5.58a9.842,9.842,0,0,0-3.887.451s1.29-1.5,4.328-.819L6.739,3.825S3.551,3.4,2.2,3.868c0,0,1.555-1.328,5-.361L9.045,2.4a16.893,16.893,0,0,0-4.336-.376s1.71-.92,4.879.075l1.324-.593s-1.99-.391-2.576-.454S7.721.832,7.721.832a6.887,6.887,0,0,1,3.74.42A17.288,17.288,0,0,0,14.253.021Z" transform="matrix(0.839, -0.545, 0.545, 0.839, -3185.23, -146.467)"/><path class="d" d="M739.4,130.666s-15.967-.962-14.1,10.24a2.73,2.73,0,0,0,1.42,2.878s.029-.84,1.643-.55a7.358,7.358,0,0,0,1.735.084,3.6,3.6,0,0,0,2.122-.874h0s4.5-1.857,6.244-9.2c0,0,1.29-1.6,1.239-2.013L737,132.38a4.848,4.848,0,0,1,.2,3.563s-.088-3.492-.6-3.412c-.105,0-1.4.676-1.4.676s1.588,3.391.391,5.853c0,0,.454-4.177-.887-5.61l-1.9,1.126s1.853,3.5.6,6.358c0,0,.324-4.383-1-6.088l-1.719,1.345s1.74,3.45.681,5.82c0,0-.143-5.1-1.055-5.488a10.541,10.541,0,0,0-1.736,1.874s1.193,2.521.454,3.828c0,0-.454-3.4-.84-3.417a11.319,11.319,0,0,0-1.656,3.782,8.2,8.2,0,0,1,1.294-4.009,4.521,4.521,0,0,0-2.3,1.189s.235-1.593,2.668-1.731a11.494,11.494,0,0,1,1.571-1.815,9.842,9.842,0,0,0-3.887.451s1.29-1.5,4.328-.819l1.681-1.387s-3.188-.424-4.54.044c0,0,1.555-1.328,5-.361l1.849-1.105a16.892,16.892,0,0,0-4.336-.376s1.71-.92,4.879.075l1.324-.593s-1.99-.391-2.576-.454-.613-.223-.613-.223a6.886,6.886,0,0,1,3.739.42A17.293,17.293,0,0,0,739.4,130.666Z" transform="translate(-3975.684 -195.95)"/></g></svg>