<?xml version="1.0" encoding="utf-8"?>
<!-- Generator: Adobe Illustrator 24.0.1, SVG Export Plug-In . SVG Version: 6.00 Build 0)  -->
<svg version="1.1" id="Layer_1" xmlns="http://www.w3.org/2000/svg" xmlns:xlink="http://www.w3.org/1999/xlink" x="0px" y="0px"
	 viewBox="0 0 240.3 240.3" style="enable-background:new 0 0 240.3 240.3;" xml:space="preserve">
<style type="text/css">
	.st0{fill:#E2E2E2;}
	.st1{fill:#2F2E41;}
	.st2{fill:#FFB8B8;}
	.st3{fill:#58595B;}
</style>
<g id="Group_2921" transform="translate(-1225.835 -1544)">
	<rect id="Rectangle_916" x="1227.8" y="1577.9" class="st0" width="236.4" height="206.5"/>
	<path id="Path_159" class="st1" d="M1362.9,1627.6l-50.6-1v-70.3l50.6,5.2L1362.9,1627.6z"/>
	<path id="Path_160" class="st1" d="M1409.3,1784.3h-109.4c0.7-4,1.9-7.8,3.6-11.5c3.1-5.7,7-18.1,10.1-29.1
		c1.8-6.4,3.3-12.3,4.3-16.1c0.7-2.8,1.1-4.5,1.1-4.5l53.7-21.7c0,0,1.5,2.8,4,7.4c0,0.1,0.1,0.1,0.1,0.2c1.7,3.3,3.9,7.5,6.3,12.3
		h0C1392,1739,1404,1764.7,1409.3,1784.3z"/>
	<path id="Path_161" class="st2" d="M1322.6,1597.6l-7.2,36.2l24.8,2.1c0,0,4.1-32,5.2-33.1
		C1346.4,1601.8,1322.6,1597.6,1322.6,1597.6z"/>
	<circle id="Ellipse_57" class="st2" cx="1338.6" cy="1584.7" r="24.8"/>
	<path id="Path_162" class="st3" d="M1315.4,1623.5c0,0,23.8,5.2,24.8,4.1c1-1,28.9,4.1,31,13.4c2.1,9.3-3.1,45.5-3.1,45.5
		s11.4,5.2,10.3,7.2s6.2,4.1,4.1,7.2c-2.1,3.1-39.3,56.8-56.8,55.8s-49.6-117.8-49.6-117.8s1-14.5,14.5-14.5
		C1304,1624.5,1315.4,1623.5,1315.4,1623.5z"/>
	<path id="Path_163" class="st2" d="M1383.1,1706.7c0,0-14.5,3.3-11.9,9.9c2.6,6.6,18.1,4.6,18.1,4.6L1383.1,1706.7z"/>
	<path id="Path_164" class="st3" d="M1337.9,1784.3h-38c-1-0.1-2-0.1-3,0c-0.1-0.1-2.9-0.2-2.9-0.1c-0.3,0-0.7,0-0.7,0
		s-8.3-31-19.6-69.2c-10.1-33.9,0.2-68.7,2.6-76.1v0c0.3-0.9,0.5-1.4,0.5-1.4l9.3-7.2l31.9,97.5l8.4,25.5c0,0,0.3,1.4,0.7,3.6
		c1.4,6.5,4.5,19.9,7.6,22.2C1336.1,1780.5,1337.2,1782.3,1337.9,1784.3z"/>
	<path id="Path_165" class="st3" d="M1357.3,1637.4l12.9,1.3l29.5,36.9c0,0,11.4,10.3,4.1,14.5c-7.2,4.1-10.3,12.4-10.3,12.4
		s9.3,20.7-4.1,23.8c0,0-9.3-20.7-12.4-22.7c-3.1-2.1,4.1-10.3,4.1-10.3l-23.8-15.5L1357.3,1637.4z"/>
	<path id="Path_166" class="st1" d="M1338.6,1544.4c0,0-28.9-5.2-34.1,20.7c-1.2,6-2.1,12.1-2.4,18.2c-0.8,15-4.9,29.6-12,42.8l0,0
		l46.5,13.4c0,0-12.4-19.6-10.3-27.9c0.4-2.1,0.4-4.2-0.1-6.3c-11.7-7.2-15.3-22.5-8.1-34.1c7.2-11.7,22.5-15.3,34.1-8.1
		c11.7,7.2,15.3,22.5,8.1,34.1c-3.1,5.1-8,8.9-13.7,10.7c-3.5,7.5-5.3,15.7-0.7,21.3c5.9,7.2,12.9,13.5,20.7,18.6
		c0,0-5.2-24.8,3.1-39.3S1369.7,1546.5,1338.6,1544.4z"/>
	<path id="Path_167" class="st1" d="M1364.3,1577.6l-48.5,2.8l-1.3-22.7l42.2-1.5L1364.3,1577.6z"/>
</g>
</svg>
